<svg xmlns="http://www.w3.org/2000/svg" xmlns:svgjs="http://svgjs.com/svgjs" xmlns:xlink="http://www.w3.org/1999/xlink" width="288" height="288"><svg xmlns="http://www.w3.org/2000/svg" width="288" height="288" viewBox="0 0 1024 1024"><path fill="#888" d="M512.176 63.232c184.702 0.209 343.26 111.924 411.995 271.44l1.118 2.915c22.436 51.514 35.49 111.527 35.49 174.589s-13.053 123.075-36.605 177.485l1.116-2.896c-46.287 107.962-130.561 192.237-235.616 237.411l-2.907 1.112c-51.529 22.342-111.542 35.339-174.59 35.339-247.772 0-448.664-200.719-448.944-448.425v-0.027c-0.006-0.877-0.010-1.915-0.010-2.953 0-62.379 12.925-121.74 36.242-175.55l-1.103 2.86c46.674-107.913 130.962-192.201 235.955-237.747l2.919-1.128c50.95-22.214 110.311-35.139 172.69-35.139 1.038 0 2.075 0.004 3.112 0.011l-0.159-0.001zM512.878-0.703c-0.313-0.001-0.683-0.001-1.053-0.001-282.867 0-512.176 229.309-512.176 512.176s229.309 512.176 512.176 512.176c282.619 0 511.775-228.908 512.175-511.434v-0.038c0-282.743-229.109-511.975-511.805-512.176h-0.019zM760.535 449.998c10.539-70.257-43.208-108.548-116.978-133.84l23.887-95.901-58.314-14.754-23.185 93.442-46.721-10.89 22.834-94.145-57.962-14.403-24.239 95.901-37.236-8.782-79.742-20.726-15.457 62.529s43.208 9.836 42.154 10.539c15.478 1.839 27.367 14.886 27.367 30.709 0 1.559-0.115 3.091-0.338 4.589l0.021-0.169-27.049 108.899 5.972 2.108h-5.972l-38.29 150.351c-2.772 8.625-10.724 14.757-20.107 14.757-2.357 0-4.623-0.387-6.739-1.1l0.149 0.043s-43.56-10.539-43.56-10.539l-28.805 66.744 75.878 18.969 41.452 10.89-23.887 96.604 58.314 14.754 23.887-95.901c15.808 4.215 31.264 8.431 46.37 11.944l-23.887 95.55 58.314 14.403 24.239-96.604c99.414 18.618 175.643 11.241 205.503-78.688 6.782-13.3 10.756-29.008 10.756-45.645 0-42.74-26.23-79.354-63.47-94.623l-0.682-0.247c41.816-8.19 73.285-43.498 75.517-86.541l0.009-0.227zM627.398 636.882c-18.267 72.365-140.515 33.372-179.507 23.536l31.967-128.22c39.344 9.836 166.158 29.859 147.54 104.683zM645.313 448.944c-16.51 66.042-118.032 32.67-151.053 24.239l29.157-116.276c33.021 8.080 139.109 23.536 121.896 92.037z" class="color000 svgShape"/></svg></svg>