<svg xmlns="http://www.w3.org/2000/svg" xmlns:svgjs="http://svgjs.com/svgjs" xmlns:xlink="http://www.w3.org/1999/xlink" width="288" height="288"><svg xmlns="http://www.w3.org/2000/svg" width="288" height="288" viewBox="0 0 1024 1024"><path fill="#888" d="M243.752 367.118q40.885 0 72.53 17.692c20.778 11.568 37.49 28.22 48.809 48.314l0.324 0.626q17.489 31.249 17.499 70.929t-17.499 70.929c-11.646 20.719-28.358 37.37-48.499 48.615l-0.635 0.325q-31.644 17.682-72.53 17.682h-103.353v-275.113zM291.913 561.665q17.134-21.593 17.134-56.966t-17.094-56.996-48.161-21.623h-31.087v157.239h31.047q31.067 0 48.161-21.623zM408.267 595.509q-13.558-23.589-13.558-54.646t13.558-54.635c9.090-15.673 22.221-28.117 37.984-36.126l0.52-0.24q24.957-12.767 58.374-12.777t58.395 12.808c16.286 8.246 29.417 20.691 38.27 35.929l0.234 0.437q13.558 23.589 13.568 54.635t-13.568 54.646c-9.084 15.674-22.217 28.117-37.984 36.117l-0.52 0.239q-24.957 12.777-58.374 12.777t-58.374-12.777c-16.297-8.246-29.437-20.699-38.29-35.949l-0.234-0.437zM546.446 540.863q0-22.403-11.014-35.961t-30.266-13.568q-19.252 0-30.266 13.568t-11.004 35.961q0 22.424 11.004 35.971t30.266 13.558q19.252 0 30.266-13.558t11.014-35.971zM691.293 382.053q30.854-17.297 72.955-17.297 33.438 0 59.783 13.365c17.299 8.704 31.497 21.325 41.825 36.755l0.246 0.391q15.716 23.792 18.077 54.443h-72.398q-3.942-20.448-17.489-32.82t-34.005-12.331q-27.916 0-43.439 22.008t-15.533 58.182q0 36.174 15.533 58.182t43.439 22.008q20.438 0 34.005-12.382t17.489-32.82h72.327q-2.351 30.651-18.077 54.443c-10.58 15.798-24.777 28.398-41.452 36.803l-0.619 0.283q-26.345 13.355-59.783 13.365-42.071 0-72.955-17.297c-20.294-11.408-36.466-28.048-46.992-48.115l-0.308-0.644q-16.506-31.411-16.506-73.908t16.506-73.898c10.859-20.701 27.054-37.329 46.781-48.414l0.589-0.304zM512.005 68.092c245.123 0.146 443.779 198.891 443.779 444.035 0 182.742-110.392 339.701-268.127 407.828l-2.879 1.107c-50.42 21.574-109.089 34.117-170.688 34.117-245.234 0-444.035-198.801-444.035-444.035 0-182.051 109.558-338.514 266.34-407.052l2.858-1.114c50.743-22.056 109.85-34.888 171.954-34.888 0.281 0 0.561 0 0.842 0.001h-0.044zM512.005 5.37c-279.814 0-506.635 226.82-506.635 506.635s226.82 506.635 506.635 506.635 506.635-226.831 506.635-506.635-226.831-506.635-506.635-506.635z" class="color000 svgShape"/></svg></svg>