<svg xmlns="http://www.w3.org/2000/svg" xmlns:svgjs="http://svgjs.com/svgjs" xmlns:xlink="http://www.w3.org/1999/xlink" width="288" height="288"><svg xmlns="http://www.w3.org/2000/svg" width="288" height="288" viewBox="0 0 1024 1024"><path fill="#888" d="M366.804 507.891q-17.094-15.523-48.546-19.060 26.73-3.942 41.676-19.465t14.976-41.858q0-34.988-27.713-53.855-20.265-13.811-52.467-17.499v-32.769h-40.075v31.411h-22.191v-31.411h-40.055v31.411h-31.776v275.153h31.776v31.077h40.055v-31.077h22.191v31.077h40.044v-31.888q37.805-3.313 60.715-20.215 28.503-21.035 28.503-57.199 0-28.301-17.114-43.834zM232.971 409.422h37.734q14.936 0 23.386 7.468t8.451 20.053q0 12.565-8.451 20.042t-23.386 7.468h-37.734zM300.779 567.492q-8.846 7.468-24.572 7.468h-43.236v-56.652h43.236q15.736 0 24.572 7.468t8.846 20.833q0 13.375-8.846 20.823zM387.849 416.109h74.293v213.84h72.327v-213.84h74.303v-61.323h-220.923v61.323zM776.033 560.176q-13.568 12.392-34.005 12.382-27.916 0-43.439-22.008t-15.533-58.182q0-36.174 15.533-58.182t43.439-22.008q20.448 0 34.005 12.382t17.489 32.82h72.327q-2.351-30.651-18.077-54.443c-10.573-15.819-24.767-28.439-41.443-36.863l-0.618-0.283q-26.345-13.375-59.783-13.365-42.071 0-72.955 17.297c-20.298 11.406-36.473 28.047-47.002 48.115l-0.308 0.643q-16.506 31.411-16.506 73.908t16.506 73.898c10.852 20.721 27.048 37.367 46.782 48.464l0.588 0.304q30.854 17.297 72.955 17.297 33.438 0 59.783-13.365c17.292-8.71 31.486-21.33 41.814-36.755l0.247-0.391q15.716-23.792 18.077-54.443h-72.388q-3.942 20.407-17.489 32.779zM534.814 702.672h-19.131l-16.445 25.656-16.091-25.656h-21.228l25.423 40.004-26.7 41.635h19.009l17.722-27.409 17.378 27.409h21.339l-26.7-41.635 25.423-40.004zM512.005 68.092c245.123 0.146 443.779 198.891 443.779 444.035 0 182.742-110.392 339.701-268.127 407.828l-2.879 1.107c-50.42 21.574-109.089 34.117-170.688 34.117-245.234 0-444.035-198.801-444.035-444.035 0-182.051 109.558-338.514 266.34-407.052l2.858-1.114c50.743-22.056 109.85-34.888 171.954-34.888 0.281 0 0.561 0 0.842 0.001h-0.044zM512.005 5.37c-279.814 0-506.635 226.82-506.635 506.635s226.82 506.635 506.635 506.635 506.635-226.831 506.635-506.635-226.831-506.635-506.635-506.635z" class="color000 svgShape"/></svg></svg>