<?xml version="1.0" encoding="UTF-8"?>
<svg width="32px" height="32px" viewBox="0 0 32 32" version="1.1" xmlns="http://www.w3.org/2000/svg" xmlns:xlink="http://www.w3.org/1999/xlink">
    <title>Signifier 3</title>
    <g id="🟢Prototypes-Desktop" stroke="none" stroke-width="1" fill="none" fill-rule="evenodd">
        <g id="0401-Transaction-Status-/-Waiting-for-signature" transform="translate(-242.000000, -443.000000)">
            <g id="Status-Copy" transform="translate(38.000000, 443.000000)">
                <g id="Signifier" transform="translate(204.000000, 0.000000)">
                    <circle id="Ellipse-4" fill="#F7F7F7" fill-rule="nonzero" cx="16" cy="16" r="16"></circle>
                    <g id="PenNib" transform="translate(4.000000, 4.000000)">
                        <rect id="Rectangle" x="0" y="0" width="24" height="24"></rect>
                        <circle id="Oval" stroke="#2B2C36" stroke-width="1.5" stroke-linecap="round" stroke-linejoin="round" cx="10.875" cy="13.125" r="1.875"></circle>
                        <line x1="3.00054937" y1="21.0003206" x2="9.54917437" y2="14.4508256" id="Path" stroke="#2B2C36" stroke-width="1.5" stroke-linecap="round" stroke-linejoin="round"></line>
                        <path d="M3.00054937,21.0003206 L16.0735866,18.8214769 C16.3378052,18.7774404 16.5584809,18.5958324 16.6525341,18.3450244 L18.7505494,12.7503169 L11.2505494,5.25031688 L5.65584375,7.34833594 C5.40503534,7.44238883 5.22342692,7.66306463 5.17939031,7.92728344 L3.00054937,21.0003206 Z" id="Path" stroke="#2B2C36" stroke-width="1.5" stroke-linecap="round" stroke-linejoin="round"></path>
                        <path d="M18.7505494,12.7503206 L21.2202187,10.2806503 C21.3608711,10.139998 21.4398887,9.94923256 21.4398887,9.75032016 C21.4398887,9.55140775 21.3608711,9.36064229 21.2202187,9.21999 L14.7808781,2.78065031 C14.487985,2.48775762 14.0131119,2.48775762 13.7202187,2.78065031 L11.2505494,5.25032062" id="Path" stroke="#2B2C36" stroke-width="1.5" stroke-linecap="round" stroke-linejoin="round"></path>
                    </g>
                </g>
            </g>
        </g>
    </g>
</svg>