<?xml version="1.0" encoding="utf-8"?>
<!-- Generator: Adobe Illustrator 27.4.0, SVG Export Plug-In . SVG Version: 6.00 Build 0)  -->
<svg version="1.1" id="Layer_1" xmlns="http://www.w3.org/2000/svg" xmlns:xlink="http://www.w3.org/1999/xlink" x="0px" y="0px"
	 viewBox="0 0 339 357.8" style="enable-background:new 0 0 339 357.8;" xml:space="preserve">
<style type="text/css">
	.st0{fill:#4B5CF0;}
	.st1{fill:#FBFBFB;}
</style>
<path class="st0" d="M170.5,7.1L170.5,7.1c91.9,0,166.5,74.5,166.5,166.5l0,0c0,91.9-74.5,166.5-166.5,166.5l0,0
	C78.5,340,4,265.5,4,173.5l0,0C4,81.6,78.5,7.1,170.5,7.1z"/>
<path class="st1" d="M255.2,89.6v173.2h-37.3v-90.5h-30.7c-3.6,0-7,1.3-9.7,3.7c-1.5,1.4-2.7,3-3.5,4.9c-0.8,1.8-1.2,3.8-1.2,5.9
	v20.9c0,5.6-4.6,10.2-10.2,10.2h-24.9c-5.6,0-10.2-4.6-10.2-10.2v-25.2c0-5.6,4.6-10.2,10.2-10.2H160c3,0,5.9-1.1,8.2-3
	c1.4-1.2,2.6-2.7,3.3-4.3c0.8-1.7,1.2-3.5,1.2-5.3v-32.9H82.4V89.6H255.2z"/>
<path class="st1" d="M127.5,240.4v0.4c0,12.5-10.1,22.6-22.6,22.6c-12.5,0-22.6-10.1-22.6-22.6v-0.4c0-12.5,10.1-22.6,22.6-22.6
	c6.2,0,11.9,2.5,16,6.6C125,228.6,127.5,234.2,127.5,240.4z"/>
</svg>
