<svg id="Layer_1" data-name="Layer 1" xmlns="http://www.w3.org/2000/svg" viewBox="0 0 185.83 150"><defs><style>.cls-1{fill:#fff;}.cls-2{fill:#0083ff;}.cls-3{fill:#006e36;}.cls-4{fill:#00b22b;}</style></defs><path class="cls-1" d="M75,150A75,75,0,0,1,75,0a74.07,74.07,0,0,1,34.1,8.19A75.62,75.62,0,0,1,131,25.13c.44-.25.88-.5,1.33-.74a43,43,0,0,1,20.4-4.9c.6,0,1.21,0,1.81,0,13.74.49,23,4.23,25.47,5.63l2.56,1.51a6.57,6.57,0,0,1,3.18,6.51l-.16,1.26,0,.2c-1.28,19.17-9.74,33.84-23.82,41.29-.85.45-1.64.84-2.43,1.19A40.49,40.49,0,0,1,149.83,80,75.1,75.1,0,0,1,75,150Z"/><path class="cls-2" d="M143.42,75A68.42,68.42,0,1,1,75,6.58,68.42,68.42,0,0,1,143.42,75"/><rect class="cls-1" x="69.02" y="16.98" width="7.42" height="7.42" rx="2.67"/><rect class="cls-1" x="69.02" y="27.36" width="7.42" height="7.42" rx="2.67"/><rect class="cls-1" x="37.88" y="55.53" width="7.42" height="7.42" rx="2.67"/><rect class="cls-1" x="49.74" y="55.53" width="7.42" height="7.42" rx="2.67"/><rect class="cls-1" x="57.16" y="37.74" width="17.8" height="7.42" rx="2.67"/><rect class="cls-1" x="58.64" y="55.53" width="7.42" height="17.8" rx="2.67"/><rect class="cls-1" x="85.33" y="55.53" width="23.73" height="7.42" rx="2.67"/><rect class="cls-1" x="45.29" y="46.64" width="23.73" height="7.42" rx="2.67"/><rect class="cls-1" x="100.17" y="46.64" width="7.42" height="7.42" rx="2.67"/><rect class="cls-1" x="80.89" y="67.4" width="17.8" height="7.42" rx="2.67"/><rect class="cls-1" x="80.89" y="76.3" width="7.42" height="7.42" rx="2.67"/><rect class="cls-1" x="80.89" y="86.68" width="7.42" height="7.42" rx="2.67"/><rect class="cls-1" x="79.4" y="21.42" width="7.42" height="23.73" rx="2.67"/><rect class="cls-1" x="70.5" y="62.95" width="7.42" height="23.73" rx="2.67"/><rect class="cls-1" x="89.78" y="33.29" width="7.42" height="17.8" rx="2.67"/><path class="cls-3" d="M123,64l47.53-27.5s1-9.83-17.33-9.64-28.77,12.2-30.15,23S123,64,123,64"/><path class="cls-4" d="M171.29,35.34,123.76,62.83s-1,9.84,17.33,9.65,28.77-12.21,30.16-23,0-14.13,0-14.13"/><path class="cls-1" d="M176.74,30.85c-1.16-.67-9.38-4.28-22.41-4.75a36.78,36.78,0,0,0-18.89,4.11,33.2,33.2,0,0,0-5.12,3.34c-11.77,9.27-12.07,20.7-12.86,27.3l-9.31,4.56a3.88,3.88,0,1,0,3.21,7.06h0l.13-.07h0l2.12-1.12L117.92,69,120,68c5.07,2.6,11.62,5.76,20.64,6.09a35.74,35.74,0,0,0,16-3c.69-.31,1.37-.65,2-1C178,59.87,178.84,36.59,179.06,33.78l.19-1.45Zm-5.58,6.73,0,.1c-1.33,7.34-5.26,20.57-16.57,26.56l-.31.15a30.22,30.22,0,0,1-14,3.21,38.56,38.56,0,0,1-10-1.78l-2.82-1.21L130.54,63l11.65-6.16a4.61,4.61,0,0,0,2.27-2.75,4.56,4.56,0,0,0,.19-1.21c0-.65.38-.84.13-1.45a4,4,0,0,0-.19-.43l-.07-.11s0,0,0,0c-.8-1.4-2.25-1.8-3.88-1.86a4.58,4.58,0,0,0-2.35.55l-11.56,6.1-2.19,1.15s1.92-14.78,12.34-20c.81-.41,1.55-1,2.38-1.45a27.69,27.69,0,0,1,14.16-3,47.58,47.58,0,0,1,16.39,3.87l.76.33.65.26Z"/><path class="cls-1" d="M31.31,103.91h5.75c5.31,0,8.8,3.1,8.8,7.69s-3.55,7.64-8.8,7.64H31.31Zm5.75,2.78H34.8v9.7h2.26c3.11,0,5.25-1.87,5.25-4.85s-2.14-4.79-5.25-4.85Z"/><path class="cls-1" d="M55.76,103.39c5.05,0,8.48,3.36,8.48,8.21s-3.43,8.16-8.48,8.16-8.47-3.3-8.47-8.16S50.72,103.39,55.76,103.39Zm0,13.26a5.12,5.12,0,1,0-4.85-5.11A4.8,4.8,0,0,0,55.76,116.65Z"/><path class="cls-1" d="M66.37,119.24V103.91H70v12.22h6.4v3.11Z"/><path class="cls-1" d="M78.28,119.24V103.91H81.9v12.22h6.41v3.11Z"/><path class="cls-1" d="M104.36,119.24h-3.82l-.91-2.78H93.49l-.85,2.78H88.83L94,103.91h5.24Zm-10.1-5.37h4.66L96.59,107Z"/><path class="cls-1" d="M105.84,103.91h7.45c3.55,0,6,2.07,6,5.11a4.5,4.5,0,0,1-3.36,4.33l3.69,5.83h-4l-3-5.38h-3.1v5.38h-3.63Zm3.56,2.71v4.66h3.24c1.68,0,3-.9,3-2.33s-1.29-2.39-3-2.39Z"/></svg>