<svg
   width="32"
   height="29.743313"
   viewBox="0 0 32 29.743313"
   version="1.1"
   id="svg21"
   >
  <defs
     id="defs4">
    <clipPath
       id="clip-path">
      <rect
         id="Rectangle_55"
         data-name="Rectangle 55"
         width="32"
         height="29.746"
         x="0"
         y="0"
         style="fill:none" />
    </clipPath>
  </defs>
  <g
     id="sovryn_fastbtc"
     transform="translate(-10,-10)">
    <g
       id="Group_540"
       data-name="Group 540"
       transform="translate(10,10)">
      <g
         id="Group_88"
         data-name="Group 88"
         clip-path="url(#clip-path)">
        <path
           id="Path_34"
           data-name="Path 34"
           d="m 74.137,72.355 -0.387,0.521 -1.463,1.965 -1.219,1.64 a 0.957,0.957 0 0 1 -1.535,0 l -1.165,-1.564 -0.464,-0.625 -2.415,-3.247 h 5.6 a 1.231,1.231 0 0 0 1.236,-1.226 v -0.01 a 0.978,0.978 0 0 0 -0.014,-0.17 0.165,0.165 0 0 0 0.034,0 2.035,2.035 0 0 1 1.114,0.387 1.734,1.734 0 0 1 0.545,1.1 c 0.071,0.4 0.1,0.816 0.134,1.23"
           transform="translate(-54.545,-58.003)"
           style="fill:#ffffff" />
        <path
           id="Path_35"
           data-name="Path 35"
           d="M 65.483,38.733 A 2.886,2.886 0 0 0 65.413,38 2.407,2.407 0 0 0 65.284,37.63 1.669,1.669 0 0 0 65.064,37.288 2.671,2.671 0 0 0 63.72,36.475 5.278,5.278 0 0 0 62.3,36.2 h -0.03 c 0,0 -0.01,0 -0.017,0 v 0 h -7.318 a 9.733,9.733 0 0 1 0.679,-2.09 7.748,7.748 0 0 1 1.207,-1.807 4.792,4.792 0 0 1 1.679,-1.203 4.279,4.279 0 0 1 1.776,-0.318 0.877,0.877 0 0 0 -0.012,0.158 1.235,1.235 0 0 0 1.236,1.233 h 9.657 l -5.771,7.761 c 0.042,-0.4 0.087,-0.788 0.095,-1.2"
           transform="translate(-45.755,-25.634)"
           style="fill:#ffffff" />
        <path
           id="Path_36"
           data-name="Path 36"
           d="m 25.984,4.324 c -0.1,0 -0.194,0 -0.292,0.009 a 5.265,5.265 0 0 0 -2.2,0.659 5.448,5.448 0 0 0 -1.745,1.6 8.3,8.3 0 0 0 -1.035,2.044 10.282,10.282 0 0 0 -0.5,2.195 L 13.525,1.841 A 0.957,0.957 0 0 1 14.3,0.315 H 39.435 A 0.956,0.956 0 0 1 40.2,1.842 L 38.35,4.329 H 26.86 c -0.243,0 -0.657,0 -0.876,-0.005"
           transform="translate(-11.11,-0.262)"
           style="fill:#ffffff" />
        <path
           id="Path_37"
           data-name="Path 37"
           d="m 80.4,98.1 c 0,0 0,0 -0.007,0 l -0.385,-0.516 a 1.16,1.16 0 0 1 -0.072,-0.112 z"
           transform="translate(-66.582,-81.186)"
           style="fill:#ffffff" />
        <path
           id="Path_38"
           data-name="Path 38"
           d="m 15.007,20.487 3.715,4.992 -0.048,0.09 -1.843,3.531 A 1.194,1.194 0 0 1 14.706,29.088 L 12.886,25.5 6.586,13.044 5.331,10.569 0,0.03 0.052,0 l 7.7,10.569 1.8,2.472 5.287,7.259 a 1.062,1.062 0 0 0 0.168,0.187"
           style="fill:#ffffff" />
        <path
           id="Path_39"
           data-name="Path 39"
           d="m 114.337,0.033 -7.744,14.842 -1.025,1.965 -3.9,7.486 -2.807,-3.77 a 1.111,1.111 0 0 0 0.244,-0.24 l 2.6,-3.474 1.471,-1.965 6.23,-8.334 1.042,-1.394 L 114.287,0 Z"
           transform="translate(-82.337,-0.002)"
           style="fill:#ffffff" />
      </g>
    </g>
  </g>
</svg>
