<?xml version="1.0" encoding="UTF-8"?><svg id="Layer_1" xmlns="http://www.w3.org/2000/svg" viewBox="0 0 477.29 156.43"><defs><style>.cls-1{fill:#fff;stroke-width:0px;}</style></defs><path class="cls-1" d="m196.93,66V4.82h8.17v61.18h-8.17Zm5.08-22.01v-7.25h16.34c2.55,0,4.75-.53,6.58-1.58,1.83-1.06,3.25-2.51,4.25-4.38,1-1.86,1.5-3.99,1.5-6.38s-.5-4.51-1.5-6.38c-1-1.86-2.42-3.33-4.25-4.42-1.84-1.08-4.03-1.62-6.58-1.62h-16.34v-7.17h14.84c4.45,0,8.34.67,11.67,2,3.34,1.33,5.92,3.39,7.75,6.17,1.83,2.78,2.75,6.36,2.75,10.75v1.33c0,4.39-.93,7.98-2.79,10.75-1.86,2.78-4.45,4.83-7.75,6.17-3.31,1.33-7.18,2-11.63,2h-14.84Zm32.51,22.01l-20.17-27.09h9.59l20.51,27.09h-9.92Z"/><path class="cls-1" d="m255.45,66V5.15h8.17v60.85h-8.17Z"/><path class="cls-1" d="m281.45,66V5.15h8.17v60.85h-8.17Zm6.5-53.51v-7.34h27.51v7.34h-27.51Zm0,26.42v-7.34l26.09-.08v7.34l-26.09.08Z"/><path class="cls-1" d="m374.39,67.5c-5.45,0-10.14-.97-14.09-2.92-3.95-1.94-7.2-4.5-9.75-7.67-2.56-3.17-4.46-6.56-5.71-10.17-1.25-3.61-1.88-7.09-1.88-10.42v-1.83c0-3.61.64-7.25,1.92-10.92,1.28-3.67,3.22-7.02,5.83-10.04,2.61-3.03,5.88-5.46,9.8-7.29,3.92-1.83,8.54-2.75,13.88-2.75s9.96.92,13.88,2.75c3.92,1.83,7.18,4.26,9.8,7.29,2.61,3.03,4.56,6.38,5.83,10.04,1.28,3.67,1.92,7.31,1.92,10.92v1.83c0,3.33-.63,6.81-1.88,10.42-1.25,3.61-3.15,7-5.71,10.17-2.56,3.17-5.81,5.72-9.75,7.67-3.94,1.94-8.64,2.92-14.09,2.92Zm0-7.5c3.56,0,6.76-.67,9.63-2s5.29-3.15,7.29-5.46,3.53-4.92,4.58-7.84c1.06-2.92,1.58-5.99,1.58-9.21,0-3.39-.53-6.56-1.58-9.5-1.06-2.94-2.58-5.54-4.58-7.79s-4.43-4.01-7.29-5.29c-2.86-1.28-6.07-1.92-9.63-1.92s-6.77.64-9.63,1.92c-2.86,1.28-5.29,3.04-7.29,5.29s-3.53,4.85-4.58,7.79c-1.06,2.95-1.58,6.11-1.58,9.5s.53,6.29,1.58,9.21c1.05,2.92,2.58,5.53,4.58,7.84s4.43,4.13,7.29,5.46c2.86,1.33,6.07,2,9.63,2Z"/><path class="cls-1" d="m419.23,66V5.15h13.34l30.92,53.51h2.67l-1.67,1.5V5.15h7.84v60.85h-13.5l-30.92-53.51h-2.67l1.67-1.5v55.01h-7.67Z"/><path class="cls-1" d="m223.36,152.94c-5.56,0-10.3-.97-14.21-2.92-3.92-1.94-7.07-4.47-9.46-7.59-2.39-3.11-4.14-6.49-5.25-10.13-1.11-3.64-1.67-7.15-1.67-10.54v-1.83c0-3.67.57-7.34,1.71-11,1.14-3.67,2.9-7,5.29-10,2.39-3,5.5-5.42,9.33-7.25,3.84-1.83,8.42-2.75,13.75-2.75s10.11.95,14,2.83c3.89,1.89,6.97,4.53,9.25,7.92,2.28,3.39,3.67,7.39,4.17,12h-8.33c-.45-3.44-1.56-6.29-3.34-8.54-1.78-2.25-4.01-3.93-6.71-5.04-2.7-1.11-5.71-1.67-9.04-1.67-3.61,0-6.78.63-9.5,1.88s-4.99,3-6.79,5.25c-1.81,2.25-3.17,4.85-4.08,7.79-.92,2.95-1.37,6.14-1.37,9.59s.46,6.39,1.37,9.34c.92,2.95,2.3,5.56,4.17,7.84,1.86,2.28,4.18,4.07,6.96,5.38,2.78,1.31,6.03,1.96,9.75,1.96,5.22,0,9.61-1.3,13.17-3.92,3.56-2.61,5.72-6.39,6.5-11.34h8.34c-.56,4.17-1.96,7.98-4.21,11.42-2.25,3.45-5.36,6.2-9.33,8.25-3.97,2.05-8.8,3.08-14.46,3.08Z"/><path class="cls-1" d="m263.2,151.44v-60.85h8.17v60.85h-8.17Zm6.5-26.59v-7.34h36.34v7.34h-36.34Zm34.67,26.59v-60.85h8.17v60.85h-8.17Z"/><path class="cls-1" d="m323.71,151.44l21.92-60.85h13.84l22.59,60.85h-8.42l-20.42-55.51,4,2h-9.83l4.25-2-19.75,55.51h-8.17Zm13.09-18.17l2.75-7.34h26.26l2.75,7.34h-31.76Z"/><path class="cls-1" d="m393.4,151.44v-60.85h8.17v60.85h-8.17Z"/><path class="cls-1" d="m419.4,151.44v-60.85h13.34l30.92,53.51h2.67l-1.67,1.5v-55.01h7.84v60.85h-13.5l-30.92-53.51h-2.67l1.67-1.5v55.01h-7.67Z"/><path class="cls-1" d="m128.22,104.36H16.28c-6.34,0-11.49-5.16-11.49-11.49V16.61c0-6.37,5.18-11.55,11.55-11.55h111.88v9.8H16.34c-.97,0-1.75.79-1.75,1.75v76.26c0,.93.76,1.69,1.69,1.69h111.93v9.8Z"/><path class="cls-1" d="m150.93,150.11H39.1v-9.8h111.83c.99,0,1.79-.8,1.79-1.79V62.5c0-1.04-.85-1.88-1.88-1.88H39.1v-9.8h111.74c6.45,0,11.69,5.24,11.69,11.69v76.02c0,6.39-5.2,11.6-11.6,11.6Z"/></svg>