<?xml version="1.0" encoding="UTF-8"?>
<svg id="Layer_2" data-name="Layer 2" xmlns="http://www.w3.org/2000/svg" viewBox="0 0 360.07 189.91">
  <defs>
    <style>
      .cls-1 {
        fill: #fff;
      }
    </style>
  </defs>
  <g>
    <path class="cls-1" d="m153.56,149.55c-1.77,0-3.32-.31-4.64-.93-1.32-.62-2.4-1.43-3.26-2.45-.86-1.01-1.5-2.11-1.92-3.29-.42-1.18-.63-2.32-.63-3.41v-.59c0-1.22.22-2.42.66-3.61.44-1.19,1.1-2.27,1.98-3.24.88-.97,1.97-1.74,3.28-2.32,1.31-.58,2.82-.87,4.54-.87s3.23.29,4.54.87,2.4,1.36,3.28,2.32c.88.97,1.54,2.05,1.99,3.24.45,1.19.67,2.4.67,3.61v.59c0,1.09-.21,2.23-.65,3.41-.43,1.18-1.07,2.28-1.93,3.29-.86,1.01-1.95,1.83-3.27,2.45-1.32.62-2.86.93-4.64.93Zm0-4.11c.93,0,1.77-.16,2.51-.48.74-.32,1.38-.77,1.91-1.34.53-.57.93-1.24,1.2-1.99.27-.75.4-1.56.4-2.42,0-.91-.14-1.75-.42-2.51s-.68-1.42-1.21-1.99c-.53-.56-1.16-1-1.89-1.3-.73-.3-1.57-.46-2.5-.46s-1.77.15-2.5.46-1.37.74-1.89,1.3c-.53.56-.93,1.23-1.2,1.99-.27.76-.4,1.6-.4,2.51,0,.86.13,1.67.4,2.42.27.75.67,1.42,1.2,1.99.53.57,1.16,1.02,1.89,1.34.73.32,1.57.48,2.5.48Z"/>
    <path class="cls-1" d="m171,149.04v-19.62h7.23l7.39,16.04h.91l-.54.48v-16.53h4.14v19.62h-7.28l-7.39-16.04h-.91l.54-.48v16.53h-4.08Z"/>
    <path class="cls-1" d="m216.44,149.55c-1.77,0-3.3-.31-4.57-.93-1.27-.62-2.31-1.43-3.12-2.45-.81-1.01-1.4-2.1-1.79-3.28-.39-1.17-.58-2.31-.58-3.43v-.59c0-1.22.2-2.42.59-3.61s1-2.27,1.81-3.24c.81-.97,1.84-1.74,3.09-2.32,1.25-.58,2.72-.87,4.42-.87s3.34.33,4.7.99c1.36.66,2.45,1.58,3.27,2.75.81,1.17,1.29,2.55,1.44,4.12h-4.43c-.13-.79-.41-1.46-.86-2.02-.45-.55-1.03-.99-1.73-1.29s-1.5-.46-2.38-.46-1.66.15-2.34.46c-.68.3-1.25.74-1.71,1.29-.46.56-.81,1.21-1.05,1.97-.24.76-.36,1.61-.36,2.54s.12,1.75.36,2.51.6,1.42,1.07,1.99,1.06.99,1.76,1.29c.7.29,1.5.44,2.39.44,1.36,0,2.51-.33,3.45-.99.94-.66,1.51-1.58,1.71-2.74h4.41c-.16,1.43-.64,2.75-1.44,3.94-.8,1.19-1.88,2.14-3.25,2.85-1.37.71-3,1.06-4.88,1.06Z"/>
    <path class="cls-1" d="m232.56,149.04v-19.62h4.41v19.62h-4.41Zm3.63-7.93v-3.87h9.84v3.87h-9.84Zm9.06,7.93v-19.62h4.41v19.62h-4.41Z"/>
    <path class="cls-1" d="m255.83,149.04l6.48-19.62h7.12l6.72,19.62h-4.57l-5.43-16.58,1.4.56h-3.47l1.45-.56-5.29,16.58h-4.41Zm4.92-4.86l1.34-3.65h7.69l1.37,3.65h-10.4Z"/>
    <path class="cls-1" d="m282.38,149.04v-19.62h4.41v19.62h-4.41Z"/>
    <path class="cls-1" d="m294.88,149.04v-19.62h7.23l7.39,16.04h.91l-.54.48v-16.53h4.14v19.62h-7.28l-7.39-16.04h-.91l.54-.48v16.53h-4.08Z"/>
  </g>
  <path class="cls-1" d="m192.81,83.08v-2.02c6.62-2.7,10.69-8.42,10.69-17.85v-1.35c0-12.57-9.32-20.99-24.47-20.99l-35.98.06-.05,77.74h16.75v-28.85h23.3c2.52,0,4.56,2.04,4.56,4.56v24.29h16.5v-24.92c0-6.29-5.35-10.33-11.3-10.67Zm-7.84-16.7c0,4.83-3.19,8.01-8.62,8.01h-16.66v-16.89h16.66c5.52,0,8.62,3.19,8.62,8.01v.86Z"/>
  <path class="cls-1" d="m118.02,40.87v77.8h-16.73v-40.63h-13.77c-1.61,0-3.16.6-4.35,1.68-.68.62-1.21,1.36-1.58,2.18-.37.82-.56,1.72-.56,2.63v9.38c0,2.52-2.04,4.56-4.56,4.56h-11.14c-2.52,0-4.56-2.04-4.56-4.56v-11.31c0-2.52,2.04-4.56,4.56-4.56h10.01c1.34,0,2.63-.48,3.66-1.33.64-.54,1.15-1.21,1.49-1.95.35-.74.53-1.56.53-2.39v-14.76h-40.48v-16.73h77.47Z"/>
  <path class="cls-1" d="m60.78,108.6v.17c0,5.59-4.54,10.13-10.13,10.13s-10.13-4.53-10.13-10.13v-.17c0-5.59,4.53-10.13,10.13-10.13,2.79,0,5.33,1.13,7.16,2.96,1.84,1.84,2.97,4.37,2.97,7.16Z"/>
  <path class="cls-1" d="m281.62,57.6v15.2h32.55v15.37h-28.11c-2.45,0-4.44,1.98-4.44,4.44v26.06h-16.73V40.86h54.8v16.74h-38.07Z"/>
  <path class="cls-1" d="m242.19,55.53v48.9h10.06v14.48h-37.12v-14.48h10.06v-48.9h-10.06v-14.67h37.12v14.67h-10.06Z"/>
</svg>