<svg width="293" height="96" viewBox="0 0 293 96" fill="none" xmlns="http://www.w3.org/2000/svg">
<path d="M117.282 41.2359V2.83682H124.819V41.2359H117.282ZM140.953 41.2359L129.064 24.6224H137.503L149.763 41.2359H140.953ZM122.589 28.4885V22.4804H132.461C133.841 22.4804 135.026 22.2018 136.017 21.6445C137.043 21.0873 137.839 20.3036 138.405 19.2936C138.971 18.2835 139.255 17.1342 139.255 15.8455C139.255 14.522 138.971 13.3552 138.405 12.3452C137.839 11.3351 137.043 10.5515 136.017 9.9942C135.026 9.43694 133.841 9.1583 132.461 9.1583H122.589V2.83682H131.665C134.779 2.83682 137.468 3.2896 139.732 4.19516C142.032 5.10071 143.801 6.47646 145.039 8.3224C146.278 10.1683 146.897 12.4845 146.897 15.2708V16.1067C146.897 18.9279 146.26 21.244 144.986 23.0551C143.748 24.8662 141.997 26.2246 139.732 27.1301C137.468 28.0357 134.779 28.4885 131.665 28.4885H122.589Z" fill="#4B5CF0"/>
<path d="M155.587 41.2359V3.09804H163.123V41.2359H155.587Z" fill="#4B5CF0"/>
<path d="M172.791 41.2359V3.09804H180.328V41.2359H172.791ZM179.266 25.3538V19.0846L194.764 19.0324V25.3016L179.266 25.3538ZM179.266 9.36728V3.09804H195.507V9.36728H179.266Z" fill="#4B5CF0"/>
<path d="M228.822 42.2276C225.319 42.2276 222.276 41.6181 219.693 40.3991C217.146 39.1801 215.023 37.5953 213.325 35.6449C211.662 33.6597 210.405 31.5351 209.556 29.2712C208.743 26.9725 208.336 24.7608 208.336 22.6362V21.4869C208.336 19.1533 208.76 16.8372 209.609 14.5385C210.459 12.2049 211.732 10.0978 213.431 8.21699C215.164 6.33622 217.305 4.83857 219.853 3.72404C222.4 2.57468 225.39 2 228.822 2C232.219 2 235.191 2.57468 237.738 3.72404C240.286 4.83857 242.409 6.33622 244.107 8.21699C245.841 10.0978 247.132 12.2049 247.981 14.5385C248.831 16.8372 249.255 19.1533 249.255 21.4869V22.6362C249.255 24.7608 248.831 26.9725 247.981 29.2712C247.168 31.5351 245.912 33.6597 244.213 35.6449C242.55 37.5953 240.427 39.1801 237.844 40.3991C235.297 41.6181 232.289 42.2276 228.822 42.2276ZM228.822 35.3315C230.803 35.3315 232.572 34.9832 234.129 34.2866C235.721 33.59 237.066 32.6322 238.163 31.4132C239.295 30.1593 240.144 28.7488 240.71 27.1814C241.312 25.5793 241.613 23.8901 241.613 22.1138C241.613 20.1982 241.312 18.4393 240.71 16.8372C240.144 15.2351 239.295 13.8419 238.163 12.6577C237.066 11.4735 235.721 10.5505 234.129 9.88879C232.537 9.22704 230.768 8.89617 228.822 8.89617C226.841 8.89617 225.054 9.22704 223.462 9.88879C221.869 10.5505 220.507 11.4735 219.375 12.6577C218.278 13.8419 217.429 15.2351 216.827 16.8372C216.261 18.4393 215.978 20.1982 215.978 22.1138C215.978 23.8901 216.261 25.5793 216.827 27.1814C217.429 28.7488 218.278 30.1593 219.375 31.4132C220.507 32.6322 221.869 33.59 223.462 34.2866C225.054 34.9832 226.841 35.3315 228.822 35.3315Z" fill="#4B5CF0"/>
<path d="M256.539 41.235V3.09712H268.905L285.198 35.0702H286.95L285.888 36.0106V3.09712H293V41.235H280.581L264.287 9.26187H262.483L263.544 8.32149V41.235H256.539Z" fill="#4B5CF0"/>
<path d="M134.743 92C131.24 92 128.233 91.3905 125.721 90.1715C123.209 88.9525 121.157 87.3678 119.564 85.4173C118.007 83.4669 116.858 81.3423 116.115 79.0436C115.372 76.7449 115 74.5332 115 72.4087V71.2593C115 68.8909 115.372 66.5574 116.115 64.2586C116.893 61.9599 118.078 59.8702 119.67 57.9894C121.263 56.1086 123.279 54.611 125.721 53.4965C128.198 52.3471 131.117 51.7724 134.478 51.7724C137.981 51.7724 141.024 52.3993 143.607 53.6532C146.225 54.8722 148.312 56.6137 149.869 58.8775C151.426 61.1066 152.364 63.7188 152.682 66.7141H145.093C144.81 64.9726 144.173 63.5098 143.182 62.3256C142.227 61.1066 141.006 60.201 139.52 59.609C138.034 58.982 136.353 58.6686 134.478 58.6686C132.567 58.6686 130.869 58.9995 129.383 59.6612C127.897 60.2881 126.658 61.1937 125.668 62.3779C124.677 63.562 123.916 64.9552 123.386 66.5574C122.89 68.1595 122.643 69.9358 122.643 71.8862C122.643 73.767 122.89 75.5084 123.386 77.1106C123.916 78.7127 124.695 80.1233 125.721 81.3423C126.747 82.5265 128.003 83.4495 129.489 84.1112C131.01 84.773 132.762 85.1039 134.743 85.1039C137.645 85.1039 140.086 84.4073 142.067 83.0141C144.084 81.5861 145.305 79.6009 145.729 77.0583H153.319C152.965 79.775 152.027 82.2653 150.506 84.5292C148.985 86.7931 146.897 88.6042 144.243 89.9625C141.59 91.3209 138.423 92 134.743 92Z" fill="#4B5CF0"/>
<path d="M183.101 91.0074V52.8695H190.637V91.0074H183.101ZM157.679 91.0074V52.8695H165.215V91.0074H157.679ZM163.835 75.1776V68.6471H184.481V75.1776H163.835Z" fill="#4B5CF0"/>
<path d="M196.357 91.0074L209.573 52.8695H221.886L235.472 91.0074H227.724L216.207 57.9372L218.914 59.0865H212.279L215.039 57.9372L203.894 91.0074H196.357ZM205.592 80.8721L207.98 74.6029H223.69L226.025 80.8721H205.592Z" fill="#4B5CF0"/>
<path d="M241.334 91.0074V52.8695H248.87V91.0074H241.334Z" fill="#4B5CF0"/>
<path d="M256.539 91.0074V52.8695H268.905L285.198 84.8426H286.95L285.888 85.783V52.8695H293V91.0074H280.581L264.287 59.0343H262.483L263.544 58.0939V91.0074H256.539Z" fill="#4B5CF0"/>
<path d="M48 0C74.4937 0 96 21.4775 96 48C96 74.4937 74.5225 96 48 96C21.4775 95.9712 0 74.4937 0 47.9712C0 21.4775 21.4775 0 48 0Z" fill="#4B5CF0"/>
<path d="M72 24V73.5H61.3151V47.6354H52.5208C51.4896 47.6354 50.5156 48.0069 49.7422 48.6928C49.3125 49.093 48.9688 49.5502 48.7396 50.0932C48.5104 50.6077 48.3958 51.1793 48.3958 51.7794V57.7526C48.3958 59.3531 47.0781 60.6677 45.474 60.6677H38.3411C36.737 60.6677 35.4193 59.3531 35.4193 57.7526V50.5505C35.4193 48.9501 36.737 47.6354 38.3411 47.6354H44.7292C45.5885 47.6354 46.4193 47.321 47.0781 46.778C47.4792 46.435 47.8229 46.0064 48.0234 45.5491C48.2526 45.0632 48.3672 44.5488 48.3672 44.0344V34.6316H22.5V24H72Z" fill="#FBFBFB"/>
<path d="M36 66.6908V66.8092C36 70.5099 32.9834 73.5 29.25 73.5C25.5166 73.5 22.5 70.5099 22.5 66.8092V66.6908C22.5 62.9901 25.5166 60 29.25 60C31.1018 60 32.8042 60.7401 34.0288 61.9539C35.2533 63.1974 36 64.8553 36 66.6908Z" fill="#FBFBFB"/>
</svg>
