<svg id="Layer_1" data-name="Layer 1" xmlns="http://www.w3.org/2000/svg" viewBox="0 0 185.83 150"><defs><style>.cls-1{fill:#fff;}.cls-2{fill:#0083ff;}.cls-3{fill:#006e36;}.cls-4{fill:#00b22b;}</style></defs><path class="cls-1" d="M75,150A75,75,0,0,1,75,0a74.07,74.07,0,0,1,34.1,8.19A75.62,75.62,0,0,1,131,25.13c.44-.25.88-.5,1.33-.74a43,43,0,0,1,20.4-4.9c.6,0,1.21,0,1.81,0,13.74.49,23,4.23,25.47,5.63l2.56,1.51a6.57,6.57,0,0,1,3.18,6.51l-.16,1.26,0,.2c-1.28,19.17-9.74,33.84-23.82,41.29-.85.45-1.64.84-2.43,1.19A40.49,40.49,0,0,1,149.83,80,75.1,75.1,0,0,1,75,150Z"/><path class="cls-2" d="M143.42,75A68.42,68.42,0,1,1,75,6.58,68.42,68.42,0,0,1,143.42,75"/><rect class="cls-1" x="68.3" y="17.02" width="5.87" height="5.87" rx="2.67"/><rect class="cls-1" x="68.3" y="27.29" width="5.87" height="5.87" rx="2.67"/><rect class="cls-1" x="38.97" y="58.09" width="5.87" height="5.87" rx="2.67"/><rect class="cls-1" x="49.24" y="58.09" width="5.87" height="5.87" rx="2.67"/><rect class="cls-1" x="56.57" y="37.56" width="17.6" height="5.87" rx="2.67"/><rect class="cls-1" x="59.5" y="58.09" width="5.87" height="17.6" rx="2.67"/><rect class="cls-1" x="84.44" y="56.62" width="24.94" height="5.87" rx="2.67"/><rect class="cls-1" x="44.83" y="47.82" width="24.94" height="5.87" rx="2.67"/><rect class="cls-1" x="99.11" y="46.36" width="5.87" height="5.87" rx="2.67"/><rect class="cls-1" x="80.04" y="66.89" width="17.6" height="5.87" rx="2.67"/><rect class="cls-1" x="80.04" y="77.16" width="5.87" height="5.87" rx="2.67"/><rect class="cls-1" x="80.04" y="87.43" width="5.87" height="5.87" rx="2.67"/><rect class="cls-1" x="78.57" y="22.89" width="5.87" height="24.94" rx="2.67"/><rect class="cls-1" x="69.77" y="62.49" width="5.87" height="24.94" rx="2.67"/><rect class="cls-1" x="88.84" y="34.62" width="5.87" height="17.6" rx="2.67"/><path class="cls-3" d="M123,64l47.53-27.49s1-9.84-17.33-9.65-28.77,12.21-30.15,23S123,64,123,64"/><path class="cls-4" d="M171.29,35.34,123.76,62.83s-1,9.84,17.33,9.65,28.77-12.21,30.16-23,0-14.13,0-14.13"/><path class="cls-1" d="M176.74,30.85c-1.16-.67-9.38-4.28-22.41-4.75a36.78,36.78,0,0,0-18.89,4.11,33.2,33.2,0,0,0-5.12,3.34c-11.77,9.27-12.07,20.7-12.86,27.3l-9.31,4.56a3.88,3.88,0,1,0,3.21,7.06h0l.13-.07h0l2.12-1.12L117.92,69,120,68c5.07,2.6,11.62,5.76,20.64,6.09a35.74,35.74,0,0,0,16-3c.69-.31,1.37-.65,2-1C178,59.87,178.84,36.59,179.06,33.78l.19-1.45Zm-5.58,6.73,0,.1c-1.33,7.34-5.26,20.57-16.57,26.56l-.31.15a30.22,30.22,0,0,1-14,3.21,38.56,38.56,0,0,1-10-1.78l-2.82-1.21L130.54,63l11.65-6.16a4.61,4.61,0,0,0,2.27-2.75,4.56,4.56,0,0,0,.19-1.21c0-.65.38-.84.13-1.45a4,4,0,0,0-.19-.43l-.07-.11s0,0,0,0c-.8-1.4-2.25-1.8-3.88-1.86a4.58,4.58,0,0,0-2.35.55l-11.56,6.1-2.19,1.15s1.92-14.78,12.34-20c.81-.41,1.55-1,2.38-1.45a27.69,27.69,0,0,1,14.16-3,47.58,47.58,0,0,1,16.39,3.87l.76.33.65.26Z"/><path class="cls-1" d="M47.32,115.5v8.29H41.6V100.16h9.26q4.22,0,6.42,2.09a7.38,7.38,0,0,1,2.2,5.63,7.85,7.85,0,0,1-1,3.93,6.87,6.87,0,0,1-2.93,2.7,10.25,10.25,0,0,1-4.71,1Zm6.35-7.62q0-3.1-3.44-3.11H47.32v6.15h2.91Q53.67,110.92,53.67,107.88Z"/><path class="cls-1" d="M74.42,123.79l-5.11-8.93H68v8.93H62.29V100.16h9.76a10.46,10.46,0,0,1,4.74,1,6.57,6.57,0,0,1,2.91,2.66,7.54,7.54,0,0,1,1,3.85A6.83,6.83,0,0,1,79.25,112a7.26,7.26,0,0,1-4.13,2.48l5.62,9.29ZM68,111h3.55a3.56,3.56,0,0,0,2.5-.75,2.88,2.88,0,0,0,.81-2.22,3,3,0,0,0-.82-2.21,3.46,3.46,0,0,0-2.49-.8H68Z"/><path class="cls-1" d="M100.84,101.34a11.41,11.41,0,0,1,4.29,4.32,12.3,12.3,0,0,1,1.57,6.23,12.43,12.43,0,0,1-1.58,6.25,11.44,11.44,0,0,1-4.32,4.33,12.5,12.5,0,0,1-12.06,0,11.42,11.42,0,0,1-4.31-4.33,12.34,12.34,0,0,1-1.59-6.25,12.21,12.21,0,0,1,1.59-6.23,11.46,11.46,0,0,1,4.31-4.32,12.58,12.58,0,0,1,12.1,0Zm-10.53,5.59a8.25,8.25,0,0,0,0,9.9,6.31,6.31,0,0,0,8.91,0,8.18,8.18,0,0,0,0-9.89,6.34,6.34,0,0,0-8.92,0Z"/></svg>