<?xml version="1.0" encoding="UTF-8"?>
<svg id="STABLEIcon" className="MOC CurrencyIcon" data-name="Layer 1" xmlns="http://www.w3.org/2000/svg" viewBox="0 0 32 32"><defs><clipPath id="a"><rect width="32" height="32" fill="none"/></clipPath></defs><g clipPath="url(#a)"><path class="cls-1" d="M32,16A16,16,0,1,1,16,0,16,16,0,0,1,32,16" fill="#fff"/><path d="M33.2,18.258A14.938,14.938,0,1,1,18.258,3.32,14.938,14.938,0,0,1,33.2,18.258m-5.366,8.824a25.194,25.194,0,0,1-1.772-7.656c0-1.857-1.047-8.858-7.8-8.858s-7.8,7.17-7.8,8.858A24.118,24.118,0,0,1,8.7,27.092a13.029,13.029,0,0,0,18.985.147c.05-.052.1-.1.148-.158M13.12,21.071a1.948,1.948,0,0,1,.363-.007c.075.005.142.013.206.023a4.974,4.974,0,0,1,1.286.454l.1.044a1.942,1.942,0,0,0,.858.2,1.522,1.522,0,0,0,.615-.226,3.3,3.3,0,0,1,3.425,0,1.532,1.532,0,0,0,.611.226,1.945,1.945,0,0,0,.862-.2l.1-.044a4.964,4.964,0,0,1,1.286-.454c.064-.011.132-.018.206-.024a1.951,1.951,0,0,1,.364.007.48.48,0,0,1-.112.953.993.993,0,0,0-.184,0c-.039,0-.078.007-.118.013a4.164,4.164,0,0,0-1.039.379l-.1.045a3,3,0,0,1-1.268.288,2.26,2.26,0,0,1-1.044-.332,2.369,2.369,0,0,0-2.55,0,2.256,2.256,0,0,1-1.071.332,2.963,2.963,0,0,1-1.241-.288l-.1-.045a4.164,4.164,0,0,0-1.039-.378c-.039-.006-.078-.01-.117-.013a.994.994,0,0,0-.184,0,.48.48,0,0,1-.112-.953m3.353-.8a.241.241,0,0,1,.116-.319,3.551,3.551,0,0,1,3.338,0,.24.24,0,0,1-.1.457.237.237,0,0,1-.1-.022,3.074,3.074,0,0,0-2.932,0,.24.24,0,0,1-.319-.116m4.413,3.651a3.022,3.022,0,0,1-2.616,1.332h-.027a3.021,3.021,0,0,1-2.614-1.332.286.286,0,0,1,.485-.3,2.457,2.457,0,0,0,2.131,1.064h.023A2.457,2.457,0,0,0,20.4,23.622a.286.286,0,0,1,.485.3m3.29-7.235c-.6,0-1.085.773-1.085,1.881s.486,2.005,1.085,2,.883-.9.883-2.009-.284-1.877-.883-1.876m-12.72,1.876c0,1.108.284,2.007.883,2.009s1.084-.9,1.084-2-.485-1.88-1.084-1.881-.883.768-.883,1.876m6.4-8.46a6.05,6.05,0,0,0,.381-2.017,2.447,2.447,0,0,0-2.672-2.664c-.969,0-1.944.571-1.944,1.415a.983.983,0,0,0,1.058.993c1.054,0,.7-.944,1.768-.944.666,0,1.409.807,1.409,3.216M21.41,6a.845.845,0,0,0-1.195-.043,6.084,6.084,0,0,0-.707,1.812,6.079,6.079,0,0,0,1.859-.574A.845.845,0,0,0,21.41,6m-1.9,2.5a.583.583,0,1,0,.583.582.583.583,0,0,0-.583-.582" transform="translate(-2.258 -2.258)" fill="#2e2c2e"/></g></svg>
