<svg xmlns="http://www.w3.org/2000/svg" width="32" height="32" viewBox="0 0 32 32">
  <g id="confirmed" transform="translate(-3.375 -3.375)">
    <path id="Path_178" data-name="Path 178" d="M26.911,13.691,25.557,12.3a.291.291,0,0,0-.215-.092h0a.279.279,0,0,0-.215.092l-9.385,9.454-3.415-3.415a.3.3,0,0,0-.431,0l-1.369,1.369a.306.306,0,0,0,0,.438l4.308,4.308a1.362,1.362,0,0,0,.9.438,1.427,1.427,0,0,0,.892-.423h.008L26.919,14.129A.329.329,0,0,0,26.911,13.691Z" transform="translate(0.664 0.83)" fill="#fff"/>
    <path id="Path_179" data-name="Path 179" d="M19.375,5.529A13.841,13.841,0,1,1,9.583,9.583a13.755,13.755,0,0,1,9.792-4.054m0-2.154a16,16,0,1,0,16,16,16,16,0,0,0-16-16Z" transform="translate(0 0)" fill="#fff"/>
  </g>
</svg>
