<svg
      id="BTCIcon"
      className="CurrencyIcon"
      data-name="Layer 1"
      xmlns="http://www.w3.org/2000/svg"
      viewBox="0 0 29.15 29.15"
    >
      <defs />
      <path
        className="cls-2"
        d="M14.58,1.8A12.78,12.78,0,0,1,26.34,9.61a12.73,12.73,0,0,1,0,9.94,12.73,12.73,0,0,1-6.79,6.79A12.78,12.78,0,0,1,1.8,14.58a12.58,12.58,0,0,1,1-5,12.85,12.85,0,0,1,6.8-6.8,12.58,12.58,0,0,1,5-1m0-1.8A14.58,14.58,0,1,0,29.15,14.58,14.58,14.58,0,0,0,14.58,0Z"
      />
      <path
        className="cls-2"
        d="M21.65,12.81c.3-2-1.23-3.09-3.33-3.81L19,6.27l-1.66-.42-.66,2.66L15.35,8.2,16,5.52l-1.65-.41-.69,2.73-1.06-.25h0L10.33,7,9.89,8.78s1.23.28,1.2.3a.88.88,0,0,1,.77,1l-.77,3.1.17.06-.17,0L10,17.52a.6.6,0,0,1-.76.39S8,17.61,8,17.61l-.82,1.9,2.16.54,1.18.31-.68,2.75,1.66.42.68-2.73c.45.12.89.24,1.32.34l-.68,2.72,1.66.41.69-2.75c2.83.53,5,.32,5.85-2.24a2.91,2.91,0,0,0-1.52-4A2.65,2.65,0,0,0,21.65,12.81Zm-3.79,5.32c-.52,2.06-4,.95-5.11.67l.91-3.65C14.78,15.43,18.39,16,17.86,18.13Zm.51-5.35c-.47,1.88-3.36.93-4.3.69l.83-3.31C15.84,10.39,18.86,10.83,18.37,12.78Z"
      />
    </svg>