<?xml version="1.0" encoding="UTF-8" standalone="no"?>
<svg
   xmlns:dc="http://purl.org/dc/elements/1.1/"
   xmlns:cc="http://creativecommons.org/ns#"
   xmlns:rdf="http://www.w3.org/1999/02/22-rdf-syntax-ns#"
   xmlns:svg="http://www.w3.org/2000/svg"
   xmlns="http://www.w3.org/2000/svg"
   xmlns:sodipodi="http://sodipodi.sourceforge.net/DTD/sodipodi-0.dtd"
   xmlns:inkscape="http://www.inkscape.org/namespaces/inkscape"
   id="RISKPROXIcon"
   className="MOC CurrencyIcon"
   data-name="Layer 1"
   viewBox="0 0 1010.59 1010.59"
   version="1.1"
   sodipodi:docname="icon-riskprox.svg"
   inkscape:version="0.92.5 (2060ec1f9f, 2020-04-08)">
  <metadata
     id="metadata19">
    <rdf:RDF>
      <cc:Work
         rdf:about="">
        <dc:format>image/svg+xml</dc:format>
        <dc:type
           rdf:resource="http://purl.org/dc/dcmitype/StillImage" />
        <dc:title></dc:title>
      </cc:Work>
    </rdf:RDF>
  </metadata>
  <sodipodi:namedview
     pagecolor="#ffffff"
     bordercolor="#666666"
     borderopacity="1"
     objecttolerance="10"
     gridtolerance="10"
     guidetolerance="10"
     inkscape:pageopacity="0"
     inkscape:pageshadow="2"
     inkscape:window-width="696"
     inkscape:window-height="480"
     id="namedview17"
     showgrid="false"
     inkscape:zoom="0.23352694"
     inkscape:cx="524.56474"
     inkscape:cy="505.29501"
     inkscape:window-x="2017"
     inkscape:window-y="321"
     inkscape:window-maximized="0"
     inkscape:current-layer="RISKPROXIcon" />
  <defs
     id="defs2" />
  <path
     className="cls-2"
     d="M362,501.24q-16.87-15.32-47.91-18.81,26.38-3.89,41.13-19.21T370,421.91q0-34.53-27.35-53.15-20-13.63-51.78-17.27V319.15H251.32v31h-21.9v-31H189.89v31H158.53V621.7h31.36v30.67h39.53V621.7h21.9v30.67h39.52V620.9q37.31-3.27,59.92-19.95,28.13-20.76,28.13-56.45Q378.89,516.57,362,501.24ZM229.92,404.06h37.24q14.74,0,23.08,7.37t8.34,19.79q0,12.4-8.34,19.78t-23.08,7.37H229.92Zm66.92,156q-8.73,7.37-24.25,7.37H229.92V511.52h42.67q15.53,0,24.25,7.37t8.73,20.56Q305.57,552.65,296.84,560Z"
     id="path6" />
  <polygon
     className="cls-2"
     points="382.77 410.66 456.09 410.66 456.09 621.7 527.47 621.7 527.47 410.66 600.8 410.66 600.8 350.14 382.77 350.14 382.77 410.66"
     id="polygon8" />
  <path
     className="cls-2"
     d="M765.87,552.84q-13.39,12.23-33.56,12.22-27.55,0-42.87-21.72t-15.33-57.42q0-35.7,15.33-57.42t42.87-21.72q20.18,0,33.56,12.22t17.26,32.39h71.38q-2.32-30.25-17.84-53.73A106.62,106.62,0,0,0,795.16,361q-26-13.2-59-13.19-41.52,0-72,17.07A115.66,115.66,0,0,0,617.47,413q-16.29,31-16.29,72.94t16.29,72.93A115.69,115.69,0,0,0,664.22,607q30.45,17.07,72,17.07,33,0,59-13.19a106.69,106.69,0,0,0,41.51-36.66q15.51-23.48,17.84-53.73H783.13Q779.24,540.63,765.87,552.84Z"
     id="path10" />
  <polygon
     className="cls-2"
     points="527.81 693.47 508.93 693.47 492.7 718.79 476.82 693.47 455.87 693.47 480.96 732.95 454.61 774.04 473.37 774.04 490.86 746.99 508.01 774.04 529.07 774.04 502.72 732.95 527.81 693.47"
     id="polygon12" />
  <path
     className="cls-2"
     d="M505.3,67.2A438.22,438.22,0,0,1,675.81,909a438.22,438.22,0,0,1-341-807.37A435.43,435.43,0,0,1,505.3,67.2m0-61.9c-276.15,0-500,223.85-500,500s223.85,500,500,500,500-223.86,500-500-223.86-500-500-500Z"
     id="path14" />
</svg>
