<?xml version="1.0" encoding="UTF-8" standalone="no"?>
<svg
   xmlns:dc="http://purl.org/dc/elements/1.1/"
   xmlns:cc="http://creativecommons.org/ns#"
   xmlns:rdf="http://www.w3.org/1999/02/22-rdf-syntax-ns#"
   xmlns:svg="http://www.w3.org/2000/svg"
   xmlns="http://www.w3.org/2000/svg"
   xmlns:sodipodi="http://sodipodi.sourceforge.net/DTD/sodipodi-0.dtd"
   xmlns:inkscape="http://www.inkscape.org/namespaces/inkscape"
   id="STABLEIcon"
   className="MOC CurrencyIcon"
   data-name="Layer 1"
   viewBox="0 0 1010.59 1010.59"
   version="1.1"
   sodipodi:docname="icon-stable.svg"
   inkscape:version="0.92.5 (2060ec1f9f, 2020-04-08)">
  <metadata
     id="metadata17">
    <rdf:RDF>
      <cc:Work
         rdf:about="">
        <dc:format>image/svg+xml</dc:format>
        <dc:type
           rdf:resource="http://purl.org/dc/dcmitype/StillImage" />
      </cc:Work>
    </rdf:RDF>
  </metadata>
  <sodipodi:namedview
     pagecolor="#ffffff"
     bordercolor="#666666"
     borderopacity="1"
     objecttolerance="10"
     gridtolerance="10"
     guidetolerance="10"
     inkscape:pageopacity="0"
     inkscape:pageshadow="2"
     inkscape:window-width="696"
     inkscape:window-height="480"
     id="namedview15"
     showgrid="false"
     inkscape:zoom="0.23352694"
     inkscape:cx="524.56474"
     inkscape:cy="505.29501"
     inkscape:window-x="0"
     inkscape:window-y="30"
     inkscape:window-maximized="0"
     inkscape:current-layer="STABLEIcon" />
  <defs
     id="defs2" />
  <path
     className="cls-2"
     d="M240.56,362.31q40.35,0,71.58,17.46a123.42,123.42,0,0,1,48.49,48.3q17.26,30.84,17.27,70t-17.27,70a123.48,123.48,0,0,1-48.49,48.3q-31.23,17.45-71.58,17.45h-102V362.31Zm47.53,192Q305,533,305,498.09t-16.87-56.25q-16.87-21.34-47.53-21.34H209.92V575.68h30.64Q271.22,575.68,288.09,554.34Z"
     id="path6" />
  <path
     className="cls-2"
     d="M402.92,587.71q-13.38-23.28-13.38-53.93t13.38-53.92a90.24,90.24,0,0,1,38-35.89q24.63-12.6,57.61-12.61T556.16,444a90.18,90.18,0,0,1,38,35.89q13.38,23.28,13.39,53.92t-13.39,53.93a90.1,90.1,0,0,1-38,35.88q-24.63,12.61-57.61,12.61t-57.61-12.61A90.15,90.15,0,0,1,402.92,587.71Zm136.37-53.93q0-22.11-10.87-35.49T498.55,484.9q-19,0-29.87,13.39t-10.86,35.49q0,22.13,10.86,35.5t29.87,13.38q19,0,29.87-13.38T539.29,533.78Z"
     id="path8" />
  <path
     className="cls-2"
     d="M682.24,377.05q30.45-17.07,72-17.07,33,0,59,13.19a106.57,106.57,0,0,1,41.52,36.66q15.51,23.48,17.84,53.73H801.15q-3.89-20.18-17.26-32.39T750.33,419q-27.55,0-42.87,21.72t-15.33,57.42q0,35.7,15.33,57.42t42.87,21.72q20.17,0,33.56-12.22t17.26-32.39h71.38q-2.32,30.25-17.84,53.73A106.57,106.57,0,0,1,813.17,623q-26,13.18-59,13.19-41.52,0-72-17.07A115.66,115.66,0,0,1,635.49,571q-16.29-31-16.29-72.94t16.29-72.93A115.69,115.69,0,0,1,682.24,377.05Z"
     id="path10" />
  <path
     className="cls-2"
     d="M505.3,67.2A438.22,438.22,0,0,1,675.81,909a438.22,438.22,0,0,1-341-807.37A435.43,435.43,0,0,1,505.3,67.2m0-61.9c-276.15,0-500,223.85-500,500s223.85,500,500,500,500-223.86,500-500-223.86-500-500-500Z"
     id="path12" />
</svg>
