<svg xmlns="http://www.w3.org/2000/svg" xmlns:xlink="http://www.w3.org/1999/xlink" width="59" height="59" viewBox="0 0 59 59">
  <defs>
    <clipPath id="clip-path">
      <rect id="Rectangle_312" data-name="Rectangle 312" width="59" height="59" transform="translate(0 -0.314)" fill="none"/>
    </clipPath>
  </defs>
  <g id="btclogo" transform="translate(0 0.314)">
    <g id="Group_508" data-name="Group 508" clip-path="url(#clip-path)">
      <path id="Path_165" data-name="Path 165" d="M32.2,4.678A27.513,27.513,0,1,1,4.686,32.191,27.513,27.513,0,0,1,32.2,4.678" transform="translate(-2.853 -2.848)" fill="#ff9931"/>
      <path id="Path_166" data-name="Path 166" d="M65.367,42.447c.584-3.9-2.389-6-6.455-7.4l1.319-5.289-3.22-.8L55.727,34.1c-.846-.211-1.716-.41-2.579-.607l1.293-5.184-3.218-.8L49.9,32.8c-.7-.16-1.388-.317-2.056-.483l0-.016L43.41,31.188l-.856,3.439s2.389.547,2.338.581a1.713,1.713,0,0,1,1.5,1.872l-1.5,6.025a2.646,2.646,0,0,1,.335.108l-.34-.085-2.106,8.441a1.172,1.172,0,0,1-1.475.765c.032.047-2.34-.584-2.34-.584l-1.6,3.685,4.19,1.045c.779.2,1.543.4,2.3.592l-1.333,5.349,3.216.8,1.32-5.293c.878.238,1.731.459,2.566.666L48.3,63.865l3.22.8,1.332-5.34c5.491,1.039,9.619.62,11.358-4.346,1.4-4-.07-6.3-2.959-7.808a5.136,5.136,0,0,0,4.112-4.727M58.01,52.762c-.995,4-7.727,1.837-9.91,1.295l1.768-7.087c2.183.545,9.182,1.623,8.142,5.792m1-10.373c-.908,3.637-6.511,1.789-8.329,1.336l1.6-6.428c1.818.453,7.671,1.3,6.726,5.092" transform="translate(-22.746 -16.746)" fill="#fff"/>
      <path id="Path_167" data-name="Path 167" d="M29.334,3.66A25.683,25.683,0,1,1,3.664,29.355v-.012A25.682,25.682,0,0,1,29.334,3.66m0-3.66A29.343,29.343,0,1,0,58.686,29.343,29.343,29.343,0,0,0,29.334,0" transform="translate(0)" fill="#fff"/>
    </g>
  </g>
</svg>
