<svg id="Layer_1" data-name="Layer 1" xmlns="http://www.w3.org/2000/svg" viewBox="0 0 100 100"><defs><style>.cls-1{fill:#50e3c2;opacity:0.1;isolation:isolate;}.cls-2{fill:#fff;}.cls-3{fill:#00a651;}.cls-4{fill:#ff9415;}.cls-5{fill:#ed1c24;}</style></defs><title>Artboard 1 copy 2</title><path id="Path" class="cls-1" d="M99.79,70.39c-1-5.25-4.41-9.55-5.77-14.76-3.11-11.9,5.71-27.35-4.84-36.94C78.46,9,65.87,21,61.09,23.28c-9.1,4.31-16.33.57-21.65-.66-8.76-2-18,.73-25.11,6.81C-.2,41.84-2,65.2,1.57,75.07a20.48,20.48,0,0,0,7.07,9.52C20.72,94,33.35,77,47.08,80.15c7.45,1.72,10.75,8.52,17.43,12.25C83.31,102.91,102.23,83.45,99.79,70.39Z"/><path class="cls-2" d="M21,20V64h8V63S41,50,53,53A21.29,21.29,0,0,1,70.47,64H79V20Z"/><path d="M19.42,42c.34-.39.7-.73,1.27-.47s.53.68.53,1.16V61.38c0,.28,0,.56,0,.84a1.49,1.49,0,0,0,1.51,1.59c1.93,0,3.86,0,5.79,0,.21,0,.46-.27.6-.47A25.07,25.07,0,0,1,63,55.74c.25.14.58.35.63.58a1.37,1.37,0,0,1-.21,1c-.28.38-.72.29-1.14.08a42.51,42.51,0,0,0-3.89-1.92A23.23,23.23,0,0,0,27.22,72.63a22.46,22.46,0,0,0-.39,5.75h1.55a21.45,21.45,0,0,1,7.93-17.6A20.83,20.83,0,0,1,51,55.88,21.66,21.66,0,0,1,71.63,78.37h1.51c0-1.05.08-2.14,0-3.22a23.11,23.11,0,0,0-7.3-15,1.39,1.39,0,0,1-.21-.21.89.89,0,0,1,0-1.32.87.87,0,0,1,1.28,0c1,1,2,2,2.88,3.11.47.54.82,1.17,1.26,1.73a.93.93,0,0,0,.62.33c1.83,0,3.66,0,5.49,0a1.54,1.54,0,0,0,1.69-1.67V32.59c0-.1,0-.19,0-.34H21.22v.61c0,1.65,0,3.3,0,5,0,.52-.08,1-.63,1.16s-.9-.14-1.18-.57V21.81a3.64,3.64,0,0,1,2.75-2.75H77.83a3.64,3.64,0,0,1,2.75,2.75V62.9a1.19,1.19,0,0,0-.09.15A3.34,3.34,0,0,1,77,65.64H74.32c-.67,0-1.33,0-2.06,0,.07.18.1.27.14.35A25.26,25.26,0,0,1,75,79a1.54,1.54,0,0,1-.61,1.27H25.63c-.19-.34-.53-.68-.56-1a24.62,24.62,0,0,1,2.42-13c.08-.17.15-.34.26-.57-1.69,0-3.28,0-4.88,0A3.26,3.26,0,0,1,20,64.14a7.75,7.75,0,0,1-.57-1.24Zm1.81-11.65H78.78V22.9c0-1.53-.51-2-2-2H22.88a1.48,1.48,0,0,0-1.64,1.45C21.21,25,21.23,27.64,21.23,30.35ZM52.31,74l.32-.48,2.26-3.59c.41-.64.88-.81,1.38-.5s.55.82.15,1.46C55.7,72,55,73.19,54.22,74.33a1.5,1.5,0,0,0-.2,1.81,5.38,5.38,0,0,1,.3,1.74,2.9,2.9,0,0,1,0,.51H69.71A19.73,19.73,0,0,0,38.62,61.3c-5.8,4.19-8.5,10-8.42,17.08H45.68A4.42,4.42,0,0,1,52.31,74ZM50,78.42c.67,0,1.35,0,2,0,.37,0,.48-.14.51-.48a2.46,2.46,0,0,0-1.21-2.41,2.41,2.41,0,0,0-2.65,0A2.46,2.46,0,0,0,47.49,78c0,.31.14.45.48.44C48.64,78.41,49.31,78.42,50,78.42Z"/><path class="cls-2" d="M22.17,19.06a3.64,3.64,0,0,0-2.75,2.75V19.06Z"/><path class="cls-2" d="M80.58,21.81a3.64,3.64,0,0,0-2.75-2.75h2.75Z"/><path class="cls-2" d="M50,78.42c-.68,0-1.35,0-2,0-.34,0-.46-.13-.48-.44a2.46,2.46,0,0,1,1.17-2.44,2.41,2.41,0,0,1,2.65,0A2.46,2.46,0,0,1,52.52,78c0,.34-.14.49-.51.48C51.34,78.41,50.66,78.42,50,78.42Z"/><path class="cls-3" d="M44.51,50h-4.9a1.08,1.08,0,0,1-1.07-1.08V46.37c0-.7,0-1.39,0-2.09,0-1-.39-1.35-1.36-1.36l-2,0-.19,0,5.63-7.43a1.08,1.08,0,0,1,1.71,0l4.4,5.8a1.06,1.06,0,0,1-.84,1.69h0c-1,0-1.4.37-1.41,1.39,0,1.66,0,3.31,0,5Z"/><path d="M30,25.64a2.84,2.84,0,1,1-2.85-2.85A2.87,2.87,0,0,1,30,25.64Zm-1.82,0a1,1,0,0,0-1-1,1,1,0,0,0,0,2A1,1,0,0,0,28.22,25.64Z"/><path d="M32,25.64a2.87,2.87,0,0,1,2.85-2.85A2.84,2.84,0,1,1,32,25.64Zm2.82,1a1,1,0,0,0,1-1,1,1,0,0,0-1-1,1,1,0,0,0-1,1A1,1,0,0,0,34.78,26.66Z"/><path d="M39.58,25.66a2.83,2.83,0,1,1,2.86,2.81A2.84,2.84,0,0,1,39.58,25.66Zm3.84,0a1,1,0,0,0-1-1,1,1,0,0,0-1,1,1,1,0,1,0,2,0Z"/><path d="M49.92,59.8a18,18,0,0,1,15.21,8.33c.56.85.43,1.3-.46,1.76l-3.18,1.64c-.74.37-1.07.28-1.57-.39a12.16,12.16,0,0,0-19.64-.27c-.8,1-1,1.1-2.11.49-1-.51-2-1-2.91-1.51-.78-.4-.93-.88-.47-1.59A17.71,17.71,0,0,1,47.49,60C48.31,59.9,49.15,59.87,49.92,59.8Zm-6,3c.43.67.8,1.3,1.22,1.9a.54.54,0,0,0,.48.14,14.18,14.18,0,0,1,8.74,0,.48.48,0,0,0,.44-.12c.42-.62.81-1.26,1.24-2A16.43,16.43,0,0,0,43.94,62.82Zm-7.19,5.77,2.13,1.09a14.42,14.42,0,0,1,4.74-4L42.3,63.61A15.9,15.9,0,0,0,36.75,68.59Zm26.5,0a15.81,15.81,0,0,0-5.54-5l-1.33,2.1A14.44,14.44,0,0,1,61,69.47c.07.09.36.09.5,0C62,69.23,62.59,68.92,63.25,68.58Z"/><path class="cls-2" d="M28.22,25.64a1,1,0,0,1-1,1,1,1,0,0,1,0-2A1,1,0,0,1,28.22,25.64Z"/><path class="cls-2" d="M34.78,26.66a1,1,0,0,1-1-1,1,1,0,0,1,1-1,1,1,0,0,1,1,1A1,1,0,0,1,34.78,26.66Z"/><path class="cls-2" d="M43.42,25.63a1,1,0,1,1-2,0,1,1,0,0,1,1-1A1,1,0,0,1,43.42,25.63Z"/><path class="cls-4" d="M43.94,62.82a16.43,16.43,0,0,1,12.12,0c-.43.69-.82,1.33-1.24,2a.48.48,0,0,1-.44.12,14.18,14.18,0,0,0-8.74,0,.54.54,0,0,1-.48-.14C44.74,64.12,44.37,63.49,43.94,62.82Z"/><path class="cls-3" d="M36.75,68.59a15.9,15.9,0,0,1,5.55-5l1.32,2.11a14.42,14.42,0,0,0-4.74,4Z"/><path class="cls-5" d="M63.25,68.58c-.66.34-1.22.65-1.79.91-.14.07-.43.07-.5,0a14.44,14.44,0,0,0-4.58-3.75l1.33-2.1A15.81,15.81,0,0,1,63.25,68.58Z"/><path class="cls-5" d="M55.62,34h5.7v3.47c0,.66,0,1.33,0,2,0,.94.37,1.3,1.29,1.31l1.86,0,.19,0L58.47,49l-6.24-8.23h2.05c1,0,1.34-.35,1.34-1.32,0-1.59,0-3.17,0-4.76Z"/><path d="M61,35.13H56.09V36c0,1.31,0,2.62,0,3.94A.94.94,0,0,1,55,41c-.57,0-1.15,0-1.87,0l5.4,7.11,1.5-2c.14-.19.28-.38.43-.56a.93.93,0,0,1,1.32-.23.91.91,0,0,1,.11,1.33c-.26.36-.53.7-.79,1.05-.58.76-1.15,1.53-1.74,2.28a.93.93,0,0,1-1.63,0q-3.55-4.65-7.06-9.33a1.18,1.18,0,0,1-.12-1,1.14,1.14,0,0,1,.86-.47c.92-.06,1.85,0,2.85,0v-4c0-1.91,0-1.94,1.92-1.94h5.26c1.14,0,1.38.24,1.38,1.41v4.52H64c.62,0,1.24,0,1.85,0a.83.83,0,0,1,.73,1.28c-.67,1-1.4,1.93-2.16,2.85a.78.78,0,0,1-1.14.06.81.81,0,0,1-.22-1.16c.24-.39.53-.74.9-1.24h-.88c-2,0-2,0-2-2.08Z"/><path d="M45.71,44.63v4.68c0,1-.28,1.24-1.24,1.25h-6c-1,0-1.29-.28-1.29-1.27,0-1.53,0-3.06,0-4.66-.93,0-1.8,0-2.66,0-.47,0-.88-.06-1.11-.53A1.05,1.05,0,0,1,33.64,43l6.93-9.12c.57-.74,1.17-.73,1.74,0L49.24,43a1,1,0,0,1,.23,1.15,1,1,0,0,1-1.07.5C47.53,44.62,46.66,44.63,45.71,44.63Zm-1.8,4.06v-.6c0-1.37,0-2.75,0-4.12,0-.84.31-1.13,1.16-1.14h1.78L41.44,35.7l-5.37,7.07.16,0,1.61,0c.8,0,1.11.32,1.13,1.13,0,.58,0,1.15,0,1.73v3Z"/></svg>