<?xml version="1.0" encoding="UTF-8"?>
<svg width="690px" height="694px" viewBox="0 0 690 694" version="1.1" xmlns="http://www.w3.org/2000/svg" xmlns:xlink="http://www.w3.org/1999/xlink">
    <!-- Generator: Sketch 56 (81588) - https://sketch.com -->
    <title>moc/config/button-01</title>
    <desc>Created with Sketch.</desc>
    <g id="moc/config/button-01" stroke="none" stroke-width="1" fill="none" fill-rule="evenodd">
        <g id="tutorial_step_2" transform="translate(12.000000, 35.000000)">
            <g id="Group-5_2_">
                <g id="Group-2-Copy-2_2_">
                    <path d="M528.486497,352.546875 C523.449866,324.875 505.102139,302.234375 497.906952,274.5625 C481.358021,211.671875 528.126738,129.734375 472.364037,79.0625 C415.881818,27.671875 348.966578,91.640625 323.783422,103.5 C275.575668,126.140625 237.441176,106.375 209.020187,99.90625 C162.61123,89.125 113.683957,103.859375 76.268984,135.84375 C-0.719518717,201.609375 -10.073262,324.875 8.6342246,376.984375 C19.4270053,403.578125 30.9393048,415.4375 46.0491979,427.296875 C110.086364,476.890625 177.001604,387.046875 249.672995,403.9375 C289.246524,412.921875 306.514973,448.859375 341.77139,468.625 C441.424733,524.6875 541.437834,421.546875 528.486497,352.546875 Z" id="Path_30_" fill="#50E3C2" fill-rule="nonzero" opacity="0.1"></path>
                    <g id="wallet_2_" transform="translate(154.696524, 0.000000)">
                        <g id="Group-4_2_" transform="translate(75.549465, 0.000000)">
                            <ellipse id="Oval-Copy-2_2_" fill="#BEEBD7" fill-rule="nonzero" cx="107.927807" cy="92.359375" rx="91.378877" ry="91.28125"></ellipse>
                            <g id="icon-doc_2_">
                                <g id="moc/config/icon-stable">
                                    <circle id="bg" fill="#FFFFFF" fill-rule="evenodd" cx="91.9884073" cy="91.9884073" r="84.7893145"></circle>
                                    <path d="M92.116693,8.98000038 C69.9006248,8.98000038 49.0730609,17.658152 33.3366793,33.3366793 C17.6002977,49.0152066 8.98000038,69.9006248 8.98000038,92.116693 C8.98000038,114.332761 17.658152,135.160325 33.3366793,150.896707 C49.0152066,166.633088 69.9006248,175.253386 92.116693,175.253386 C114.332761,175.253386 135.160325,166.575234 150.896707,150.896707 C166.633088,135.218179 175.253386,114.332761 175.253386,92.116693 C175.253386,69.9006248 166.575234,49.0730609 150.896707,33.3366793 C135.218179,17.6002977 114.332761,8.98000038 92.116693,8.98000038 Z M92.116693,0.533266129 C142.68139,0.533266129 183.70012,41.5519962 183.70012,92.116693 C183.70012,142.68139 142.68139,183.70012 92.116693,183.70012 C41.5519962,183.70012 0.533266129,142.68139 0.533266129,92.116693 C0.533266129,41.5519962 41.5519962,0.533266129 92.116693,0.533266129 Z M67.0657619,106.291007 C64.9830056,109.993685 62.032434,112.886403 58.2140473,114.969159 C54.3378062,117.051915 49.8251674,118.093294 44.6182764,118.093294 L26.1048863,118.093294 L26.1048863,69.090664 L44.6182764,69.090664 C49.8830217,69.090664 54.4535149,70.1320422 58.2719016,72.1569442 C62.0902883,74.1818463 65.0408599,77.0745635 67.1236163,80.7193872 C69.2063727,84.4220652 70.1898965,88.6454323 70.1898965,93.4473429 C70.1320422,98.3649622 69.090664,102.588329 67.0657619,106.291007 Z M54.2799519,103.861125 C56.825543,101.431242 58.0983386,97.9599817 58.0983386,93.5630516 C58.0983386,89.1082671 56.825543,85.6948608 54.2799519,83.2649783 C51.7343607,80.8350959 48.1473914,79.6201546 43.5190439,79.6201546 L37.9071725,79.6201546 L37.9071725,107.621657 L43.5190439,107.621657 C48.1473914,107.505949 51.7343607,106.291007 54.2799519,103.861125 Z M102.414766,81.355785 C105.423192,82.9757066 107.79522,85.232026 109.530851,88.2404519 C111.266481,91.2488778 112.134296,94.7779928 112.134296,98.7699426 C112.134296,102.761892 111.266481,106.291007 109.530851,109.299433 C107.79522,112.307859 105.423192,114.622033 102.414766,116.1841 C99.4063403,117.804022 95.9350797,118.556128 92.116693,118.556128 C88.2983063,118.556128 84.8270456,117.746167 81.8186197,116.1841 C78.7523395,114.564179 76.3803114,112.307859 74.644681,109.299433 C72.9090507,106.291007 72.0412355,102.761892 72.0412355,98.7699426 C72.0412355,94.7779928 72.9090507,91.2488778 74.644681,88.2404519 C76.3803114,85.232026 78.7523395,82.9178523 81.8186197,81.355785 C84.8849,79.7358633 88.2983063,78.9837568 92.116693,78.9837568 C95.992934,78.9837568 99.4063403,79.7937177 102.414766,81.355785 Z M86.4469672,91.7117126 C84.8849,93.3316342 84.1327935,95.7036623 84.1327935,98.8277969 C84.1327935,101.894077 84.8849,104.266105 86.4469672,105.886027 C88.0090345,107.505949 89.9182279,108.315909 92.1745473,108.315909 C94.4308667,108.315909 96.3400601,107.505949 97.8442731,105.886027 C99.348486,104.266105 100.158447,101.894077 100.158447,98.8277969 C100.158447,95.7615167 99.4063403,93.3894885 97.8442731,91.7117126 C96.3400601,90.0917909 94.4308667,89.2818301 92.1745473,89.2818301 C89.8603736,89.2239758 88.0090345,90.0339366 86.4469672,91.7117126 Z M153.442298,73.6033028 C157.549956,76.9010005 160.153402,81.2979306 161.368343,86.909802 L148.81395,86.909802 C147.888281,84.6534826 146.441922,82.8599979 144.532729,81.5872023 C142.623535,80.3144068 140.367216,79.6201546 137.705916,79.6201546 C134.234656,79.6201546 131.457647,80.8929502 129.317036,83.4385413 C127.176426,85.9841325 126.135047,89.3975388 126.135047,93.6209059 C126.135047,97.8442731 127.176426,101.257679 129.317036,103.745416 C131.457647,106.291007 134.234656,107.505949 137.705916,107.505949 C140.367216,107.505949 142.623535,106.869551 144.532729,105.538901 C146.441922,104.266105 147.888281,102.472621 148.81395,100.274156 L161.368343,100.274156 C160.153402,105.828173 157.549956,110.225103 153.442298,113.5228 C149.334639,116.820498 144.185603,118.498274 137.937334,118.498274 C133.193277,118.498274 129.027765,117.456896 125.382941,115.374139 C121.795972,113.291383 119.018963,110.340811 117.051915,106.522425 C115.084868,102.761892 114.101344,98.4228165 114.101344,93.5630516 C114.101344,88.7032867 115.084868,84.4220652 117.051915,80.6036785 C119.018963,76.8431461 121.795972,73.8925746 125.382941,71.7519638 C128.96991,69.6692074 133.135423,68.6278292 137.937334,68.6278292 C144.185603,68.6856836 149.334639,70.3056052 153.442298,73.6033028 Z" id="Combined-Shape" fill="#00A651" fill-rule="nonzero"></path>
                                </g>
                            </g>
                        </g>
                        <path d="M34.177139,146.984375 L298.960027,146.984375 C312.271123,146.984375 323.423663,157.765625 323.423663,171.421875 L323.423663,362.96875 C323.423663,376.265625 312.630882,387.40625 298.960027,387.40625 L34.177139,387.40625 C20.8660428,387.40625 9.71350267,376.625 9.71350267,362.96875 L9.71350267,171.421875 C10.073262,157.765625 20.8660428,146.984375 34.177139,146.984375 Z" id="Rectangle_2_" fill="#FFFFFF" fill-rule="nonzero"></path>
                        <g id="Group_3_" transform="translate(11.319659, 144.996711)" fill-rule="nonzero">
                            <polygon id="Path_11_" fill="#D4E1F4" points="210.818984 2.234375 210.818984 2.234375 210.818984 2.59375"></polygon>
                            <polygon id="Path_10_" fill="#D4E1F4" points="93.1776738 2.234375 93.1776738 2.234375 93.1776738 2.59375"></polygon>
                            <path d="M17.6282086,32.421875 C17.6282086,15.890625 30.9393048,2.234375 47.8479947,2.234375 L30.2197861,2.234375 C13.6708556,2.234375 0,15.53125 0,32.421875 L0,131.25 C6.11590909,127.65625 11.8720588,123.703125 17.6282086,119.75 L17.6282086,32.421875 Z" id="Path_9_" fill="#E5E5E9"></path>
                            <path d="M248.593717,89.203125 C238.160695,89.203125 228.447193,93.875 221.971524,102.140625 C215.855615,110.40625 213.697059,121.1875 216.575134,131.25 C220.532487,116.875 233.843583,106.8125 248.593717,106.8125 L322.344385,106.8125 L322.344385,89.203125 L248.593717,89.203125 Z" id="Path_8_" fill="#E5E5E9"></path>
                        </g>
                        <path d="M338.893316,223.53125 L329.539572,223.53125 L329.539572,177.53125 C329.539572,155.25 311.191845,136.921875 288.886765,136.921875 L268.380481,136.921875 L82.7446524,136.921875 L41.3723262,136.921875 C19.067246,136.921875 0.719518717,155.25 0.719518717,177.53125 L0.719518717,285.703125 L11.1525401,285.703125 L11.1525401,177.53125 C11.1525401,161 24.4636364,147.34375 41.3723262,147.34375 L86.7020053,147.34375 L86.7020053,147.34375 L86.7020053,147.34375 L203.983556,147.34375 L203.983556,147.34375 L203.983556,147.34375 L288.167246,147.34375 C304.716176,147.34375 318.387032,160.640625 318.387032,177.53125 L318.387032,223.53125 L259.746257,223.53125 C235.64238,223.53125 216.215374,243.296875 216.215374,267.375 C216.215374,291.453125 235.64238,311.21875 259.746257,311.21875 L318.746791,311.21875 L318.746791,357.21875 C318.746791,373.75 305.435695,387.40625 288.527005,387.40625 L112.24492,387.40625 L112.24492,397.828125 L288.527005,397.828125 C310.832086,397.828125 329.179813,379.5 329.179813,357.21875 L329.179813,311.21875 L338.533556,311.21875 C341.411631,311.21875 343.929947,308.703125 343.929947,305.828125 L343.929947,228.921875 C343.929947,226.765625 342.13115,224.96875 338.893316,223.53125 Z M333.496925,300.4375 L259.746257,300.4375 C241.398529,300.4375 226.648396,285.34375 226.648396,267.375 C226.648396,249.40625 241.398529,234.3125 259.746257,234.3125 L333.496925,234.3125 L333.496925,300.4375 Z" id="Shape_6_" fill="#06537B" fill-rule="nonzero"></path>
                        <path d="M241.398529,267.375 C241.398529,278.15625 250.392513,287.140625 261.185294,287.140625 C271.978075,287.140625 280.972059,278.15625 280.972059,267.375 C280.972059,256.59375 271.978075,247.609375 261.185294,247.609375 C250.392513,247.609375 241.398529,256.59375 241.398529,267.375 L241.398529,267.375 Z M261.185294,258.390625 C266.221925,258.390625 270.179278,262.34375 270.179278,267.375 C270.179278,272.40625 266.221925,276.359375 261.185294,276.359375 C256.148663,276.359375 252.19131,272.40625 252.19131,267.375 C252.19131,262.34375 256.148663,258.390625 261.185294,258.390625 Z" id="Shape_2_" fill="#06537B" fill-rule="nonzero"></path>
                    </g>
                </g>
                <ellipse id="Oval_2_" fill="#BEEBD7" fill-rule="nonzero" cx="153.977005" cy="361.890625" rx="98.9338235" ry="98.828125"></ellipse>
                <ellipse id="Oval-Copy_2_" fill="#BEEBD7" fill-rule="nonzero" cx="594.32246" cy="223.53125" rx="75.9092246" ry="75.828125"></ellipse>
                <g id="moc/icon-riskprox" transform="translate(503.663102, 147.343750)">
                    <circle id="bg" fill="#FFFFFF" fill-rule="evenodd" cx="77.4902344" cy="77.4902344" r="71.4257812"></circle>
                    <g id="moc/config/icon-riskprox" transform="translate(0.449219, 0.449219)">
                        <circle id="bg" fill="#FFFFFF" fill-rule="evenodd" cx="76.9902974" cy="76.9902974" r="70.9649698"></circle>
                        <path d="M77.0976669,7.51586988 C58.5522054,7.51586988 41.0720184,14.7791055 27.9013511,27.9013511 C14.7306839,41.0235968 7.51586988,58.5037838 7.51586988,77.0976669 C7.51586988,95.6915501 14.7791055,113.123316 27.9013511,126.293983 C41.0235968,139.46465 58.5037838,146.679464 77.0976669,146.679464 C95.6915501,146.679464 113.123316,139.416228 126.293983,126.293983 C139.46465,113.171737 146.679464,95.6915501 146.679464,77.0976669 C146.679464,58.5037838 139.416228,41.0720184 126.293983,27.9013511 C113.171737,14.7306839 95.6915501,7.51586988 77.0976669,7.51586988 Z M77.0976669,0.446320565 C119.466541,0.446320565 153.749013,34.7772142 153.749013,77.0976669 C153.749013,119.41812 119.41812,153.749013 77.0976669,153.749013 C34.7772142,153.749013 0.446320565,119.41812 0.446320565,77.0976669 C0.446320565,34.7772142 34.7772142,0.446320565 77.0976669,0.446320565 Z M54.0489993,79.4703239 C55.5016464,81.3103436 56.22797,83.3924711 56.22797,85.8135497 C56.22797,89.3483243 55.0658523,92.0599323 52.7416169,94.0452167 C50.4173815,96.0305011 47.0278716,96.9989325 42.6699302,96.9989325 L39.6677928,96.9989325 L39.6677928,100.969501 L35.6488024,100.969501 L35.6488024,96.9989325 L33.4214102,96.9989325 L33.4214102,100.969501 L29.4024198,100.969501 L29.4024198,96.9989325 L23.5918313,96.9989325 L23.5918313,55.9858621 L29.4024198,55.9858621 L29.4024198,51.7247639 L33.4214102,51.7247639 L33.4214102,55.9858621 L35.6488024,55.9858621 L35.6488024,51.7247639 L39.6677928,51.7247639 L39.6677928,55.9858621 L42.1857145,55.9858621 C46.3499696,55.9858621 49.5942148,56.905872 51.8700286,58.6974701 C54.1458424,60.5374898 55.3079601,63.103833 55.3079601,66.4449214 C55.3079601,68.9144215 54.6300582,70.996549 53.3226757,72.6428824 C52.0152933,74.2892158 50.2721168,75.3544904 48.1415677,75.8387061 C50.6594894,76.4681865 52.5963522,77.6787258 54.0489993,79.4703239 Z M33.5182533,63.9754213 L33.5182533,72.7881472 L40.0067438,72.7881472 C43.4446753,72.7881472 45.1878519,71.3355 45.1878519,68.3817842 C45.1878519,65.4280684 43.4446753,63.9754213 39.9099007,63.9754213 L33.5182533,63.9754213 Z M40.5878027,88.9125302 C44.267842,88.9609518 46.1078617,87.4114615 46.1078617,84.4093241 C46.1078617,82.956677 45.623646,81.7945593 44.6552146,80.9713926 C43.6867832,80.1482259 42.3309792,79.7124318 40.5393811,79.7124318 L33.5182533,79.7124318 L33.5182533,88.9125302 L40.5878027,88.9125302 Z M91.5757166,55.9374406 L91.5757166,63.9269997 L80.3419122,63.9269997 L80.3419122,97.3863051 L70.2702255,97.3863051 L70.2702255,63.9269997 L59.1332642,63.9269997 L59.1332642,55.9374406 L91.5757166,55.9374406 Z M127.795051,59.7143231 C131.232983,62.4743526 133.508797,66.2512351 134.52565,70.9481275 L123.921326,70.9481275 C123.146581,69.0112646 121.936041,67.510196 120.33813,66.4449214 C118.740218,65.3312253 116.803355,64.798588 114.575963,64.798588 C111.622247,64.798588 109.298011,65.8638626 107.506413,68.0428332 C105.714815,70.1733823 104.794805,73.0786766 104.794805,76.6618728 C104.794805,80.245069 105.714815,83.1019417 107.506413,85.2324908 C109.298011,87.3630399 111.670668,88.4283145 114.575963,88.4283145 C116.803355,88.4283145 118.740218,87.8956772 120.33813,86.7819811 C121.936041,85.668285 123.146581,84.2156378 123.921326,82.3271966 L134.52565,82.3271966 C133.508797,87.0240889 131.281405,90.7525499 127.795051,93.561001 C124.35712,96.3694521 119.950757,97.7736776 114.721227,97.7736776 C110.702237,97.7736776 107.167462,96.9020894 104.116903,95.1104912 C101.066344,93.3188931 98.6936875,90.849393 97.0473541,87.6535694 C95.4010207,84.4577457 94.577854,80.7777063 94.577854,76.7102944 C94.577854,72.6428824 95.4010207,68.9628431 97.0473541,65.7670194 C98.6936875,62.5711957 101.066344,60.0532741 104.116903,58.3100975 C107.167462,56.5184994 110.702237,55.6469111 114.721227,55.6469111 C119.950757,55.550068 124.35712,56.905872 127.795051,59.7143231 Z M81.8429809,129.828757 L76.8555591,121.984463 L72.352353,129.828757 L69.3986372,129.828757 L75.4513335,119.757071 L69.3017941,110.024335 L72.352353,110.024335 L77.1945101,117.723365 L81.7461377,110.024335 L84.6998535,110.024335 L78.6471572,119.950757 L84.8935398,129.828757 L81.8429809,129.828757 Z" id="Combined-Shape" fill="#ED1B32" fill-rule="nonzero"></path>
                    </g>
                </g>
                <g id="moc/icon-riskpro" transform="translate(79.147059, 262.343750)">
                    <circle id="bg" fill="#FFFFFF" fill-rule="evenodd" cx="100.487336" cy="100.487336" r="92.6231099"></circle>
                    <g id="moc/config/icon-riskpro" transform="translate(0.582535, 0.582535)">
                        <circle id="bg" fill="#FFFFFF" fill-rule="evenodd" cx="99.9873992" cy="99.9873992" r="92.1622984"></circle>
                        <path d="M100.12684,9.76086998 C76.0418252,9.76086998 53.3402836,19.1936435 36.235521,36.235521 C19.1307583,53.2773984 9.76086998,76.0418252 9.76086998,100.12684 C9.76086998,124.211855 19.1936435,146.913397 36.235521,164.018159 C53.2773984,181.122922 75.97894,190.49281 100.12684,190.49281 C124.27474,190.49281 146.913397,181.060037 164.018159,164.018159 C181.122922,146.976282 190.49281,124.27474 190.49281,100.12684 C190.49281,75.97894 181.060037,53.3402836 164.018159,36.235521 C146.976282,19.1307583 124.27474,9.76086998 100.12684,9.76086998 Z M100.12684,0.579637097 C155.151352,0.579637097 199.674043,45.2280984 199.674043,100.12684 C199.674043,155.025582 155.088467,199.674043 100.12684,199.674043 C45.1652132,199.674043 0.579637097,155.088467 0.579637097,100.12684 C0.579637097,45.1652132 45.1652132,0.579637097 100.12684,0.579637097 Z M43.9703952,125.97264 L43.9703952,131.129222 L38.7509272,131.129222 L38.7509272,125.97264 L35.85821,125.97264 L35.85821,131.129222 L30.638742,131.129222 L30.638742,125.97264 L23.0925232,125.97264 L23.0925232,72.7089119 L30.638742,72.7089119 L30.638742,67.1750181 L35.85821,67.1750181 L35.85821,72.7089119 L38.7509272,72.7089119 L38.7509272,67.1750181 L43.9703952,67.1750181 L43.9703952,72.7089119 L47.2404234,72.7089119 C52.6485469,72.7089119 56.8618524,73.9037298 59.8174547,76.2304806 C62.7730571,78.6201166 64.2823009,81.9530299 64.2823009,86.2921057 C64.2823009,89.4992487 63.4019087,92.2033104 61.7040094,94.3414058 C60.0061102,96.4795011 57.7422446,97.8629746 54.9752977,98.4918261 C58.2453258,99.3093332 60.7607321,100.881462 62.6472868,103.208213 C64.5338415,105.597849 65.4771188,108.301911 65.4771188,111.446168 C65.4771188,116.036785 63.9678751,119.558354 60.9493876,122.136645 C57.9309,124.714936 53.5289391,125.97264 47.869275,125.97264 L43.9703952,125.97264 Z M35.9839803,94.5300612 L44.4105913,94.5300612 C48.8754375,94.5300612 51.1393031,92.6435065 51.1393031,88.807512 C51.1393031,84.9715174 48.8754375,83.0849627 44.284821,83.0849627 L35.9839803,83.0849627 L35.9839803,94.5300612 Z M52.3341211,109.622499 C52.3341211,107.735944 51.7052695,106.2267 50.4475664,105.157653 C49.1898632,104.088605 47.4290789,103.522639 45.1023281,103.522639 L35.9839803,103.522639 L35.9839803,115.470818 L45.1652132,115.470818 C49.9444851,115.533704 52.3341211,113.521379 52.3341211,109.622499 Z M82.1416854,107.295748 L82.1416854,125.97264 L69.2502282,125.97264 L69.2502282,72.7089119 L90.1281003,72.7089119 C96.4795011,72.7089119 101.258773,74.2810408 104.591686,77.4252986 C107.9246,80.5695565 109.559614,84.782862 109.559614,90.1281003 C109.559614,93.4610136 108.804992,96.4166159 107.358633,98.9949074 C105.849389,101.573199 103.711294,103.585524 100.755692,105.094768 C97.8629746,106.604011 94.2785206,107.295748 90.1281003,107.295748 L82.1416854,107.295748 Z M96.4166159,90.1281003 C96.4166159,85.4745987 93.8383245,83.1478479 88.6817417,83.1478479 L82.1416854,83.1478479 L82.1416854,96.9825824 L88.6817417,96.9825824 C93.8383245,96.9825824 96.4166159,94.7187167 96.4166159,90.1281003 Z M131.946729,85.7890245 C134.462136,84.2797807 137.229083,83.5251588 140.184685,83.5251588 L140.184685,97.2970081 L136.474461,97.2970081 C133.078662,97.2970081 130.437486,98.05163 128.550931,99.4979886 C126.664376,100.944347 125.721099,103.396868 125.721099,106.855552 L125.721099,125.97264 L112.829642,125.97264 L112.829642,83.9653549 L125.721099,83.9653549 L125.721099,91.8888847 C127.356113,89.3105932 129.368438,87.2982682 131.946729,85.7890245 Z M173.450933,86.0405651 C176.720961,87.8013495 179.299253,90.2538706 181.185807,93.5238987 C183.072362,96.7939269 184.015639,100.629921 184.015639,104.968997 C184.015639,109.308073 183.072362,113.144068 181.185807,116.414096 C179.299253,119.684124 176.720961,122.19953 173.450933,123.897429 C170.180905,125.658214 166.407795,126.475721 162.257375,126.475721 C158.106955,126.475721 154.333845,125.595329 151.063817,123.897429 C147.730904,122.136645 145.152612,119.684124 143.266058,116.414096 C141.379503,113.144068 140.436226,109.308073 140.436226,104.968997 C140.436226,100.629921 141.379503,96.7939269 143.266058,93.5238987 C145.152612,90.2538706 147.730904,87.7384643 151.063817,86.0405651 C154.39673,84.2797807 158.106955,83.4622737 162.257375,83.4622737 C166.407795,83.4622737 170.11802,84.2797807 173.450933,86.0405651 Z M156.031745,97.234123 C154.333845,98.9949074 153.516338,101.573199 153.516338,104.968997 C153.516338,108.301911 154.333845,110.880202 156.031745,112.640986 C157.729644,114.401771 159.804854,115.282163 162.257375,115.282163 C164.709896,115.282163 166.785106,114.401771 168.42012,112.640986 C170.055134,110.880202 170.935527,108.301911 170.935527,104.968997 C170.935527,101.636084 170.11802,99.0577925 168.42012,97.234123 C166.785106,95.4733386 164.709896,94.5929464 162.257375,94.5929464 C159.804854,94.5929464 157.729644,95.4733386 156.031745,97.234123 Z" id="Combined-Shape" fill="#FF9415" fill-rule="nonzero"></path>
                    </g>
                </g>
            </g>
        </g>
        <path d="M534.164845,600 L152.835155,600 C149.59745,600 146,605.03125 146,611.5 C146,617.96875 149.59745,623 152.835155,623 L534.164845,623 C537.40255,623 541,617.96875 541,611.5 C541,604.671875 537.40255,600 534.164845,600" id="path-1_1_" fill-opacity="0.1" fill="#50E3C2" fill-rule="nonzero"></path>
    </g>
</svg>