<svg xmlns="http://www.w3.org/2000/svg" width="19.438" height="19.438" viewBox="0 0 19.438 19.438">
  <g id="Icon_feather-copy" data-name="Icon feather-copy" transform="translate(-1.5 -1.5)">
    <path id="Path_137" data-name="Path 137" d="M15.144,13.5h7.4a1.644,1.644,0,0,1,1.644,1.644v7.4a1.644,1.644,0,0,1-1.644,1.644h-7.4A1.644,1.644,0,0,1,13.5,22.541v-7.4A1.644,1.644,0,0,1,15.144,13.5Z" transform="translate(-4.747 -4.747)" fill="none" stroke="#fff" stroke-linecap="round" stroke-linejoin="round" stroke-width="3"/>
    <path id="Path_138" data-name="Path 138" d="M5.466,13.685H4.644A1.644,1.644,0,0,1,3,12.041v-7.4A1.644,1.644,0,0,1,4.644,3h7.4a1.644,1.644,0,0,1,1.644,1.644v.822" fill="none" stroke="#fff" stroke-linecap="round" stroke-linejoin="round" stroke-width="3"/>
  </g>
</svg>
