<svg id="Layer_11" data-name="Layer 11" xmlns="http://www.w3.org/2000/svg" viewBox="0 0 100 100"><defs><style>.cls-1{fill:#fff;}.cls-2{fill:#f0b90b;}</style></defs><circle class="cls-1" cx="50" cy="50" r="50"/><path class="cls-2" d="M96.68,50A46.68,46.68,0,1,1,50,3.32,46.68,46.68,0,0,1,96.68,50Z"/><g id="Layer_1" data-name="Layer 1"><path id="Path_3813" data-name="Path 3813" class="cls-1" d="M34.54,44.85,50,29.39,65.46,44.85l9-9L50,11.41,25.55,35.85l9,9M10.21,51.2l9-9,9,9-9,9Zm24.33,6.35L50,73,65.46,57.54l9,9h0L50,91,25.55,66.54h0l9-9M71.81,51.2l9-9,9,9-9,9Z"/><path id="Path_3814" data-name="Path 3814" class="cls-1" d="M59.12,51.19h0L50,42.07l-6.75,6.74h0l-.77.77-1.6,1.6h0v0L50,60.32l9.13-9.13h0"/></g></svg>