<svg id="Layer_11" data-name="Layer 11" xmlns="http://www.w3.org/2000/svg" viewBox="0 0 100 100"><defs><style>.cls-1{fill:#fff;}.cls-2{fill:#f63;}</style></defs><circle class="cls-1" cx="50" cy="50" r="50"/><path class="cls-2" d="M96.68,50A46.68,46.68,0,1,1,50,3.32,46.68,46.68,0,0,1,96.68,50ZM50,34.41A23.23,23.23,0,1,0,73.23,57.64,23.23,23.23,0,0,0,50,34.41ZM74.28,82.65c-.67-2.59-1.44-5.34-2.31-8.13a27.67,27.67,0,0,1-43.92,0c-.87,2.79-1.63,5.53-2.3,8.11a40.7,40.7,0,0,0,48.53,0ZM64.77,13.51a2.39,2.39,0,0,0-2.16.84c-1.14,1.84,2.48,6.12,8.07,9.56,3.86,2.38,7.66,3.74,10,3.74a2.39,2.39,0,0,0,2.16-.84C84,25,80.37,20.68,74.78,17.24c-3.86-2.38-7.66-3.73-10-3.73m9.3,17.73a37.47,37.47,0,0,1-6-3c-3.94-2.51-6.94-4.94-9.13-8.29-1,3.27-2.59,7.36-2,10.86a27.81,27.81,0,0,1,11.73,6.33C71.19,36.24,73,33.76,74.07,31.24ZM41.39,20.75a29.43,29.43,0,0,0-4.74-9.18h0a40.67,40.67,0,0,0-14,8.33h0A32.81,32.81,0,0,0,24,26.08c1.72,5.31,3.54,9.81,7.38,11a27.79,27.79,0,0,1,11.74-6.33C43.54,28,42.61,24.51,41.39,20.75Zm16.78,46a2.1,2.1,0,0,1-2.1,2.1H53.89a3.89,3.89,0,1,1-7.78,0H43.93a2.11,2.11,0,0,1,0-4.21H56.07A2.1,2.1,0,0,1,58.17,66.79Zm7.63-13c-1.87,0-3.39,2.41-3.39,5.88s1.52,6.26,3.39,6.26,2.76-2.81,2.76-6.28S67.67,53.74,65.8,53.75Zm-21,7a1.85,1.85,0,0,0-.77-2l-9.91-5.92a1.63,1.63,0,0,0-2.26.69,1.91,1.91,0,0,0,.65,2.35l6.1,3.17-7.09-.16c-.82,0-1.35.61-1.35,1.58A1.44,1.44,0,0,0,31.64,62H43.08A1.75,1.75,0,0,0,44.77,60.77Z"/></svg>