<?xml version="1.0" encoding="UTF-8"?>
<svg width="690px" height="690px" viewBox="0 0 690 690" version="1.1" xmlns="http://www.w3.org/2000/svg" xmlns:xlink="http://www.w3.org/1999/xlink">
    <!-- Generator: Sketch 56 (81588) - https://sketch.com -->
    <title>moc/config/icon-moc</title>
    <desc>Created with Sketch.</desc>
    <g id="moc/config/icon-moc" stroke="none" stroke-width="1" fill="none" fill-rule="evenodd">
        <g>
            <circle id="bg" fill="#FFFFFF" fill-rule="evenodd" cx="344.5" cy="344.5" r="317.53913"></circle>
            <path d="M344.0653,31.733123 C260.602839,31.733123 182.356782,64.3356467 123.237539,123.237539 C64.1182965,182.139432 31.733123,260.602839 31.733123,344.0653 C31.733123,427.52776 64.3356467,505.991167 123.237539,564.89306 C182.139432,623.794953 260.602839,656.397476 344.0653,656.397476 C427.52776,656.397476 505.773817,623.794953 564.89306,564.89306 C624.012303,505.991167 656.397476,427.52776 656.397476,344.0653 C656.397476,260.602839 623.794953,182.356782 564.89306,123.237539 C505.991167,64.1182965 427.52776,31.733123 344.0653,31.733123 Z M344.0653,-5.68434189e-14 C534.029338,-5.68434189e-14 688.130599,154.101262 688.130599,344.0653 C688.130599,534.029338 534.029338,688.130599 344.0653,688.130599 C154.101262,688.130599 -5.68434189e-14,534.029338 -5.68434189e-14,344.0653 C-5.68434189e-14,154.101262 154.101262,-5.68434189e-14 344.0653,-5.68434189e-14 Z M406.662145,303.63817 C417.964353,309.723975 426.87571,318.200631 433.396215,329.502839 C439.916719,340.805047 443.176972,354.063407 443.176972,369.060568 C443.176972,384.057729 439.916719,397.316088 433.396215,408.618297 C426.87571,419.920505 417.964353,428.614511 406.662145,434.482965 C395.359937,440.56877 382.318927,443.394322 367.973817,443.394322 C353.628707,443.394322 340.587697,440.35142 329.285489,434.482965 C317.765931,428.397161 308.854574,419.920505 302.334069,408.618297 C295.813565,397.316088 292.553312,384.057729 292.553312,369.060568 C292.553312,354.063407 295.813565,340.805047 302.334069,329.502839 C308.854574,318.200631 317.765931,309.506625 329.285489,303.63817 C340.805047,297.552366 353.628707,294.726814 367.973817,294.726814 C382.536278,294.726814 395.359937,297.769716 406.662145,303.63817 Z M346.673502,342.543849 C340.805047,348.629653 337.979495,357.541009 337.979495,369.277918 C337.979495,380.797476 340.805047,389.708833 346.673502,395.794637 C352.541956,401.880442 359.714511,404.923344 368.191167,404.923344 C376.667823,404.923344 383.840379,401.880442 389.491483,395.794637 C395.142587,389.708833 398.185489,380.797476 398.185489,369.277918 C398.185489,357.75836 395.359937,348.847003 389.491483,342.543849 C383.840379,336.458044 376.667823,333.415142 368.191167,333.415142 C359.497161,333.197792 352.541956,336.240694 346.673502,342.543849 Z M598.364984,274.513249 C613.796845,286.902208 623.577603,303.42082 628.141956,324.503785 L580.976972,324.503785 C577.499369,316.027129 572.065615,309.289274 564.89306,304.507571 C557.720505,299.725868 549.243849,297.117666 539.245741,297.117666 C526.204732,297.117666 515.771924,301.899369 507.729968,311.462776 C499.688013,321.026183 495.77571,333.849842 495.77571,349.716404 C495.77571,365.582965 499.688013,378.406625 507.729968,387.752681 C515.771924,397.316088 526.204732,401.880442 539.245741,401.880442 C549.243849,401.880442 557.720505,399.48959 564.89306,394.490536 C572.065615,389.708833 577.499369,382.970978 580.976972,374.711672 L628.141956,374.711672 C623.577603,395.577287 613.796845,412.095899 598.364984,424.484858 C582.933123,436.873817 563.588959,443.176972 540.115142,443.176972 C522.292429,443.176972 506.643218,439.264669 492.950158,431.440063 C479.474448,423.615457 469.04164,412.530599 461.651735,398.185489 C454.26183,384.057729 450.566877,367.756467 450.566877,349.499054 C450.566877,331.24164 454.26183,315.157729 461.651735,300.812618 C469.04164,286.684858 479.474448,275.6 492.950158,267.558044 C506.425868,259.733438 522.075079,255.821136 540.115142,255.821136 C563.588959,256.038486 582.933123,262.12429 598.364984,274.513249 Z M284.294006,257.125237 L284.294006,441.655521 L239.302524,441.655521 L239.302524,326.242587 L199.310095,441.655521 L160.404416,441.655521 L120.194637,326.025237 L120.194637,441.655521 L75.2031546,441.655521 L75.2031546,257.125237 L130.192744,257.125237 L180.400631,385.79653 L229.521767,257.125237 L284.294006,257.125237 Z" id="Combined-Shape" fill="#00D5C4" fill-rule="nonzero"></path>
        </g>
    </g>
</svg>