<svg id="Layer_11" data-name="Layer 11" xmlns="http://www.w3.org/2000/svg" viewBox="0 0 100 100"><defs><style>.cls-1{fill:#fff;}.cls-2{fill:#f06;}</style></defs><circle class="cls-1" cx="50" cy="50" r="50"/><path class="cls-2" d="M50,3.32A46.68,46.68,0,1,0,96.68,50,46.68,46.68,0,0,0,50,3.32ZM32.44,38.22A7,7,0,0,1,30.55,28a6.9,6.9,0,0,1,6.8-3.25c1,5.06,4.79,12,7.28,16.23C40.33,40.59,34.68,39.76,32.44,38.22Zm19.91-.77c-1.33,2.34-2.35,4-2.35,4A108.8,108.8,0,0,1,43.34,29a19.16,19.16,0,0,1-1.88-6.54c0-.08,0-.15,0-.22A8.13,8.13,0,0,1,50,13.88a8.15,8.15,0,0,1,8.54,8.56C58.54,26,54.88,33,52.35,37.45ZM69.21,77.59l1.24,7.58a40.22,40.22,0,0,1-14.14,5,8.74,8.74,0,0,1-12.63,0,40.43,40.43,0,0,1-14.13-5l1.24-7.58a27.68,27.68,0,0,0,10.47,6.35,11.71,11.71,0,0,1,1.41-4.26A23.23,23.23,0,0,1,27.2,53.19l4.95,2.13a10.65,10.65,0,0,0-.71,4.29c0,3.47.89,6.28,2.76,6.28s3.39-2.8,3.39-6.26a10.11,10.11,0,0,0-.2-2.05l2.49,1.07a1.85,1.85,0,0,0,.76.16,1.92,1.92,0,0,0,.76-3.68L28.25,49.47a23.17,23.17,0,0,1,4.22-7.06,11.15,11.15,0,0,1-2.16-1.09A10.73,10.73,0,0,1,27.45,25.9a10.89,10.89,0,0,1,9-4.94h0l.72,0A12.45,12.45,0,0,1,50,9.5,12.5,12.5,0,0,1,62.92,22.44c0,3.54-2.32,8.9-4.7,13.47A23.32,23.32,0,0,1,71.75,49.47L58.6,55.13a1.92,1.92,0,0,0,.76,3.68,1.85,1.85,0,0,0,.76-.16l2.49-1.07a10.11,10.11,0,0,0-.2,2.05c0,3.46,1.52,6.26,3.39,6.26s2.76-2.81,2.76-6.28a10.65,10.65,0,0,0-.71-4.29l5-2.13A23.23,23.23,0,0,1,57.33,79.68l0,0a11.59,11.59,0,0,1,1.39,4.22A27.68,27.68,0,0,0,69.21,77.59ZM52.35,37.45c-1.33,2.34-2.35,4-2.35,4A108.8,108.8,0,0,1,43.34,29a19.16,19.16,0,0,1-1.88-6.54c0-.08,0-.15,0-.22A8.13,8.13,0,0,1,50,13.88a8.15,8.15,0,0,1,8.54,8.56C58.54,26,54.88,33,52.35,37.45Zm-19.91.77A7,7,0,0,1,30.55,28a6.9,6.9,0,0,1,6.8-3.25c1,5.06,4.79,12,7.28,16.23C40.33,40.59,34.68,39.76,32.44,38.22ZM59.66,70.28l-8.77,4.29a49.82,49.82,0,0,1,4,6.38A8.19,8.19,0,0,1,56,84.14,6,6,0,0,1,44.71,87,6,6,0,0,1,44,84.14c0-1.54,2.06-5.32,5.12-9.57l-8.77-4.29a.55.55,0,0,1-.08-.94l7.68-5.41a3.58,3.58,0,0,1,4.12,0l7.68,5.41A.55.55,0,0,1,59.66,70.28Z"/></svg>