<svg id="Layer_11" data-name="Layer 11" xmlns="http://www.w3.org/2000/svg" viewBox="0 0 100 100"><defs><style>.cls-1{fill:#fff;}.cls-2{fill:#0d41ff;}</style></defs><path class="cls-1" d="M50,100C23.11,100,1.23,77.57,1.23,50S23.11,0,50,0A47.85,47.85,0,0,1,75,7.08l3.3,2v1.12l-3,2.3a10.24,10.24,0,0,0,5.45,18.36H81l3.47.16-.33,3.45,0,.28a10.26,10.26,0,0,0,9.52,10.88h.55c.33,0,.64,0,1,0l2.35-.18,1.16,1.12.06,2.63c0,.27,0,.53,0,.79C98.77,77.57,76.89,100,50,100Z"/><path class="cls-2" d="M50.11,16.06a8.46,8.46,0,1,0,8.47,8.46A8.46,8.46,0,0,0,50.11,16.06ZM95.43,48.94c0,.36,0,.71,0,1.06,0,25.79-20.35,46.69-45.46,46.69S4.54,75.79,4.54,50,24.89,3.31,50,3.31A44.35,44.35,0,0,1,73.29,9.9a13.56,13.56,0,0,0,7.29,24.3h.31c0,.11,0,.2,0,.31A13.56,13.56,0,0,0,93.44,49,14.61,14.61,0,0,0,95.43,48.94ZM73.17,47.6a8,8,0,0,0-8-7.57H34.84a8,8,0,0,0-8,7.57,7.83,7.83,0,0,0,7.71,8.28h7.71V79.41a8,8,0,0,0,7.37,8.16,7.81,7.81,0,0,0,8.06-7.91V55.88h7.72A7.83,7.83,0,0,0,73.17,47.6Z"/></svg>