<svg id="Layer_1" data-name="Layer 1" xmlns="http://www.w3.org/2000/svg" viewBox="0 0 120 120"><defs><style>.cls-1{fill:#00a69c;}.cls-2{fill:#04364f;}.cls-3{fill:#fff;}</style></defs><title>Artboard 1</title><path class="cls-1" d="M113.35,60A53.35,53.35,0,1,1,60,6.65,53.36,53.36,0,0,1,113.35,60"/><path class="cls-2" d="M60,11.83A48.17,48.17,0,1,0,108.17,60,48.23,48.23,0,0,0,60,11.83"/><rect class="cls-1" x="13.99" y="80.51" width="91.31" height="2.11"/><path class="cls-3" d="M60,9.35A50.65,50.65,0,1,0,110.65,60,50.71,50.71,0,0,0,60,9.35m0,100.06A49.41,49.41,0,1,1,109.41,60,49.41,49.41,0,0,1,60,109.41"/><path class="cls-3" d="M60,10.59A49.41,49.41,0,1,0,109.41,60,49.41,49.41,0,0,0,60,10.59m0,97.58A48.17,48.17,0,1,1,108.17,60,48.23,48.23,0,0,1,60,108.17"/><rect class="cls-3" x="31.29" y="27.98" width="9.31" height="64.05"/><polygon class="cls-3" points="78.57 27.98 60.38 69.52 50.46 47.32 50.46 69.23 55.83 92.02 64.48 92.02 79.33 44.59 79.33 92.02 88.71 92.02 88.71 27.98 78.57 27.98"/></svg>