<svg id="Layer_11" data-name="Layer 11" xmlns="http://www.w3.org/2000/svg" viewBox="0 0 244.33 88"><defs><style>.cls-1{fill:#fff;}</style></defs><path class="cls-1" d="M111.68,13.6a6.8,6.8,0,0,0-6.8,6.8V34.51A20.29,20.29,0,0,0,98,33.28a20.52,20.52,0,1,0,20.46,21.51,6.84,6.84,0,0,0,0-.79V20.4A6.79,6.79,0,0,0,111.68,13.6Z"/><path class="cls-1" d="M46.76,33.6H19.56a6.8,6.8,0,1,0,0,13.6h6.8V67.6a6.8,6.8,0,0,0,13.6,0V47.2h6.8a6.8,6.8,0,1,0,0-13.6Z"/><path class="cls-1" d="M65.16,33.6a6.79,6.79,0,0,0-6.8,6.8V67.6a6.8,6.8,0,0,0,13.6,0V40.4A6.8,6.8,0,0,0,65.16,33.6Z"/><path class="cls-1" d="M65.16,13.6A6.8,6.8,0,1,0,72,20.4,6.79,6.79,0,0,0,65.16,13.6Z"/><circle class="cls-1" cx="32.76" cy="20.4" r="6.8"/><path class="cls-1" d="M223.93,33.6h-27.2a6.8,6.8,0,1,0,0,13.6h6.81V67.6a6.8,6.8,0,1,0,13.59,0V47.2h6.8a6.8,6.8,0,0,0,0-13.6Z"/><path class="cls-1" d="M178.33,33.6a6.8,6.8,0,0,0-6.8,6.8V67.6a6.8,6.8,0,1,0,13.6,0V40.4A6.79,6.79,0,0,0,178.33,33.6Z"/><path class="cls-1" d="M178.33,13.6a6.8,6.8,0,1,0,6.8,6.8A6.8,6.8,0,0,0,178.33,13.6Z"/><circle class="cls-1" cx="210.73" cy="20.4" r="6.8"/><path class="cls-1" d="M145.52,33.6h-6.8V20.4a6.8,6.8,0,0,0-13.6,0V54c0,.23,0,.47,0,.7a20.39,20.39,0,1,0,20.36-21.1Z"/></svg>