<?xml version="1.0" encoding="UTF-8"?>
<svg width="691px" height="694px" viewBox="0 0 691 694" version="1.1" xmlns="http://www.w3.org/2000/svg" xmlns:xlink="http://www.w3.org/1999/xlink">
    <!-- Generator: Sketch 56 (81588) - https://sketch.com -->
    <title>moc/config/tutorial_step_6</title>
    <desc>Created with Sketch.</desc>
    <g id="moc/config/tutorial_step_6" stroke="none" stroke-width="1" fill="none" fill-rule="evenodd" transform="translate(0.000000, 0.000000)">
        <g id="Group-2" transform="translate(28.000000, 8.000000)">
            <path d="M591.647257,407.754241 C585.783716,376.473449 565.456774,350.34013 557.638719,319.059338 C539.26629,247.786647 591.647257,155.132149 529.102819,97.3220779 C465.776575,38.7200879 391.114152,111.180657 362.578252,124.643276 C308.633673,150.380636 266.025275,128.20691 234.362153,120.683682 C182.372088,108.8049 127.645705,125.435195 85.4282086,161.863459 C-0.570394218,236.303825 -11.1247682,376.473449 9.98397977,435.471399 C22.1019647,465.564313 35.0017552,479.422891 51.810573,492.489551 C123.345774,548.715785 198.008198,446.954221 279.315968,465.960272 C323.487977,476.255216 343.033115,517.039034 382.514291,539.608719 C493.921572,602.962222 606.110659,486.154201 591.647257,407.754241 Z" id="Path_14_" fill="#50E3C2" fill-rule="nonzero" opacity="0.1004"></path>
            <ellipse id="Oval_2_-Copy-2" fill="#BEEBD7" fill-rule="nonzero" cx="552.660829" cy="270.25" rx="86.25" ry="80.5"></ellipse>
            <g id="moc/icon-riskpro" transform="translate(460.660829, 178.250000)">
                <circle id="bg" fill="#FFFFFF" fill-rule="evenodd" cx="80.4898564" cy="80.4898564" r="74.1906502"></circle>
                <g id="moc/config/icon-riskpro" transform="translate(0.466608, 0.466608)">
                    <circle id="bg" fill="#FFFFFF" fill-rule="evenodd" cx="79.9899194" cy="79.9899194" r="73.7298387"></circle>
                    <path d="M80.1014722,7.80869598 C60.8334601,7.80869598 42.6722269,15.3549148 28.9884168,28.9884168 C15.3046067,42.6219187 7.80869598,60.8334601 7.80869598,80.1014722 C7.80869598,99.3694842 15.3549148,117.530717 28.9884168,131.214528 C42.6219187,144.898338 60.783152,152.394248 80.1014722,152.394248 C99.4197923,152.394248 117.530717,144.84803 131.214528,131.214528 C144.898338,117.581026 152.394248,99.4197923 152.394248,80.1014722 C152.394248,60.783152 144.84803,42.6722269 131.214528,28.9884168 C117.581026,15.3046067 99.4197923,7.80869598 80.1014722,7.80869598 Z M80.1014722,0.463709677 C124.121082,0.463709677 159.739235,36.1824787 159.739235,80.1014722 C159.739235,124.020466 124.070774,159.739235 80.1014722,159.739235 C36.1321706,159.739235 0.463709677,124.070774 0.463709677,80.1014722 C0.463709677,36.1321706 36.1321706,0.463709677 80.1014722,0.463709677 Z M35.1763162,100.778112 L35.1763162,104.903378 L31.0007418,104.903378 L31.0007418,100.778112 L28.686568,100.778112 L28.686568,104.903378 L24.5109936,104.903378 L24.5109936,100.778112 L18.4740186,100.778112 L18.4740186,58.1671295 L24.5109936,58.1671295 L24.5109936,53.7400145 L28.686568,53.7400145 L28.686568,58.1671295 L31.0007418,58.1671295 L31.0007418,53.7400145 L35.1763162,53.7400145 L35.1763162,58.1671295 L37.7923387,58.1671295 C42.1188375,58.1671295 45.4894819,59.1229839 47.8539638,60.9843845 C50.2184457,62.8960933 51.4258407,65.5624239 51.4258407,69.0336846 C51.4258407,71.599399 50.7215269,73.7626484 49.3632075,75.4731246 C48.0048882,77.1836009 46.1937956,78.2903796 43.9802381,78.7934609 C46.5962607,79.4474665 48.6085857,80.7051697 50.1178294,82.5665703 C51.6270732,84.4782791 52.3816951,86.6415285 52.3816951,89.1569347 C52.3816951,92.8294279 51.1743001,95.6466829 48.75951,97.709316 C46.34472,99.7719492 42.8231512,100.778112 38.29542,100.778112 L35.1763162,100.778112 Z M28.7871843,75.624049 L35.5284731,75.624049 C39.10035,75.624049 40.9114425,74.1148052 40.9114425,71.0460096 C40.9114425,67.9772139 39.10035,66.4679702 35.4278568,66.4679702 L28.7871843,66.4679702 L28.7871843,75.624049 Z M41.8672969,87.6979991 C41.8672969,86.1887553 41.3642156,84.9813603 40.3580531,84.1261222 C39.3518906,83.2708841 37.9432631,82.8181109 36.0818624,82.8181109 L28.7871843,82.8181109 L28.7871843,92.3766547 L36.1321706,92.3766547 C39.9555881,92.4269629 41.8672969,90.8171029 41.8672969,87.6979991 Z M65.7133483,85.8365984 L65.7133483,100.778112 L55.4001826,100.778112 L55.4001826,58.1671295 L72.1024802,58.1671295 C77.1836009,58.1671295 81.0070184,59.4248326 83.6733491,61.9402389 C86.3396797,64.4556452 87.647691,67.8262896 87.647691,72.1024802 C87.647691,74.7688109 87.0439935,77.1332928 85.8869066,79.1959259 C84.6795116,81.258559 82.9690353,82.8684191 80.6045534,84.0758141 C78.2903796,85.2832091 75.4228165,85.8365984 72.1024802,85.8365984 L65.7133483,85.8365984 Z M77.1332928,72.1024802 C77.1332928,68.3796789 75.0706596,66.5182783 70.9453933,66.5182783 L65.7133483,66.5182783 L65.7133483,77.5860659 L70.9453933,77.5860659 C75.0706596,77.5860659 77.1332928,75.7749734 77.1332928,72.1024802 Z M105.557384,68.6312196 C107.569709,67.4238246 109.783266,66.8201271 112.147748,66.8201271 L112.147748,77.8376065 L109.179569,77.8376065 C106.46293,77.8376065 104.349989,78.441304 102.840745,79.5983909 C101.331501,80.7554778 100.576879,82.7174947 100.576879,85.4844416 L100.576879,100.778112 L90.2637135,100.778112 L90.2637135,67.1722839 L100.576879,67.1722839 L100.576879,73.5111077 C101.88489,71.4484746 103.49475,69.8386146 105.557384,68.6312196 Z M138.760746,68.8324521 C141.376769,70.2410796 143.439402,72.2030965 144.948646,74.819119 C146.45789,77.4351415 147.212511,80.5039372 147.212511,83.9751978 C147.212511,87.4464585 146.45789,90.5152541 144.948646,93.1312766 C143.439402,95.7472991 141.376769,97.7596242 138.760746,99.1179435 C136.144724,100.526571 133.126236,101.180577 129.8059,101.180577 C126.485564,101.180577 123.467076,100.476263 120.851054,99.1179435 C118.184723,97.709316 116.12209,95.7472991 114.612846,93.1312766 C113.103602,90.5152541 112.348981,87.4464585 112.348981,83.9751978 C112.348981,80.5039372 113.103602,77.4351415 114.612846,74.819119 C116.12209,72.2030965 118.184723,70.1907715 120.851054,68.8324521 C123.517384,67.4238246 126.485564,66.7698189 129.8059,66.7698189 C133.126236,66.7698189 136.094416,67.4238246 138.760746,68.8324521 Z M124.825396,77.7872984 C123.467076,79.1959259 122.813071,81.258559 122.813071,83.9751978 C122.813071,86.6415285 123.467076,88.7041616 124.825396,90.1127891 C126.183715,91.5214166 127.843883,92.2257304 129.8059,92.2257304 C131.767917,92.2257304 133.428085,91.5214166 134.736096,90.1127891 C136.044108,88.7041616 136.748421,86.6415285 136.748421,83.9751978 C136.748421,81.3088672 136.094416,79.246234 134.736096,77.7872984 C133.428085,76.3786709 131.767917,75.6743571 129.8059,75.6743571 C127.843883,75.6743571 126.183715,76.3786709 124.825396,77.7872984 Z" id="Combined-Shape" fill="#FF9415" fill-rule="nonzero"></path>
                </g>
            </g>
            <ellipse id="Oval_2_" fill="#BEEBD7" fill-rule="nonzero" cx="141.535829" cy="457.125" rx="83.375" ry="89.125"></ellipse>
            <ellipse id="Oval_2_-Copy" fill="#BEEBD7" fill-rule="nonzero" cx="210.535829" cy="86.25" rx="83.375" ry="86.25"></ellipse>
            <g id="icon-btcx2_2_" transform="translate(138.750000, 11.500000)">
                <g id="moc/icon-riskprox">
                    <circle id="bg" fill="#FFFFFF" fill-rule="evenodd" cx="77.4902344" cy="77.4902344" r="71.4257812"></circle>
                    <g id="moc/config/icon-riskprox" transform="translate(0.449219, 0.449219)">
                        <circle id="bg" fill="#FFFFFF" fill-rule="evenodd" cx="76.9902974" cy="76.9902974" r="70.9649698"></circle>
                        <path d="M77.0976669,7.51586988 C58.5522054,7.51586988 41.0720184,14.7791055 27.9013511,27.9013511 C14.7306839,41.0235968 7.51586988,58.5037838 7.51586988,77.0976669 C7.51586988,95.6915501 14.7791055,113.123316 27.9013511,126.293983 C41.0235968,139.46465 58.5037838,146.679464 77.0976669,146.679464 C95.6915501,146.679464 113.123316,139.416228 126.293983,126.293983 C139.46465,113.171737 146.679464,95.6915501 146.679464,77.0976669 C146.679464,58.5037838 139.416228,41.0720184 126.293983,27.9013511 C113.171737,14.7306839 95.6915501,7.51586988 77.0976669,7.51586988 Z M77.0976669,0.446320565 C119.466541,0.446320565 153.749013,34.7772142 153.749013,77.0976669 C153.749013,119.41812 119.41812,153.749013 77.0976669,153.749013 C34.7772142,153.749013 0.446320565,119.41812 0.446320565,77.0976669 C0.446320565,34.7772142 34.7772142,0.446320565 77.0976669,0.446320565 Z M54.0489993,79.4703239 C55.5016464,81.3103436 56.22797,83.3924711 56.22797,85.8135497 C56.22797,89.3483243 55.0658523,92.0599323 52.7416169,94.0452167 C50.4173815,96.0305011 47.0278716,96.9989325 42.6699302,96.9989325 L39.6677928,96.9989325 L39.6677928,100.969501 L35.6488024,100.969501 L35.6488024,96.9989325 L33.4214102,96.9989325 L33.4214102,100.969501 L29.4024198,100.969501 L29.4024198,96.9989325 L23.5918313,96.9989325 L23.5918313,55.9858621 L29.4024198,55.9858621 L29.4024198,51.7247639 L33.4214102,51.7247639 L33.4214102,55.9858621 L35.6488024,55.9858621 L35.6488024,51.7247639 L39.6677928,51.7247639 L39.6677928,55.9858621 L42.1857145,55.9858621 C46.3499696,55.9858621 49.5942148,56.905872 51.8700286,58.6974701 C54.1458424,60.5374898 55.3079601,63.103833 55.3079601,66.4449214 C55.3079601,68.9144215 54.6300582,70.996549 53.3226757,72.6428824 C52.0152933,74.2892158 50.2721168,75.3544904 48.1415677,75.8387061 C50.6594894,76.4681865 52.5963522,77.6787258 54.0489993,79.4703239 Z M33.5182533,63.9754213 L33.5182533,72.7881472 L40.0067438,72.7881472 C43.4446753,72.7881472 45.1878519,71.3355 45.1878519,68.3817842 C45.1878519,65.4280684 43.4446753,63.9754213 39.9099007,63.9754213 L33.5182533,63.9754213 Z M40.5878027,88.9125302 C44.267842,88.9609518 46.1078617,87.4114615 46.1078617,84.4093241 C46.1078617,82.956677 45.623646,81.7945593 44.6552146,80.9713926 C43.6867832,80.1482259 42.3309792,79.7124318 40.5393811,79.7124318 L33.5182533,79.7124318 L33.5182533,88.9125302 L40.5878027,88.9125302 Z M91.5757166,55.9374406 L91.5757166,63.9269997 L80.3419122,63.9269997 L80.3419122,97.3863051 L70.2702255,97.3863051 L70.2702255,63.9269997 L59.1332642,63.9269997 L59.1332642,55.9374406 L91.5757166,55.9374406 Z M127.795051,59.7143231 C131.232983,62.4743526 133.508797,66.2512351 134.52565,70.9481275 L123.921326,70.9481275 C123.146581,69.0112646 121.936041,67.510196 120.33813,66.4449214 C118.740218,65.3312253 116.803355,64.798588 114.575963,64.798588 C111.622247,64.798588 109.298011,65.8638626 107.506413,68.0428332 C105.714815,70.1733823 104.794805,73.0786766 104.794805,76.6618728 C104.794805,80.245069 105.714815,83.1019417 107.506413,85.2324908 C109.298011,87.3630399 111.670668,88.4283145 114.575963,88.4283145 C116.803355,88.4283145 118.740218,87.8956772 120.33813,86.7819811 C121.936041,85.668285 123.146581,84.2156378 123.921326,82.3271966 L134.52565,82.3271966 C133.508797,87.0240889 131.281405,90.7525499 127.795051,93.561001 C124.35712,96.3694521 119.950757,97.7736776 114.721227,97.7736776 C110.702237,97.7736776 107.167462,96.9020894 104.116903,95.1104912 C101.066344,93.3188931 98.6936875,90.849393 97.0473541,87.6535694 C95.4010207,84.4577457 94.577854,80.7777063 94.577854,76.7102944 C94.577854,72.6428824 95.4010207,68.9628431 97.0473541,65.7670194 C98.6936875,62.5711957 101.066344,60.0532741 104.116903,58.3100975 C107.167462,56.5184994 110.702237,55.6469111 114.721227,55.6469111 C119.950757,55.550068 124.35712,56.905872 127.795051,59.7143231 Z M81.8429809,129.828757 L76.8555591,121.984463 L72.352353,129.828757 L69.3986372,129.828757 L75.4513335,119.757071 L69.3017941,110.024335 L72.352353,110.024335 L77.1945101,117.723365 L81.7461377,110.024335 L84.6998535,110.024335 L78.6471572,119.950757 L84.8935398,129.828757 L81.8429809,129.828757 Z" id="Combined-Shape" fill="#ED1B32" fill-rule="nonzero"></path>
                    </g>
                </g>
            </g>
            <rect id="Rectangle" fill="#FFFFFF" fill-rule="nonzero" x="213.410829" y="184" width="212.75" height="253"></rect>
            <g id="Symbols" transform="translate(179.000000, 138.000000)" fill="#D1DBE2" fill-rule="nonzero">
                <g id="Components-_x2F_-Icons-_x2F_-Person-grey">
                    <path d="M235.067507,30.3502729 L173.847923,30.3502729 C167.568991,12.888472 151.479228,0 132.25,0 C113.020772,0 96.9310089,12.888472 90.6520772,30.3502729 L29.4324926,30.3502729 C13.34273,30.3502729 0,44.0702592 0,60.7005457 L0,274.399727 C0,291.030014 13.34273,304.75 29.4324926,304.75 L235.067507,304.75 C251.15727,304.75 264.5,291.030014 264.5,274.399727 L264.5,61.1163029 C264.5,44.4860164 251.15727,30.3502729 235.067507,30.3502729 Z M129.375,23 C137.533784,23 143.75,29.6047297 143.75,37.375 C143.75,45.1452703 137.14527,51.75 129.375,51.75 C121.60473,51.75 115,45.1452703 115,37.375 C115,29.6047297 121.216216,23 129.375,23 Z M129.375,86.25 C153.247768,86.25 172.5,108.021591 172.5,135.125 C172.5,162.228409 153.247768,184 129.375,184 C105.502232,184 86.25,162.228409 86.25,135.125 C86.25,108.465909 105.502232,86.25 129.375,86.25 Z M218.5,264.5 L40.25,264.5 L40.25,244.95 C40.25,216.966667 99.6666667,201.25 129.375,201.25 C159.083333,201.25 218.5,216.583333 218.5,244.95 L218.5,264.5 Z" id="Shape"></path>
                </g>
            </g>
            <g id="moc/config/icon-stable" transform="translate(69.660829, 373.750000)">
                <circle id="bg" fill="#FFFFFF" fill-rule="evenodd" cx="80.4898564" cy="80.4898564" r="74.1906502"></circle>
                <path d="M80.6021064,7.85750033 C61.1630467,7.85750033 42.9389283,15.450883 29.1695944,29.1695944 C15.4002605,42.8883057 7.85750033,61.1630467 7.85750033,80.6021064 C7.85750033,100.041166 15.450883,118.265284 29.1695944,132.034618 C42.8883057,145.803952 61.1630467,153.346712 80.6021064,153.346712 C100.041166,153.346712 118.265284,145.75333 132.034618,132.034618 C145.803952,118.315907 153.346712,100.041166 153.346712,80.6021064 C153.346712,61.1630467 145.75333,42.9389283 132.034618,29.1695944 C118.315907,15.4002605 100.041166,7.85750033 80.6021064,7.85750033 Z M80.6021064,0.466607863 C124.846216,0.466607863 160.737605,36.3579966 160.737605,80.6021064 C160.737605,124.846216 124.846216,160.737605 80.6021064,160.737605 C36.3579966,160.737605 0.466607863,124.846216 0.466607863,80.6021064 C0.466607863,36.3579966 36.3579966,0.466607863 80.6021064,0.466607863 Z M58.6825417,93.0046314 C56.8601299,96.2444747 54.2783798,98.7756022 50.9372914,100.598014 C47.5455804,102.420426 43.5970215,103.331632 39.0409918,103.331632 L22.8417755,103.331632 L22.8417755,60.454331 L39.0409918,60.454331 C43.647644,60.454331 47.6468255,61.3655369 50.9879139,63.1373262 C54.3290023,64.9091155 56.9107524,67.4402431 58.7331643,70.6294638 C60.5555761,73.8693071 61.4161595,77.5647533 61.4161595,81.766425 C61.3655369,86.0693419 60.454331,89.7647881 58.6825417,93.0046314 Z M47.4949579,90.8784842 C49.7223501,88.7523371 50.8360463,85.714984 50.8360463,81.8676701 C50.8360463,77.9697337 49.7223501,74.9830032 47.4949579,72.856856 C45.2675656,70.7307089 42.1289675,69.6676353 38.0791634,69.6676353 L33.1687759,69.6676353 L33.1687759,94.1689501 L38.0791634,94.1689501 C42.1289675,94.067705 45.2675656,93.0046314 47.4949579,90.8784842 Z M89.6129205,71.1863118 C92.2452931,72.6037433 94.3208177,74.5780228 95.8394943,77.2103954 C97.3581708,79.8427681 98.1175091,82.9307437 98.1175091,86.4236997 C98.1175091,89.9166558 97.3581708,93.0046314 95.8394943,95.6370041 C94.3208177,98.2693767 92.2452931,100.294279 89.6129205,101.661088 C86.9805478,103.078519 83.9431947,103.736612 80.6021064,103.736612 C77.261018,103.736612 74.2236649,103.027897 71.5912922,101.661088 C68.908297,100.243656 66.8327724,98.2693767 65.3140959,95.6370041 C63.7954194,93.0046314 63.0360811,89.9166558 63.0360811,86.4236997 C63.0360811,82.9307437 63.7954194,79.8427681 65.3140959,77.2103954 C66.8327724,74.5780228 68.908297,72.5531207 71.5912922,71.1863118 C74.2742875,69.7688804 77.261018,69.1107872 80.6021064,69.1107872 C83.9938173,69.1107872 86.9805478,69.819503 89.6129205,71.1863118 Z M75.6410963,80.2477485 C74.2742875,81.6651799 73.6161943,83.7407045 73.6161943,86.4743223 C73.6161943,89.1573175 74.2742875,91.2328421 75.6410963,92.6502735 C77.0079052,94.067705 78.6784494,94.7764207 80.6527289,94.7764207 C82.6270084,94.7764207 84.2975526,94.067705 85.6137389,92.6502735 C86.9299253,91.2328421 87.638641,89.1573175 87.638641,86.4743223 C87.638641,83.7913271 86.9805478,81.7158025 85.6137389,80.2477485 C84.2975526,78.8303171 82.6270084,78.1216013 80.6527289,78.1216013 C78.6278269,78.0709788 77.0079052,78.7796945 75.6410963,80.2477485 Z M134.262011,64.40289 C137.856212,67.2883754 140.134227,71.1356893 141.1973,76.0460768 L130.212206,76.0460768 C129.402246,74.0717973 128.136682,72.5024982 126.466138,71.388802 C124.795594,70.2751059 122.821314,69.6676353 120.492677,69.6676353 C117.455324,69.6676353 115.025441,70.7813314 113.152407,73.0087237 C111.279372,75.2361159 110.368166,78.2228465 110.368166,81.9182927 C110.368166,85.6137389 111.279372,88.6004694 113.152407,90.7772391 C115.025441,93.0046314 117.455324,94.067705 120.492677,94.067705 C122.821314,94.067705 124.795594,93.5108569 126.466138,92.3465382 C128.136682,91.2328421 129.402246,89.663543 130.212206,87.7398861 L141.1973,87.7398861 C140.134227,92.599651 137.856212,96.4469649 134.262011,99.3324503 C130.667809,102.217936 126.162402,103.68599 120.695167,103.68599 C116.544118,103.68599 112.899294,102.774784 109.710073,100.952372 C106.571475,99.1299601 104.141593,96.54821 102.420426,93.2071216 C100.699259,89.9166558 99.8386758,86.1199644 99.8386758,81.8676701 C99.8386758,77.6153758 100.699259,73.8693071 102.420426,70.5282187 C104.141593,67.2377528 106.571475,64.6560027 109.710073,62.7829683 C112.848671,60.9605565 116.493495,60.0493506 120.695167,60.0493506 C126.162402,60.0999731 130.667809,61.5174046 134.262011,64.40289 Z" id="Combined-Shape" fill="#00A651" fill-rule="nonzero"></path>
            </g>
        </g>
        <path d="M534.164845,600 L152.835155,600 C149.59745,600 146,605.03125 146,611.5 C146,617.96875 149.59745,623 152.835155,623 L534.164845,623 C537.40255,623 541,617.96875 541,611.5 C541,604.671875 537.40255,600 534.164845,600" id="path-1_1_" fill-opacity="0.1" fill="#50E3C2" fill-rule="nonzero"></path>
    </g>
</svg>