<?xml version="1.0" encoding="UTF-8"?>
<svg width="690px" height="692px" viewBox="0 0 690 692" version="1.1" xmlns="http://www.w3.org/2000/svg" xmlns:xlink="http://www.w3.org/1999/xlink">
    <!-- Generator: Sketch 56 (81588) - https://sketch.com -->
    <title>moc/config/tutorial_step_4</title>
    <desc>Created with Sketch.</desc>
    <g id="moc/config/tutorial_step_4" stroke="none" stroke-width="1" fill="none" fill-rule="evenodd">
        <g id="moc/icon-riskpro">
            <ellipse id="bg" fill="#FFFFFF" fill-rule="evenodd" cx="345" cy="346" rx="318" ry="318.921739"></ellipse>
            <g id="moc/config/icon-riskpro" transform="translate(2.000000, 2.005797)">
                <ellipse id="bg" fill="#FFFFFF" fill-rule="evenodd" cx="343.5" cy="344.5" rx="316.617391" ry="317.53913"></ellipse>
                <path d="M343.97904,33.6304348 C261.236587,33.6304348 183.246965,66.1304348 124.484701,124.847101 C65.7224364,183.563768 33.5328138,261.997101 33.5328138,344.980435 C33.5328138,427.963768 65.9384742,506.180435 124.484701,565.113768 C183.030927,624.047101 261.02055,656.330435 343.97904,656.330435 C426.937531,656.330435 504.711116,623.830435 563.47338,565.113768 C622.235644,506.397101 654.425267,428.180435 654.425267,344.980435 C654.425267,261.780435 622.019606,183.780435 563.47338,124.847101 C504.927153,65.9137681 426.937531,33.6304348 343.97904,33.6304348 Z M343.97904,1.99710145 C533.012059,1.99710145 685.966776,155.830435 685.966776,344.980435 C685.966776,534.130435 532.796021,687.963768 343.97904,687.963768 C155.162059,687.963768 1.99130435,534.347101 1.99130435,344.980435 C1.99130435,155.613768 155.162059,1.99710145 343.97904,1.99710145 Z M151.057342,434.030435 L151.057342,451.797101 L133.12621,451.797101 L133.12621,434.030435 L123.188474,434.030435 L123.188474,451.797101 L105.257342,451.797101 L105.257342,434.030435 L79.3328138,434.030435 L79.3328138,250.513768 L105.257342,250.513768 L105.257342,231.447101 L123.188474,231.447101 L123.188474,250.513768 L133.12621,250.513768 L133.12621,231.447101 L151.057342,231.447101 L151.057342,250.513768 L162.291304,250.513768 C180.87055,250.513768 195.345078,254.630435 205.498852,262.647101 C215.652625,270.880435 220.837531,282.363768 220.837531,297.313768 C220.837531,308.363768 217.813002,317.680435 211.979984,325.047101 C206.146965,332.413768 198.369606,337.180435 188.863946,339.347101 C200.097908,342.163768 208.739418,347.580435 215.22055,355.597101 C221.701682,363.830435 224.942248,373.147101 224.942248,383.980435 C224.942248,399.797101 219.757342,411.930435 209.387531,420.813768 C199.017719,429.697101 183.895078,434.030435 164.451682,434.030435 L151.057342,434.030435 Z M123.62055,325.697101 L152.569606,325.697101 C167.908285,325.697101 175.685644,319.197101 175.685644,305.980435 C175.685644,292.763768 167.908285,286.263768 152.137531,286.263768 L123.62055,286.263768 L123.62055,325.697101 Z M179.790361,377.697101 C179.790361,371.197101 177.629984,365.997101 173.309229,362.313768 C168.988474,358.630435 162.939418,356.680435 154.946021,356.680435 L123.62055,356.680435 L123.62055,397.847101 L155.162059,397.847101 C171.580927,398.063768 179.790361,391.130435 179.790361,377.697101 Z M282.192248,369.680435 L282.192248,434.030435 L237.904512,434.030435 L237.904512,250.513768 L309.62904,250.513768 C331.448852,250.513768 347.867719,255.930435 359.317719,266.763768 C370.767719,277.597101 376.384701,292.113768 376.384701,310.530435 C376.384701,322.013768 373.792248,332.197101 368.82338,341.080435 C363.638474,349.963768 356.293191,356.897101 346.139418,362.097101 C336.201682,367.297101 323.887531,369.680435 309.62904,369.680435 L282.192248,369.680435 Z M331.232814,310.530435 C331.232814,294.497101 322.375267,286.480435 304.660172,286.480435 L282.192248,286.480435 L282.192248,334.147101 L304.660172,334.147101 C322.375267,334.147101 331.232814,326.347101 331.232814,310.530435 Z M453.294135,295.580435 C461.935644,290.380435 471.441304,287.780435 481.595078,287.780435 L481.595078,335.230435 L468.848852,335.230435 C457.182814,335.230435 448.109229,337.830435 441.628097,342.813768 C435.146965,347.797101 431.906399,356.247101 431.906399,368.163768 L431.906399,434.030435 L387.618663,434.030435 L387.618663,289.297101 L431.906399,289.297101 L431.906399,316.597101 C437.52338,307.713768 444.436587,300.780435 453.294135,295.580435 Z M595.87904,296.447101 C607.113002,302.513768 615.97055,310.963768 622.451682,322.230435 C628.932814,333.497101 632.17338,346.713768 632.17338,361.663768 C632.17338,376.613768 628.932814,389.830435 622.451682,401.097101 C615.97055,412.363768 607.113002,421.030435 595.87904,426.880435 C584.645078,432.947101 571.682814,435.763768 557.424323,435.763768 C543.165833,435.763768 530.203568,432.730435 518.969606,426.880435 C507.519606,420.813768 498.662059,412.363768 492.180927,401.097101 C485.699795,389.830435 482.459229,376.613768 482.459229,361.663768 C482.459229,346.713768 485.699795,333.497101 492.180927,322.230435 C498.662059,310.963768 507.519606,302.297101 518.969606,296.447101 C530.419606,290.380435 543.165833,287.563768 557.424323,287.563768 C571.682814,287.563768 584.42904,290.380435 595.87904,296.447101 Z M536.036587,335.013768 C530.203568,341.080435 527.395078,349.963768 527.395078,361.663768 C527.395078,373.147101 530.203568,382.030435 536.036587,388.097101 C541.869606,394.163768 548.998852,397.197101 557.424323,397.197101 C565.849795,397.197101 572.97904,394.163768 578.596021,388.097101 C584.213002,382.030435 587.237531,373.147101 587.237531,361.663768 C587.237531,350.180435 584.42904,341.297101 578.596021,335.013768 C572.97904,328.947101 565.849795,325.913768 557.424323,325.913768 C548.998852,325.913768 541.869606,328.947101 536.036587,335.013768 Z" id="Combined-Shape" fill="#FF9415" fill-rule="nonzero"></path>
            </g>
        </g>
    </g>
</svg>