<?xml version="1.0" encoding="UTF-8"?>
<svg width="690px" height="690px" viewBox="0 0 690 690" version="1.1" xmlns="http://www.w3.org/2000/svg" xmlns:xlink="http://www.w3.org/1999/xlink">
    <!-- Generator: Sketch 56 (81588) - https://sketch.com -->
    <title>moc/config/tutorial_step_5</title>
    <desc>Created with Sketch.</desc>
    <g id="moc/config/tutorial_step_5" stroke="none" stroke-width="1" fill="none" fill-rule="evenodd">
        <g id="moc/icon-riskprox">
            <circle id="bg" fill="#FFFFFF" fill-rule="evenodd" cx="345" cy="345" r="318"></circle>
            <g id="moc/config/icon-riskprox" transform="translate(2.000000, 2.000000)">
                <circle id="bg" fill="#FFFFFF" fill-rule="evenodd" cx="343.5" cy="343.5" r="316.617391"></circle>
                <path d="M343.97904,33.5328138 C261.236587,33.5328138 183.246965,65.9384742 124.484701,124.484701 C65.7224364,183.030927 33.5328138,261.02055 33.5328138,343.97904 C33.5328138,426.937531 65.9384742,504.711116 124.484701,563.47338 C183.030927,622.235644 261.02055,654.425267 343.97904,654.425267 C426.937531,654.425267 504.711116,622.019606 563.47338,563.47338 C622.235644,504.927153 654.425267,426.937531 654.425267,343.97904 C654.425267,261.02055 622.019606,183.246965 563.47338,124.484701 C504.927153,65.7224364 426.937531,33.5328138 343.97904,33.5328138 Z M343.97904,1.99130435 C533.012059,1.99130435 685.966776,155.162059 685.966776,343.97904 C685.966776,532.796021 532.796021,685.966776 343.97904,685.966776 C155.162059,685.966776 1.99130435,532.796021 1.99130435,343.97904 C1.99130435,155.162059 155.162059,1.99130435 343.97904,1.99130435 Z M241.145078,354.564889 C247.62621,362.774323 250.866776,372.063946 250.866776,382.865833 C250.866776,398.636587 245.68187,410.734701 235.312059,419.592248 C224.942248,428.449795 209.819606,432.77055 190.37621,432.77055 L176.98187,432.77055 L176.98187,450.485644 L159.050738,450.485644 L159.050738,432.77055 L149.113002,432.77055 L149.113002,450.485644 L131.18187,450.485644 L131.18187,432.77055 L105.257342,432.77055 L105.257342,249.786587 L131.18187,249.786587 L131.18187,230.775267 L149.113002,230.775267 L149.113002,249.786587 L159.050738,249.786587 L159.050738,230.775267 L176.98187,230.775267 L176.98187,249.786587 L188.215833,249.786587 C206.795078,249.786587 221.269606,253.891304 231.42338,261.884701 C241.577153,270.094135 246.762059,281.544135 246.762059,296.450738 C246.762059,307.468663 243.737531,316.758285 237.904512,324.103568 C232.071493,331.448852 224.294135,336.201682 214.788474,338.362059 C226.022436,341.17055 234.663946,346.571493 241.145078,354.564889 Z M149.545078,285.432814 L149.545078,324.751682 L178.494135,324.751682 C193.832814,324.751682 201.610172,318.27055 201.610172,305.092248 C201.610172,291.913946 193.832814,285.432814 178.062059,285.432814 L149.545078,285.432814 Z M181.086587,396.692248 C197.505455,396.908285 205.714889,389.995078 205.714889,376.600738 C205.714889,370.119606 203.554512,364.934701 199.233757,361.262059 C194.913002,357.589418 188.863946,355.645078 180.87055,355.645078 L149.545078,355.645078 L149.545078,396.692248 L181.086587,396.692248 Z M408.574323,249.57055 L408.574323,285.216776 L358.453568,285.216776 L358.453568,434.498852 L313.517719,434.498852 L313.517719,285.216776 L263.82904,285.216776 L263.82904,249.57055 L408.574323,249.57055 Z M570.17055,266.421493 C585.509229,278.735644 595.663002,295.586587 600.199795,316.542248 L552.887531,316.542248 C549.430927,307.900738 544.029984,301.203568 536.900738,296.450738 C529.771493,291.48187 521.129984,289.105455 511.192248,289.105455 C498.013946,289.105455 487.644135,293.858285 479.650738,303.579984 C471.657342,313.085644 467.552625,326.047908 467.552625,342.034701 C467.552625,358.021493 471.657342,370.767719 479.650738,380.27338 C487.644135,389.77904 498.229984,394.53187 511.192248,394.53187 C521.129984,394.53187 529.771493,392.155455 536.900738,387.186587 C544.029984,382.217719 549.430927,375.736587 552.887531,367.311116 L600.199795,367.311116 C595.663002,388.266776 585.725267,404.901682 570.17055,417.43187 C554.83187,429.962059 535.172436,436.227153 511.840361,436.227153 C493.909229,436.227153 478.138474,432.338474 464.528097,424.345078 C450.917719,416.351682 440.33187,405.333757 432.986587,391.075267 C425.641304,376.816776 421.968663,360.397908 421.968663,342.250738 C421.968663,324.103568 425.641304,307.684701 432.986587,293.42621 C440.33187,279.167719 450.917719,267.933757 464.528097,260.156399 C478.138474,252.163002 493.909229,248.274323 511.840361,248.274323 C535.172436,247.842248 554.83187,253.891304 570.17055,266.421493 Z M365.150738,579.244135 L342.898852,544.246021 L322.807342,579.244135 L309.62904,579.244135 L336.633757,534.308285 L309.196965,490.884701 L322.807342,490.884701 L344.411116,525.234701 L364.718663,490.884701 L377.896965,490.884701 L350.892248,535.172436 L378.761116,579.244135 L365.150738,579.244135 Z" id="Combined-Shape" fill="#ED1B32" fill-rule="nonzero"></path>
            </g>
        </g>
    </g>
</svg>