<?xml version="1.0" encoding="utf-8"?>
<!-- Generator: Adobe Illustrator 22.0.0, SVG Export Plug-In . SVG Version: 6.00 Build 0)  -->
<svg version="1.1" id="Layer_1" xmlns="http://www.w3.org/2000/svg" xmlns:xlink="http://www.w3.org/1999/xlink" x="0px" y="0px"
	 viewBox="0 0 196.5 184.4" style="enable-background:new 0 0 196.5 184.4;" xml:space="preserve">
<style type="text/css">
	.st0{fill:#FF9415;}
	.st1{fill:#FFFFFF;}
	.st2{opacity:0.1004;fill:#50E3C2;enable-background:new    ;}
	.st3{fill:#283238;}
	.st4{fill:#00A69C;}
	.st5{fill:#04364F;}
	.st6{fill:#00A651;}
	.st7{fill:#ED1C24;}
	.st8{fill:#BBBBBB;}
	.st9{opacity:0.1;enable-background:new    ;}
	.st10{fill:#50E3C2;}
	.st11{fill:#00A651;fill-opacity:0.2;}
	.st12{fill:#ED1C24;fill-opacity:0.2;}
	.st13{fill:#FF9415;fill-opacity:0.2;}
	.st14{clip-path:url(#SVGID_4_);}
	.st15{opacity:0.1;clip-path:url(#SVGID_6_);fill:#50E3C2;}
	.st16{clip-path:url(#SVGID_8_);}
	.st17{clip-path:url(#SVGID_10_);enable-background:new    ;}
	.st18{clip-path:url(#SVGID_12_);}
	.st19{opacity:0.1;clip-path:url(#SVGID_14_);fill:#50E3C2;}
</style>
<g id="icon-bpro_2_" transform="translate(13.000000, 85.000000)">
	<g id="Path_1_">
		<path class="st0" d="M124.2,196.2c0,21.5-17.5,39-39,39s-39-17.5-39-39s17.5-39,39-39c10.3,0,20.3,4.1,27.6,11.4
			S124.2,185.8,124.2,196.2z"/>
		<path d="M85.2,161c14.2,0,27,8.5,32.5,21.6c5.5,13.1,2.5,28.2-7.6,38.2s-25.1,13-38.2,7.6s-21.6-18.2-21.6-32.4
			C50.3,176.8,65.9,161.1,85.2,161z"/>
		<path class="st1" d="M57.6,186.4c0-0.4,0-0.4,0.4-0.4h3.6l0,0c0-0.1,0-0.2,0-0.3v-2.5c0,0,0-0.1,0.1-0.1h2.6c0.2,0,0.2,0,0.2,0.3
			v2.3c0,0.3,0,0.3,0.3,0.3h0.7c0.1,0,0.2,0,0.2-0.2v-2.7c0,0,0-0.1,0.1-0.1h2.5c0.2,0,0.2,0,0.2,0.2v2.4c0,0.2,0,0.3,0,0.5
			c0,0.2,0.3,0.1,0.5,0.2c0.6,0.2,1.1,0.5,1.6,0.8c0.9,0.7,1.5,1.6,1.6,2.7c0.2,0.9,0.2,1.8-0.1,2.7c-0.4,1.4-1.4,2.5-2.8,2.9h-0.2
			h-0.2c0,0.1,0.1,0.1,0.2,0.1c1.1,0.3,2.1,1,2.8,1.9c0.7,1,1,2.2,0.9,3.4c0,0.6-0.2,1.2-0.4,1.7c-0.4,1-1.2,1.9-2.2,2.4
			c-0.5,0.3-1,0.4-1.5,0.6c-0.2,0-0.2,0-0.2,0.3v2.4c0,0.2,0,0.2-0.2,0.2h-2.5c-0.2,0-0.2,0-0.2-0.2v-2.2c0,0,0-0.1,0-0.1
			c0,0-0.1,0-0.1,0h-0.9c0,0-0.2,0-0.2,0.2v2.2c0,0.2,0,0.2-0.2,0.2h-2.5c0,0-0.1,0-0.1-0.2v-1.8c0-0.2,0-0.3,0-0.4
			c0-0.1,0-0.2-0.1-0.2h-3.9c0,0,0-0.1,0-0.1v-19.2c0-0.1,0-0.3,0-0.4c0-0.2,0,0,0,0L57.6,186.4z"/>
		<path class="st1" d="M74.4,196.2v-9.7c0-0.5,0-0.5,0.5-0.5h6.9c1,0,2,0.1,3,0.4c1.3,0.3,2.4,1.1,3.1,2.2c0.5,0.6,0.8,1.4,0.9,2.2
			c0.2,1.1,0.2,2.2,0,3.3c-0.4,1.9-1.8,3.5-3.6,4.2c-0.7,0.3-1.4,0.4-2.2,0.5c-0.6,0-1.1,0-1.7,0h-2.8c0,0-0.2,0-0.2,0.1v6.9
			c0,0.5,0,0.4-0.4,0.4h-3.5c-0.2,0-0.2,0-0.2-0.2v-9.8H74.4z"/>
		<path class="st1" d="M99.8,198.1c0-1.1,0.2-2.2,0.7-3.3c0.9-2.1,2.7-3.8,4.9-4.3c1.3-0.3,2.6-0.4,3.9-0.3c0.8,0.1,1.7,0.3,2.4,0.7
			c2,0.9,3.5,2.7,4.1,4.8c0.3,1.2,0.4,2.5,0.3,3.7c-0.1,0.7-0.2,1.4-0.5,2c-0.8,2.3-2.7,4-5.1,4.6c-1.2,0.3-2.5,0.4-3.7,0.3
			c-0.9-0.1-1.8-0.4-2.7-0.7c-2.1-1-3.6-2.9-4.1-5.1C99.8,199.7,99.7,198.9,99.8,198.1L99.8,198.1z"/>
		<path class="st1" d="M94.2,193.2l0.2-0.3c0.9-1.3,2.3-2.2,3.8-2.6c0.4-0.1,0.9-0.2,1.4-0.2c0.1,0,0.2,0,0.2,0.2v4
			c0,0.1,0,0.1-0.2,0.2h-1.4c-0.6,0-1.1,0.1-1.6,0.3c-1.3,0.3-2.2,1.4-2.4,2.7c0,0.4,0,0.8,0,1.2v7.1c0,0.5,0,0.5-0.5,0.5h-3.5
			c0,0-0.2,0-0.2-0.1v-15.6c0,0,0-0.2,0.1-0.2H94l0,0c0,0.1,0,0.2,0,0.3v2.4L94.2,193.2z"/>
		<path d="M61.6,200.1c0-0.8,0-1.6,0-2.3v-0.3c0.1,0,0.1,0,0.2,0h3.6c0.4,0,0.9,0,1.3,0.2c0.3,0.1,0.7,0.2,0.9,0.4
			c0.6,0.4,0.9,1,1,1.6c0.1,0.4,0.1,0.8,0,1.1c-0.1,0.8-0.6,1.5-1.3,1.8c-0.5,0.2-1.1,0.3-1.7,0.3h-4c0,0-0.1,0-0.1-0.1v-0.3
			C61.6,201.7,61.6,200.9,61.6,200.1z"/>
		<path d="M63.8,194.5h-2.1c0,0-0.1,0-0.1-0.1V194c0-1.5,0-3,0-4.5v-0.2c0,0,0-0.1,0.1-0.1h3.4c0.5,0,0.9,0,1.3,0.2h0.2
			c0.9,0.2,1.5,1,1.6,1.9c0.1,0.4,0.1,0.8,0,1.3c-0.1,0.7-0.6,1.2-1.2,1.5c-0.4,0.2-0.9,0.4-1.4,0.5H63.8z"/>
		<path d="M78.4,192.3v-2.6c0-0.1,0-0.2,0-0.3l0,0h2.9c0.5,0,1,0.1,1.5,0.2c1,0.2,1.7,1,1.9,1.9c0.2,0.7,0.2,1.5,0,2.2
			c-0.2,0.8-0.8,1.4-1.5,1.7c-0.5,0.2-1,0.3-1.5,0.3h-3.1c-0.1,0-0.2,0-0.2-0.2V192.3z"/>
		<path d="M103.8,198.4c0-0.7,0.1-1.3,0.3-2c0.5-1.6,1.9-2.6,3.6-2.7c1.1-0.1,2.3,0.4,3.1,1.2c0.5,0.6,0.9,1.3,1,2c0.2,1,0.2,2,0,3
			c-0.3,1.4-1.4,2.6-2.8,2.9c-1.4,0.4-2.9,0-3.9-1.1c-0.5-0.6-0.9-1.3-1-2C103.9,199.3,103.9,198.8,103.8,198.4L103.8,198.4z"/>
	</g>
</g>
<g>
	<g id="Page-1">
		<g id="Group-3">
			<g id="Group-2-Copy">
				<g id="SVGID_2_">
					<path id="path-1_3_" class="st2" d="M-75.5,363.8h-109.1c-0.9,0-2,1.4-2,3.3c0,1.9,1,3.3,2,3.3h109.1c0.9,0,2-1.4,2-3.3
						C-73.6,365.2-74.6,363.8-75.5,363.8"/>
				</g>
				<path id="Path_34_" class="st2" d="M-56.3,307.5c-1.5-7.9-6.7-14.5-8.7-22.4c-4.7-18,8.7-41.4-7.3-56
					c-16.2-14.8-35.3,3.5-42.6,6.9c-13.8,6.5-24.7,0.9-32.8-1c-13.3-3.1-27.2,1.1-38,10.3c-22,18.8-24.7,54.2-19.3,69.1
					c3.1,7.6,6.4,11.1,10.7,14.4c18.3,14.2,37.4-11.5,58.2-6.7c11.3,2.6,16.3,12.9,26.4,18.6C-81.3,356.8-52.6,327.3-56.3,307.5z"/>
				<path id="Path_8_" class="st2" d="M173.7,304.2c-1.5-7.9-6.7-14.5-8.7-22.4c-4.7-18,8.7-41.4-7.3-56
					c-16.2-14.8-35.3,3.5-42.6,6.9c-13.8,6.5-24.7,0.9-32.8-1c-13.3-3.1-27.2,1.1-38,10.3c-22,18.8-24.7,54.2-19.3,69.1
					c3.1,7.6,6.4,11.1,10.7,14.4C53.9,340,73,314.2,93.8,319c11.3,2.6,16.3,12.9,26.4,18.6C148.7,353.5,177.4,324,173.7,304.2z"/>
			</g>
			<g id="face-scan" transform="translate(25.000000, 3.000000)">
				<g id="Group_2_">
					<path id="Path_29_" class="st3" d="M-182.6,223.1H-209c-1,0-1.7,0.8-1.7,1.7v26.4c0,1,0.8,1.7,1.7,1.7s1.7-0.8,1.7-1.7v-24.7
						h24.7c1,0,1.7-0.8,1.7-1.7C-180.8,223.9-181.6,223.1-182.6,223.1z"/>
					<path id="Path_28_" class="st3" d="M-182.6,327.6h-24.7v-24.7c0-1-0.8-1.7-1.7-1.7s-1.7,0.8-1.7,1.7v26.4c0,1,0.8,1.7,1.7,1.7
						h26.4c1,0,1.7-0.8,1.7-1.7C-180.8,328.4-181.6,327.6-182.6,327.6z"/>
					<path id="Path_27_" class="st3" d="M-130.9,331.1h26.4c1,0,1.7-0.8,1.7-1.7v-26.4c0-1-0.8-1.7-1.7-1.7s-1.7,0.8-1.7,1.7v24.7
						h-24.7c-1,0-1.7,0.8-1.7,1.7C-132.7,330.3-131.9,331.1-130.9,331.1z"/>
					<path id="Path_26_" class="st3" d="M-130.9,226.6h24.7v24.7c0,1,0.8,1.7,1.7,1.7s1.7-0.8,1.7-1.7v-26.4c0-1-0.8-1.7-1.7-1.7
						h-26.4c-1,0-1.7,0.8-1.7,1.7C-132.7,225.8-131.9,226.6-130.9,226.6z"/>
				</g>
			</g>
		</g>
	</g>
	<g>
		<path class="st4" d="M-91.8,279.3c0,22.1-17.9,40-40,40s-40-17.9-40-40s17.9-40,40-40C-109.7,239.3-91.8,257.2-91.8,279.3"/>
		<path class="st5" d="M-131.8,243.2c-19.9,0-36.1,16.2-36.1,36.1s16.2,36.1,36.1,36.1s36.1-16.2,36.1-36.1
			C-95.7,259.4-111.8,243.2-131.8,243.2"/>
		<rect x="-166.2" y="294.7" class="st4" width="68.5" height="1.6"/>
		<path class="st1" d="M-131.8,241.3c-21,0-38,17-38,38s17,38,38,38s38-17,38-38l0,0C-93.8,258.4-110.8,241.4-131.8,241.3
			 M-131.8,316.4c-20.5,0-37-16.6-37-37s16.6-37,37-37s37,16.6,37,37l0,0C-94.7,299.8-111.3,316.4-131.8,316.4
			C-131.8,316.4-131.8,316.4-131.8,316.4"/>
		<path class="st1" d="M-131.8,242.3c-20.5,0-37,16.6-37,37s16.6,37,37,37s37-16.6,37-37S-111.3,242.3-131.8,242.3L-131.8,242.3
			 M-131.8,315.4c-19.9,0-36.1-16.2-36.1-36.1s16.2-36.1,36.1-36.1s36.1,16.2,36.1,36.1C-95.7,299.3-111.8,315.4-131.8,315.4"/>
		<rect x="-153.3" y="255.3" class="st1" width="7" height="48"/>
		<polygon class="st1" points="-117.8,255.3 -131.5,286.5 -138.9,269.8 -138.9,286.2 -134.9,303.3 -128.4,303.3 -117.3,267.8 
			-117.3,303.3 -110.2,303.3 -110.2,255.3 		"/>
	</g>
</g>
<g id="icon-doc_2_">
	<g id="Path_12_">
		<path class="st6" d="M59.2,281.2c0-21.5,17.5-39,39-39s39,17.5,39,39c0,21.5-17.5,39-39,39c-10.3,0-20.3-4.1-27.6-11.4
			C63.4,301.5,59.2,291.5,59.2,281.2z"/>
		<path d="M98.4,316.1c-0.6,0-1.1,0-1.7,0L95,316h-0.9c-0.9-0.1-1.8-0.3-2.7-0.4c-1.7-0.3-3.3-0.8-4.9-1.4c-1.9-0.7-3.8-1.6-5.6-2.7
			c-1.7-1-3.4-2.1-4.9-3.4c-0.6-0.5-1.1-0.9-1.6-1.4c-0.7-0.6-1.3-1.2-1.9-1.9c-0.9-0.9-1.7-1.9-2.4-2.9c-2.4-3.2-4.2-6.9-5.4-10.7
			c-0.4-1.2-0.7-2.5-0.9-3.7c-0.1-0.8-0.3-1.7-0.3-2.5s-0.1-1.5-0.2-2.2c0-0.8,0-1.6,0-2.4c0-0.7,0-1.4,0-2.2l0.2-1.8
			c0-0.6,0.2-1.3,0.3-2c0.4-1.8,0.9-3.5,1.5-5.2c0.3-0.9,0.7-1.8,1.1-2.7c0.8-1.8,1.8-3.5,2.9-5.1c0.8-1.1,1.6-2.2,2.4-3.2
			c0.7-0.8,1.4-1.5,2.2-2.2c1.3-1.3,2.6-2.4,4.1-3.5c1.8-1.3,3.6-2.3,5.6-3.2c1.7-0.8,3.6-1.5,5.4-1.9c1-0.3,2-0.6,3-0.8
			c0.6-0.1,1.2-0.2,1.8-0.2c1.1-0.1,2.2-0.2,3.2-0.3c0.5,0,1,0,1.5,0s1.5,0,2.3,0.1c0.4,0,0.8,0,1.2,0l1.9,0.3
			c1.1,0.2,2.1,0.4,3.2,0.7c1.7,0.5,3.4,1,5,1.7c2.1,0.9,4.1,2.1,6,3.4c1.1,0.7,2.1,1.5,3,2.3c0.9,0.7,1.7,1.5,2.5,2.4
			c1.2,1.2,2.2,2.5,3.2,3.9c2.4,3.4,4.2,7.2,5.3,11.2c0.3,1,0.5,2,0.7,3.1c0.1,0.6,0.2,1.3,0.3,1.9c0.1,0.7,0.1,1.6,0.2,2.4
			c0,0.5,0,1,0,1.5c0,0.5,0,1,0,1.4s0,1.3-0.1,2c-0.1,0.6,0,1-0.2,1.6c-0.2,0.5-0.3,1.7-0.4,2.5c-0.8,4-2.3,7.8-4.5,11.2
			c-0.8,1.3-1.7,2.5-2.7,3.7c-0.9,1.1-1.9,2.2-2.9,3.2c-2.1,2-4.5,3.7-7,5.1c-2.5,1.4-5.1,2.5-7.9,3.3c-1.4,0.4-2.9,0.7-4.3,0.9
			l-1.6,0.2C100.6,316.1,99.5,316.1,98.4,316.1z"/>
		<path class="st1" d="M72.2,281v-9.6c0-0.1,0-0.2,0-0.3c0-0.2,0-0.2,0.2-0.2h7.1c1.4,0,2.8,0.2,4.2,0.6c1.4,0.4,2.6,1.2,3.6,2.2
			c1.1,1.1,2,2.5,2.3,4.1c0.4,1.4,0.5,2.9,0.4,4.3c-0.1,1.1-0.3,2.1-0.7,3.1c-1,2.5-3,4.4-5.5,5.3c-1,0.4-2.1,0.6-3.2,0.6
			c-0.6,0-1.1,0-1.7,0c-2.1,0-4.1,0-6.2,0c-0.5,0-0.4,0-0.4-0.4L72.2,281z"/>
		<path class="st1" d="M127.3,277.9c-0.1,0-0.2,0-0.3,0h-3.8c0,0-0.1,0-0.2-0.1v-0.2c-0.8-1.5-2.2-2.6-3.9-2.9
			c-1.2-0.3-2.5-0.2-3.7,0.3c-1,0.5-1.8,1.2-2.4,2.2c-0.5,0.9-0.8,1.8-0.9,2.8c-0.1,0.7-0.1,1.4,0,2.2c0.1,0.9,0.4,1.9,0.8,2.7
			c0.7,1.4,2.1,2.4,3.7,2.7c1.6,0.4,3.3,0,4.6-1c0.7-0.5,1.3-1.2,1.7-2c0-0.1,0-0.1,0-0.2c0-0.2,0.2-0.2,0.4-0.2h3.6
			c0,0,0.2,0,0.3,0c0,0.1,0,0.2,0,0.2c-0.4,1.9-1.5,3.6-2.9,4.9c-1.1,0.9-2.5,1.5-3.9,1.8c-1.3,0.3-2.6,0.3-3.9,0.2
			c-3.4-0.3-6.4-2.5-7.6-5.7c-0.5-1.2-0.8-2.4-0.8-3.6c-0.1-0.9-0.1-1.8,0-2.6c0.2-2.1,1.1-4,2.5-5.5c1.2-1.4,2.9-2.4,4.7-2.7
			c1.3-0.3,2.6-0.3,3.9-0.2c1.1,0.1,2.1,0.4,3.1,0.8c2.1,1,3.7,2.7,4.5,4.9c0.2,0.4,0.3,0.8,0.4,1.3
			C127.3,277.8,127.3,277.9,127.3,277.9L127.3,277.9z"/>
		<path class="st1" d="M107.2,283.1c0,1.2-0.2,2.4-0.7,3.5c-0.9,2.1-2.7,3.8-5,4.3c-1.2,0.3-2.5,0.4-3.7,0.3
			c-0.9-0.1-1.7-0.3-2.5-0.7c-2-0.9-3.5-2.7-4.1-4.8c-0.5-1.7-0.5-3.5,0-5.2c0.7-2.5,2.7-4.5,5.2-5.2c1.3-0.4,2.6-0.4,3.9-0.3
			c0.8,0.1,1.7,0.3,2.4,0.7c2.1,0.9,3.6,2.8,4.1,5C107.1,281.6,107.2,282.3,107.2,283.1z"/>
		<path d="M76.4,281v-6.2c0-0.4,0-0.3,0.4-0.3h2.7c0.9,0,1.7,0.1,2.5,0.4c2,0.6,3.4,2.2,3.8,4.2c0.4,1.4,0.4,2.9,0,4.3
			c-0.5,2-2,3.5-4,4c-0.7,0.2-1.4,0.3-2.2,0.3h-3.1l0,0c0-0.1,0-0.2,0-0.3L76.4,281z"/>
		<path d="M103.1,283.1c0,0.6-0.1,1.2-0.2,1.8c-0.4,1.3-1.4,2.3-2.7,2.7s-2.7,0-3.8-0.9c-0.5-0.5-0.9-1.2-1.1-1.9
			c-0.3-1.2-0.3-2.4,0-3.5c0.5-1.7,2-2.8,3.7-2.8c1,0,1.9,0.3,2.6,0.9c0.7,0.6,1.2,1.4,1.3,2.3c0.1,0.3,0.1,0.6,0.1,0.9
			C103.1,282.8,103.1,283,103.1,283.1z"/>
	</g>
</g>
<g id="icon-btcx2_2_" transform="translate(171.000000, 47.000000)">
	<g>
		<path id="Path_7_" class="st7" d="M-33.8,234.2c0,21.5-17.5,39-39,39s-39-17.5-39-39s17.5-39,39-39c10.3,0,20.3,4.1,27.6,11.4
			S-33.8,223.8-33.8,234.2z"/>
		<path id="Path_6_" d="M-72.8,199c19.4,0,35.1,15.6,35.1,35s-15.6,35.1-35,35.1s-35.1-15.6-35.1-35
			C-107.7,214.8-92.1,199.1-72.8,199z"/>
		<path id="Shape_1_" class="st1" d="M-83.8,234.5c-0.7-1-1.7-1.6-2.8-1.9c0,0-0.2,0-0.2-0.1l0.4-0.1c1.4-0.5,2.4-1.6,2.8-2.9
			c0.3-0.9,0.3-1.8,0.1-2.7c-0.2-1.1-0.8-2-1.6-2.7c-0.5-0.4-1-0.7-1.6-0.8c-0.2,0-0.4,0-0.5-0.2c0-0.2,0-0.3,0-0.5v-2.4
			c0-0.2,0-0.2-0.2-0.2H-90c-0.1,0-0.1,0-0.1,0.2v2.6c0,0.2,0,0.2-0.2,0.2H-91c-0.4,0-0.3,0-0.3-0.3v-2.3c0-0.2,0-0.2-0.2-0.2H-94
			h-0.1v2.6c0,0.1,0,0.2,0,0.3h-3.7c-0.4,0-0.4,0-0.4,0.4l0,0l0,0c0,0,0,0.3,0,0.4v19.2v0.1h4c0,0,0.2,0,0.1,0.2c0,0.2,0,0.3,0,0.4
			v1.8c0,0.1,0,0.2,0.1,0.2h2.6c0.2,0,0.2,0,0.2-0.2v-2.2c0,0,0.1,0,0.2,0h0.9c0,0,0.1,0,0.1,0c0,0,0,0.1,0,0.1v2.2
			c0,0.2,0,0.2,0.2,0.2h2.5c0.2,0,0.2,0,0.2-0.2v-2.3c0-0.2,0-0.2,0.2-0.3c0.5-0.1,1-0.3,1.5-0.6c1-0.5,1.8-1.4,2.2-2.4
			c0.2-0.5,0.4-1.1,0.4-1.7C-82.8,236.7-83.1,235.5-83.8,234.5z M-94.2,226.3V226c0,0,0-0.2,0.1-0.2h3.4c0.4,0,0.9,0,1.3,0.1h0.3
			c0.9,0.2,1.5,1,1.6,1.9c0.1,0.4,0.1,0.8,0,1.3c-0.1,0.7-0.6,1.2-1.2,1.5c-0.4,0.2-0.8,0.3-1.3,0.3h-4.1c0,0-0.1,0-0.1-0.1V226.3z
			 M-88.4,239.2c-0.5,0.2-1.1,0.4-1.7,0.4h-4c0,0-0.1,0-0.1-0.1v-0.3c0-0.8,0-1.6,0-2.4v-2.6h3.8c0.5,0,0.9,0,1.4,0.2
			c0.3,0.1,0.6,0.2,0.9,0.4c0.6,0.4,1,1,1.1,1.7c0.1,0.4,0.1,0.7,0,1.1C-87.2,238.3-87.7,238.9-88.4,239.2z"/>
		<polygon id="Path_5_" class="st1" points="-65.2,222.8 -65.2,226.6 -70.6,226.6 -70.6,242.7 -75.5,242.7 -75.5,226.6 -80.8,226.6 
			-80.8,222.8 		"/>
		<path id="Path_4_" class="st1" d="M-47.8,224.6c1.7,1.4,2.8,3.3,3.2,5.4h-5.1c-0.4-0.9-1-1.6-1.7-2.2c-0.8-0.5-1.8-0.8-2.8-0.8
			c-1.3,0-2.6,0.5-3.4,1.6c-0.9,1.2-1.4,2.6-1.3,4.1c-0.1,1.5,0.4,3,1.3,4.1c0.8,1,2.1,1.6,3.4,1.5c1,0,1.9-0.3,2.8-0.8
			c0.8-0.5,1.4-1.3,1.7-2.2h5.1c-0.4,2.1-1.6,4-3.2,5.4c-1.8,1.4-4,2.1-6.3,2c-1.8,0-3.5-0.4-5.1-1.3c-1.5-0.8-2.6-2.1-3.4-3.6
			c-1.6-3.3-1.6-7.2,0-10.5c0.8-1.5,1.9-2.8,3.4-3.6c1.6-0.9,3.3-1.3,5.1-1.3C-51.8,222.5-49.6,223.2-47.8,224.6z"/>
		<path id="Path_3_" class="st8" d="M-61.2,261.4c-0.1,0-0.1,0-0.2,0c-0.8,0-1.5,0-2.3,0c-0.2,0-0.3-0.1-0.4-0.2l-2.2-3.5
			c0-0.1-0.1-0.2-0.3-0.3c-0.1,0.1-0.2,0.2-0.2,0.3l-1.9,3.2c0,0.1-0.1,0.2-0.2,0.3c-0.1,0-0.1,0-0.2,0h-2.2c0,0-0.2,0-0.3,0
			l0.2-0.4c1.1-1.8,2.2-3.5,3.2-5.3c0.3-0.5,0.3-0.3,0-0.7c-1.1-1.6-2.2-3.3-3.2-4.9l-0.2-0.3c0,0,0,0,0-0.2c0-0.2,0.1,0,0.2,0h2
			c0.2,0,0.5,0,0.6,0c0.1,0.1,0.3,0.3,0.3,0.5l2,3.1l0.2,0.3c0.1-0.1,0.1-0.2,0.2-0.3l1.9-3.3c0.2-0.4,0.1-0.3,0.6-0.3h1.9
			c0.1,0,0.3,0,0.3,0c0,0,0,0.2-0.1,0.3l-0.2,0.3l-3.1,4.9l-0.2,0.2c0,0,0,0.2,0,0.2l0.2,0.3c1.1,1.7,2.2,3.4,3.4,5.2L-61.2,261.4z"
			/>
		<path id="Path_2_" class="st8" d="M-77.7,259.4h4.9c0.2,0,0.2,0,0.2,0.2v1.5c0,0.2,0,0.2-0.2,0.2h-7.8c-0.5,0-0.4,0-0.4-0.4v-1.1
			c0-0.1,0-0.3,0.2-0.4c0.8-0.5,1.5-1.1,2.3-1.7c0.7-0.6,1.4-1.2,2-1.9c0.4-0.4,0.7-0.9,0.9-1.4c0.3-0.5,0.4-1,0.4-1.6
			c0-0.2-0.1-0.5-0.2-0.7c-0.1-0.4-0.5-0.7-0.9-0.8c-0.3-0.1-0.6-0.1-0.9,0c-0.5,0.1-0.9,0.4-1.1,0.8c-0.2,0.3-0.3,0.7-0.3,1.1
			c0,0.1,0,0.1,0,0.2c0,0,0,0.1-0.1,0.1h-2c-0.1,0-0.2,0-0.2-0.1c-0.1-2,1.4-3.8,3.4-4.1c0.8-0.1,1.7-0.1,2.5,0.2
			c1.2,0.4,2,1.4,2.2,2.6c0.1,0.9,0,1.9-0.5,2.7c-0.4,0.8-0.9,1.5-1.5,2.2c-0.8,0.8-1.6,1.6-2.6,2.2
			C-77.4,259.2-77.6,259.3-77.7,259.4z"/>
	</g>
</g>
<g id="SVGID_3_" class="st9">
	<path id="path-1_1_" class="st10" d="M153.3,366.8h-106c-0.9,0-1.9,1.4-1.9,3.2c0,1.8,1,3.2,1.9,3.2h106c0.9,0,1.9-1.4,1.9-3.2
		C155.2,368.1,154.2,366.8,153.3,366.8"/>
</g>
<circle id="Oval-Copy-2_2_" class="st11" cx="476.5" cy="138.5" r="39"/>
<circle id="Oval-Copy_2_" class="st12" cx="326.1" cy="66.7" r="38.9"/>
<circle id="Oval_2_" class="st13" cx="515.2" cy="92.2" r="38.8"/>
<g>
	<g>
		<defs>
			<path id="SVGID_1_" d="M174.5,119.6c-1.5-8-6.7-14.5-8.8-22.4c-4.7-18.1,8.7-41.6-7.4-56.2c-16.3-14.8-35.4,3.5-42.7,7
				c-13.8,6.6-24.8,0.9-32.9-1c-13.3-3.1-27.3,1.1-38.2,10.4c-22.1,18.9-24.8,54.4-19.4,69.4c3.2,7.6,6.4,11.1,10.7,14.5
				c18.4,14.3,37.6-11.6,58.4-6.8c11.3,2.6,16.3,12.9,26.5,18.6C149.4,169,178.2,139.5,174.5,119.6z"/>
		</defs>
		<clipPath id="SVGID_4_">
			<use xlink:href="#SVGID_1_"  style="overflow:visible;"/>
		</clipPath>
		<g class="st14">
			<defs>
				<rect id="SVGID_5_" x="-20.9" y="1.2" width="235.9" height="191.3"/>
			</defs>
			<clipPath id="SVGID_6_">
				<use xlink:href="#SVGID_5_"  style="overflow:visible;"/>
			</clipPath>
			<rect x="18.4" y="30.9" class="st15" width="160.8" height="131"/>
		</g>
	</g>
	<g>
		<defs>
			<path id="SVGID_7_" d="M155.2,176.1H45.7c-0.9,0-2,1.4-2,3.3c0,1.9,1,3.3,2,3.3h109.5c0.9,0,2-1.4,2-3.3
				C157.2,177.5,156.1,176.1,155.2,176.1"/>
		</defs>
		<clipPath id="SVGID_8_">
			<use xlink:href="#SVGID_7_"  style="overflow:visible;"/>
		</clipPath>
		<g class="st16">
			<defs>
				<rect id="SVGID_9_" x="-20.9" y="1.2" width="235.9" height="191.3"/>
			</defs>
			<clipPath id="SVGID_10_">
				<use xlink:href="#SVGID_9_"  style="overflow:visible;"/>
			</clipPath>
			<g class="st17">
				<g>
					<defs>
						<rect id="SVGID_11_" x="39.4" y="171.6" width="122.3" height="15.7"/>
					</defs>
					<clipPath id="SVGID_12_">
						<use xlink:href="#SVGID_11_"  style="overflow:visible;"/>
					</clipPath>
					<g class="st18">
						<defs>
							<rect id="SVGID_13_" x="43.7" y="176" width="113.6" height="7"/>
						</defs>
						<clipPath id="SVGID_14_">
							<use xlink:href="#SVGID_13_"  style="overflow:visible;"/>
						</clipPath>
						<rect x="39.4" y="171.7" class="st19" width="122.2" height="15.4"/>
					</g>
				</g>
			</g>
		</g>
	</g>
</g>
<g>
	<path d="M52,103.8c0.5-0.6,1-1.1,1.9-0.7c0.8,0.3,0.8,1,0.8,1.7c0,9.2,0,18.3,0,27.5c0,0.4,0,0.8,0,1.2c0,1.4,0.9,2.3,2.2,2.3
		c2.8,0.1,5.7,0,8.5,0c0.3,0,0.7-0.4,0.9-0.7c5-7.3,11.6-12.4,20.1-14.9c10.4-3.1,20.3-1.8,29.7,3.7c0.4,0.2,0.9,0.5,0.9,0.9
		c0.1,0.5,0,1.1-0.3,1.5c-0.4,0.6-1.1,0.4-1.7,0.1c-1.9-1-3.8-2.1-5.7-2.8c-19.7-7.6-41.7,4.5-45.8,25.2c-0.5,2.8-0.8,5.6-0.6,8.5
		c0.7,0,1.5,0,2.3,0c-0.1-10.5,3.6-19.2,11.7-25.9c6.2-5.2,13.5-7.6,21.6-7.2c17.5,0.7,31.2,15.8,30.4,33.1c0.7,0,1.4,0,2.2,0
		c0-1.6,0.1-3.2,0-4.7c-0.8-8.7-4.4-16.1-10.7-22.1c-0.1-0.1-0.2-0.2-0.3-0.3c-0.6-0.6-0.6-1.4-0.1-1.9c0.5-0.5,1.3-0.6,1.9,0
		c1.4,1.5,2.9,3,4.2,4.6c0.7,0.8,1.2,1.7,1.9,2.6c0.2,0.3,0.6,0.5,0.9,0.5c2.7,0,5.4,0,8.1,0c1.6,0,2.5-0.9,2.5-2.5
		c0-14.5,0-29,0-43.5c0-0.1,0-0.3,0-0.5c-28.2,0-56.3,0-84.7,0c0,0.3,0,0.6,0,0.9c0,2.4,0,4.9,0,7.3c0,0.8-0.1,1.4-0.9,1.7
		c-0.8,0.3-1.3-0.2-1.7-0.8c0-8.1,0-16.3,0-24.4c0.6-2.1,1.9-3.5,4-4c27.3,0,54.6,0,81.9,0c2.1,0.6,3.5,1.9,4,4
		c0,20.2,0,40.3,0,60.5c0,0.1-0.1,0.1-0.1,0.2c-0.8,2.6-2.5,3.8-5.1,3.8c-1.3,0-2.6,0-4,0c-1,0-2,0-3,0c0.1,0.3,0.1,0.4,0.2,0.5
		c3,6,4.2,12.4,3.8,19.1c0,0.8-0.2,1.4-0.9,1.9c-23.9,0-47.8,0-71.7,0c-0.3-0.5-0.8-1-0.8-1.5c-0.5-6.7,0.6-13.1,3.6-19.1
		c0.1-0.2,0.2-0.5,0.4-0.8c-2.5,0-4.8,0-7.2,0c-1.8,0-3.3-0.7-4.2-2.2c-0.4-0.6-0.6-1.2-0.8-1.8C52,124.3,52,114,52,103.8z
		 M54.7,86.6c28.3,0,56.5,0,84.7,0c0-3.7,0-7.3,0-11c0-2.3-0.8-3-3-3c-24.5,0-49.1,0-73.6,0c-1.9,0-3.7,0-5.6,0
		c-1.4,0-2.4,0.8-2.4,2.1C54.6,78.7,54.7,82.6,54.7,86.6z M100.4,150.8c0.2-0.2,0.3-0.5,0.5-0.7c1.1-1.8,2.2-3.5,3.3-5.3
		c0.6-0.9,1.3-1.2,2-0.7c0.7,0.5,0.8,1.2,0.2,2.1c-1.1,1.7-2.1,3.4-3.2,5.1c-0.6,0.9-0.9,1.6-0.3,2.7c0.4,0.7,0.3,1.7,0.5,2.6
		c0,0.2,0,0.5,0,0.7c7.6,0,15.1,0,22.6,0c0.7-8.1-3-19.1-12.9-25.6c-10.2-6.7-23.1-6.5-32.8,0.5c-8.5,6.2-12.5,14.6-12.4,25.1
		c7.7,0,15.2,0,22.8,0C90,152,95.2,148.1,100.4,150.8z M97,157.3c1,0,2,0,3,0c0.5,0,0.7-0.2,0.7-0.7c0.1-1.5-0.5-2.8-1.8-3.6
		c-1.3-0.8-2.6-0.8-3.9,0c-1.3,0.8-1.8,2-1.7,3.6c0,0.5,0.2,0.7,0.7,0.7C95,157.3,96,157.3,97,157.3z"/>
	<path class="st1" d="M56,70c-2.1,0.6-3.5,1.9-4,4c0-1.3,0-2.7,0-4C53.3,70,54.7,70,56,70z"/>
	<path class="st1" d="M142,74c-0.6-2.1-1.9-3.5-4-4c1.3,0,2.7,0,4,0C142,71.3,142,72.7,142,74z"/>
	<path d="M90.7,107.6c0,2.4,0,4.6,0,6.9c0,1.4-0.4,1.8-1.8,1.8c-3,0-5.9,0-8.9,0c-1.5,0-1.9-0.4-1.9-1.9c0-2.2,0-4.5,0-6.9
		c-1.4,0-2.6,0-3.9,0c-0.7,0-1.3-0.1-1.6-0.8c-0.3-0.7,0-1.2,0.4-1.7c3.4-4.5,6.8-9,10.2-13.4c0.8-1.1,1.7-1.1,2.6,0
		c3.4,4.5,6.8,8.9,10.2,13.4c0.4,0.5,0.6,1.1,0.3,1.7c-0.3,0.6-0.9,0.7-1.6,0.7C93.4,107.6,92.1,107.6,90.7,107.6z M88,113.6
		c0-0.3,0-0.6,0-0.9c0-2,0-4,0-6.1c0-1.2,0.5-1.7,1.7-1.7c0.8,0,1.6,0,2.6,0c-2.7-3.6-5.3-7-8-10.5c-2.7,3.5-5.3,6.9-7.9,10.4
		c0.2,0,0.2,0.1,0.2,0.1c0.8,0,1.6,0,2.4,0c1.2,0,1.6,0.5,1.7,1.7c0,0.8,0,1.7,0,2.5c0,1.5,0,2.9,0,4.4
		C83.2,113.6,85.6,113.6,88,113.6z"/>
	<path class="st1" d="M97,157.3c-1,0-2,0-3,0c-0.5,0-0.7-0.2-0.7-0.7c-0.1-1.5,0.4-2.8,1.7-3.6c1.3-0.8,2.6-0.8,3.9,0
		c1.3,0.8,1.9,2,1.8,3.6c0,0.5-0.2,0.7-0.7,0.7C99,157.3,98,157.3,97,157.3z"/>
	<path class="st6" d="M88,113.6h-6c-0.7,0-1.3-0.6-1.3-1.3c0-1,0-2.1,0-3.1c0-0.8,0-1.7,0-2.5c0-1.2-0.5-1.6-1.7-1.7
		c-0.8,0-1.6,0-2.4,0c0,0-0.1,0-0.2-0.1l6.9-9c0.5-0.7,1.6-0.7,2.1,0l5.4,7.1c0.6,0.8,0,2.1-1,2.1c0,0,0,0,0,0
		c-1.3,0-1.7,0.4-1.7,1.7c0,2,0,4,0,6.1C88,113,88,113.3,88,113.6z"/>
	<path d="M67.6,79.7c0,2.2-1.9,4.1-4.1,4.2c-2.3,0-4.2-1.8-4.2-4.1c0-2.3,1.9-4.2,4.2-4.2C65.7,75.5,67.6,77.4,67.6,79.7z M65,79.7
		c0-0.8-0.7-1.5-1.5-1.5c-0.8,0-1.4,0.6-1.5,1.4c0,0.8,0.6,1.5,1.5,1.5C64.2,81.2,65,80.5,65,79.7z"/>
	<path d="M70.5,79.7c0-2.3,1.9-4.2,4.2-4.2c2.3,0,4.1,1.9,4.1,4.1c0,2.3-1.8,4.2-4.1,4.2C72.4,83.9,70.5,82,70.5,79.7z M74.6,81.2
		c0.8,0,1.5-0.7,1.5-1.5c0-0.8-0.6-1.5-1.5-1.5c-0.8,0-1.5,0.7-1.5,1.5C73.1,80.5,73.8,81.2,74.6,81.2z"/>
	<path d="M81.7,79.7c0-2.3,1.8-4.2,4.1-4.2c2.3,0,4.1,1.8,4.2,4.1c0,2.3-1.8,4.2-4.1,4.3C83.6,83.9,81.7,82,81.7,79.7z M87.3,79.7
		c0-0.8-0.7-1.5-1.5-1.5c-0.8,0-1.4,0.6-1.5,1.4c0,0.8,0.6,1.5,1.5,1.5C86.6,81.2,87.3,80.5,87.3,79.7z"/>
	<path d="M96.9,129.9c9.6,0.3,17.1,4.3,22.4,12.3c0.8,1.3,0.6,1.9-0.7,2.6c-1.6,0.8-3.1,1.6-4.7,2.4c-1.1,0.6-1.6,0.4-2.3-0.6
		c-3.7-5.1-8.8-7.7-15.1-7.5c-5.7,0.1-10.4,2.6-13.8,7.1c-1.2,1.5-1.4,1.6-3.1,0.7c-1.4-0.7-2.9-1.5-4.3-2.2
		c-1.1-0.6-1.4-1.3-0.7-2.3c4.4-6.8,10.6-10.9,18.7-12.1C94.5,130.1,95.7,130,96.9,129.9z M88.1,134.4c0.6,1,1.2,1.9,1.8,2.8
		c0.1,0.2,0.5,0.3,0.7,0.2c4.3-1.3,8.6-1.3,12.9,0c0.2,0.1,0.5,0,0.6-0.2c0.6-0.9,1.2-1.9,1.8-2.9C99.9,132.1,94.1,132.1,88.1,134.4
		z M77.5,142.9c1.1,0.5,2.1,1.1,3.1,1.6c1.9-2.4,4.2-4.4,7-5.8c-0.7-1.1-1.3-2.1-2-3.1C82.3,137.4,79.7,139.8,77.5,142.9z
		 M116.5,142.9c-2.1-3.1-4.8-5.5-8.2-7.3c-0.7,1-1.3,2-1.9,3.1c2.7,1.4,4.9,3.2,6.7,5.5c0.1,0.1,0.5,0.1,0.7,0
		C114.7,143.8,115.5,143.4,116.5,142.9z"/>
	<path class="st1" d="M65,79.7c0,0.8-0.7,1.5-1.5,1.5c-0.8,0-1.5-0.7-1.5-1.5c0-0.8,0.7-1.4,1.5-1.4C64.3,78.2,65,78.9,65,79.7z"/>
	<path class="st1" d="M74.6,81.2c-0.8,0-1.5-0.7-1.5-1.5c0-0.8,0.7-1.5,1.5-1.5c0.8,0,1.5,0.7,1.5,1.5
		C76.1,80.5,75.4,81.2,74.6,81.2z"/>
	<path class="st1" d="M87.3,79.7c0,0.8-0.7,1.5-1.5,1.5c-0.8,0-1.5-0.7-1.5-1.5c0-0.8,0.7-1.4,1.5-1.4
		C86.6,78.2,87.3,78.9,87.3,79.7z"/>
	<path class="st0" d="M88.1,134.4c6-2.3,11.8-2.3,17.8,0c-0.6,1-1.2,2-1.8,2.9c-0.1,0.1-0.5,0.2-0.6,0.2c-4.3-1.4-8.6-1.4-12.9,0
		c-0.2,0.1-0.6,0-0.7-0.2C89.3,136.3,88.7,135.4,88.1,134.4z"/>
	<path class="st6" d="M77.5,142.9c2.1-3.1,4.8-5.5,8.2-7.3c0.7,1,1.3,2,2,3.1c-2.8,1.5-5.1,3.4-7,5.8
		C79.6,143.9,78.6,143.4,77.5,142.9z"/>
	<path class="st7" d="M116.5,142.9c-1,0.5-1.8,0.9-2.6,1.3c-0.2,0.1-0.6,0.1-0.7,0c-1.8-2.3-4.1-4.1-6.7-5.5
		c0.7-1.1,1.3-2.1,1.9-3.1C111.7,137.4,114.3,139.8,116.5,142.9z"/>
	<path class="st7" d="M105.8,93.5c2.5,0,4.8,0,7.3,0c0,1.5,0,3,0,4.4c0,0.8,0,1.7,0,2.5c0,1.2,0.5,1.6,1.7,1.7c0.8,0,1.6,0,2.4,0
		c0,0,0.1,0,0.2,0.1c-2.6,3.5-5.2,6.9-7.9,10.4c-2.7-3.5-5.2-6.9-8-10.5c1,0,1.8,0,2.6,0c1.3,0,1.7-0.4,1.7-1.7c0-2,0-4,0-6.1
		C105.8,94.1,105.8,93.8,105.8,93.5z"/>
	<path d="M113.2,93.6c-2.5,0-4.8,0-7.3,0c0,0.4,0,0.9,0,1.3c0,1.9,0,3.9,0,5.8c0,1.1-0.5,1.6-1.6,1.6c-0.8,0-1.7,0-2.7,0
		c2.7,3.5,5.3,7,7.9,10.5c0.8-1,1.5-1.9,2.2-2.9c0.2-0.3,0.4-0.6,0.6-0.8c0.6-0.7,1.3-0.8,1.9-0.3c0.6,0.5,0.7,1.2,0.2,2
		c-0.4,0.5-0.8,1-1.2,1.5c-0.8,1.1-1.7,2.2-2.6,3.4c-0.7,1-1.7,1-2.4,0c-3.5-4.6-7-9.1-10.4-13.7c-0.3-0.4-0.4-1.1-0.2-1.5
		c0.2-0.4,0.8-0.7,1.3-0.7c1.4-0.1,2.7,0,4.2,0c0-2,0-4,0-5.9c0-2.8,0-2.9,2.8-2.9c2.6,0,5.2,0,7.7,0c1.7,0,2,0.4,2,2.1
		c0,2.2,0,4.3,0,6.6c0.6,0,1.2,0,1.7,0c0.9,0,1.8,0,2.7,0c1,0.1,1.6,1.1,1.1,1.9c-1,1.5-2.1,2.8-3.2,4.2c-0.4,0.5-1.1,0.5-1.7,0.1
		c-0.6-0.5-0.7-1.1-0.3-1.7c0.4-0.6,0.8-1.1,1.3-1.8c-0.5,0-0.9,0-1.3,0c-3,0-3,0-3-3.1C113.2,97.4,113.2,95.6,113.2,93.6z"/>
</g>
</svg>
