<?xml version="1.0" encoding="utf-8"?>
<!-- Generator: Adobe Illustrator 22.0.0, SVG Export Plug-In . SVG Version: 6.00 Build 0)  -->
<svg version="1.1" id="Layer_1" xmlns="http://www.w3.org/2000/svg" xmlns:xlink="http://www.w3.org/1999/xlink" x="0px" y="0px"
	 viewBox="0 0 196.5 184.4" style="enable-background:new 0 0 196.5 184.4;" xml:space="preserve">
<style type="text/css">
	.st0{opacity:0.1004;fill:#50E3C2;enable-background:new    ;}
	.st1{fill:#283238;}
	.st2{fill:#00A69C;}
	.st3{fill:#04364F;}
	.st4{fill:#FFFFFF;}
	.st5{opacity:0.1;enable-background:new    ;}
	.st6{fill:#50E3C2;}
	.st7{opacity:0.1;fill:#50E3C2;enable-background:new    ;}
	.st8{fill:#00A651;fill-opacity:0.2;}
	.st9{fill:#00A651;}
	.st10{fill:#D4E1F4;}
	.st11{fill:#E5E5E9;}
	.st12{fill:#FF9415;fill-opacity:0.2;}
	.st13{fill:#ED1C24;fill-opacity:0.2;}
	.st14{fill:#ED1C24;}
	.st15{fill:#BBBBBB;}
	.st16{fill:#FF9415;}
</style>
<g>
	<g id="Page-1">
		<g id="Group-3">
			<g id="Group-2-Copy">
				<g id="SVGID_2_">
					<path id="path-1_3_" class="st0" d="M154.5,177.8H45.4c-0.9,0-2,1.4-2,3.3c0,1.9,1,3.3,2,3.3h109.1c0.9,0,2-1.4,2-3.3
						C156.4,179.2,155.4,177.8,154.5,177.8"/>
				</g>
				<path id="Path_34_" class="st0" d="M173.7,121.5c-1.5-7.9-6.7-14.5-8.7-22.4c-4.7-18,8.7-41.4-7.3-56
					c-16.2-14.8-35.3,3.5-42.6,6.9c-13.8,6.5-24.7,0.9-32.8-1C69,46,55,50.2,44.2,59.4c-22,18.8-24.7,54.2-19.3,69.1
					c3.1,7.6,6.4,11.1,10.7,14.4c18.3,14.2,37.4-11.5,58.2-6.7c11.3,2.6,16.3,12.9,26.4,18.6C148.7,170.8,177.4,141.3,173.7,121.5z"
					/>
			</g>
			<g id="face-scan" transform="translate(25.000000, 3.000000)">
				<g id="Group_2_">
					<path id="Path_29_" class="st1" d="M47.4,37.1H21c-1,0-1.7,0.8-1.7,1.7v26.4c0,1,0.8,1.7,1.7,1.7c1,0,1.7-0.8,1.7-1.7V40.6
						h24.7c1,0,1.7-0.8,1.7-1.7S48.4,37.1,47.4,37.1z"/>
					<path id="Path_28_" class="st1" d="M47.4,141.6H22.7v-24.7c0-1-0.8-1.7-1.7-1.7c-1,0-1.7,0.8-1.7,1.7v26.4c0,1,0.8,1.7,1.7,1.7
						h26.4c1,0,1.7-0.8,1.7-1.7S48.4,141.6,47.4,141.6z"/>
					<path id="Path_27_" class="st1" d="M99.1,145.1h26.4c1,0,1.7-0.8,1.7-1.7v-26.4c0-1-0.8-1.7-1.7-1.7s-1.7,0.8-1.7,1.7v24.7
						H99.1c-1,0-1.7,0.8-1.7,1.7S98.1,145.1,99.1,145.1z"/>
					<path id="Path_26_" class="st1" d="M99.1,40.6h24.7v24.7c0,1,0.8,1.7,1.7,1.7s1.7-0.8,1.7-1.7V38.8c0-1-0.8-1.7-1.7-1.7H99.1
						c-1,0-1.7,0.8-1.7,1.7S98.1,40.6,99.1,40.6z"/>
				</g>
			</g>
		</g>
	</g>
	<g>
		<path class="st2" d="M138.2,93.3c0,22.1-17.9,40-40,40s-40-17.9-40-40s17.9-40,40-40C120.3,53.3,138.2,71.2,138.2,93.3"/>
		<path class="st3" d="M98.2,57.2c-19.9,0-36.1,16.2-36.1,36.1s16.2,36.1,36.1,36.1s36.1-16.2,36.1-36.1
			C134.3,73.4,118.2,57.2,98.2,57.2"/>
		<rect x="63.8" y="108.7" class="st2" width="68.5" height="1.6"/>
		<path class="st4" d="M98.2,55.3c-21,0-38,17-38,38s17,38,38,38s38-17,38-38l0,0C136.2,72.4,119.2,55.4,98.2,55.3 M98.2,130.4
			c-20.5,0-37-16.6-37-37s16.6-37,37-37s37,16.6,37,37l0,0C135.3,113.8,118.7,130.4,98.2,130.4C98.2,130.4,98.2,130.4,98.2,130.4"/>
		<path class="st4" d="M98.2,56.3c-20.5,0-37,16.6-37,37s16.6,37,37,37s37-16.6,37-37S118.7,56.3,98.2,56.3L98.2,56.3 M98.2,129.4
			c-19.9,0-36.1-16.2-36.1-36.1s16.2-36.1,36.1-36.1s36.1,16.2,36.1,36.1C134.3,113.3,118.2,129.4,98.2,129.4"/>
		<rect x="76.7" y="69.3" class="st4" width="7" height="48"/>
		<polygon class="st4" points="112.2,69.3 98.5,100.5 91.1,83.8 91.1,100.2 95.1,117.3 101.6,117.3 112.7,81.8 112.7,117.3 
			119.8,117.3 119.8,69.3 		"/>
	</g>
</g>
<g id="Artboard_2_">
	<g id="Group-5_2_" transform="translate(36.000000, 21.000000)">
		<g id="Group-2-Copy-2_2_">
			<g id="SVGID_3_" class="st5">
				<path id="path-1_1_" class="st6" d="M312.5,158.8h-106c-0.9,0-1.9,1.4-1.9,3.2c0,1.8,1,3.2,1.9,3.2h106c0.9,0,1.9-1.4,1.9-3.2
					C314.4,160.1,313.4,158.8,312.5,158.8"/>
			</g>
			<path id="Path_30_" class="st7" d="M331.2,104.1c-1.4-7.7-6.5-14-8.5-21.7c-4.6-17.5,8.4-40.3-7.1-54.4
				c-15.8-14.3-34.3,3.4-41.3,6.7c-13.4,6.3-24,0.8-31.9-1c-12.9-3-26.5,1.1-36.9,10c-21.4,18.3-24,52.6-18.8,67.1
				c3,7.4,6.2,10.7,10.4,14c17.8,13.8,36.4-11.2,56.6-6.5c11,2.5,15.8,12.5,25.6,18C306.9,152,334.8,123.3,331.2,104.1z"/>
			<g id="wallet_2_" transform="translate(37.000000, 0.000000)">
				<g id="Group-4_2_" transform="translate(26.000000, 0.000000)">
					<circle id="Oval-Copy-2_2_" class="st8" cx="204.2" cy="32.7" r="25.4"/>
					<g id="icon-doc_2_">
						<g id="Path_12_">
							<path class="st9" d="M174.6,32.7c0-14,11.4-25.4,25.4-25.4s25.4,11.4,25.4,25.4S214,58.1,200,58.1c-6.7,0-13.2-2.7-17.9-7.4
								S174.6,39.4,174.6,32.7z"/>
							<path d="M200.1,55.4c-0.4,0-0.7,0-1.1,0l-1.1-0.1h-0.6c-0.6-0.1-1.2-0.2-1.8-0.3c-1.1-0.2-2.2-0.5-3.2-0.9
								c-1.3-0.5-2.5-1.1-3.6-1.7c-1.1-0.7-2.2-1.4-3.2-2.2c-0.4-0.3-0.7-0.6-1.1-0.9c-0.4-0.4-0.8-0.8-1.2-1.2
								c-0.6-0.6-1.1-1.2-1.6-1.9c-1.5-2.1-2.7-4.5-3.5-7c-0.2-0.8-0.4-1.6-0.6-2.4c-0.1-0.5-0.2-1.1-0.2-1.6s-0.1-0.9-0.1-1.4
								c0-0.5,0-1.1,0-1.6c0-0.5,0-0.9,0-1.4l0.1-1.2c0-0.4,0.1-0.9,0.2-1.3c0.2-1.2,0.6-2.3,1-3.4c0.2-0.6,0.5-1.2,0.7-1.8
								c0.5-1.2,1.2-2.3,1.9-3.3c0.5-0.7,1-1.4,1.6-2.1c0.4-0.5,0.9-1,1.4-1.4c0.8-0.8,1.7-1.6,2.7-2.3c1.1-0.8,2.4-1.5,3.6-2.1
								c1.1-0.5,2.3-0.9,3.5-1.3c0.6-0.2,1.3-0.4,1.9-0.5c0.4-0.1,0.8-0.1,1.2-0.1c0.7-0.1,1.4-0.1,2.1-0.2c0.3,0,0.6,0,0.9,0
								s1,0,1.5,0.1c0.3,0,0.5,0,0.8,0l1.2,0.2c0.7,0.1,1.4,0.3,2.1,0.4c1.1,0.3,2.2,0.7,3.3,1.1c1.4,0.6,2.7,1.3,3.9,2.2
								c0.7,0.5,1.3,1,2,1.5c0.6,0.5,1.1,1,1.6,1.5c0.8,0.8,1.5,1.6,2.1,2.5c1.6,2.2,2.7,4.7,3.5,7.3c0.2,0.7,0.3,1.3,0.5,2
								c0.1,0.4,0.1,0.8,0.2,1.3c0.1,0.4,0.1,1,0.1,1.5c0,0.3,0,0.6,0,0.9s0,0.6,0,0.9s0,0.9-0.1,1.3c-0.1,0.4,0,0.7-0.1,1
								c-0.1,0.4-0.2,1.1-0.3,1.6c-0.5,2.6-1.5,5.1-2.9,7.3c-0.5,0.8-1.1,1.7-1.7,2.4c-0.6,0.7-1.2,1.4-1.9,2.1
								c-1.4,1.3-2.9,2.4-4.5,3.3c-1.6,0.9-3.3,1.6-5.1,2.1c-0.9,0.2-1.9,0.4-2.8,0.6l-1.1,0.1C201.5,55.4,200.8,55.4,200.1,55.4z"
								/>
							<path class="st4" d="M183.1,32.6v-6.3c0-0.1,0-0.1,0-0.2c0-0.1,0-0.1,0.1-0.1h4.6c0.9,0,1.8,0.1,2.7,0.4
								c0.9,0.3,1.7,0.8,2.4,1.4c0.7,0.7,1.3,1.7,1.5,2.7c0.3,0.9,0.3,1.9,0.2,2.8c-0.1,0.7-0.2,1.4-0.5,2c-0.6,1.6-1.9,2.9-3.6,3.4
								c-0.7,0.2-1.4,0.4-2.1,0.4c-0.4,0-0.7,0-1.1,0c-1.3,0-2.7,0-4,0c-0.3,0-0.3,0-0.3-0.3L183.1,32.6z"/>
							<path class="st4" d="M218.9,30.6c-0.1,0-0.1,0-0.2,0h-2.5c0,0-0.1,0-0.1-0.1v-0.1c-0.5-1-1.4-1.7-2.6-1.9
								c-0.8-0.2-1.7-0.1-2.4,0.2c-0.7,0.3-1.2,0.8-1.6,1.4c-0.3,0.6-0.5,1.2-0.6,1.8c-0.1,0.5-0.1,0.9,0,1.4
								c0.1,0.6,0.2,1.2,0.5,1.7c0.5,0.9,1.4,1.6,2.4,1.7c1,0.2,2.1,0,3-0.6c0.5-0.3,0.8-0.8,1.1-1.3c0,0,0-0.1,0-0.1
								c0-0.1,0.1-0.2,0.3-0.2h2.4c0,0,0.1,0,0.2,0c0,0,0,0.1,0,0.2c-0.3,1.2-1,2.4-1.9,3.2c-0.7,0.6-1.6,1-2.6,1.2
								c-0.8,0.2-1.7,0.2-2.5,0.1c-2.2-0.2-4.1-1.6-4.9-3.7c-0.3-0.8-0.5-1.6-0.5-2.4c0-0.6,0-1.1,0-1.7c0.2-1.3,0.7-2.6,1.6-3.6
								c0.8-0.9,1.9-1.5,3.1-1.8c0.8-0.2,1.7-0.2,2.6-0.1c0.7,0.1,1.4,0.2,2,0.5c1.4,0.6,2.4,1.8,2.9,3.2c0.1,0.3,0.2,0.5,0.3,0.8
								C218.9,30.5,218.9,30.5,218.9,30.6L218.9,30.6z"/>
							<path class="st4" d="M205.8,33.9c0,0.8-0.1,1.6-0.4,2.3c-0.6,1.4-1.8,2.4-3.2,2.8c-0.8,0.2-1.6,0.3-2.4,0.2
								c-0.6-0.1-1.1-0.2-1.6-0.4c-1.3-0.6-2.3-1.7-2.7-3.1c-0.3-1.1-0.3-2.3,0-3.4c0.4-1.7,1.7-2.9,3.4-3.4
								c0.8-0.2,1.7-0.3,2.6-0.2c0.5,0.1,1.1,0.2,1.6,0.4c1.3,0.6,2.3,1.8,2.6,3.2C205.8,32.9,205.8,33.4,205.8,33.9z"/>
							<path d="M185.8,32.5v-4c0-0.2,0-0.2,0.2-0.2h1.7c0.6,0,1.1,0.1,1.6,0.3c1.3,0.4,2.2,1.4,2.5,2.7c0.3,0.9,0.3,1.9,0,2.8
								c-0.3,1.3-1.3,2.3-2.6,2.6c-0.5,0.1-0.9,0.2-1.4,0.2h-2l0,0c0-0.1,0-0.2,0-0.2L185.8,32.5z"/>
							<path d="M203.2,33.9c0,0.4-0.1,0.8-0.1,1.2c-0.3,0.9-0.9,1.5-1.8,1.8c-0.9,0.2-1.8,0-2.4-0.6c-0.4-0.3-0.6-0.8-0.7-1.2
								c-0.2-0.7-0.2-1.5,0-2.3c0.3-1.1,1.3-1.8,2.4-1.8c0.6,0,1.2,0.2,1.7,0.6c0.5,0.4,0.8,0.9,0.9,1.5c0,0.2,0.1,0.4,0.1,0.6
								C203.2,33.7,203.2,33.9,203.2,33.9z"/>
						</g>
					</g>
				</g>
				<path id="Rectangle_2_" class="st4" d="M188.8,47.9h73.6c3.7,0,6.8,3,6.8,6.8v53.3c0,3.7-3,6.8-6.8,6.8h-73.6
					c-3.7,0-6.8-3-6.8-6.8V54.7C182,50.9,185.1,47.9,188.8,47.9z"/>
				<g id="Group_3_" transform="translate(4.146453, 47.068650)">
					<polygon id="Path_11_" class="st10" points="236.9,0.9 236.8,0.9 236.8,1 					"/>
					<polygon id="Path_10_" class="st10" points="204.2,0.9 204.2,0.9 204.2,1 					"/>
					<path id="Path_9_" class="st11" d="M183.1,9.3c0-4.6,3.7-8.4,8.4-8.4h-4.9c-4.6,0-8.4,3.7-8.4,8.4v27.5c1.7-1,3.3-2.1,4.9-3.2
						V9.3z"/>
					<path id="Path_8_" class="st11" d="M247.3,25.1c-2.9,0-5.6,1.3-7.4,3.6c-1.7,2.3-2.3,5.3-1.6,8.1c1.1-4,4.8-6.8,8.9-6.8h20.5
						v-4.9L247.3,25.1z"/>
				</g>
				<path id="Shape_6_" class="st1" d="M273.4,69.2h-2.6V56.4c0-6.2-5.1-11.3-11.3-11.3h-5.7l-51.6,0h-11.5
					c-6.2,0-11.3,5.1-11.3,11.3v30.1h2.9V56.4c0-4.6,3.7-8.4,8.4-8.4h12.7l0,0l0,0h32.6l0,0l0,0h23.4c4.6,0,8.4,3.7,8.4,8.4v12.8
					h-16.4c-6.7,0-12.1,5.5-12.1,12.2c0,6.7,5.4,12.2,12.1,12.2h16.4v12.8c0,4.6-3.7,8.4-8.4,8.4h-49v2.9h49
					c6.2,0,11.3-5.1,11.3-11.3V93.6h2.6c0.8,0,1.5-0.7,1.5-1.5V70.7C274.9,70.1,274.4,69.6,273.4,69.2z M271.9,90.6h-20.5
					c-5.1,0-9.2-4.2-9.2-9.2s4.1-9.2,9.2-9.2h20.5V90.6z"/>
				<path id="Shape_2_" class="st1" d="M246.4,81.4c0,3,2.5,5.5,5.5,5.5c3,0,5.5-2.5,5.5-5.5c0-3-2.5-5.5-5.5-5.5
					C248.8,75.9,246.4,78.4,246.4,81.4L246.4,81.4z M251.9,78.9c1.4,0,2.5,1.1,2.5,2.5c0,1.4-1.1,2.5-2.5,2.5
					c-1.4,0-2.5-1.1-2.5-2.5C249.3,80,250.5,78.9,251.9,78.9z"/>
			</g>
		</g>
		<circle id="Oval_2_" class="st12" cx="227.1" cy="106.7" r="27.5"/>
		<circle id="Oval-Copy_2_" class="st13" cx="353.5" cy="68.2" r="21.1"/>
		<g id="icon-btcx2_2_" transform="translate(171.000000, 47.000000)">
			<g>
				<path id="Path_7_" class="st14" d="M200.3,21.2c0,11.7-9.5,21.1-21.1,21.1S158,32.9,158,21.2s9.5-21.1,21.1-21.1
					c5.6,0,11,2.2,14.9,6.2S200.3,15.6,200.3,21.2z"/>
				<path id="Path_6_" d="M179.1,2.1c10.5,0,19,8.5,19.1,19c0,10.5-8.5,19-19,19.1c-10.5,0-19-8.5-19.1-19
					C160.1,10.7,168.6,2.2,179.1,2.1z"/>
				<path id="Shape_1_" class="st4" d="M173.1,21.3c-0.4-0.5-0.9-0.9-1.5-1c0,0-0.1,0-0.1-0.1l0.2-0.1c0.7-0.2,1.3-0.8,1.5-1.6
					c0.1-0.5,0.2-1,0.1-1.5c-0.1-0.6-0.4-1.1-0.9-1.5c-0.3-0.2-0.6-0.4-0.9-0.5c-0.1,0-0.2,0-0.3-0.1c0-0.1,0-0.2,0-0.3v-1.3
					c0-0.1,0-0.1-0.1-0.1h-1.4c-0.1,0-0.1,0-0.1,0.1v1.4c0,0.1,0,0.1-0.1,0.1h-0.4c-0.2,0-0.2,0-0.2-0.2v-1.3c0-0.1,0-0.1-0.1-0.1
					h-1.4h-0.1v1.4c0,0,0,0.1,0,0.1h-2c-0.2,0-0.2,0-0.2,0.2l0,0l0,0c0,0,0,0.2,0,0.2v10.4v0.1h2.2c0,0,0.1,0,0.1,0.1
					c0,0.1,0,0.2,0,0.2v1c0,0.1,0,0.1,0.1,0.1h1.4c0.1,0,0.1,0,0.1-0.1v-1.2c0,0,0.1,0,0.1,0h0.5c0,0,0,0,0.1,0c0,0,0,0,0,0.1v1.2
					c0,0.1,0,0.1,0.1,0.1h1.4c0.1,0,0.1,0,0.1-0.1v-1.3c0-0.1,0-0.1,0.1-0.2c0.3-0.1,0.6-0.2,0.8-0.3c0.5-0.3,1-0.8,1.2-1.3
					c0.1-0.3,0.2-0.6,0.2-0.9C173.6,22.5,173.5,21.9,173.1,21.3z M167.5,16.9v-0.2c0,0,0-0.1,0.1-0.1h1.8c0.2,0,0.5,0,0.7,0.1h0.1
					c0.5,0.1,0.8,0.5,0.9,1c0,0.2,0,0.5,0,0.7c-0.1,0.4-0.3,0.7-0.6,0.8c-0.2,0.1-0.4,0.2-0.7,0.2h-2.2c0,0-0.1,0-0.1-0.1V16.9z
					 M170.6,23.9c-0.3,0.1-0.6,0.2-0.9,0.2h-2.2c0,0-0.1,0-0.1-0.1v-0.2c0-0.4,0-0.9,0-1.3v-1.4h2.1c0.2,0,0.5,0,0.7,0.1
					c0.2,0,0.3,0.1,0.5,0.2c0.3,0.2,0.5,0.5,0.6,0.9c0,0.2,0,0.4,0,0.6C171.3,23.4,171,23.7,170.6,23.9z"/>
				<polygon id="Path_5_" class="st4" points="183.2,15 183.2,17.1 180.3,17.1 180.3,25.8 177.6,25.8 177.6,17.1 174.8,17.1 
					174.8,15 				"/>
				<path id="Path_4_" class="st4" d="M192.6,16c0.9,0.7,1.5,1.8,1.8,2.9h-2.8c-0.2-0.5-0.5-0.9-0.9-1.2c-0.4-0.3-1-0.4-1.5-0.4
					c-0.7,0-1.4,0.3-1.8,0.8c-0.5,0.6-0.7,1.4-0.7,2.2c0,0.8,0.2,1.6,0.7,2.2c0.5,0.5,1.1,0.8,1.8,0.8c0.5,0,1.1-0.1,1.5-0.4
					c0.4-0.3,0.8-0.7,0.9-1.2h2.8c-0.2,1.1-0.8,2.2-1.8,2.9c-1,0.8-2.2,1.1-3.4,1.1c-1,0-1.9-0.2-2.8-0.7c-0.8-0.5-1.4-1.1-1.8-1.9
					c-0.9-1.8-0.9-3.9,0-5.7c0.4-0.8,1.1-1.5,1.8-1.9c0.8-0.5,1.8-0.7,2.8-0.7C190.5,14.9,191.7,15.2,192.6,16z"/>
				<path id="Path_3_" class="st15" d="M185.4,36c0,0-0.1,0-0.1,0c-0.4,0-0.8,0-1.2,0c-0.1,0-0.2,0-0.2-0.1l-1.2-1.9
					c0-0.1-0.1-0.1-0.1-0.2c0,0.1-0.1,0.1-0.1,0.2l-1,1.8c0,0.1-0.1,0.1-0.1,0.2c0,0-0.1,0-0.1,0H180c0,0-0.1,0-0.2,0l0.1-0.2
					c0.6-1,1.2-1.9,1.8-2.9c0.2-0.2,0.2-0.2,0-0.4c-0.6-0.9-1.2-1.8-1.8-2.7l-0.1-0.2c0,0,0,0,0-0.1s0.1,0,0.1,0h1.1
					c0.1,0,0.2,0,0.3,0c0.1,0.1,0.1,0.2,0.2,0.3l1.1,1.7l0.1,0.2c0,0,0.1-0.1,0.1-0.2l1-1.8c0.1-0.2,0.1-0.2,0.3-0.2h1
					c0.1,0,0.2,0,0.2,0c0,0,0,0.1-0.1,0.2l-0.1,0.2l-1.7,2.7l-0.1,0.1c0,0,0,0.1,0,0.1l0.1,0.1c0.6,0.9,1.2,1.9,1.8,2.8L185.4,36z"
					/>
				<path id="Path_2_" class="st15" d="M176.4,34.9h2.7c0.1,0,0.1,0,0.1,0.1v0.8c0,0.1,0,0.1-0.1,0.1h-4.2c-0.3,0-0.2,0-0.2-0.2
					v-0.6c0-0.1,0-0.2,0.1-0.2c0.4-0.3,0.8-0.6,1.2-0.9c0.4-0.3,0.7-0.7,1.1-1c0.2-0.2,0.4-0.5,0.5-0.7c0.1-0.3,0.2-0.6,0.2-0.9
					c0-0.1,0-0.3-0.1-0.4c-0.1-0.2-0.3-0.4-0.5-0.4c-0.2,0-0.3,0-0.5,0c-0.3,0-0.5,0.2-0.6,0.4c-0.1,0.2-0.1,0.4-0.2,0.6
					c0,0,0,0.1,0,0.1c0,0,0,0.1-0.1,0.1h-1.1c-0.1,0-0.1,0-0.1-0.1c0-1.1,0.7-2.1,1.8-2.2c0.5-0.1,0.9,0,1.4,0.1
					c0.6,0.2,1.1,0.7,1.2,1.4c0.1,0.5,0,1-0.2,1.5c-0.2,0.4-0.5,0.8-0.8,1.2c-0.4,0.4-0.9,0.8-1.4,1.2
					C176.6,34.8,176.5,34.8,176.4,34.9z"/>
			</g>
		</g>
		<g id="icon-bpro_2_" transform="translate(13.000000, 85.000000)">
			<g id="Path_1_">
				<path class="st16" d="M237.3,21.7c0,15.2-12.3,27.5-27.5,27.5c-15.2,0-27.5-12.3-27.5-27.5s12.3-27.5,27.5-27.5
					c7.3,0,14.3,2.9,19.4,8C234.4,7.4,237.3,14.4,237.3,21.7z"/>
				<path d="M209.8-3.1c10,0,19,6,22.9,15.2s1.7,19.9-5.3,26.9s-17.7,9.2-26.9,5.4s-15.3-12.9-15.2-22.9C185.2,8,196.2-3,209.8-3.1z
					"/>
				<path class="st4" d="M190.3,14.8c0-0.3,0-0.3,0.3-0.3h2.5l0,0c0-0.1,0-0.1,0-0.2v-1.8c0,0,0-0.1,0.1-0.1h1.8
					c0.2,0,0.2,0,0.2,0.2v1.6c0,0.2,0,0.2,0.2,0.2h0.5c0.1,0,0.1,0,0.1-0.1v-1.9c0,0,0-0.1,0.1-0.1h1.8c0.2,0,0.2,0,0.2,0.2v1.7
					c0,0.1,0,0.2,0,0.4c0,0.1,0.2,0.1,0.3,0.1c0.4,0.1,0.8,0.3,1.1,0.6c0.6,0.5,1,1.1,1.2,1.9c0.1,0.6,0.1,1.3-0.1,1.9
					c-0.3,1-1,1.8-2,2.1h-0.1h-0.1c0,0.1,0.1,0.1,0.1,0.1c0.8,0.2,1.5,0.7,2,1.4c0.5,0.7,0.7,1.6,0.6,2.4c0,0.4-0.1,0.8-0.3,1.2
					c-0.3,0.7-0.8,1.3-1.5,1.7c-0.3,0.2-0.7,0.3-1.1,0.4c-0.1,0-0.1,0-0.1,0.2v1.7c0,0.1,0,0.1-0.1,0.1h-1.8c-0.1,0-0.1,0-0.1-0.1
					v-1.5c0,0,0-0.1,0-0.1c0,0-0.1,0-0.1,0h-0.6c0,0-0.1,0-0.1,0.1v1.5c0,0.1,0,0.1-0.1,0.1h-1.8c0,0-0.1,0-0.1-0.1v-1.3
					c0-0.1,0-0.2,0-0.3s0-0.1-0.1-0.1h-2.7c0,0,0-0.1,0-0.1V15.1C190.4,15,190.4,14.9,190.3,14.8C190.4,14.7,190.4,14.8,190.3,14.8
					L190.3,14.8z"/>
				<path class="st4" d="M202.2,21.7v-6.9c0-0.4,0-0.3,0.3-0.3h4.9c0.7,0,1.4,0.1,2.1,0.3c0.9,0.2,1.7,0.8,2.2,1.5
					c0.3,0.5,0.5,1,0.7,1.5c0.2,0.8,0.2,1.6,0,2.4c-0.3,1.4-1.3,2.5-2.6,2.9c-0.5,0.2-1,0.3-1.5,0.4c-0.4,0-0.8,0-1.2,0h-2
					c0,0-0.1,0-0.1,0.1v4.9c0,0.4,0,0.3-0.3,0.3h-2.5c-0.1,0-0.1,0-0.1-0.2v-6.9H202.2z"/>
				<path class="st4" d="M220.1,23c0-0.8,0.1-1.6,0.5-2.3c0.6-1.5,1.9-2.6,3.5-3.1c0.9-0.2,1.8-0.3,2.7-0.2c0.6,0.1,1.2,0.2,1.7,0.5
					c1.4,0.6,2.5,1.9,2.9,3.4c0.2,0.9,0.3,1.7,0.2,2.6c-0.1,0.5-0.2,1-0.3,1.4c-0.6,1.6-1.9,2.8-3.6,3.3c-0.9,0.2-1.7,0.3-2.6,0.2
					c-0.6-0.1-1.3-0.2-1.9-0.5c-1.5-0.7-2.5-2-2.9-3.6C220.1,24.2,220.1,23.6,220.1,23L220.1,23z"/>
				<path class="st4" d="M216.2,19.6l0.2-0.2c0.6-0.9,1.6-1.6,2.7-1.8c0.3-0.1,0.6-0.1,1-0.1c0.1,0,0.1,0,0.1,0.1v2.8
					c0,0.1,0,0.1-0.1,0.1h-1c-0.4,0-0.8,0.1-1.2,0.2c-0.9,0.2-1.6,1-1.7,1.9c0,0.3,0,0.6,0,0.8v5c0,0.4,0,0.3-0.4,0.3h-2.4
					c0,0-0.1,0-0.1-0.1v-11c0,0,0-0.1,0.1-0.1h2.7l0,0c0,0.1,0,0.2,0,0.2v1.7L216.2,19.6z"/>
				<path d="M193.2,24.4c0-0.5,0-1.1,0-1.6v-0.2c0,0,0.1,0,0.1,0h2.6c0.3,0,0.6,0,0.9,0.1c0.2,0.1,0.5,0.2,0.7,0.3
					c0.4,0.3,0.7,0.7,0.7,1.1c0,0.3,0,0.5,0,0.8c-0.1,0.5-0.4,1-0.9,1.3c-0.4,0.2-0.8,0.2-1.2,0.2h-2.8c0,0-0.1,0-0.1-0.1v-0.2
					C193.2,25.6,193.2,25,193.2,24.4z"/>
				<path d="M194.7,20.5h-1.5c0,0-0.1,0-0.1-0.1v-0.2c0-1.1,0-2.1,0-3.2v-0.2c0,0,0-0.1,0.1-0.1h2.4c0.3,0,0.6,0,0.9,0.1h0.2
					c0.6,0.2,1.1,0.7,1.1,1.3c0.1,0.3,0.1,0.6,0,0.9c-0.1,0.5-0.4,0.9-0.9,1.1c-0.3,0.2-0.6,0.3-1,0.3H194.7z"/>
				<path d="M205,19v-1.9c0-0.1,0-0.2,0-0.2l0,0h2c0.3,0,0.7,0,1,0.1c0.7,0.1,1.2,0.7,1.3,1.4c0.1,0.5,0.1,1,0,1.5
					c-0.1,0.6-0.5,1-1.1,1.2c-0.3,0.1-0.7,0.2-1,0.2h-2.2c-0.1,0-0.1,0-0.1-0.1V19z"/>
				<path d="M222.9,23.2c0-0.5,0.1-1,0.2-1.4c0.4-1.1,1.4-1.9,2.5-1.9c0.8,0,1.6,0.3,2.2,0.9c0.4,0.4,0.6,0.9,0.7,1.4
					c0.2,0.7,0.2,1.4,0,2.1c-0.2,1-1,1.8-2,2c-1,0.3-2,0-2.7-0.7c-0.4-0.4-0.6-0.9-0.7-1.4C223,23.9,223,23.5,222.9,23.2L222.9,23.2
					z"/>
			</g>
		</g>
	</g>
</g>
</svg>
