<?xml version="1.0" encoding="UTF-8"?>
<svg width="690px" height="694px" viewBox="0 0 690 694" version="1.1" xmlns="http://www.w3.org/2000/svg" xmlns:xlink="http://www.w3.org/1999/xlink">
    <!-- Generator: Sketch 56 (81588) - https://sketch.com -->
    <title>moc/config/tutorial_step_7</title>
    <desc>Created with Sketch.</desc>
    <g id="moc/config/tutorial_step_7" stroke="none" stroke-width="1" fill="none" fill-rule="evenodd" transform="translate(0.000000, 0.000000)">
        <g id="Group" transform="translate(12.000000, 46.000000)">
            <path d="M573.919731,327.349624 C568.906795,300.921015 551.528616,278.841417 544.844702,252.412807 C529.137502,192.195722 573.919731,113.913512 520.448413,65.070765 C466.308704,15.5589395 402.477318,76.7796427 378.077687,88.153981 C331.962018,109.899039 295.534683,91.1648352 268.464828,84.8085873 C224.016795,74.4378671 177.563588,88.4885203 141.470448,119.266142 C67.9473865,182.159542 58.9241016,300.586475 76.9706714,350.43284 C87.3307392,375.857832 98.3591985,387.566709 112.729615,398.606508 C173.553239,447.114716 237.384625,360.80356 306.897338,376.86145 C344.658114,385.559473 361.367901,420.017027 395.125012,439.085771 C490.370797,492.27753 586.284973,393.588418 573.919731,327.349624" id="Fill-1" fill="#EDFCF8"></path>
            <path d="M419.4625,368 L230.2875,368 C207.991875,368 189.75,349.758125 189.75,327.4625 L189.75,138.2875 C189.75,115.991875 207.991875,97.75 230.2875,97.75 L419.4625,97.75 C441.758125,97.75 460,115.991875 460,138.2875 L460,327.4625 C460,349.758125 441.758125,368 419.4625,368 Z" id="Path" fill="#FFFFFF" fill-rule="nonzero"></path>
            <circle id="Oval-Copy_2_-Copy-2" fill="#CCEDDC" fill-rule="nonzero" cx="69" cy="327.75" r="69"></circle>
            <g id="moc/icon-riskprox" transform="translate(11.500000, 253.000000)">
                <circle id="bg" fill="#FFFFFF" fill-rule="evenodd" cx="68.9913054" cy="68.9913054" r="63.5919859"></circle>
                <g id="moc/config/icon-riskprox" transform="translate(0.399950, 0.399950)">
                    <circle id="bg" fill="#FFFFFF" fill-rule="evenodd" cx="68.4913684" cy="68.4913684" r="63.1311744"></circle>
                    <path d="M68.5868855,6.68619594 C52.0886502,6.68619594 36.5380943,13.1476458 24.8213319,24.8213319 C13.1045695,36.4950179 6.68619594,52.0455739 6.68619594,68.5868855 C6.68619594,85.1281972 13.1476458,100.635677 24.8213319,112.352439 C36.4950179,124.069202 52.0455739,130.487575 68.5868855,130.487575 C85.1281972,130.487575 100.635677,124.026125 112.352439,112.352439 C124.069202,100.678753 130.487575,85.1281972 130.487575,68.5868855 C130.487575,52.0455739 124.026125,36.5380943 112.352439,24.8213319 C100.678753,13.1045695 85.1281972,6.68619594 68.5868855,6.68619594 Z M68.5868855,0.397051411 C106.278676,0.397051411 136.77672,30.9381711 136.77672,68.5868855 C136.77672,106.2356 106.2356,136.77672 68.5868855,136.77672 C30.9381711,136.77672 0.397051411,106.2356 0.397051411,68.5868855 C0.397051411,30.9381711 30.9381711,0.397051411 68.5868855,0.397051411 Z M48.0825513,70.6976258 C49.3748413,72.3345264 50.0209863,74.1868087 50.0209863,76.3406254 C50.0209863,79.4851976 48.9871543,81.8974722 46.9194904,83.6636019 C44.8518264,85.4297315 41.8364831,86.2912581 37.9596132,86.2912581 L35.2888806,86.2912581 L35.2888806,89.8235174 L31.713545,89.8235174 L31.713545,86.2912581 L29.7320337,86.2912581 L29.7320337,89.8235174 L26.1566982,89.8235174 L26.1566982,86.2912581 L20.9875383,86.2912581 L20.9875383,49.8056046 L26.1566982,49.8056046 L26.1566982,46.0148874 L29.7320337,46.0148874 L29.7320337,49.8056046 L31.713545,49.8056046 L31.713545,46.0148874 L35.2888806,46.0148874 L35.2888806,49.8056046 L37.5288499,49.8056046 C41.2334145,49.8056046 44.1195288,50.6240549 46.1441164,52.2178792 C48.168704,53.8547799 49.202536,56.1378255 49.202536,59.1100924 C49.202536,61.3069854 48.5994673,63.1592677 47.4364063,64.623863 C46.2733454,66.0884583 44.7225974,67.0361376 42.8272388,67.4669009 C45.0672081,68.0268932 46.7902614,69.1038015 48.0825513,70.6976258 Z M29.8181864,56.9131995 L29.8181864,64.753092 L35.5904149,64.753092 C38.6488345,64.753092 40.1995825,63.460802 40.1995825,60.8331457 C40.1995825,58.2054894 38.6488345,56.9131995 35.5042623,56.9131995 L29.8181864,56.9131995 Z M36.1073309,79.0975106 C39.3811322,79.140587 41.0180328,77.7621443 41.0180328,75.0914117 C41.0180328,73.7991217 40.5872695,72.7652898 39.7257429,72.0329921 C38.8642162,71.3006945 37.6580789,70.9130075 36.0642546,70.9130075 L29.8181864,70.9130075 L29.8181864,79.0975106 L36.1073309,79.0975106 Z M81.4667089,49.7625283 L81.4667089,56.8701231 L71.4729998,56.8701231 L71.4729998,86.6358688 L62.5131227,86.6358688 L62.5131227,56.8701231 L52.6055662,56.8701231 L52.6055662,49.7625283 L81.4667089,49.7625283 Z M113.687806,53.1224822 C116.746225,55.5778332 118.770813,58.9377871 119.675416,63.1161913 L110.241699,63.1161913 C109.552478,61.393138 108.475569,60.0577717 107.05405,59.1100924 C105.632531,58.1193368 103.909478,57.6454971 101.927967,57.6454971 C99.3003105,57.6454971 97.2326465,58.5931764 95.6388223,60.5316114 C94.044998,62.42697 93.2265476,65.0115499 93.2265476,68.1991985 C93.2265476,71.3868471 94.044998,73.9283507 95.6388223,75.8237094 C97.2326465,77.719068 99.3433868,78.6667473 101.927967,78.6667473 C103.909478,78.6667473 105.632531,78.1929076 107.05405,77.202152 C108.475569,76.2113964 109.552478,74.9191064 110.241699,73.2391294 L119.675416,73.2391294 C118.770813,77.4175337 116.789301,80.7344113 113.687806,83.2328385 C110.629386,85.7312658 106.70944,86.9804794 102.057196,86.9804794 C98.4818602,86.9804794 95.3372879,86.2051055 92.623479,84.6112812 C89.90967,83.0174569 87.7989298,80.8205639 86.3343345,77.977526 C84.8697392,75.1344881 84.1374415,71.8606868 84.1374415,68.2422749 C84.1374415,64.623863 84.8697392,61.3500617 86.3343345,58.5070238 C87.7989298,55.6639858 89.90967,53.4240165 92.623479,51.8732686 C95.3372879,50.2794443 98.4818602,49.5040703 102.057196,49.5040703 C106.70944,49.4179176 110.629386,50.6240549 113.687806,53.1224822 Z M72.8083661,115.497011 L68.3715039,108.518646 L64.365405,115.497011 L61.7377487,115.497011 L67.1222902,106.537134 L61.651596,97.8787915 L64.365405,97.8787915 L68.6730382,104.727928 L72.7222134,97.8787915 L75.3498697,97.8787915 L69.9653282,106.70944 L75.522175,115.497011 L72.8083661,115.497011 Z" id="Combined-Shape" fill="#ED1B32" fill-rule="nonzero"></path>
                </g>
            </g>
            <circle id="Oval-Copy_2_-Copy" fill="#CCEDDC" fill-rule="nonzero" cx="181.125" cy="94.875" r="94.875"></circle>
            <g id="moc/icon-riskpro" transform="translate(103.500000, 5.750000)">
                <circle id="bg" fill="#FFFFFF" fill-rule="evenodd" cx="91.9884073" cy="91.9884073" r="84.7893145"></circle>
                <g id="moc/config/icon-riskpro" transform="translate(0.533266, 0.533266)">
                    <circle id="bg" fill="#FFFFFF" fill-rule="evenodd" cx="91.4884703" cy="91.4884703" r="84.328503"></circle>
                    <path d="M91.6160588,8.93119603 C69.57827,8.93119603 48.8063595,17.5621838 33.1555017,33.1555017 C17.5046439,48.7488196 8.93119603,69.57827 8.93119603,91.6160588 C8.93119603,113.653848 17.5621838,134.425758 33.1555017,150.076616 C48.7488196,165.727474 69.5207301,174.300922 91.6160588,174.300922 C113.711387,174.300922 134.425758,165.669934 150.076616,150.076616 C165.727474,134.483298 174.300922,113.711387 174.300922,91.6160588 C174.300922,69.5207301 165.669934,48.8063595 150.076616,33.1555017 C134.483298,17.5046439 113.711387,8.93119603 91.6160588,8.93119603 Z M91.6160588,0.530367944 C141.963487,0.530367944 182.70175,41.38371 182.70175,91.6160588 C182.70175,141.848408 141.905947,182.70175 91.6160588,182.70175 C41.3261701,182.70175 0.530367944,141.905947 0.530367944,91.6160588 C0.530367944,41.3261701 41.3261701,0.530367944 91.6160588,0.530367944 Z M40.2329116,115.264965 L40.2329116,119.983239 L35.4570984,119.983239 L35.4570984,115.264965 L32.8102622,115.264965 L32.8102622,119.983239 L28.0344489,119.983239 L28.0344489,115.264965 L21.1296587,115.264965 L21.1296587,66.5286544 L28.0344489,66.5286544 L28.0344489,61.4651415 L32.8102622,61.4651415 L32.8102622,66.5286544 L35.4570984,66.5286544 L35.4570984,61.4651415 L40.2329116,61.4651415 L40.2329116,66.5286544 L43.2249874,66.5286544 C48.1734204,66.5286544 52.0285949,67.6219128 54.7329711,69.7508898 C57.4373472,71.9374067 58.8183053,74.9870224 58.8183053,78.9572767 C58.8183053,81.8918126 58.0127464,84.3660291 56.4591686,86.3223863 C54.9055908,88.2787435 52.8341538,89.5446217 50.3023974,90.1200209 C53.2944731,90.8680398 55.5960699,92.3065378 57.3222674,94.4355148 C59.048465,96.6220317 59.9115637,99.0962482 59.9115637,101.973244 C59.9115637,106.173658 58.5306057,109.395894 55.7686896,111.75503 C53.0067735,114.114167 48.9789792,115.264965 43.8003866,115.264965 L40.2329116,115.264965 Z M32.925342,86.495006 L40.6356911,86.495006 C44.7210253,86.495006 46.7924623,84.7688085 46.7924623,81.2588735 C46.7924623,77.7489384 44.7210253,76.0227409 40.5206112,76.0227409 L32.925342,76.0227409 L32.925342,86.495006 Z M47.8857208,100.304586 C47.8857208,98.5783889 47.3103216,97.1974309 46.1595232,96.2192522 C45.0087249,95.2410736 43.3976072,94.7232144 41.2686302,94.7232144 L32.925342,94.7232144 L32.925342,105.655799 L41.3261701,105.655799 C45.6992039,105.713339 47.8857208,103.872061 47.8857208,100.304586 Z M75.1596421,98.1756095 L75.1596421,115.264965 L63.3639588,115.264965 L63.3639588,66.5286544 L82.4672118,66.5286544 C88.2787435,66.5286544 92.6517773,67.9671523 95.701393,70.8441482 C98.7510087,73.7211442 100.247047,77.5763187 100.247047,82.4672118 C100.247047,85.5168274 99.5565675,88.2212036 98.2331494,90.5803402 C96.8521914,92.9394769 94.8958341,94.7807543 92.191458,96.1617123 C89.5446217,97.5426704 86.2648464,98.1756095 82.4672118,98.1756095 L75.1596421,98.1756095 Z M88.2212036,82.4672118 C88.2212036,78.2092578 85.8620669,76.0802808 81.1437936,76.0802808 L75.1596421,76.0802808 L75.1596421,88.7390629 L81.1437936,88.7390629 C85.8620669,88.7390629 88.2212036,86.6676258 88.2212036,82.4672118 Z M120.731257,78.4969574 C123.032854,77.1159993 125.564611,76.4255203 128.268987,76.4255203 L128.268987,89.0267624 L124.874132,89.0267624 C121.766976,89.0267624 119.350299,89.7172415 117.624102,91.0406596 C115.897904,92.3640777 115.034806,94.6081345 115.034806,97.77283 L115.034806,115.264965 L103.239122,115.264965 L103.239122,76.8282997 L115.034806,76.8282997 L115.034806,84.0783295 C116.530843,81.7191928 118.372121,79.8779154 120.731257,78.4969574 Z M158.707604,78.7271171 C161.699679,80.3382348 164.058816,82.5822916 165.785014,85.5743673 C167.511211,88.5664431 168.37431,92.0763781 168.37431,96.0466325 C168.37431,100.016887 167.511211,103.526822 165.785014,106.518898 C164.058816,109.510973 161.699679,111.81257 158.707604,113.366148 C155.715528,114.977266 152.263133,115.725285 148.465498,115.725285 C144.667864,115.725285 141.215468,114.919726 138.223393,113.366148 C135.173777,111.75503 132.81464,109.510973 131.088443,106.518898 C129.362245,103.526822 128.499146,100.016887 128.499146,96.0466325 C128.499146,92.0763781 129.362245,88.5664431 131.088443,85.5743673 C132.81464,82.5822916 135.173777,80.2806949 138.223393,78.7271171 C141.273008,77.1159993 144.667864,76.3679804 148.465498,76.3679804 C152.263133,76.3679804 155.657988,77.1159993 158.707604,78.7271171 Z M142.769046,88.9692225 C141.215468,90.5803402 140.46745,92.9394769 140.46745,96.0466325 C140.46745,99.0962482 141.215468,101.455385 142.769046,103.066503 C144.322624,104.67762 146.221441,105.483179 148.465498,105.483179 C150.709555,105.483179 152.608372,104.67762 154.10441,103.066503 C155.600448,101.455385 156.406007,99.0962482 156.406007,96.0466325 C156.406007,92.9970168 155.657988,90.6378802 154.10441,88.9692225 C152.608372,87.3581048 150.709555,86.552546 148.465498,86.552546 C146.221441,86.552546 144.322624,87.3581048 142.769046,88.9692225 Z" id="Combined-Shape" fill="#FF9415" fill-rule="nonzero"></path>
                </g>
            </g>
            <path d="M458.443158,124.156317 C454.457608,124.156317 451.136317,120.833438 451.136317,116.845983 C451.136317,112.858528 447.815025,109.535649 443.829475,109.535649 L385.706871,109.535649 C381.721321,109.535649 378.40003,106.21277 378.40003,102.225315 C378.40003,98.2378605 381.721321,94.9149815 385.706871,94.9149815 L443.829475,94.9149815 C456.118254,94.9149815 465.75,104.883619 465.75,116.845983 C465.75,120.833438 462.428708,124.156317 458.443158,124.156317 Z M458.443158,138.444032 C462.428708,138.444032 465.75,141.766911 465.75,145.754366 L465.75,240.12413 C465.75,244.111585 462.428708,247.434464 458.443158,247.434464 C454.457608,247.434464 451.136317,244.111585 451.136317,240.12413 L451.136317,145.754366 C451.136317,141.766911 454.457608,138.444032 458.443158,138.444032 Z M269.794457,356.09427 C273.780007,356.09427 277.101299,359.417149 277.101299,363.401281 C277.101299,367.388736 273.780007,370.711615 269.794457,370.711615 L211.671853,370.711615 C199.383074,370.711615 189.751329,360.742978 189.751329,348.783936 C189.751329,344.796481 193.07262,341.473602 197.05817,341.473602 C201.04372,341.473602 204.365012,344.796481 204.365012,348.783936 C204.365012,352.771391 207.686303,356.09427 211.671853,356.09427 L269.794457,356.09427 Z M189.750664,319.882156 C189.750442,319.879512 189.75022,319.876868 189.75,319.874224 L189.75,225.501137 C189.75,225.468571 189.750222,225.436049 189.750664,225.403573 L189.750664,218.194126 L204.363683,218.194126 L204.363683,327.184558 L189.750664,327.184558 L189.750664,319.882161 Z M325.591493,343.798953 L340.205176,358.087333 C343.194338,361.077924 343.194338,365.397667 340.205176,368.384935 L325.591493,383.008925 C323.930847,384.99933 321.273813,385.667229 318.61678,384.99933 C315.959747,384.338077 313.966972,382.34435 313.302713,379.686046 C312.638455,377.360031 313.302713,374.36944 315.295488,372.708 L317.288263,370.714273 L298.68903,370.714273 C294.70348,370.714273 291.382189,367.391394 291.382189,363.400616 C291.382189,359.416484 294.70348,356.093605 298.68903,356.093605 L317.288263,356.093605 L315.295488,354.099878 C312.306326,351.109287 312.638455,346.457256 315.295488,343.798953 C318.284651,341.14065 322.60233,341.14065 325.591493,343.798953 Z M331.486785,82.4937274 C334.475948,79.8354242 338.793627,79.8354242 341.782789,82.4937274 C344.439823,85.1520306 344.771952,89.8040613 341.782789,92.7946524 L339.790014,94.7883798 L358.389248,94.7883798 C362.374798,94.7883798 365.696089,98.1112588 365.696089,102.095391 C365.696089,106.086169 362.374798,109.409048 358.389248,109.409048 L339.790014,109.409048 L341.782789,111.402775 C343.775564,113.064214 344.439823,116.054806 343.775564,118.380821 C343.111306,121.039124 341.118531,123.032852 338.461498,123.694104 C335.804464,124.362003 333.147431,123.694104 331.486785,121.7037 L316.873102,107.079709 C313.88394,104.092441 313.88394,99.7726984 316.873102,96.7821072 L331.486785,82.4937274 Z" id="Combined-Shape" fill="#024A6F"></path>
            <path d="M482.875,345 C489.25,345 494.5,349.901639 494.5,356.311475 C494.5,362.721311 489.25,368 482.875,368 L460,368 L460,345 L482.875,345 Z M482.875,379.5 C489.25,379.5 494.5,384.401639 494.5,390.811475 C494.5,397.221311 489.25,402.5 482.875,402.5 L460,402.5 L460,379.5 L482.875,379.5 Z M471.5,276 C525.225191,276 569.25,320.025649 569.25,373.748135 C569.25,427.478082 525.225191,471.5 471.5,471.5 C417.774809,471.5 373.75,427.478082 373.75,373.748135 C373.75,320.025649 417.774809,276 471.5,276 Z M532.313931,434.940056 C548.729962,418.519981 557.68416,396.880255 557.68416,374.124964 C557.68416,351.362211 548.729962,329.722485 532.313931,313.309872 C515.897901,296.893529 494.258588,287.935428 471.5,287.935428 C448.741412,287.935428 427.102099,296.893529 410.686069,313.309872 C394.270038,329.722485 385.31584,351.362211 385.31584,374.124964 C385.31584,396.880255 394.270038,418.519981 410.686069,434.940056 C427.102099,451.3564 448.741412,460.307038 471.5,460.307038 C494.258588,460.307038 515.897901,451.3564 532.313931,434.940056 Z M524.308458,320.941542 C538.444017,335.073383 546.25,353.66791 546.25,373.75 C546.25,393.83209 538.444017,412.426617 524.308458,426.558458 C510.176617,440.690299 491.213918,448.5 471.503719,448.5 C451.41791,448.5 432.823383,440.690299 418.695261,426.558458 C404.56342,412.426617 396.75,393.460199 396.75,373.75 C396.75,353.66791 404.56342,335.073383 418.695261,320.941542 C432.823383,306.809701 451.789801,299 471.503719,299 C491.58209,299 510.176617,306.809701 524.308458,320.941542 Z M506.08954,390.485075 C506.08954,383.791045 503.114415,377.468905 498.276119,373.006219 C503.114415,368.915423 506.08954,362.593284 506.08954,355.899254 C506.08954,343.626866 496.044776,333.21393 483.400498,333.21393 L483.400498,321.685323 L471.871891,321.685323 L471.871891,333.21393 L460.347002,333.21393 L460.347002,321.685323 L448.814677,321.685323 L448.814677,333.21393 L437.289789,333.21393 L437.289789,344.742537 L448.814677,344.742537 L448.814677,402.013682 L437.289789,402.013682 L437.289789,413.170398 L448.814677,413.170398 L448.814677,424.699005 L460.347002,424.699005 L460.347002,413.170398 L471.871891,413.170398 L471.871891,424.699005 L483.400498,424.699005 L483.400498,413.170398 C495.676604,413.170398 506.08954,403.129353 506.08954,390.485075 Z" id="Combined-Shape" fill="#FF9415"></path>
            <circle id="Oval-Copy_2_" fill="#CCEDDC" fill-rule="nonzero" cx="595.125" cy="140.875" r="77.625"></circle>
            <g id="moc/config/icon-stable" transform="translate(500.250000, 63.250000)">
                <circle id="bg" fill="#FFFFFF" fill-rule="evenodd" cx="77.4902344" cy="77.4902344" r="71.4257812"></circle>
                <path d="M77.5983011,7.56467423 C58.8836785,7.56467423 41.3387198,14.8750737 28.0825287,28.0825287 C14.8263377,41.2899838 7.56467423,58.8836785 7.56467423,77.5983011 C7.56467423,96.3129238 14.8750737,113.857883 28.0825287,127.114074 C41.2899838,140.370265 58.8836785,147.631928 77.5983011,147.631928 C96.3129238,147.631928 113.857883,140.321529 127.114074,127.114074 C140.370265,113.906619 147.631928,96.3129238 147.631928,77.5983011 C147.631928,58.8836785 140.321529,41.3387198 127.114074,28.0825287 C113.906619,14.8263377 96.3129238,7.56467423 77.5983011,7.56467423 Z M77.5983011,0.44921875 C120.193562,0.44921875 154.747384,35.0030402 154.747384,77.5983011 C154.747384,120.193562 120.193562,154.747384 77.5983011,154.747384 C35.0030402,154.747384 0.44921875,120.193562 0.44921875,77.5983011 C0.44921875,35.0030402 35.0030402,0.44921875 77.5983011,0.44921875 Z M56.4956147,89.5386203 C54.7411188,92.6577241 52.255583,95.0945239 49.0390072,96.8490198 C45.7736955,98.6035156 41.9722877,99.4807636 37.5860481,99.4807636 L21.9905292,99.4807636 L21.9905292,58.2013746 L37.5860481,58.2013746 C42.0210237,58.2013746 45.8711675,59.0786225 49.0877432,60.7843824 C52.304319,62.4901422 54.7898548,64.9269421 56.5443507,67.9973098 C58.2988466,71.1164136 59.1273585,74.6741414 59.1273585,78.7192291 C59.0786225,82.8617888 58.2013746,86.4195165 56.4956147,89.5386203 Z M45.7249595,87.4917084 C47.8693433,85.4447966 48.9415352,82.5206368 48.9415352,78.8167011 C48.9415352,75.0640293 47.8693433,72.1886055 45.7249595,70.1416937 C43.5805756,68.0947818 40.5589438,67.0713259 36.6600641,67.0713259 L31.9326725,67.0713259 L31.9326725,90.6595482 L36.6600641,90.6595482 C40.5589438,90.5620762 43.5805756,89.5386203 45.7249595,87.4917084 Z M86.2733085,68.5334058 C88.8075803,69.8980137 90.8057562,71.7987176 92.2678361,74.3329894 C93.729916,76.8672612 94.4609559,79.840157 94.4609559,83.2029407 C94.4609559,86.5657245 93.729916,89.5386203 92.2678361,92.0728921 C90.8057562,94.6071639 88.8075803,96.5566038 86.2733085,97.8724757 C83.7390367,99.2370836 80.8148769,99.8706515 77.5983011,99.8706515 C74.3817254,99.8706515 71.4575656,99.1883476 68.9232938,97.8724757 C66.340286,96.5078678 64.3421101,94.6071639 62.8800302,92.0728921 C61.4179503,89.5386203 60.6869104,86.5657245 60.6869104,83.2029407 C60.6869104,79.840157 61.4179503,76.8672612 62.8800302,74.3329894 C64.3421101,71.7987176 66.340286,69.8492777 68.9232938,68.5334058 C71.5063016,67.1687979 74.3817254,66.53523 77.5983011,66.53523 C80.8636129,66.53523 83.7390367,67.2175339 86.2733085,68.5334058 Z M72.8221735,77.2571492 C71.5063016,78.6217571 70.8727336,80.6199329 70.8727336,83.2516767 C70.8727336,85.8346846 71.5063016,87.8328604 72.8221735,89.1974683 C74.1380454,90.5620762 75.7463333,91.2443802 77.6470371,91.2443802 C79.547741,91.2443802 81.1560289,90.5620762 82.4231648,89.1974683 C83.6903007,87.8328604 84.3726047,85.8346846 84.3726047,83.2516767 C84.3726047,80.6686689 83.7390367,78.6704931 82.4231648,77.2571492 C81.1560289,75.8925413 79.547741,75.2102373 77.6470371,75.2102373 C75.6975973,75.1615013 74.1380454,75.8438053 72.8221735,77.2571492 Z M129.258457,62.0027823 C132.718713,64.7807341 134.911833,68.4846698 135.935289,73.2120615 L125.359578,73.2120615 C124.579802,71.3113576 123.361402,69.8005417 121.753114,68.7283498 C120.144826,67.6561579 118.244122,67.0713259 116.002266,67.0713259 C113.078107,67.0713259 110.738779,68.1435178 108.935547,70.2879017 C107.132315,72.4322855 106.255067,75.3077093 106.255067,78.8654371 C106.255067,82.4231648 107.132315,85.2985886 108.935547,87.3942364 C110.738779,89.5386203 113.078107,90.5620762 116.002266,90.5620762 C118.244122,90.5620762 120.144826,90.0259802 121.753114,88.9050523 C123.361402,87.8328604 124.579802,86.3220445 125.359578,84.4700767 L135.935289,84.4700767 C134.911833,89.1487323 132.718713,92.852668 129.258457,95.6306198 C125.798202,98.4085716 121.460698,99.8219155 116.19721,99.8219155 C112.200859,99.8219155 108.691867,98.9446676 105.621499,97.1901717 C102.599867,95.4356759 100.26054,92.95014 98.6035156,89.7335643 C96.9464917,86.5657245 96.1179798,82.9105248 96.1179798,78.8167011 C96.1179798,74.7228774 96.9464917,71.1164136 98.6035156,67.8998379 C100.26054,64.7319981 102.599867,62.2464623 105.621499,60.4432304 C108.643131,58.6887345 112.152123,57.8114866 116.19721,57.8114866 C121.460698,57.8602226 125.798202,59.2248305 129.258457,62.0027823 Z" id="Combined-Shape" fill="#00A651" fill-rule="nonzero"></path>
            </g>
        </g>
        <path d="M534.164845,600 L152.835155,600 C149.59745,600 146,605.03125 146,611.5 C146,617.96875 149.59745,623 152.835155,623 L534.164845,623 C537.40255,623 541,617.96875 541,611.5 C541,604.671875 537.40255,600 534.164845,600" id="path-1_1_" fill-opacity="0.1" fill="#50E3C2" fill-rule="nonzero"></path>
    </g>
</svg>