<svg xmlns="http://www.w3.org/2000/svg" xmlns:xlink="http://www.w3.org/1999/xlink" width="186" height="177" viewBox="0 0 186 177"><defs><polygon id="a" points="0 0 64 0 64 64 0 64"/></defs><g fill="none" fill-rule="evenodd" transform="translate(0 1)"><path fill="#E6E6E8" d="M3.00813938,0.016090625 L3.99680289e-15,0.016090625 L92.81272,175.762314 L185.598745,1.77635684e-15 L182.60387,1.77635684e-15 L92.82887,129.113752 L3.00813938,0.016090625 Z M69.4566138,77.9249019 L92.8006075,111.550627 L143.233495,39.0387894 L77.765195,38.9798894 L66.1616575,22.3117831 L154.861495,22.3493081 L170.403495,1.77635684e-15 L15.1974825,1.77635684e-15 L57.834195,61.2299581 L102.69367,61.2299581 L91.167795,77.9249019 L69.4566138,77.9249019 Z"/><g transform="translate(61 24)"><mask id="b" fill="#fff"><use xlink:href="#a"/></mask><path fill="#1A1A1A" d="M0,32.0008059 C0,14.3273456 14.3267315,-0.000153502066 31.9998081,-0.000153502066 C49.6736522,-0.000153502066 64,14.3273456 64,32.0008059 C64,49.6734987 49.6736522,63.9998465 31.9998081,63.9998465 C14.3267315,63.9998465 0,49.6734987 0,32.0008059" mask="url(#b)"/><path fill="#FFF" d="M2.40050368,32.0008059 C2.40050368,15.6528359 15.6519533,2.40100256 31.9995395,2.40100256 C48.348277,2.40100256 61.5997266,15.6528359 61.5997266,32.0008059 C61.5997266,48.3476246 48.348277,61.5994579 31.9995395,61.5994579 C15.6519533,61.5994579 2.40050368,48.3476246 2.40050368,32.0008059"/><path fill="#06364F" d="M4.20162017,32.0008059 C4.20162017,16.6475293 16.6468001,4.20196555 31.999693,4.20196555 C47.3533534,4.20196555 59.7985333,16.6475293 59.7985333,32.0008059 C59.7985333,47.3525475 47.3533534,59.798495 31.999693,59.798495 C16.6468001,59.798495 4.20162017,47.3525475 4.20162017,32.0008059"/><polygon fill="#FFF" points="20.472 46.977 29.695 46.977 29.695 17.025 20.472 17.025"/><polygon fill="#FFF" points="34.307 46.977 43.529 46.977 43.529 17.025 34.307 17.025"/></g><text fill="#06364F" font-family="NotoSans-Medium, Noto Sans" font-size="24" font-weight="400">
                <tspan x="46.872" y="114">PAUSED</tspan>
            </text></g></svg>