<?xml version="1.0" encoding="UTF-8"?>
<!DOCTYPE svg PUBLIC "-//W3C//DTD SVG 1.1//EN" "http://www.w3.org/Graphics/SVG/1.1/DTD/svg11.dtd">
<svg xmlns="http://www.w3.org/2000/svg" version="1.1" width="60px" height="150px" style="shape-rendering:geometricPrecision; text-rendering:geometricPrecision; image-rendering:optimizeQuality; fill-rule:evenodd; clip-rule:evenodd" xmlns:xlink="http://www.w3.org/1999/xlink">
<g><path style="opacity:0.888" fill="#fefaf5" d="M 19.5,-0.5 C 24.5,-0.5 29.5,-0.5 34.5,-0.5C 38.907,1.21103 42.907,3.71103 46.5,7C 51.0148,7.14596 55.3482,7.9793 59.5,9.5C 59.5,11.5 59.5,13.5 59.5,15.5C 57.7404,18.1717 56.0738,21.0051 54.5,24C 55.6306,39.0452 48.964,49.0452 34.5,54C 16.9076,56.882 5.24098,50.0486 -0.5,33.5C -0.5,29.1667 -0.5,24.8333 -0.5,20.5C 2.73135,10.2678 9.39801,3.26776 19.5,-0.5 Z"/></g>
<g><path style="opacity:1" fill="#ff9b36" d="M 19.5,3.5 C 28.5013,1.94881 36.5013,3.94881 43.5,9.5C 40.721,12.7233 38.721,16.39 37.5,20.5C 34.3103,19.3456 32.6436,17.0123 32.5,13.5C 29.2573,18.9137 28.2573,18.5804 29.5,12.5C 28.5,12.5 27.5,12.5 26.5,12.5C 26.5,13.8333 26.5,15.1667 26.5,16.5C 24.5,16.1667 22.5,15.8333 20.5,15.5C 20.5,16.5 20.5,17.5 20.5,18.5C 21.5,18.5 22.5,18.5 23.5,18.5C 22.3436,22.7925 21.3436,27.1259 20.5,31.5C 18.6536,31.2222 17.3202,31.8888 16.5,33.5C 17.3202,35.1112 18.6536,35.7778 20.5,35.5C 20.4591,41.7518 21.7924,42.0852 24.5,36.5C 24.8333,36.8333 25.1667,37.1667 25.5,37.5C 24.7542,38.7362 24.4208,40.0695 24.5,41.5C 25.5,41.5 26.5,41.5 27.5,41.5C 27.33,40.1779 27.6634,39.0113 28.5,38C 31.095,37.7744 33.595,37.2744 36,36.5C 38.1549,33.4603 37.9883,30.627 35.5,28C 37.422,26.5804 38.7554,24.7471 39.5,22.5C 43.2879,24.2558 47.2879,24.9225 51.5,24.5C 49.8695,44.1649 39.2028,52.6649 19.5,50C 3.75403,41.8645 -0.412638,29.6979 7,13.5C 10.4894,9.16207 14.6561,5.82874 19.5,3.5 Z"/></g>
<g><path style="opacity:1" fill="#1c7746" d="M 55.5,12.5 C 52.8333,13.8333 50.1667,15.1667 47.5,16.5C 46.0057,15.6014 44.5057,15.9347 43,17.5C 43.1968,13.3014 45.5301,10.9681 50,10.5C 52.1114,10.7006 53.9448,11.3673 55.5,12.5 Z"/></g>
<g><path style="opacity:1" fill="#29b446" d="M 55.5,12.5 C 54.5219,19.4957 50.5219,22.329 43.5,21C 45.6355,20.1237 46.9688,18.6237 47.5,16.5C 50.1667,15.1667 52.8333,13.8333 55.5,12.5 Z"/></g>
<g><path style="opacity:1" fill="#ff9f40" d="M 27.5,20.5 C 29.3084,20.4914 30.9751,20.9914 32.5,22C 33.4506,22.7175 33.6172,23.5509 33,24.5C 30.8615,25.7691 28.6948,25.7691 26.5,24.5C 27.2458,23.2638 27.5792,21.9305 27.5,20.5 Z"/></g>
<g><path style="opacity:1" fill="#ffa142" d="M 25.5,28.5 C 27.6547,28.372 29.6547,28.872 31.5,30C 32.5171,31.0495 32.6838,32.2161 32,33.5C 26.1071,36.0012 23.9404,34.3345 25.5,28.5 Z"/></g>
<g><path style="opacity:0.892" fill="#10364f" d="M 24.5,58.5 C 26.5,58.5 28.5,58.5 30.5,58.5C 30.3337,65.5079 30.5004,72.5079 31,79.5C 33.2428,74.8806 36.7428,72.3806 41.5,72C 42.5742,72.7387 43.2409,73.7387 43.5,75C 38.9637,81.037 33.6304,86.2037 27.5,90.5C 21.1956,86.1956 15.8623,80.8623 11.5,74.5C 12.741,71.856 14.741,71.0226 17.5,72C 19.6667,74.1667 21.8333,76.3333 24,78.5C 24.4996,71.8417 24.6663,65.175 24.5,58.5 Z"/></g>
<g><path style="opacity:0.834" fill="#fffaf6" d="M 34.5,149.5 C 29.8333,149.5 25.1667,149.5 20.5,149.5C 9.83333,146.167 2.83333,139.167 -0.5,128.5C -0.5,124.167 -0.5,119.833 -0.5,115.5C 5.24098,98.9514 16.9076,92.118 34.5,95C 47.4971,99.331 54.4971,108.331 55.5,122C 54.2679,135.714 47.2679,144.881 34.5,149.5 Z"/></g>
<g><path style="opacity:1" fill="#ff9b35" d="M 19.5,98.5 C 41.8415,96.3423 52.0082,106.342 50,128.5C 42.5257,145.481 30.3591,149.981 13.5,142C 2.89479,132.505 0.728126,121.339 7,108.5C 10.4894,104.162 14.6561,100.829 19.5,98.5 Z"/></g>
<g><path style="opacity:1" fill="#fff8f2" d="M 26.5,104.5 C 27.9892,106.116 28.9892,108.116 29.5,110.5C 31.1112,109.68 31.7778,108.346 31.5,106.5C 32.5,106.5 33.5,106.5 34.5,106.5C 34.7135,108.144 34.3802,109.644 33.5,111C 39.9974,113.841 40.9974,117.841 36.5,123C 40.2985,131.727 37.2985,135.56 27.5,134.5C 28.1546,138.705 26.8212,139.872 23.5,138C 24.7472,136.506 24.7472,135.006 23.5,133.5C 22.6399,135.931 20.9732,137.264 18.5,137.5C 19.5749,133.062 17.9083,131.062 13.5,131.5C 13.3838,128.09 15.0504,126.756 18.5,127.5C 19.1018,122.925 20.1018,118.425 21.5,114C 19.8881,112.518 18.8881,110.685 18.5,108.5C 20.861,108.674 23.1944,109.007 25.5,109.5C 25.6287,107.784 25.962,106.117 26.5,104.5 Z"/></g>
<g><path style="opacity:1" fill="#ff9d3b" d="M 26.5,114.5 C 31.0057,113.527 33.1724,115.194 33,119.5C 27.846,121.825 25.6794,120.158 26.5,114.5 Z"/></g>
<g><path style="opacity:1" fill="#ffa040" d="M 24.5,123.5 C 26.9267,123.523 29.26,124.023 31.5,125C 32.5536,126.388 32.7203,127.888 32,129.5C 25.1434,132.326 22.6434,130.326 24.5,123.5 Z"/></g>
</svg>
