<?xml version="1.0" encoding="UTF-8"?>
<svg width="32px" height="32px" viewBox="0 0 32 32" version="1.1" xmlns="http://www.w3.org/2000/svg" xmlns:xlink="http://www.w3.org/1999/xlink">
    <title>coinbase</title>
    <g id="coinbase" stroke="none" fill="none">
        <rect id="Square-Area" x="0" y="0" width="32" height="32"></rect>
        <g id="Layer_2" stroke-width="1" fill-rule="evenodd">
            <rect id="Rectangle" x="0" y="0.000285711735" width="32" height="31.9997143"></rect>
            <g id="Group" transform="translate(1.6006, 0)">
                <path d="M16.9999509,0.885420666 L20.7839509,3.79739467 C21.0810937,4.02596405 21.4062366,4.21396238 21.7519509,4.35738967 L26.1605223,6.18537334 C27.9473795,6.92650958 29.014808,8.77849305 28.7610937,10.6996188 L28.1365223,15.4395764 C28.0873795,15.8115731 28.0873795,16.1881412 28.1365223,16.5601379 L28.7610937,21.3000955 C29.0142366,23.2212212 27.9473795,25.0732047 26.1605223,25.8143409 L21.7519509,27.6423246 C21.4062366,27.7857519 21.0805223,27.9743217 20.7839509,28.2023196 L16.9999509,31.1142936 C15.4662366,32.2948545 13.3319509,32.2948545 11.7982366,31.1142936 L8.0142366,28.2023196 C7.71709374,27.9737502 7.39195088,27.7857519 7.0462366,27.6423246 L2.63766517,25.8143409 C0.850808026,25.0732047 -0.216620546,23.2212212 0.0370937399,21.3000955 L0.661665168,16.5601379 C0.710808026,16.1881412 0.710808026,15.8115731 0.661665168,15.4395764 L0.0370937399,10.6996188 C-0.216049117,8.77849305 0.850808026,6.92650958 2.63766517,6.18537334 L7.0462366,4.35738967 C7.39195088,4.21396238 7.71766517,4.02539263 8.0142366,3.79739467 L11.798808,0.885420666 C13.3325223,-0.295140222 15.466808,-0.295140222 17.0005223,0.885420666 L16.9999509,0.885420666 Z" id="Path" fill="#FF9100"></path>
                <path d="M20.2742366,12.624173 C20.0805223,10.6144767 18.3473795,9.94076839 16.1593795,9.74819868 L16.1593795,6.95965215 L14.4793795,6.95965215 L14.4793795,9.75962715 L13.1193795,9.75962715 L13.1193795,6.95965215 L11.4393795,6.95965215 L11.4393795,9.75962715 C11.0393795,9.75962715 10.6890937,9.76019857 10.3376652,9.76076999 L7.99937945,9.75048437 L8.00052231,11.5624682 C8.00052231,11.5624682 9.25252231,11.5390398 9.23137945,11.5624682 C9.91766517,11.5624682 10.1416652,11.9618932 10.206808,12.3058901 L10.2085223,19.9418219 C10.178808,20.15782 10.0513795,20.5029598 9.57195088,20.5035312 C9.59366517,20.5229596 8.33995088,20.5035312 8.33995088,20.5035312 L7.99995088,22.5606557 C7.99995088,22.5606557 11.0405223,22.5612271 11.4399509,22.5612271 L11.4399509,25.3606307 L13.1199509,25.3606307 L13.1199509,22.5606557 L14.4799509,22.5606557 L14.4799509,25.3606307 L16.1599509,25.3606307 L16.1599509,22.5606557 C19.0096652,22.3978 21.0079509,21.6658066 21.254808,18.9869733 C21.4542366,16.8304212 20.4405223,15.8675726 18.822808,15.4784332 C19.8056652,14.9778663 20.4199509,14.0955884 20.2753795,12.6247444 L20.274808,12.6247444 L20.274808,12.6247444 L20.2742366,12.624173 Z M17.9045226,18.6515478 C17.9056652,20.7583861 14.2685223,20.5178168 13.1193795,20.5183882 L13.1193795,16.7835644 C14.2679509,16.7841359 17.9039509,16.4544245 17.9045226,18.6515478 L17.9045226,18.6515478 Z M17.114808,13.3818805 C17.114808,15.2984348 14.0765223,15.0744368 13.1193795,15.0738654 L13.1193795,11.6864671 C14.0753795,11.6864671 17.1142366,11.3830412 17.114808,13.3818805 L17.114808,13.3818805 Z" id="Shape" fill="#FFFFFF" fill-rule="nonzero"></path>
            </g>
        </g>
    </g>
</svg>