<svg id="Layer_1" data-name="Layer 1" xmlns="http://www.w3.org/2000/svg" viewBox="0 0 96.92 40.99"><defs><style>.cls-1{fill:#fff;}.cls-2{fill:#00a59b;}.cls-3{fill:#04364f;}</style></defs><polygon class="cls-1" points="53.27 11.99 51.26 16.97 51.03 16.97 49.01 11.99 46.26 11.99 46.26 20.85 48.08 20.85 48.08 14.05 50.13 19.05 52.03 19.05 54.09 13.99 54.09 20.85 56.06 20.85 56.06 11.99 53.27 11.99"/><path class="cls-1" d="M62.3,21.08a4.84,4.84,0,0,1-2.09-.42,4.38,4.38,0,0,1-1.48-1.1,4.81,4.81,0,0,1-.87-1.49,4.57,4.57,0,0,1-.28-1.54v-.27a4.87,4.87,0,0,1,.29-1.63,4.34,4.34,0,0,1,.9-1.46,4.23,4.23,0,0,1,1.48-1.05,5.45,5.45,0,0,1,4.1,0,4.23,4.23,0,0,1,1.48,1.05,4.34,4.34,0,0,1,.9,1.46A4.66,4.66,0,0,1,67,16.26v.27a4.38,4.38,0,0,1-.3,1.54,4.81,4.81,0,0,1-.87,1.49,4.38,4.38,0,0,1-1.48,1.1A4.84,4.84,0,0,1,62.3,21.08Zm0-1.86A2.88,2.88,0,0,0,63.43,19a2.54,2.54,0,0,0,1.41-1.51,3.45,3.45,0,0,0,0-2.23,2.74,2.74,0,0,0-.54-.9,2.59,2.59,0,0,0-.86-.59,3.29,3.29,0,0,0-2.26,0,2.59,2.59,0,0,0-.86.59,2.92,2.92,0,0,0-.54.9,3.45,3.45,0,0,0-.18,1.14,3.24,3.24,0,0,0,.18,1.09,2.92,2.92,0,0,0,.54.9,2.64,2.64,0,0,0,.86.61A2.88,2.88,0,0,0,62.3,19.22Z"/><polygon class="cls-1" points="75.31 11.99 75.31 19.24 75.15 19.24 71.81 11.99 68.54 11.99 68.54 20.85 70.39 20.85 70.39 13.6 70.56 13.6 73.89 20.85 77.19 20.85 77.19 11.99 75.31 11.99"/><polygon class="cls-1" points="81.12 19.2 81.12 17.17 84.47 17.17 84.47 15.52 81.12 15.52 81.12 13.64 84.66 13.64 84.66 11.99 81.12 11.99 80.88 11.99 79.18 11.99 79.18 20.85 80.88 20.85 81.12 20.85 84.75 20.85 84.75 19.2 81.12 19.2"/><polygon class="cls-1" points="93.27 11.99 91.34 11.99 89.71 15.99 89.33 15.99 87.52 11.99 85.48 11.99 88.06 17.49 88.5 17.49 88.5 20.85 90.45 20.85 90.45 17.49 90.89 17.49 93.27 11.99"/><path class="cls-1" d="M51.73,24.12a3,3,0,0,0-1-.73,3.27,3.27,0,0,0-1.38-.27,3.31,3.31,0,0,0-1.39.27,2.84,2.84,0,0,0-1,.73,3.07,3.07,0,0,0-.59,1,3.21,3.21,0,0,0-.19,1.09v.18a3.36,3.36,0,0,0,.18,1.05,3.31,3.31,0,0,0,.58,1,2.84,2.84,0,0,0,1,.76,3.6,3.6,0,0,0,2.83,0,2.84,2.84,0,0,0,1-.76,3.31,3.31,0,0,0,.58-1,3.38,3.38,0,0,0,.19-1.05v-.18a3.22,3.22,0,0,0-.2-1.09A3.07,3.07,0,0,0,51.73,24.12Zm-.37,3.05a2.14,2.14,0,0,1-.43.73,2,2,0,0,1-.68.49,2.11,2.11,0,0,1-.89.19,2.16,2.16,0,0,1-.9-.19,2.08,2.08,0,0,1-.68-.49,2.14,2.14,0,0,1-.43-.73,2.67,2.67,0,0,1-.14-.86,2.81,2.81,0,0,1,.14-.89,2.19,2.19,0,0,1,.43-.72,2.08,2.08,0,0,1,.68-.49,2.33,2.33,0,0,1,.9-.17,2.28,2.28,0,0,1,.89.17,2,2,0,0,1,.68.49,2.38,2.38,0,0,1,.43.72,2.56,2.56,0,0,1,.14.89A2.43,2.43,0,0,1,51.36,27.17Z"/><polygon class="cls-1" points="58.48 28.49 58.37 28.49 55.56 23.29 53.93 23.29 53.93 29.35 54.86 29.35 54.86 24.15 54.97 24.15 57.78 29.35 59.42 29.35 59.42 23.29 58.48 23.29 58.48 28.49"/><path class="cls-1" d="M67.16,28.22a2,2,0,0,1-1.23.36A2.11,2.11,0,0,1,65,28.4a1.72,1.72,0,0,1-.64-.49,2.28,2.28,0,0,1-.39-.72,3.17,3.17,0,0,1-.12-.88,3.26,3.26,0,0,1,.12-.9,2.47,2.47,0,0,1,.38-.72,1.89,1.89,0,0,1,.63-.48,2.13,2.13,0,0,1,.86-.17,2.08,2.08,0,0,1,.85.16,1.48,1.48,0,0,1,.63.47,1.63,1.63,0,0,1,.31.77h1a2.44,2.44,0,0,0-.42-1.22,2.28,2.28,0,0,0-1-.81,3.27,3.27,0,0,0-1.42-.29,3.17,3.17,0,0,0-1.36.27,2.74,2.74,0,0,0-.94.72,2.92,2.92,0,0,0-.53,1,3.47,3.47,0,0,0-.18,1.1v.18A3.6,3.6,0,0,0,63,27.44a3.42,3.42,0,0,0,.53,1,2.64,2.64,0,0,0,.95.75,3.19,3.19,0,0,0,1.41.29,3.12,3.12,0,0,0,1.46-.32,2.36,2.36,0,0,0,1-.83,2.8,2.8,0,0,0,.43-1.17h-1A1.59,1.59,0,0,1,67.16,28.22Z"/><polygon class="cls-1" points="74.09 25.88 71.04 25.88 71.04 23.29 70.05 23.29 70.05 29.35 71.04 29.35 71.04 26.77 74.09 26.77 74.09 29.35 75.08 29.35 75.08 23.29 74.09 23.29 74.09 25.88"/><path class="cls-1" d="M78.39,23.29l-2.12,6.06h1l.59-1.71h2.74l.61,1.71h1L80,23.29Zm-.24,3.49.9-2.63h.3l.94,2.63Z"/><rect class="cls-1" x="83.43" y="23.29" width="1" height="6.05"/><polygon class="cls-1" points="90.8 23.29 90.8 28.49 90.69 28.49 87.88 23.29 86.25 23.29 86.25 29.35 87.18 29.35 87.18 24.15 87.29 24.15 90.1 29.35 91.74 29.35 91.74 23.29 90.8 23.29"/><circle class="cls-2" cx="22.54" cy="20.58" r="18.99"/><circle class="cls-3" cx="22.54" cy="20.58" r="17.15" transform="translate(-6.16 10.19) rotate(-22.5)"/><path class="cls-2" d="M7.05,27.88c.12.25.23.51.36.75H37.67c.13-.24.24-.5.36-.75Z"/><rect class="cls-1" x="12.32" y="9.18" width="3.32" height="22.8"/><polygon class="cls-1" points="29.15 9.18 22.68 23.96 19.15 16.07 19.15 23.86 21.05 31.98 24.14 31.98 29.42 15.09 29.42 31.98 32.76 31.98 32.76 9.18 29.15 9.18"/><path class="cls-1" d="M22.54,2.55a18,18,0,1,0,18,18A18.05,18.05,0,0,0,22.54,2.55Zm0,35.18A17.15,17.15,0,1,1,39.69,20.58,17.18,17.18,0,0,1,22.54,37.73Z"/></svg>