<?xml version="1.0" encoding="utf-8"?>
<!-- Generator: Adobe Illustrator 22.0.0, SVG Export Plug-In . SVG Version: 6.00 Build 0)  -->
<svg version="1.1" id="Layer_1" xmlns="http://www.w3.org/2000/svg" xmlns:xlink="http://www.w3.org/1999/xlink" x="0px" y="0px"
	 viewBox="0 0 100 100" style="enable-background:new 0 0 100 100;" xml:space="preserve">
<style type="text/css">
	.st0{fill:#F5222D;}
</style>
<title>iconmatch</title>
<path class="st0" d="M50,5C25.1,5,5,25.1,5,50s20.1,45,45,45s45-20.1,45-45S74.8,5,50,5z M50,88c-21,0-38-17-38-38s17-38,38-38
	s38,17,38,38S71.1,88,50,88L50,88z"/>
<path class="st0" d="M50,27.6c-1.9,0-3.5,1.6-3.5,3.5v22.6c0.2,1.9,1.9,3.3,3.9,3.1c1.6-0.2,2.9-1.5,3.1-3.1V31.2
	C53.5,29.2,51.9,27.7,50,27.6z"/>
<circle class="st0" cx="50" cy="66.4" r="4.8"/>
</svg>
