<svg xmlns="http://www.w3.org/2000/svg" xmlns:svgjs="http://svgjs.com/svgjs" xmlns:xlink="http://www.w3.org/1999/xlink" width="288" height="288"><svg xmlns="http://www.w3.org/2000/svg" width="288" height="288" class="RRC20 CurrencyIcon" data-name="Layer 1" viewBox="0 0 29.15 29.15"><path fill="#888" d="M14.58,1.8A12.78,12.78,0,0,1,26.34,9.61a12.73,12.73,0,0,1,0,9.94,12.73,12.73,0,0,1-6.79,6.79A12.78,12.78,0,0,1,1.8,14.58a12.58,12.58,0,0,1,1-5,12.85,12.85,0,0,1,6.8-6.8,12.58,12.58,0,0,1,5-1m0-1.8A14.58,14.58,0,1,0,29.15,14.58,14.58,14.58,0,0,0,14.58,0Z" class="cls-1 color000 svgShape"/><rect width="1.14" height="1.14" x="13.44" y="3.29" fill="#888" class="cls-1 color000 svgShape" rx=".52"/><rect width="1.14" height="1.14" x="13.44" y="5.29" fill="#888" class="cls-1 color000 svgShape" rx=".52"/><rect width="1.14" height="1.14" x="7.45" y="11.28" fill="#888" class="cls-1 color000 svgShape" rx=".52"/><rect width="1.14" height="1.14" x="9.44" y="11.28" fill="#888" class="cls-1 color000 svgShape" rx=".52"/><rect width="3.42" height="1.14" x="11.15" y="7.29" fill="#888" class="cls-1 color000 svgShape" rx=".52"/><rect width="1.14" height="3.42" x="11.44" y="11.28" fill="#888" class="cls-1 color000 svgShape" rx=".52"/><rect width="4.85" height="1.14" x="16.29" y="10.99" fill="#888" class="cls-1 color000 svgShape" rx=".52"/><rect width="4.85" height="1.14" x="8.59" y="9.28" fill="#888" class="cls-1 color000 svgShape" rx=".52"/><rect width="1.14" height="1.14" x="19.43" y="9" fill="#888" class="cls-1 color000 svgShape" rx=".52"/><rect width="3.42" height="1.14" x="15.72" y="12.99" fill="#888" class="cls-1 color000 svgShape" rx=".52"/><rect width="1.14" height="1.14" x="15.72" y="14.99" fill="#888" class="cls-1 color000 svgShape" rx=".52"/><rect width="1.14" height="1.14" x="15.72" y="16.98" fill="#888" class="cls-1 color000 svgShape" rx=".52"/><rect width="1.14" height="4.85" x="15.15" y="4.43" fill="#888" class="cls-1 color000 svgShape" rx=".52"/><rect width="1.14" height="4.85" x="13.44" y="12.14" fill="#888" class="cls-1 color000 svgShape" rx=".52"/><rect width="1.14" height="3.42" x="17.14" y="6.72" fill="#888" class="cls-1 color000 svgShape" rx=".52"/><path fill="#888" d="M15.7,24.57l-1-1.43-.83,1.43H12.62L14.1,22.2,12.58,20H13.9l.94,1.39L15.66,20h1.27l-1.46,2.32L17,24.57Z" class="cls-1 color000 svgShape"/></svg></svg>