<svg xmlns="http://www.w3.org/2000/svg" xmlns:svgjs="http://svgjs.com/svgjs" xmlns:xlink="http://www.w3.org/1999/xlink" width="288" height="288"><svg xmlns="http://www.w3.org/2000/svg" width="288" height="288" class="RRC20 CurrencyIcon" data-name="Layer 1" viewBox="0 0 29.15 29.15"><path fill="#888" d="M14.58,1.8A12.78,12.78,0,0,1,26.34,9.61a12.73,12.73,0,0,1,0,9.94,12.73,12.73,0,0,1-6.79,6.79A12.78,12.78,0,0,1,1.8,14.58a12.58,12.58,0,0,1,1-5,12.85,12.85,0,0,1,6.8-6.8,12.58,12.58,0,0,1,5-1m0-1.8A14.58,14.58,0,1,0,29.15,14.58,14.58,14.58,0,0,0,14.58,0Z" class="cls-1 color000 svgShape"/><rect width="1.14" height="1.14" x="13.36" y="3.31" fill="#888" class="cls-1 color000 svgShape" rx=".52"/><rect width="1.14" height="1.14" x="13.36" y="5.3" fill="#888" class="cls-1 color000 svgShape" rx=".52"/><rect width="1.14" height="1.14" x="7.65" y="11.29" fill="#888" class="cls-1 color000 svgShape" rx=".52"/><rect width="1.14" height="1.14" x="9.65" y="11.29" fill="#888" class="cls-1 color000 svgShape" rx=".52"/><rect width="3.42" height="1.14" x="11.08" y="7.3" fill="#888" class="cls-1 color000 svgShape" rx=".52"/><rect width="1.14" height="3.42" x="11.65" y="11.29" fill="#888" class="cls-1 color000 svgShape" rx=".52"/><rect width="4.85" height="1.14" x="16.5" y="11.01" fill="#888" class="cls-1 color000 svgShape" rx=".52"/><rect width="4.85" height="1.14" x="8.79" y="9.3" fill="#888" class="cls-1 color000 svgShape" rx=".52"/><rect width="1.14" height="1.14" x="19.35" y="9.01" fill="#888" class="cls-1 color000 svgShape" rx=".52"/><rect width="3.42" height="1.14" x="15.64" y="13.01" fill="#888" class="cls-1 color000 svgShape" rx=".52"/><rect width="1.14" height="1.14" x="15.64" y="15" fill="#888" class="cls-1 color000 svgShape" rx=".52"/><rect width="1.14" height="1.14" x="15.64" y="17" fill="#888" class="cls-1 color000 svgShape" rx=".52"/><rect width="1.14" height="4.85" x="15.35" y="4.45" fill="#888" class="cls-1 color000 svgShape" rx=".52"/><rect width="1.14" height="4.85" x="13.64" y="12.15" fill="#888" class="cls-1 color000 svgShape" rx=".52"/><rect width="1.14" height="3.42" x="17.35" y="6.73" fill="#888" class="cls-1 color000 svgShape" rx=".52"/><path fill="#888" d="M9.28 22.46v1.61H8.17V19.48H10a1.73 1.73 0 011.24.4 1.43 1.43 0 01.43 1.1 1.48 1.48 0 01-.19.76 1.39 1.39 0 01-.57.53 2.08 2.08 0 01-.91.19zM10.51 21c0-.41-.22-.61-.67-.61H9.28v1.2h.56C10.29 21.57 10.51 21.37 10.51 21zM14.55 24.07l-1-1.74H13.3v1.74H12.19V19.48h1.9a2.13 2.13 0 01.92.18 1.29 1.29 0 01.56.52 1.44 1.44 0 01.19.75 1.35 1.35 0 01-.27.85 1.39 1.39 0 01-.81.48l1.1 1.81zm-1.25-2.5H14a.7.7 0 00.49-.14.58.58 0 00.15-.43.54.54 0 00-.16-.43.62.62 0 00-.48-.16H13.3zM19.68 19.71a2.16 2.16 0 01.84.83 2.48 2.48 0 01.3 1.22 2.44 2.44 0 01-.3 1.21 2.26 2.26 0 01-.84.84 2.39 2.39 0 01-1.18.31 2.35 2.35 0 01-1.17-.31 2.26 2.26 0 01-.84-.84 2.45 2.45 0 01-.31-1.21 2.48 2.48 0 01.31-1.22 2.3 2.3 0 01.84-.83 2.38 2.38 0 012.35 0zm-2 1.08a1.62 1.62 0 000 1.93 1.09 1.09 0 00.86.36 1.12 1.12 0 00.87-.36 1.62 1.62 0 000-1.93 1.12 1.12 0 00-.87-.35A1.08 1.08 0 0017.64 20.79z" class="cls-1 color000 svgShape"/></svg></svg>