<svg id="Layer_1" data-name="Layer 1" xmlns="http://www.w3.org/2000/svg" viewBox="0 0 96.92 40.99"><defs><style>.cls-1{fill:#fff;}.cls-2{fill:#0083ff;}.cls-3{fill:#006e36;}.cls-4{fill:#00b22b;}</style></defs><path class="cls-1" d="M27.54,39.47a18.91,18.91,0,0,1,0-37.81,18.7,18.7,0,0,1,8.6,2.06A19,19,0,0,1,41.66,8L42,7.81a10.82,10.82,0,0,1,5.14-1.24h.46A15.86,15.86,0,0,1,54,8l.64.38A1.66,1.66,0,0,1,55.47,10l0,.32v.05c-.32,4.83-2.46,8.53-6,10.41l-.62.3a10.36,10.36,0,0,1-2.39.74A18.94,18.94,0,0,1,27.54,39.47Z"/><path class="cls-2" d="M44.75,20.57A17.25,17.25,0,1,1,27.5,3.32,17.24,17.24,0,0,1,44.75,20.57"/><rect class="cls-1" x="25.31" y="11.13" width="1.48" height="1.48" rx="0.67"/><rect class="cls-1" x="25.31" y="13.72" width="1.48" height="1.48" rx="0.67"/><rect class="cls-1" x="18.29" y="21.48" width="1.48" height="1.48" rx="0.67"/><rect class="cls-1" x="20.5" y="21.48" width="1.48" height="1.48" rx="0.67"/><rect class="cls-1" x="22.72" y="16.3" width="4.44" height="1.48" rx="0.67"/><rect class="cls-1" x="23.09" y="21.48" width="1.48" height="4.44" rx="0.67"/><rect class="cls-1" x="29.38" y="21.48" width="6.29" height="1.48" rx="0.67"/><rect class="cls-1" x="19.77" y="18.89" width="6.29" height="1.48" rx="0.67"/><rect class="cls-1" x="33.08" y="18.52" width="1.48" height="1.48" rx="0.67"/><rect class="cls-1" x="28.27" y="23.7" width="4.44" height="1.48" rx="0.67"/><rect class="cls-1" x="28.27" y="26.29" width="1.48" height="1.48" rx="0.67"/><rect class="cls-1" x="28.27" y="28.88" width="1.48" height="1.48" rx="0.67"/><rect class="cls-1" x="27.9" y="12.61" width="1.48" height="6.29" rx="0.67"/><rect class="cls-1" x="26.05" y="22.59" width="1.48" height="6.29" rx="0.67"/><rect class="cls-1" x="30.86" y="15.56" width="1.48" height="4.44" rx="0.67"/><path class="cls-3" d="M39.61,17.8l12-6.93s.26-2.48-4.37-2.43-7.25,3.08-7.6,5.8,0,3.56,0,3.56"/><path class="cls-4" d="M51.78,10.57l-12,6.93s-.27,2.48,4.36,2.43,7.26-3.08,7.61-5.8,0-3.56,0-3.56"/><path class="cls-1" d="M53.19,9.44a14.33,14.33,0,0,0-5.65-1.2,9.41,9.41,0,0,0-4.76,1,9.29,9.29,0,0,0-1.29.85c-3,2.34-3,5.22-3.24,6.88L35.9,18.15a1,1,0,0,0-.6.9,1,1,0,0,0,1,1c.16,0,.09,0,.46-.1h0v0h0l.53-.28,1.08-.57.52-.25a11.87,11.87,0,0,0,5.2,1.53,9,9,0,0,0,4-.75l.51-.26c4.87-2.58,5.08-8.45,5.13-9.15l0-.37Zm-1.41,1.69v0c-.34,1.85-1.33,5.18-4.18,6.69l-.08,0A7.64,7.64,0,0,1,44,18.7a9.71,9.71,0,0,1-2.52-.45l-.71-.3.78-.41L44.48,16a1.16,1.16,0,0,0,.62-1c0-.16.1-.21,0-.36l0-.11,0,0h0a1.06,1.06,0,0,0-1-.47,1.12,1.12,0,0,0-.59.14l-2.91,1.54L40,16s.49-3.73,3.12-5.05c.2-.1.38-.25.6-.36a6.92,6.92,0,0,1,3.56-.76,12.05,12.05,0,0,1,4.14,1l.19.08.16.07Z"/><path class="cls-1" d="M58.78,16a.84.84,0,0,1-.52-.18.55.55,0,0,1-.22-.45v-6a.62.62,0,0,1,.63-.63h3a2,2,0,0,1,1,.28,2.22,2.22,0,0,1,1.05,2,1.85,1.85,0,0,1-.16.76,2.53,2.53,0,0,1-.43.68,2.08,2.08,0,0,1-.62.46v-.23A1.78,1.78,0,0,1,63,13a1.65,1.65,0,0,1,.3.46,1.53,1.53,0,0,1,.13.52c0,.17,0,.33.06.46a1.39,1.39,0,0,0,.06.33.37.37,0,0,0,.18.21.59.59,0,0,1,.29.38.47.47,0,0,1-.12.45.55.55,0,0,1-.29.18,1,1,0,0,1-.35,0,1.21,1.21,0,0,1-.29-.1,1.42,1.42,0,0,1-.36-.31,1.52,1.52,0,0,1-.28-.54,3,3,0,0,1-.11-.88.88.88,0,0,0-.06-.33.68.68,0,0,0-.18-.26.63.63,0,0,0-.29-.16,1.27,1.27,0,0,0-.41-.06H59.18l.15-.24v2.25a.73.73,0,0,1-.14.45A.51.51,0,0,1,58.78,16Zm.41-3.71H61.6A.5.5,0,0,0,62,12.1a1.17,1.17,0,0,0,.29-.46,1.75,1.75,0,0,0,.12-.65,1.18,1.18,0,0,0-.25-.76.66.66,0,0,0-.52-.31H59.21l.12-.33v2.93Z"/><path class="cls-1" d="M66.45,15.35a.59.59,0,0,1-.2.45.65.65,0,0,1-.46.18.6.6,0,0,1-.46-.18.61.61,0,0,1-.18-.45v-6a.58.58,0,0,1,.19-.45.64.64,0,0,1,.47-.18.6.6,0,0,1,.44.18.59.59,0,0,1,.2.45Z"/><path class="cls-1" d="M68.65,16a.64.64,0,0,1-.47-.18.61.61,0,0,1-.18-.45v-6a.62.62,0,0,1,.63-.63H72a.64.64,0,0,1,.45.17.59.59,0,0,1,0,.85.64.64,0,0,1-.45.17H69.2l.09-.12v2.08l-.07-.14h2.31a.61.61,0,0,1,.45.18.57.57,0,0,1,.18.44.55.55,0,0,1-.18.4.61.61,0,0,1-.45.18H69.2l.09-.1v2.51a.58.58,0,0,1-.19.45A.63.63,0,0,1,68.65,16Z"/><path class="cls-1" d="M64.71,21.88a4.11,4.11,0,0,1-.26,1.46,4,4,0,0,1-.73,1.18,3.43,3.43,0,0,1-1.12.8,3.31,3.31,0,0,1-1.42.29,3.22,3.22,0,0,1-1.4-.29,3.43,3.43,0,0,1-1.12-.8,3.77,3.77,0,0,1-.73-1.18,4.2,4.2,0,0,1,0-2.91,3.77,3.77,0,0,1,.73-1.18,3.43,3.43,0,0,1,1.12-.8,3.22,3.22,0,0,1,1.4-.29,3.31,3.31,0,0,1,1.42.29,3.43,3.43,0,0,1,1.12.8,4,4,0,0,1,.73,1.18A4.1,4.1,0,0,1,64.71,21.88Zm-1.35,0a2.7,2.7,0,0,0-.28-1.25,2.26,2.26,0,0,0-.77-.9,2.08,2.08,0,0,0-2.25,0,2.3,2.3,0,0,0-.77.89A2.87,2.87,0,0,0,59,21.88a2.84,2.84,0,0,0,.27,1.26,2.26,2.26,0,0,0,.77.9,2.08,2.08,0,0,0,2.25,0,2.26,2.26,0,0,0,.77-.9A2.72,2.72,0,0,0,63.36,21.88Z"/><path class="cls-1" d="M71.4,18.26a.52.52,0,0,1,.4.16.63.63,0,0,1,.16.42v6a.58.58,0,0,1-.19.45.61.61,0,0,1-.45.18.86.86,0,0,1-.27-.05.44.44,0,0,1-.21-.13l-4.07-5.16L67,20v4.93a.58.58,0,0,1-.16.41.57.57,0,0,1-.42.17.55.55,0,0,1-.41-.17.58.58,0,0,1-.15-.41v-6a.62.62,0,0,1,.63-.63.8.8,0,0,1,.3.06.4.4,0,0,1,.23.17l3.94,5-.17.13V18.84a.62.62,0,0,1,.15-.42A.55.55,0,0,1,71.4,18.26Z"/><path class="cls-1" d="M63.11,28.14a.55.55,0,0,1,.32.43.62.62,0,0,1-.15.52.46.46,0,0,1-.35.21.83.83,0,0,1-.43-.08A2.47,2.47,0,0,0,62,29,2.78,2.78,0,0,0,61.4,29a2.66,2.66,0,0,0-1,.18,2,2,0,0,0-.75.5,2.16,2.16,0,0,0-.47.77,2.8,2.8,0,0,0-.16,1,3,3,0,0,0,.18,1.1,2.23,2.23,0,0,0,.5.78,2,2,0,0,0,.76.46,2.85,2.85,0,0,0,.94.15,3.53,3.53,0,0,0,.56,0,2,2,0,0,0,.54-.19.73.73,0,0,1,.43-.07.54.54,0,0,1,.36.22.61.61,0,0,1,.15.53.56.56,0,0,1-.32.4,3.71,3.71,0,0,1-.55.22,3.77,3.77,0,0,1-.58.14,3.81,3.81,0,0,1-.59,0A4.09,4.09,0,0,1,60,34.9a3.4,3.4,0,0,1-1.19-.7A3.28,3.28,0,0,1,58,33a4.12,4.12,0,0,1-.3-1.63A3.93,3.93,0,0,1,58,29.94a3.3,3.3,0,0,1,.78-1.16A3.4,3.4,0,0,1,59.91,28a4,4,0,0,1,1.49-.27,3.74,3.74,0,0,1,.89.1A3.64,3.64,0,0,1,63.11,28.14Z"/><path class="cls-1" d="M65.19,27.79a.6.6,0,0,1,.44.18.58.58,0,0,1,.19.45v6a.58.58,0,0,1-.19.45.65.65,0,0,1-.46.18.6.6,0,0,1-.46-.18.61.61,0,0,1-.18-.45v-6a.58.58,0,0,1,.19-.45A.64.64,0,0,1,65.19,27.79Zm0,3h4.62V32H65.16Zm4.62-3a.63.63,0,0,1,.47.18.64.64,0,0,1,.17.45v6a.61.61,0,0,1-.18.45.65.65,0,0,1-.48.18.64.64,0,0,1-.44-.18.58.58,0,0,1-.19-.45v-6a.56.56,0,0,1,.2-.45A.64.64,0,0,1,69.78,27.79Z"/><path class="cls-1" d="M74.64,29.42,72.4,34.68a.62.62,0,0,1-.22.3.57.57,0,0,1-.33.11.53.53,0,0,1-.41-.15.6.6,0,0,1-.14-.39.43.43,0,0,1,0-.19l2.57-6.2a.69.69,0,0,1,.26-.32.48.48,0,0,1,.37-.09.53.53,0,0,1,.34.11.6.6,0,0,1,.24.3l2.54,6.07a.61.61,0,0,1,.06.25.57.57,0,0,1-.19.44.53.53,0,0,1-.39.17A.58.58,0,0,1,76.8,35a.72.72,0,0,1-.23-.31l-2.23-5.19Zm-1.92,4,.57-1.19h2.8l.2,1.19Z"/><path class="cls-1" d="M79.89,34.41a.59.59,0,0,1-.2.45.64.64,0,0,1-.45.18.63.63,0,0,1-.47-.18.6.6,0,0,1-.17-.45v-6a.61.61,0,0,1,.18-.45.66.66,0,0,1,.48-.18.64.64,0,0,1,.44.18.58.58,0,0,1,.19.45Z"/><path class="cls-1" d="M86.94,27.79a.54.54,0,0,1,.41.16.62.62,0,0,1,.15.42v6a.62.62,0,0,1-.63.63.86.86,0,0,1-.27,0,.36.36,0,0,1-.21-.13l-4.08-5.17.27-.16v4.93A.56.56,0,0,1,82,35a.53.53,0,0,1-.4-.17.58.58,0,0,1-.16-.41v-6a.58.58,0,0,1,.19-.45.61.61,0,0,1,.45-.18.89.89,0,0,1,.3.06.35.35,0,0,1,.22.17l4,5-.18.12v-4.8a.63.63,0,0,1,.16-.42A.53.53,0,0,1,86.94,27.79Z"/></svg>