<?xml version="1.0" encoding="UTF-8" standalone="no"?>
<svg
   xmlns:dc="http://purl.org/dc/elements/1.1/"
   xmlns:cc="http://creativecommons.org/ns#"
   xmlns:rdf="http://www.w3.org/1999/02/22-rdf-syntax-ns#"
   xmlns:svg="http://www.w3.org/2000/svg"
   xmlns="http://www.w3.org/2000/svg"
   id="svg8"
   version="1.1"
   viewBox="0 0 16.870363 42.439236"
   height="42.439236mm"
   width="16.870363mm">
  <defs
     id="defs2">
    <clipPath
       id="clip-path">
      <rect
         style="fill:none"
         y="0"
         x="0"
         id="Rectangle_312"
         data-name="Rectangle 312"
         width="59"
         height="59"
         transform="translate(0,-0.314)" />
    </clipPath>
    <clipPath
       id="clip-path-3">
      <rect
         style="fill:none"
         y="0"
         x="0"
         id="Rectangle_239"
         data-name="Rectangle 239"
         width="63.762001"
         height="58.686001" />
    </clipPath>
  </defs>
  <metadata
     id="metadata5">
    <rdf:RDF>
      <cc:Work
         rdf:about="">
        <dc:format>image/svg+xml</dc:format>
        <dc:type
           rdf:resource="http://purl.org/dc/dcmitype/StillImage" />
        <dc:title></dc:title>
      </cc:Work>
    </rdf:RDF>
  </metadata>
  <g
     transform="translate(-46.16138,-22.595128)"
     id="layer1">
    <g
       id="btclogo"
       transform="matrix(0.26458333,0,0,0.26458333,46.16138,22.595128)">
      <g
         id="Group_508"
         data-name="Group 508"
         clip-path="url(#clip-path)">
        <path
           style="fill:#ff9931"
           id="Path_165"
           data-name="Path 165"
           d="M 32.2,4.678 A 27.513,27.513 0 1 1 4.686,32.191 27.513,27.513 0 0 1 32.2,4.678"
           transform="translate(-2.853,-2.848)" />
        <path
           style="fill:#ffffff"
           id="Path_166"
           data-name="Path 166"
           d="m 65.367,42.447 c 0.584,-3.9 -2.389,-6 -6.455,-7.4 l 1.319,-5.289 -3.22,-0.8 -1.284,5.142 c -0.846,-0.211 -1.716,-0.41 -2.579,-0.607 l 1.293,-5.184 -3.218,-0.8 L 49.9,32.8 c -0.7,-0.16 -1.388,-0.317 -2.056,-0.483 v -0.016 l -4.434,-1.113 -0.856,3.439 c 0,0 2.389,0.547 2.338,0.581 a 1.713,1.713 0 0 1 1.5,1.872 l -1.5,6.025 a 2.646,2.646 0 0 1 0.335,0.108 l -0.34,-0.085 -2.106,8.441 a 1.172,1.172 0 0 1 -1.475,0.765 c 0.032,0.047 -2.34,-0.584 -2.34,-0.584 l -1.6,3.685 4.19,1.045 c 0.779,0.2 1.543,0.4 2.3,0.592 l -1.333,5.349 3.216,0.8 1.32,-5.293 c 0.878,0.238 1.731,0.459 2.566,0.666 l -1.325,5.271 3.22,0.8 1.332,-5.34 c 5.491,1.039 9.619,0.62 11.358,-4.346 1.4,-4 -0.07,-6.3 -2.959,-7.808 a 5.136,5.136 0 0 0 4.112,-4.727 M 58.01,52.762 c -0.995,4 -7.727,1.837 -9.91,1.295 l 1.768,-7.087 c 2.183,0.545 9.182,1.623 8.142,5.792 m 1,-10.373 c -0.908,3.637 -6.511,1.789 -8.329,1.336 l 1.6,-6.428 c 1.818,0.453 7.671,1.3 6.726,5.092"
           transform="translate(-22.746,-16.746)" />
        <path
           style="fill:#ffffff"
           id="Path_167"
           data-name="Path 167"
           d="M 29.334,3.66 A 25.683,25.683 0 1 1 3.664,29.355 V 29.343 A 25.682,25.682 0 0 1 29.334,3.66 m 0,-3.66 A 29.343,29.343 0 1 0 58.686,29.343 29.343,29.343 0 0 0 29.334,0" />
      </g>
    </g>
    <g
       transform="matrix(0.26458333,0,0,0.26458333,46.16138,49.507028)"
       id="Group_471"
       data-name="Group 471"
       clip-path="url(#clip-path-3)">
      <path
         style="fill:#ff9931"
         id="Path_116"
         data-name="Path 116"
         d="M 32.2,4.678 A 27.513,27.513 0 1 1 4.686,32.191 27.513,27.513 0 0 1 32.2,4.678"
         transform="translate(-2.853,-2.848)" />
      <path
         style="fill:#ffffff"
         id="Path_117"
         data-name="Path 117"
         d="M 29.334,3.66 A 25.683,25.683 0 1 1 3.664,29.355 V 29.343 A 25.682,25.682 0 0 1 29.334,3.66 m 0,-3.66 A 29.343,29.343 0 1 0 58.686,29.343 29.343,29.343 0 0 0 29.334,0" />
      <path
         style="fill:#006e3c"
         id="Path_118"
         data-name="Path 118"
         d="m 129.712,31.354 a 15.691,15.691 0 0 0 -5.491,-1.312 9.148,9.148 0 0 0 -4.725,1.013 8.509,8.509 0 0 0 -0.8,0.491 10.857,10.857 0 0 0 -3.88,5.827 l -0.226,0.793 0.732,-0.39 3.859,-2.05 a 1.547,1.547 0 0 1 2.084,0.61 l 0.021,0.036 a 1.561,1.561 0 0 1 0.064,0.146 l 8.9,-4.93 c -0.07,-0.043 -0.458,-0.2 -0.543,-0.235"
         transform="translate(-69.76,-18.28)" />
      <path
         style="fill:#06b23c"
         id="Path_119"
         data-name="Path 119"
         d="m 130.548,39.741 c -4.411,7.288 -12.266,3.66 -12.266,3.66 l 2.833,-1.525 c 0.236,-0.14 1.782,-0.955 1.782,-0.955 a 1.574,1.574 0 0 0 0.647,-2.074 L 132.509,34 a 13.96,13.96 0 0 1 -1.962,5.738"
         transform="translate(-72.005,-20.7)" />
      <path
         style="fill:#ffffff"
         id="Path_120"
         data-name="Path 120"
         d="m 90.22,24.333 a 19.425,19.425 0 0 0 -8.328,-2.441 12.2,12.2 0 0 0 -6.308,1.391 11.267,11.267 0 0 0 -1.708,1.131 c -3.929,3.145 -4.948,8.236 -5.207,10.473 l -0.021,0.18 -0.159,0.085 -1.153,0.61 A 9.482,9.482 0 0 0 63.343,33.48 l -0.223,-0.061 1.153,-4.576 -2.746,-0.708 -1.144,4.551 -2.062,-0.552 1.141,-4.534 -2.745,-0.7 -1.129,4.5 C 52.266,30.531 50.14,30 50.14,30 c 0,0 -0.458,2.3 -0.656,2.849 0,0 0.565,0.137 1.171,0.305 a 1.943,1.943 0 0 1 1.7,2.745 c -0.366,1.36 -2.5,10.484 -2.669,11.107 -0.192,0.741 -0.378,1.138 -1.293,0.949 l -2.184,-0.488 -1.37,3.267 c 0.5,0.171 2.218,0.567 5.491,1.394 l -1.144,4.506 2.745,0.707 1.135,-4.511 2.062,0.54 -1.138,4.513 2.745,0.708 1.15,-4.576 a 16.859,16.859 0 0 0 5.452,0.324 c 2.657,-0.491 3.786,-2.535 4.271,-4.488 1.379,-5.491 -3.145,-5.979 -2.572,-6.1 a 4.724,4.724 0 0 0 3.606,-5.082 l 1.293,-0.689 0.158,-0.088 0.156,0.088 a 17.777,17.777 0 0 0 7.358,2.062 11.76,11.76 0 0 0 5.347,-1.019 c 0.232,-0.107 0.457,-0.22 0.683,-0.339 6.452,-3.468 7.288,-11.921 7.358,-12.87 l 0.064,-0.982 z M 62.18,48.71 c -0.75,3 -5.829,1.486 -5.829,1.486 l -2.413,-0.61 1.5,-6.009 2.883,0.744 c 0,0 4.713,1.025 3.856,4.39 m 0.915,-8.929 c -0.689,2.746 -4.921,1.473 -4.921,1.473 l -2.007,-0.518 1.379,-5.491 2.4,0.61 c 0,0 3.914,0.839 3.139,3.926 z M 87.716,26.856 v 0.034 c -0.445,2.489 -1.757,6.97 -5.537,9 l -0.1,0.049 a 8.634,8.634 0 0 1 -4.368,0.915 12.657,12.657 0 0 1 -3.34,-0.61 L 73.586,36 74.312,35.61 78.2,33.518 a 1.6,1.6 0 0 0 0.7,-1.968 1.522,1.522 0 0 0 -0.064,-0.147 l -0.022,-0.036 a 1.547,1.547 0 0 0 -2.083,-0.61 l -3.859,2.065 -0.741,0.381 0.241,-0.8 a 10.869,10.869 0 0 1 3.88,-5.827 8.567,8.567 0 0 1 0.8,-0.491 9.148,9.148 0 0 1 4.725,-1.013 15.691,15.691 0 0 1 5.491,1.312 l 0.253,0.113 0.238,0.116 z"
         transform="translate(-27.297,-13.318)" />
    </g>
    <path
       style="fill:#11374f;stroke-width:0.26458332"
       id="arrow"
       d="m 50.329228,43.151623 -0.438943,0.438944 a 0.47254583,0.47254583 0 0 0 0,0.670189 l 3.840956,3.842809 a 0.47254583,0.47254583 0 0 0 0.670189,0 l 3.843073,-3.843073 a 0.47254583,0.47254583 0 0 0 0,-0.67019 L 57.80556,43.151623 a 0.47625,0.47625 0 0 0 -0.679186,0.0079 l -2.269331,2.38125 v -5.680607 a 0.47333958,0.47333958 0 0 0 -0.47334,-0.473604 h -0.632618 a 0.47333958,0.47333958 0 0 0 -0.474398,0.473604 v 5.681398 l -2.269332,-2.38125 a 0.4714875,0.4714875 0 0 0 -0.678127,-0.0087 z" />
  </g>
</svg>
