<svg xmlns="http://www.w3.org/2000/svg" xmlns:svgjs="http://svgjs.com/svgjs" xmlns:xlink="http://www.w3.org/1999/xlink" width="288" height="288"><svg xmlns="http://www.w3.org/2000/svg" width="288" height="288" viewBox="0 0 1024 1024"><path fill="#888" d="M331.977 523.273q-16.212-14.743-46.083-18.097 25.332-3.739 39.518-18.472t14.186-39.74q0-33.195-26.345-51.109-19.252-13.112-49.792-16.607v-31.107h-37.947v29.81h-21.066v-29.81h-38.018v29.81h-30.155v261.17h30.155v29.506h38.018v-29.506h21.066v29.506h38.008v-30.266q35.87-3.151 57.635-19.191 27.044-19.951 27.044-54.281 0-26.842-16.222-41.615zM204.924 429.809h35.819q14.186 0 22.201 7.093t8.025 19.070q0 11.946-8.025 19.029t-22.201 7.093h-35.819zM269.286 579.773q-8.39 7.093-23.305 7.093h-41.058v-53.703h41.048q14.925 0 23.305 7.093t8.4 19.779q0.010 12.666-8.39 19.759zM520.952 389.095q-22.424-11.146-51.869-11.146h-109.697v261.17h68.659v-80.585h41.037q29.486 0 51.869-11.197t34.694-31.533q12.311-20.316 12.311-47.573t-12.311-47.624c-8.374-13.606-20.17-24.381-34.208-31.296l-0.486-0.216zM488.669 493.462q-9.515 9.119-25.93 9.119h-34.694v-68.669h34.694q16.415 0 25.93 9.119t9.515 25.18q0 16.070-9.515 25.251zM706.381 446.599h-9.332q-20.134 0-32.83 7.093t-21.279 21.279l-5.218-28.372h-59.317v192.521h64.545v-92.532q0-42.902 39.183-42.912h24.248zM865.515 456.478q-23.69-12.159-55.416-12.159t-55.406 12.159c-15.464 7.825-27.933 19.639-36.336 34.107l-0.222 0.415q-12.899 22.373-12.899 51.859t12.879 51.859c8.627 14.889 21.104 26.705 36.085 34.295l0.494 0.227q23.69 12.159 55.406 12.159t55.416-12.159c15.464-7.821 27.933-19.632 36.337-34.098l0.222-0.414q12.909-22.393 12.909-51.869t-12.879-51.859c-8.636-14.885-21.115-26.699-36.095-34.295l-0.495-0.227zM838.835 576.996q-10.457 12.869-28.736 12.879t-28.726-12.879q-10.437-12.879-10.447-34.137t10.447-34.137q10.437-12.879 28.726-12.879t28.736 12.879q10.437 12.869 10.447 34.137t-10.447 34.137zM512.005 5.37c-279.814 0-506.635 226.82-506.635 506.635s226.82 506.635 506.635 506.635 506.635-226.831 506.635-506.635-226.831-506.635-506.635-506.635zM825.896 825.896c-80.016 79.786-190.435 129.118-312.376 129.118-244.344 0-442.424-198.080-442.424-442.424s198.080-442.424 442.424-442.424c244.344 0 442.424 198.080 442.424 442.424 0 62.183-12.829 121.37-35.984 175.059l1.102-2.871c-23.531 54.863-55.639 101.698-95.156 141.108l-0.010 0.010z" class="color000 svgShape"/></svg></svg>