<svg xmlns="http://www.w3.org/2000/svg" xmlns:svgjs="http://svgjs.com/svgjs" xmlns:xlink="http://www.w3.org/1999/xlink" width="288" height="288"><svg xmlns="http://www.w3.org/2000/svg" width="288" height="288" viewBox="0 0 1024 1024"><path fill="#00a887" d="M236.477 382.215l59.084 170.138 55.882-170.138h85.115v249.153h-62.336v-150.916l-55.173 150.916h-51.96l-55.173-150.916v150.916h-62.286v-249.153zM462.659 589.014q-12.281-21.35-12.281-49.478t12.281-49.468c8.225-14.194 20.113-25.463 34.386-32.714l0.471-0.217q22.606-11.561 52.852-11.561t52.852 11.561c14.756 7.463 26.654 18.734 34.675 32.536l0.212 0.395q12.281 21.36 12.281 49.468t-12.25 49.478c-8.236 14.192-20.134 25.458-34.415 32.704l-0.472 0.217q-22.647 11.561-52.852 11.572t-52.883-11.572c-14.741-7.467-26.628-18.733-34.644-32.526l-0.212-0.395zM587.767 539.536q0-20.265-9.96-32.566t-27.358-12.281q-17.438 0-27.409 12.281t-9.96 32.566q0 20.265 9.96 32.566t27.409 12.281q17.449 0 27.358-12.281t9.96-32.566zM718.925 395.743q27.936-15.665 66.025-15.665 30.266 0 54.098 12.109c15.661 7.88 28.516 19.306 37.866 33.276l0.223 0.354q14.236 21.532 16.374 49.296h-65.498q-3.557-18.512-15.837-29.719t-30.783-11.207q-25.281 0-39.335 19.931t-14.054 52.69 14.054 52.69 39.335 19.931q18.502 0 30.783-11.207t15.837-29.719h65.498q-2.148 27.753-16.374 49.296c-9.573 14.324-22.428 25.75-37.529 33.374l-0.56 0.256q-23.842 12.159-54.098 12.159-38.089 0-66.025-15.665c-18.401-10.315-33.067-25.381-42.613-43.556l-0.278-0.582q-14.956-28.473-14.946-66.876t14.946-66.876c9.803-18.817 24.473-33.936 42.36-44.015l0.531-0.275zM512.005 68.092c245.123 0.146 443.779 198.891 443.779 444.035 0 182.742-110.392 339.701-268.127 407.828l-2.879 1.107c-50.42 21.574-109.089 34.117-170.688 34.117-245.234 0-444.035-198.801-444.035-444.035 0-182.051 109.558-338.514 266.34-407.052l2.858-1.114c50.743-22.056 109.85-34.888 171.954-34.888 0.281 0 0.561 0 0.842 0.001h-0.044zM512.005 5.37c-279.814 0-506.635 226.82-506.635 506.635s226.82 506.635 506.635 506.635 506.635-226.831 506.635-506.635-226.831-506.635-506.635-506.635z" class="color000 svgShape"/></svg></svg>