<svg xmlns="http://www.w3.org/2000/svg" xmlns:svgjs="http://svgjs.com/svgjs" xmlns:xlink="http://www.w3.org/1999/xlink" width="288" height="288"><svg xmlns="http://www.w3.org/2000/svg" width="288" height="288" class="RRC20 CurrencyIcon" data-name="Layer 1" viewBox="0 0 29.15 29.15"><path fill="#888" d="M14.58,1.8A12.78,12.78,0,0,1,26.34,9.61a12.73,12.73,0,0,1,0,9.94,12.73,12.73,0,0,1-6.79,6.79A12.78,12.78,0,0,1,1.8,14.58a12.58,12.58,0,0,1,1-5,12.85,12.85,0,0,1,6.8-6.8,12.58,12.58,0,0,1,5-1m0-1.8A14.58,14.58,0,1,0,29.15,14.58,14.58,14.58,0,0,0,14.58,0Z" class="cls-1 color000 svgShape"/><rect width="1.44" height="1.44" x="13.5" y="3.4" fill="#888" class="cls-1 color000 svgShape" rx=".52"/><rect width="1.44" height="1.44" x="13.5" y="5.42" fill="#888" class="cls-1 color000 svgShape" rx=".52"/><rect width="1.44" height="1.44" x="7.44" y="10.9" fill="#888" class="cls-1 color000 svgShape" rx=".52"/><rect width="1.44" height="1.44" x="9.75" y="10.9" fill="#888" class="cls-1 color000 svgShape" rx=".52"/><rect width="3.46" height="1.44" x="11.19" y="7.44" fill="#888" class="cls-1 color000 svgShape" rx=".52"/><rect width="1.44" height="3.46" x="11.48" y="10.9" fill="#888" class="cls-1 color000 svgShape" rx=".52"/><rect width="4.61" height="1.44" x="16.67" y="10.9" fill="#888" class="cls-1 color000 svgShape" rx=".52"/><rect width="4.61" height="1.44" x="8.88" y="9.17" fill="#888" class="cls-1 color000 svgShape" rx=".52"/><rect width="1.44" height="1.44" x="19.55" y="9.17" fill="#888" class="cls-1 color000 svgShape" rx=".52"/><rect width="3.46" height="1.44" x="15.8" y="13.21" fill="#888" class="cls-1 color000 svgShape" rx=".52"/><rect width="1.44" height="1.44" x="15.8" y="14.94" fill="#888" class="cls-1 color000 svgShape" rx=".52"/><rect width="1.44" height="1.44" x="15.8" y="16.96" fill="#888" class="cls-1 color000 svgShape" rx=".52"/><rect width="1.44" height="4.61" x="15.52" y="4.27" fill="#888" class="cls-1 color000 svgShape" rx=".52"/><rect width="1.44" height="4.61" x="13.79" y="12.34" fill="#888" class="cls-1 color000 svgShape" rx=".52"/><rect width="1.44" height="3.46" x="17.53" y="6.57" fill="#888" class="cls-1 color000 svgShape" rx=".52"/><path fill="#888" d="M6.16 20.3h1.1a1.47 1.47 0 110 2.91H6.16zm1.1.53H6.83v1.84h.43a.9.9 0 001-.92.91.91 0 00-1-.92zM10.8 20.21a1.55 1.55 0 110 3.1 1.55 1.55 0 110-3.1zm0 2.51a1 1 0 10-.92-1A.91.91 0 0010.8 22.72zM12.81 23.21V20.3h.69v2.32h1.21v.59zM15.07 23.21V20.3h.69v2.32H17v.59zM20 23.21h-.72l-.17-.53H18l-.16.53h-.72l1-2.91h1zm-1.91-1H19l-.44-1.3zM20.3 20.3h1.41a1 1 0 011.14 1 .86.86 0 01-.64.83l.7 1.1h-.76l-.58-1H21v1H20.3zm.67.52v.88h.61c.32 0 .57-.17.57-.44s-.25-.45-.57-.45z" class="cls-1 color000 svgShape"/></svg></svg>