<svg width="615" height="615" viewBox="0 0 615 615" fill="none" xmlns="http://www.w3.org/2000/svg">
<ellipse cx="307.5" cy="307.5" rx="307.5" ry="307" fill="#4B5CF0"/>
<g clip-path="url(#clip0_201_40)">
<path d="M242.639 296.407L227.382 215.687L305.256 101.5L419.523 179.804L452.644 202.499L368.005 326.616L383.261 407.335L305.388 521.5L180.928 436.192L158.022 420.478M397.81 211.631L358.741 184.857L337.36 167.525L336.254 168.368L345.364 206.844L357.458 270.808L397.81 211.653V211.631ZM311.026 448.028L324.669 424.091L340.898 400.31L306.029 214.246L300.966 175.327L299.617 174.95L285.975 198.887L269.746 222.668L304.614 408.732L309.678 447.651L311.026 448.028ZM273.284 455.453L274.389 454.61L265.28 416.134L253.185 352.192L212.834 411.347L251.881 438.098L273.262 455.43L273.284 455.453Z" fill="white"/>
<g style="mix-blend-mode:multiply">
<path d="M157.991 420.492L242.63 296.398L253.176 352.206L212.825 411.361L157.991 420.492Z" fill="url(#paint0_linear_201_40)"/>
</g>
<g style="mix-blend-mode:multiply">
<path d="M452.644 202.529L368.005 326.623L357.458 270.815L397.81 211.661L452.644 202.529Z" fill="url(#paint1_linear_201_40)"/>
</g>
</g>
<defs>
<linearGradient id="paint0_linear_201_40" x1="284.3" y1="308.325" x2="200.311" y2="432.026" gradientUnits="userSpaceOnUse">
<stop stop-color="#4B5CF0"/>
<stop offset="1" stop-color="white" stop-opacity="0"/>
</linearGradient>
<linearGradient id="paint1_linear_201_40" x1="406.906" y1="192.463" x2="324.191" y2="316.801" gradientUnits="userSpaceOnUse">
<stop stop-color="white" stop-opacity="0"/>
<stop offset="1" stop-color="#4B5CF0"/>
</linearGradient>
<clipPath id="clip0_201_40">
<rect width="299" height="420" fill="white" transform="matrix(-1 0 0 1 457 101.5)"/>
</clipPath>
</defs>
</svg>
