<?xml version="1.0" encoding="UTF-8"?>
<svg id="Layer_1" data-name="Layer 1" xmlns="http://www.w3.org/2000/svg" viewBox="0 0 150 150">
  <defs>
    <style>
      .cls-1 {
        fill: #4B5CF0;
      }
    </style>
  </defs>
  <path class="cls-1" d="m89.27,90.69c-2.54,10.21-19.75,4.69-25.33,3.3l4.52-18.11c5.58,1.39,23.47,4.15,20.81,14.81Z"/>
  <path class="cls-1" d="m91.82,64.17c-2.32,9.3-16.64,4.58-21.29,3.42l4.1-16.43c4.64,1.16,19.6,3.32,17.19,13.01Z"/>
  <path class="cls-1" d="m93.14,2.25C52.96-7.77,12.26,16.69,2.25,56.87c-10.02,40.18,14.43,80.87,54.6,90.89,40.19,10.02,80.89-14.43,90.91-54.61,10.02-40.18-14.43-80.88-54.62-90.9Zm14.94,62.07c-1.09,7.31-5.14,10.84-10.51,12.08,7.38,3.85,11.14,9.74,7.56,19.96-4.44,12.69-15,13.76-29.03,11.11l-3.4,13.64-8.23-2.05,3.36-13.46c-2.14-.53-4.32-1.09-6.56-1.7l-3.37,13.53-8.23-2.06,3.41-13.67c-1.92-.49-3.87-1.01-5.87-1.51l-10.71-2.67,4.09-9.42s6.06,1.61,5.98,1.49c2.33.58,3.37-.94,3.77-1.95l5.38-21.58c.31.07.6.15.87.22-.32-.13-.62-.22-.85-.28l3.84-15.4c.1-1.75-.5-3.95-3.84-4.78,0-.12-5.97-1.49-5.97-1.49l2.19-8.79,11.35,2.84v.04c1.69.42,3.45.83,5.24,1.23l3.37-13.51,8.23,2.05-3.31,13.25c2.21.5,4.43,1.01,6.6,1.55l3.28-13.16,8.23,2.05-3.37,13.52c10.39,3.58,17.99,8.94,16.5,18.92Z"/>
</svg>