<?xml version="1.0" encoding="UTF-8"?>
<svg id="Layer_1" data-name="Layer 1" xmlns="http://www.w3.org/2000/svg" viewBox="0 0 150 150">
  <defs>
    <style>
      .cls-1 {
        fill: #4B5CF0;
      }
    </style>
  </defs>
  <path class="cls-1" d="m75,0C33.57,0,0,33.58,0,75s33.57,75,75,75,75-33.58,75-75S116.42,0,75,0Zm-10.54,91.66h-8.7v-21.07l-7.7,21.07h-7.26l-7.7-21.07v21.07h-8.7v-34.78h12.13l8.25,23.75,7.8-23.75h11.88v34.78Zm3.65-5.91c-1.15-1.99-1.72-4.29-1.72-6.91s.57-4.92,1.72-6.91c1.14-1.98,2.76-3.52,4.87-4.59,2.1-1.08,4.56-1.62,7.38-1.62s5.27.54,7.38,1.62c2.1,1.07,3.72,2.61,4.87,4.59,1.14,1.99,1.71,4.29,1.71,6.91s-.57,4.92-1.71,6.91c-1.15,1.99-2.77,3.52-4.87,4.6-2.11,1.07-4.57,1.61-7.38,1.61s-5.28-.54-7.38-1.61c-2.11-1.08-3.73-2.61-4.87-4.6Zm39.01-4.13c1.3,1.86,3.13,2.79,5.49,2.79,1.72,0,3.15-.52,4.29-1.57,1.15-1.04,1.88-2.42,2.22-4.15h9.14c-.2,2.59-.96,4.88-2.29,6.89-1.32,2-3.09,3.57-5.31,4.69-2.22,1.13-4.74,1.69-7.56,1.69-3.54,0-6.61-.73-9.21-2.19-2.61-1.45-4.6-3.51-5.99-6.16-1.39-2.65-2.09-5.76-2.09-9.34s.7-6.69,2.09-9.34c1.39-2.65,3.38-4.71,5.99-6.16,2.6-1.46,5.67-2.19,9.21-2.19,2.82,0,5.34.56,7.56,1.69,2.22,1.13,3.99,2.69,5.31,4.7,1.33,2,2.09,4.29,2.29,6.88h-9.14c-.34-1.73-1.07-3.11-2.22-4.15-1.14-1.05-2.57-1.57-4.29-1.57-2.36,0-4.19.93-5.49,2.79-1.31,1.85-1.97,4.3-1.97,7.35s.66,5.5,1.97,7.35Z"/>
  <path class="cls-1" d="m84.18,83.39c.93-1.14,1.39-2.66,1.39-4.55s-.46-3.4-1.39-4.54c-.92-1.15-2.2-1.72-3.82-1.72s-2.9.57-3.83,1.72c-.93,1.14-1.39,2.65-1.39,4.54s.46,3.41,1.39,4.55c.93,1.14,2.2,1.71,3.83,1.71s2.9-.57,3.82-1.71Z"/>
</svg>