<svg width="395" height="395" viewBox="0 0 395 395" fill="none" xmlns="http://www.w3.org/2000/svg">
<path d="M197.5 394.193C306.13 394.193 394.193 306.13 394.193 197.5C394.193 88.8696 306.13 0.807266 197.5 0.807266C88.8697 0.807266 0.807281 88.8696 0.807281 197.5C0.807281 306.13 88.8697 394.193 197.5 394.193Z" fill="#4B5CF0"/>
<path d="M299.201 88.3941V299.68H253.752V189.335H216.327C211.959 189.335 207.745 190.966 204.503 193.887C202.654 195.559 201.209 197.583 200.217 199.812C199.226 202.042 198.699 204.478 198.699 206.965V232.441C198.699 239.274 193.143 244.827 186.307 244.827H156.049C149.202 244.827 143.656 239.274 143.656 232.441V201.722C143.656 194.878 149.202 189.335 156.049 189.335H183.25C186.895 189.335 190.407 188.045 193.195 185.712C194.94 184.246 196.314 182.43 197.253 180.406C198.193 178.394 198.689 176.174 198.689 173.903V133.833H88.7065V88.3941H299.201Z" fill="white"/>
<path d="M143.667 272.346V272.821C143.667 288.016 131.337 300.33 116.146 300.33C100.955 300.33 88.6243 288.016 88.6243 272.821V272.346C88.6243 257.152 100.944 244.838 116.146 244.838C123.736 244.838 130.624 247.914 135.602 252.889C140.59 257.875 143.667 264.749 143.667 272.346Z" fill="white"/>
<rect x="226.972" y="316.717" width="165.434" height="76.3605" rx="38.1802" fill="white" stroke="#4B5CF0" stroke-width="3"/>
<path d="M258.747 363.245V356.014H267.095C268.78 356.014 270.191 355.681 271.328 355.014C272.503 354.348 273.385 353.427 273.973 352.251C274.6 351.076 274.914 349.724 274.914 348.195C274.914 346.667 274.6 345.315 273.973 344.139C273.385 342.963 272.503 342.062 271.328 341.435C270.191 340.769 268.78 340.435 267.095 340.435H258.747V333.205H266.389C269.995 333.205 273.052 333.793 275.56 334.968C278.108 336.144 280.048 337.829 281.38 340.024C282.713 342.179 283.379 344.746 283.379 347.725V348.666C283.379 351.644 282.713 354.231 281.38 356.425C280.048 358.581 278.108 360.266 275.56 361.481C273.052 362.657 269.995 363.245 266.389 363.245H258.747ZM251.575 376.413V333.205H259.923V376.413H251.575Z" fill="#4B5CF0"/>
<path d="M290.269 376.413V333.205H298.616V376.413H290.269ZM316.487 376.413L303.319 357.719H312.666L326.246 376.413H316.487ZM296.147 362.069V355.308H307.082C308.61 355.308 309.923 354.995 311.02 354.368C312.157 353.741 313.039 352.859 313.666 351.722C314.293 350.586 314.606 349.293 314.606 347.843C314.606 346.353 314.293 345.04 313.666 343.904C313.039 342.767 312.157 341.885 311.02 341.258C309.923 340.631 308.61 340.318 307.082 340.318H296.147V333.205H306.2C309.649 333.205 312.627 333.714 315.135 334.733C317.683 335.752 319.642 337.3 321.014 339.377C322.386 341.454 323.072 344.061 323.072 347.196V348.136C323.072 351.311 322.366 353.917 320.955 355.955C319.584 357.993 317.644 359.521 315.135 360.54C312.627 361.559 309.649 362.069 306.2 362.069H296.147Z" fill="#4B5CF0"/>
<path d="M352.169 377.53C348.289 377.53 344.918 376.844 342.057 375.472C339.236 374.1 336.884 372.317 335.003 370.123C333.161 367.889 331.77 365.498 330.829 362.951C329.928 360.364 329.477 357.875 329.477 355.485V354.191C329.477 351.566 329.947 348.959 330.888 346.373C331.828 343.747 333.239 341.376 335.12 339.26C337.041 337.143 339.412 335.458 342.234 334.204C345.055 332.911 348.367 332.264 352.169 332.264C355.931 332.264 359.223 332.911 362.045 334.204C364.866 335.458 367.218 337.143 369.099 339.26C371.019 341.376 372.45 343.747 373.39 346.373C374.331 348.959 374.801 351.566 374.801 354.191V355.485C374.801 357.875 374.331 360.364 373.39 362.951C372.489 365.498 371.098 367.889 369.217 370.123C367.375 372.317 365.023 374.1 362.162 375.472C359.34 376.844 356.009 377.53 352.169 377.53ZM352.169 369.77C354.363 369.77 356.323 369.378 358.047 368.594C359.811 367.81 361.3 366.733 362.515 365.361C363.769 363.95 364.71 362.363 365.337 360.599C366.003 358.796 366.336 356.896 366.336 354.897C366.336 352.741 366.003 350.762 365.337 348.959C364.71 347.157 363.769 345.589 362.515 344.257C361.3 342.924 359.811 341.885 358.047 341.141C356.284 340.396 354.324 340.024 352.169 340.024C349.974 340.024 347.995 340.396 346.231 341.141C344.467 341.885 342.959 342.924 341.705 344.257C340.49 345.589 339.549 347.157 338.883 348.959C338.256 350.762 337.942 352.741 337.942 354.897C337.942 356.896 338.256 358.796 338.883 360.599C339.549 362.363 340.49 363.95 341.705 365.361C342.959 366.733 344.467 367.81 346.231 368.594C347.995 369.378 349.974 369.77 352.169 369.77Z" fill="#4B5CF0"/>
</svg>
