<svg id="Layer_1" data-name="Layer 1" xmlns="http://www.w3.org/2000/svg" viewBox="0 0 185.83 150"><defs><style>.cls-1{fill:#fff;}.cls-2{fill:#0083ff;}.cls-3{fill:#006e36;}.cls-4{fill:#00b22b;}</style></defs><path class="cls-1" d="M75,150A75,75,0,0,1,75,0a74.07,74.07,0,0,1,34.1,8.19A75.62,75.62,0,0,1,131,25.13c.44-.25.88-.5,1.33-.74a43,43,0,0,1,20.4-4.9c.6,0,1.21,0,1.81,0,13.74.49,23,4.23,25.47,5.63l2.56,1.51a6.57,6.57,0,0,1,3.18,6.51l-.16,1.26,0,.2c-1.28,19.17-9.74,33.84-23.82,41.29-.85.45-1.64.84-2.43,1.19A40.49,40.49,0,0,1,149.83,80,75.1,75.1,0,0,1,75,150Z"/><path class="cls-2" d="M143.26,75A68.42,68.42,0,1,1,74.84,6.58,68.42,68.42,0,0,1,143.26,75"/><rect class="cls-1" x="66.14" y="37.56" width="5.87" height="5.87" rx="2.67"/><rect class="cls-1" x="66.14" y="47.82" width="5.87" height="5.87" rx="2.67"/><rect class="cls-1" x="38.27" y="78.63" width="5.87" height="5.87" rx="2.67"/><rect class="cls-1" x="47.08" y="78.63" width="5.87" height="5.87" rx="2.67"/><rect class="cls-1" x="55.88" y="58.09" width="17.6" height="5.87" rx="2.67"/><rect class="cls-1" x="57.34" y="78.63" width="5.87" height="17.6" rx="2.67"/><rect class="cls-1" x="82.28" y="78.63" width="24.94" height="5.87" rx="2.67"/><rect class="cls-1" x="44.14" y="68.36" width="24.94" height="5.87" rx="2.67"/><rect class="cls-1" x="96.95" y="66.89" width="5.87" height="5.87" rx="2.67"/><rect class="cls-1" x="77.88" y="87.43" width="17.6" height="5.87" rx="2.67"/><rect class="cls-1" x="77.88" y="97.7" width="5.87" height="5.87" rx="2.67"/><rect class="cls-1" x="77.88" y="107.96" width="5.87" height="5.87" rx="2.67"/><rect class="cls-1" x="76.41" y="43.42" width="5.87" height="24.94" rx="2.67"/><rect class="cls-1" x="69.08" y="83.03" width="5.87" height="24.94" rx="2.67"/><rect class="cls-1" x="88.15" y="55.16" width="5.87" height="17.6" rx="2.67"/><path class="cls-3" d="M122.85,64l47.53-27.49s1-9.84-17.32-9.65-28.77,12.21-30.16,23S122.85,64,122.85,64"/><path class="cls-4" d="M171.13,35.34,123.6,62.83s-1,9.84,17.33,9.65,28.77-12.21,30.16-23,0-14.13,0-14.13"/><path class="cls-1" d="M176.74,30.85c-1.16-.67-9.38-4.28-22.41-4.75a36.78,36.78,0,0,0-18.89,4.11,33.2,33.2,0,0,0-5.12,3.34c-11.77,9.27-12.07,20.7-12.86,27.3l-9.31,4.56A3.87,3.87,0,0,0,105.78,69a4,4,0,0,0,4,3.88c.61,0,.37-.14,1.84-.39h0v-.07h0l2.08-1.12L117.93,69,120,68c5.07,2.6,11.62,5.76,20.63,6.09a35.72,35.72,0,0,0,16-3c.69-.31,1.37-.65,2-1C178,59.87,178.84,36.59,179.06,33.78l.19-1.45Zm-5.58,6.73,0,.1c-1.33,7.34-5.26,20.57-16.57,26.56l-.31.15a30.22,30.22,0,0,1-14,3.21,38.56,38.56,0,0,1-10-1.78l-2.82-1.21L130.54,63l11.65-6.16a4.61,4.61,0,0,0,2.27-2.75,4.56,4.56,0,0,0,.19-1.21c0-.65.38-.84.13-1.45a4,4,0,0,0-.19-.43l-.07-.11s0,0,0,0c-.8-1.4-2.25-1.8-3.88-1.86a4.58,4.58,0,0,0-2.35.55l-11.56,6.1-2.19,1.15s1.92-14.78,12.34-20c.81-.41,1.55-1,2.38-1.45a27.69,27.69,0,0,1,14.16-3,47.58,47.58,0,0,1,16.39,3.87l.76.33.65.26Z"/></svg>