<svg width="32" height="32" viewBox="0 0 32 32" fill="none" xmlns="http://www.w3.org/2000/svg">
<path d="M3.00009 23V20.1375C3.00009 12.95 8.77509 7.02499 15.9501 6.99999C17.6615 6.99341 19.3573 7.3248 20.9403 7.97517C22.5233 8.62553 23.9624 9.58206 25.1748 10.7899C26.3873 11.9977 27.3493 13.433 28.0058 15.0135C28.6622 16.594 29.0001 18.2886 29.0001 20V23C29.0001 23.2652 28.8947 23.5196 28.7072 23.7071C28.5197 23.8946 28.2653 24 28.0001 24H4.00009C3.73488 24 3.48052 23.8946 3.29298 23.7071C3.10545 23.5196 3.00009 23.2652 3.00009 23Z" stroke="#7F8A99" stroke-width="2" stroke-linecap="round" stroke-linejoin="round"/>
<path d="M16.0001 7V11" stroke="#7F8A99" stroke-width="2" stroke-linecap="round" stroke-linejoin="round"/>
<path d="M3.43759 16.6375L7.31259 17.675" stroke="#7F8A99" stroke-width="2" stroke-linecap="round" stroke-linejoin="round"/>
<path d="M28.5626 16.6375L24.6876 17.675" stroke="#7F8A99" stroke-width="2" stroke-linecap="round" stroke-linejoin="round"/>
<path d="M12.9249 24L21.4749 12.8625" stroke="#7F8A99" stroke-width="2" stroke-linecap="round" stroke-linejoin="round"/>
</svg>
