<svg width="24" height="24" viewBox="0 0 24 24" fill="none" xmlns="http://www.w3.org/2000/svg">
<path d="M11.9996 21C16.9702 21 20.9996 16.9706 20.9996 12C20.9996 7.02944 16.9702 3 11.9996 3C7.02907 3 2.99963 7.02944 2.99963 12C2.99963 16.9706 7.02907 21 11.9996 21Z" stroke="#7F8A99" stroke-width="1.46457" stroke-miterlimit="10"/>
<path d="M3.51562 9H20.4844" stroke="#7F8A99" stroke-width="1.46457" stroke-linecap="round" stroke-linejoin="round"/>
<path d="M3.51562 15H20.4844" stroke="#7F8A99" stroke-width="1.46457" stroke-linecap="round" stroke-linejoin="round"/>
<path d="M12 20.7563C14.0711 20.7563 15.75 16.836 15.75 12C15.75 7.16407 14.0711 3.24376 12 3.24376C9.92893 3.24376 8.25 7.16407 8.25 12C8.25 16.836 9.92893 20.7563 12 20.7563Z" stroke="#7F8A99" stroke-width="1.46457" stroke-miterlimit="10"/>
</svg>
