<svg width="32" height="33" viewBox="0 0 32 33" fill="none" xmlns="http://www.w3.org/2000/svg">
<path d="M18.9998 26.5V20.5C18.9998 20.2348 18.8945 19.9805 18.707 19.7929C18.5194 19.6054 18.2651 19.5 17.9998 19.5H13.9998C13.7346 19.5 13.4803 19.6054 13.2927 19.7929C13.1052 19.9805 12.9998 20.2348 12.9998 20.5V26.5C12.9998 26.7652 12.8945 27.0196 12.707 27.2071C12.5194 27.3947 12.2651 27.5 11.9998 27.5H5.99985C5.73463 27.5 5.48028 27.3947 5.29274 27.2071C5.1052 27.0196 4.99985 26.7652 4.99985 26.5V14.9375C5.00209 14.7991 5.03199 14.6626 5.08781 14.5359C5.14362 14.4093 5.22422 14.2951 5.32485 14.2L15.3248 5.11252C15.5092 4.94387 15.75 4.85034 15.9998 4.85034C16.2497 4.85034 16.4905 4.94387 16.6748 5.11252L26.6748 14.2C26.7755 14.2951 26.8561 14.4093 26.9119 14.5359C26.9677 14.6626 26.9976 14.7991 26.9998 14.9375V26.5C26.9998 26.7652 26.8945 27.0196 26.707 27.2071C26.5194 27.3947 26.2651 27.5 25.9998 27.5H19.9998C19.7346 27.5 19.4803 27.3947 19.2927 27.2071C19.1052 27.0196 18.9998 26.7652 18.9998 26.5Z" stroke="#7F8A99" stroke-width="2.00203" stroke-linecap="round" stroke-linejoin="round"/>
</svg>
