<svg width="128" height="42" viewBox="0 0 128 42" fill="none" xmlns="http://www.w3.org/2000/svg">
<path fill-rule="evenodd" clip-rule="evenodd" d="M46.9114 30.5208L48.8362 12.9096C48.8752 12.5175 48.9896 12.2342 49.1811 12.0563C49.3727 11.8801 49.6509 11.7907 50.0148 11.7907H57.9168C58.3952 11.7907 58.6352 12.1263 58.6352 12.7974L58.6066 13.1886L58.4914 14.0554C58.4142 14.9879 58.0892 15.4533 57.5147 15.4533H53.0316L52.457 20.0938H56.681C57.1593 20.0938 57.3994 20.4007 57.3994 21.0162C57.3994 21.2211 57.3899 21.3796 57.3708 21.4917L57.2555 22.3576C57.1793 22.861 57.0692 23.2201 56.9254 23.4343C56.7815 23.6484 56.5657 23.7555 56.2788 23.7555H52.0549L51.3936 30.5208C51.3365 31.1177 50.7523 31.4153 49.6413 31.4153H48.4922C47.3803 31.4153 46.8542 31.1177 46.9114 30.5208Z" fill="#F1EB14"/>
<path fill-rule="evenodd" clip-rule="evenodd" d="M59.2091 28.2006C59.2091 28.0328 59.2282 27.7445 59.2663 27.3339L61.0195 11.1762C61.0767 10.5801 61.6799 10.2817 62.8299 10.2817H63.6341C64.7833 10.2817 65.3293 10.5801 65.2721 11.1762L63.5189 27.3895C63.4998 27.4645 63.4903 27.5674 63.4903 27.6972C63.4903 27.9207 63.5431 28.0842 63.6489 28.1863C63.7537 28.2891 63.9504 28.3405 64.2373 28.3405C64.3907 28.3405 64.558 28.3077 64.7408 28.2427C64.9219 28.1778 65.0519 28.1449 65.1282 28.1449C65.3007 28.1449 65.3873 28.2756 65.3873 28.5362L65.3293 29.0117C65.3102 29.123 65.2764 29.338 65.2287 29.6541C65.1811 29.9712 65.1187 30.241 65.0424 30.4652C64.9271 30.7822 64.6203 31.0478 64.1229 31.262C63.6246 31.4753 63.0881 31.5832 62.5136 31.5832C60.3106 31.5832 59.2091 30.4559 59.2091 28.2006Z" fill="#F1EB14"/>
<path fill-rule="evenodd" clip-rule="evenodd" d="M68.2601 14.4189L68.4898 12.2385C68.5479 11.6424 69.2949 11.344 70.7309 11.344C72.1297 11.344 72.8004 11.6424 72.7424 12.2385L72.5127 14.4189C72.4555 15.0158 71.718 15.3134 70.3002 15.3134C68.8824 15.3134 68.2029 15.0158 68.2601 14.4189ZM67.47 30.8977C66.9821 30.4416 66.7377 29.7098 66.7377 28.7039C66.7377 28.4054 66.7472 28.1727 66.7663 28.005L67.8582 17.578C67.9154 16.9811 68.5186 16.6835 69.6686 16.6835H70.4728C71.6411 16.6835 72.187 16.9904 72.1108 17.6059L70.9616 27.725V27.9206C70.9616 28.2006 71.1142 28.3405 71.4209 28.3405C71.5362 28.3405 71.6697 28.3076 71.8231 28.2427C71.9765 28.177 72.0822 28.1449 72.1394 28.1449C72.3118 28.1449 72.3976 28.2748 72.3976 28.5361L72.3404 29.0108C72.3214 29.1229 72.2876 29.3371 72.2399 29.6541C72.1922 29.9711 72.1298 30.2409 72.0536 30.4652C71.9383 30.7999 71.6263 31.0706 71.1194 31.2754C70.6115 31.4803 70.0421 31.5832 69.4095 31.5832C68.6053 31.5832 67.9588 31.3547 67.47 30.8977Z" fill="#F1EB14"/>
<path fill-rule="evenodd" clip-rule="evenodd" d="M81.4059 26.5932C81.7603 25.4474 81.9371 24.1473 81.9371 22.6937C81.9371 21.687 81.8461 20.9695 81.6641 20.5412C81.4822 20.1129 81.2092 19.8979 80.8452 19.8979C80.2706 19.8979 79.7532 20.2714 79.2939 21.0159L78.5469 27.9211C78.8918 28.1825 79.2549 28.3123 79.6388 28.3123C80.4621 28.3123 81.0514 27.739 81.4059 26.5932ZM85.2564 18.081C85.8977 19.1248 86.2192 20.6719 86.2192 22.7215C86.2192 24.2687 86.0182 25.7172 85.6152 27.0687C85.2131 28.4202 84.5856 29.5104 83.7337 30.3392C82.881 31.1688 81.8124 31.5828 80.5298 31.5828C79.5522 31.5828 78.7861 31.313 78.2306 30.7725L77.656 36.2233C77.5988 36.8194 76.9853 37.1179 75.8171 37.1179H75.0128C74.4183 37.1179 73.9928 37.0437 73.7337 36.8945C73.4754 36.7452 73.3645 36.5218 73.4035 36.2233L74.9548 21.6592C75.051 20.7646 75.0986 19.9822 75.0986 19.3111C75.0986 18.9755 75.0891 18.6501 75.07 18.3322C75.051 18.0161 75.0414 17.7926 75.0414 17.6619C75.0986 17.382 75.5155 17.1637 76.2911 17.0043C77.0667 16.8466 77.7037 16.7674 78.202 16.7674C79.0063 16.7674 79.3702 17.3542 79.294 18.5278C79.658 17.9317 80.132 17.4478 80.7161 17.0743C81.3002 16.7016 81.9372 16.5153 82.627 16.5153C83.7381 16.5153 84.6142 17.0372 85.2564 18.081Z" fill="#F1EB14"/>
<path fill-rule="evenodd" clip-rule="evenodd" d="M94.221 27.8092C94.4792 27.5293 94.6759 27.1659 94.8103 26.719L95.2696 22.2741C95.4039 21.3239 95.5088 20.6806 95.5859 20.345C95.241 19.9723 94.8484 19.786 94.4081 19.786C93.584 19.786 92.9999 20.3922 92.655 21.6029C92.31 22.8145 92.1376 24.1753 92.1376 25.6845C92.1376 27.3809 92.5302 28.2282 93.3162 28.2282C93.6602 28.2282 93.9627 28.0891 94.221 27.8092ZM88.7474 29.9617C88.1729 28.8623 87.8851 27.4551 87.8851 25.7402C87.8851 24.2124 88.0767 22.7454 88.4597 21.3374C88.8428 19.9311 89.4416 18.7751 90.2554 17.8713C91.07 16.9675 92.0805 16.5156 93.2868 16.5156C93.9767 16.5156 94.5322 16.6513 94.9542 16.9211C95.3746 17.1909 95.7775 17.5408 96.1606 17.9691C96.2759 17.5964 96.3859 17.3309 96.4908 17.1724C96.5965 17.0147 96.7638 16.8933 96.9943 16.809C97.2239 16.7255 97.5689 16.6833 98.0282 16.6833H98.3731C99.5413 16.6833 100.106 16.9169 100.068 17.3823L98.9477 27.7536V27.9213C98.9477 28.2004 99.0725 28.3404 99.3212 28.3404C99.3975 28.3404 99.5127 28.3083 99.6661 28.2426C99.8195 28.1777 99.9244 28.1448 99.9824 28.1448C100.155 28.1448 100.241 28.2755 100.241 28.536L100.183 29.0115C100.068 29.7568 99.972 30.2416 99.8958 30.4651C99.7814 30.8006 99.4746 31.0704 98.9763 31.2753C98.478 31.4802 97.932 31.583 97.3383 31.583C95.9205 31.583 95.0877 30.8748 94.839 29.4584C94.0729 30.8942 92.9714 31.6109 91.5345 31.6109C90.251 31.6109 89.322 31.0611 88.7474 29.9617Z" fill="#F1EB14"/>
<path fill-rule="evenodd" clip-rule="evenodd" d="M109.407 20.3453C109.062 19.9726 108.679 19.7863 108.258 19.7863C107.414 19.7863 106.821 20.3309 106.476 21.4211C106.131 22.5121 105.958 23.8215 105.958 25.3492C105.958 26.1696 106.055 26.7935 106.246 27.2218C106.438 27.651 106.753 27.8651 107.194 27.8651C107.482 27.8651 107.735 27.7673 107.956 27.5717C108.175 27.3761 108.402 27.092 108.631 26.7193L109.09 22.2743C109.225 21.3233 109.33 20.6808 109.407 20.3453ZM113.889 17.3817L112.625 29.0674C112.319 31.8809 111.663 33.9542 110.656 35.2871C109.651 36.6193 108.181 37.2853 106.246 37.2853C105.02 37.2853 103.971 37.1226 103.099 36.7963C102.228 36.47 101.754 36.0561 101.677 35.5527C101.638 35.2543 101.62 34.9743 101.62 34.7138C101.62 34.2476 101.668 33.8564 101.763 33.5402C101.859 33.2223 102.012 33.0647 102.223 33.0647C102.319 33.0647 102.501 33.1389 102.769 33.2881C103.171 33.493 103.564 33.6658 103.947 33.8058C104.33 33.9449 104.781 34.0149 105.298 34.0149C106.14 34.0149 106.811 33.7257 107.31 33.1481C107.807 32.5706 108.104 31.7224 108.2 30.6044L108.286 29.7942C107.941 30.241 107.544 30.5951 107.094 30.8565C106.643 31.117 106.16 31.2477 105.643 31.2477C104.225 31.2477 103.215 30.7073 102.612 29.6264C102.008 28.5455 101.706 27.1476 101.706 25.4327C101.706 22.9168 102.161 20.8023 103.071 19.0873C103.981 17.3733 105.355 16.5158 107.194 16.5158C108.247 16.5158 109.177 17.0006 109.981 17.9694C110.097 17.5967 110.207 17.3311 110.312 17.1726C110.417 17.0141 110.585 16.8927 110.815 16.8092C111.045 16.7249 111.39 16.6836 111.849 16.6836H112.194C113.324 16.6836 113.889 16.9163 113.889 17.3817Z" fill="#F1EB14"/>
<mask id="mask0_262_99" style="mask-type:alpha" maskUnits="userSpaceOnUse" x="115" y="16" width="13" height="16">
<path fill-rule="evenodd" clip-rule="evenodd" d="M115.325 16.5157H127.25V31.5832H115.325V16.5157Z" fill="white"/>
</mask>
<g mask="url(#mask0_262_99)">
<path fill-rule="evenodd" clip-rule="evenodd" d="M122.524 26.677C122.84 25.5869 122.998 24.0819 122.998 22.1621C122.998 21.3426 122.888 20.7414 122.668 20.3595C122.447 19.9776 122.059 19.7862 121.504 19.7862C120.852 19.7862 120.368 20.3266 120.053 21.4075C119.737 22.4884 119.578 23.9892 119.578 25.9081C119.578 26.747 119.688 27.3574 119.909 27.7394C120.129 28.1213 120.527 28.3127 121.102 28.3127C121.733 28.3127 122.207 27.7672 122.524 26.677ZM116.676 29.9618C115.775 28.881 115.325 27.2782 115.325 25.1535C115.325 22.6191 115.871 20.5458 116.963 18.9338C118.055 17.3217 119.741 16.5157 122.021 16.5157C123.726 16.5157 125.024 17.0511 125.914 18.1227C126.805 19.1951 127.25 20.7836 127.25 22.8889C127.25 25.4048 126.699 27.4831 125.598 29.1229C124.496 30.7628 122.806 31.5832 120.527 31.5832C118.86 31.5832 117.576 31.0427 116.676 29.9618Z" fill="#F1EB14"/>
</g>
<path fill-rule="evenodd" clip-rule="evenodd" d="M11.9581 0.673733L22.7546 3.95939L25.8095 7.05197L29.5958 4.08754L40.7684 7.72647L38.0913 26.9514L26.3632 41.1032L15.6049 35.9214L15.3284 30.1106L10.614 28.9015L0.691895 23.8217L11.9581 0.673733Z" fill="#F1EB14"/>
<mask id="mask1_262_99" style="mask-type:alpha" maskUnits="userSpaceOnUse" x="0" y="0" width="42" height="42">
<path fill-rule="evenodd" clip-rule="evenodd" d="M0 0H41.6932V42H0V0Z" fill="white"/>
</mask>
<g mask="url(#mask1_262_99)">
<path fill-rule="evenodd" clip-rule="evenodd" d="M38.6152 18.8639L34.113 23.7835L34.997 13.7638C34.9987 13.7478 34.9987 13.7335 34.9961 13.7183L40.1612 8.64185L38.6152 18.8639ZM37.4341 26.6721L33.4328 31.5007L34.0473 24.5314L38.4931 19.6733L37.4341 26.6721ZM26.4756 39.8956L26.817 32.4323L33.5343 25.0912L32.9155 32.1254L26.4756 39.8956ZM15.8367 27.1957L15.2665 16.4483L26.8637 21.3022L26.3749 31.9964L15.8367 27.1957ZM25.9876 40.4673L16.2761 35.503L16.0144 30.5766L16.0136 30.5488L15.8636 27.7041L26.3525 32.4821L25.9876 40.4673ZM1.60581 23.7254L6.93559 12.6728L13.9492 15.5563C13.8799 15.6693 13.8452 15.8008 13.8522 15.9357L14.1798 22.1268V22.1276L11.1249 28.398L1.60581 23.7254ZM12.3286 1.49217L22.6632 4.63702L19.6109 11.0591L19.6101 11.0599L14.3123 15.2174L7.1323 12.2665L12.3286 1.49217ZM34.4943 14.2116L33.5999 24.3434L26.8497 31.7216L27.3281 21.2533L34.4943 14.2116ZM34.2595 13.8035L27.0483 20.8908L15.4667 16.0428L23.3036 9.89135L34.2595 13.8035ZM26.2362 7.58879L26.2865 7.55L29.7383 4.84189L40.0356 8.12754L34.6174 13.4527L23.7221 9.56254L26.2362 7.58879ZM41.216 7.08544L29.812 3.4482C29.5893 3.37569 29.3431 3.41954 29.1603 3.56287L25.9139 6.11079L23.6988 3.64465C23.6147 3.55106 23.5055 3.48193 23.3833 3.44483L12.1657 0.0310185C11.8346 -0.0701565 11.4784 0.0832923 11.3311 0.38766L0.0657626 23.7456C-0.0936975 24.0753 0.0458301 24.469 0.38035 24.6334L10.7227 29.709C10.7487 29.7217 10.7747 29.7326 10.8016 29.7419L14.6555 31.0833L14.9129 35.9557C14.9267 36.1935 15.0663 36.4076 15.2829 36.5189L25.8576 41.9217C25.959 41.9748 26.0699 42.0001 26.1791 42.0001C26.3827 42.0001 26.5838 41.9124 26.7181 41.7488L38.6308 27.3744C38.7088 27.2817 38.7591 27.1687 38.7764 27.0498L41.6857 7.82402C41.7351 7.50026 41.5366 7.1883 41.216 7.08544Z" fill="#0C0C08"/>
</g>
</svg>
