<svg width="32" height="33" viewBox="0 0 32 33" fill="none" xmlns="http://www.w3.org/2000/svg">
<path d="M16 19.5C17.6569 19.5 19 18.1569 19 16.5C19 14.8431 17.6569 13.5 16 13.5C14.3431 13.5 13 14.8431 13 16.5C13 18.1569 14.3431 19.5 16 19.5Z" stroke="#7F8A99" stroke-width="2" stroke-miterlimit="10"/>
<path d="M6 19.5C7.65685 19.5 9 18.1569 9 16.5C9 14.8431 7.65685 13.5 6 13.5C4.34315 13.5 3 14.8431 3 16.5C3 18.1569 4.34315 19.5 6 19.5Z" stroke="#7F8A99" stroke-width="2" stroke-miterlimit="10"/>
<path d="M26 19.5C27.6569 19.5 29 18.1569 29 16.5C29 14.8431 27.6569 13.5 26 13.5C24.3431 13.5 23 14.8431 23 16.5C23 18.1569 24.3431 19.5 26 19.5Z" stroke="#7F8A99" stroke-width="2" stroke-miterlimit="10"/>
</svg>
