<svg width="32" height="33" viewBox="0 0 32 33" fill="none" xmlns="http://www.w3.org/2000/svg">
<path d="M26.2876 4.98754L2.98759 11.55C2.78925 11.6043 2.61244 11.7183 2.48126 11.8767C2.35008 12.035 2.2709 12.2299 2.2545 12.4349C2.2381 12.6399 2.28529 12.8449 2.38963 13.0221C2.49397 13.1993 2.65039 13.34 2.83759 13.425L13.5376 18.4875C13.7472 18.5846 13.9155 18.7529 14.0126 18.9625L19.0751 29.6625C19.1602 29.8497 19.3009 30.0062 19.478 30.1105C19.6552 30.2148 19.8603 30.262 20.0652 30.2456C20.2702 30.2292 20.4651 30.1501 20.6235 30.0189C20.7818 29.8877 20.8959 29.7109 20.9501 29.5125L27.5126 6.21254C27.5623 6.04251 27.5654 5.86224 27.5215 5.69061C27.4776 5.51899 27.3883 5.36233 27.2631 5.23707C27.1378 5.1118 26.9811 5.02254 26.8095 4.97864C26.6379 4.93474 26.4576 4.93781 26.2876 4.98754V4.98754Z" stroke="#7F8A99" stroke-width="2.00399" stroke-linecap="round" stroke-linejoin="round"/>
<path d="M13.8626 18.6375L19.5126 12.9875" stroke="#7F8A99" stroke-width="2.00399" stroke-linecap="round" stroke-linejoin="round"/>
</svg>
