<svg width="33" height="32" viewBox="0 0 33 32" fill="none" xmlns="http://www.w3.org/2000/svg">
<circle cx="16.5" cy="16" r="16" fill="#F1EB14"/>
<path d="M12.4812 13.3469H7.9812V8.84691" stroke="#0C0C08" stroke-width="2" stroke-linecap="round" stroke-linejoin="round"/>
<path d="M22.8312 10.1688C22.0658 9.40228 21.1569 8.79421 20.1563 8.37932C19.1557 7.96444 18.0831 7.75089 17 7.75089C15.9168 7.75089 14.8442 7.96444 13.8436 8.37932C12.843 8.79421 11.9341 9.40228 11.1687 10.1688L7.9812 13.3469" stroke="#0C0C08" stroke-width="2" stroke-linecap="round" stroke-linejoin="round"/>
<path d="M21.5188 18.6531H26.0188V23.1531" stroke="#0C0C08" stroke-width="2" stroke-linecap="round" stroke-linejoin="round"/>
<path d="M11.1687 21.8312C11.9341 22.5977 12.843 23.2058 13.8436 23.6207C14.8442 24.0355 15.9168 24.2491 17 24.2491C18.0831 24.2491 19.1557 24.0355 20.1563 23.6207C21.1569 23.2058 22.0658 22.5977 22.8312 21.8312L26.0187 18.6531" stroke="#0C0C08" stroke-width="2" stroke-linecap="round" stroke-linejoin="round"/>
</svg>
