<svg width="24" height="24" viewBox="0 0 24 24" fill="none" xmlns="http://www.w3.org/2000/svg">
<path d="M3.75 6.00005V18C3.75 18.3979 3.90804 18.7794 4.18934 19.0607C4.47064 19.342 4.85218 19.5 5.25 19.5H20.25C20.4489 19.5 20.6397 19.421 20.7803 19.2804C20.921 19.1397 21 18.949 21 18.75V8.25005C21 8.05113 20.921 7.86037 20.7803 7.71972C20.6397 7.57906 20.4489 7.50005 20.25 7.50005H5.25C4.85218 7.50005 4.47064 7.34201 4.18934 7.06071C3.90804 6.7794 3.75 6.39787 3.75 6.00005ZM3.75 6.00005C3.75 5.60222 3.90804 5.22069 4.18934 4.93939C4.47064 4.65808 4.85218 4.50005 5.25 4.50005H18" stroke="#F1EB14" stroke-width="1.45791" stroke-linecap="round" stroke-linejoin="round"/>
<path d="M16.875 14.625C17.4963 14.625 18 14.1213 18 13.5C18 12.8787 17.4963 12.375 16.875 12.375C16.2537 12.375 15.75 12.8787 15.75 13.5C15.75 14.1213 16.2537 14.625 16.875 14.625Z" fill="#F1EB14"/>
</svg>
