<svg width="16" height="16" viewBox="0 0 16 16" fill="none" xmlns="http://www.w3.org/2000/svg">
<path d="M13.7319 8.78333C13.7653 8.53333 13.782 8.275 13.782 8C13.782 7.73333 13.7653 7.46667 13.7236 7.21667L15.4153 5.9C15.4882 5.83992 15.538 5.75641 15.5562 5.66372C15.5745 5.57103 15.56 5.47489 15.5153 5.39167L13.9153 2.625C13.8682 2.54131 13.793 2.47698 13.703 2.44343C13.613 2.40987 13.514 2.40925 13.4236 2.44167L11.4319 3.24167C11.0153 2.925 10.5736 2.65834 10.082 2.45834L9.78195 0.341669C9.76719 0.246277 9.71871 0.159342 9.64532 0.0966492C9.57192 0.0339567 9.47848 -0.000334587 9.38195 2.46116e-06H6.18195C5.98195 2.46116e-06 5.82362 0.141669 5.79028 0.341669L5.49028 2.45834C4.99862 2.65834 4.54862 2.93334 4.14029 3.24167L2.14862 2.44167C1.96529 2.375 1.75695 2.44167 1.65695 2.625L0.0652859 5.39167C-0.0347141 5.56667 -0.00138089 5.78333 0.165286 5.9L1.85695 7.21667C1.81529 7.46667 1.78195 7.74167 1.78195 8C1.78195 8.25834 1.79862 8.53333 1.84029 8.78333L0.148619 10.1C0.0757224 10.1601 0.0259139 10.2436 0.00767958 10.3363C-0.0105547 10.429 0.00391357 10.5251 0.0486192 10.6083L1.64862 13.375C1.74862 13.5583 1.95695 13.6167 2.14029 13.5583L4.13195 12.7583C4.54862 13.075 4.99028 13.3417 5.48195 13.5417L5.78195 15.6583C5.82362 15.8583 5.98195 16 6.18195 16H9.38195C9.58195 16 9.74862 15.8583 9.77362 15.6583L10.0736 13.5417C10.5653 13.3417 11.0153 13.075 11.4236 12.7583L13.4153 13.5583C13.5986 13.625 13.807 13.5583 13.9069 13.375L15.507 10.6083C15.6069 10.425 15.5653 10.2167 15.4069 10.1L13.7319 8.78333ZM7.78195 11C6.98698 10.9978 6.22519 10.681 5.66306 10.1189C5.10093 9.55676 4.78415 8.79497 4.78195 8C4.78195 6.35 6.13195 5 7.78195 5C9.43195 5 10.782 6.35 10.782 8C10.782 9.65 9.43195 11 7.78195 11Z" fill="#C3CCD9"/>
</svg>
