<svg width="28" height="32" viewBox="0 0 28 32" fill="none" xmlns="http://www.w3.org/2000/svg">
<path d="M26.806 8.0753C26.806 8.01622 26.7979 7.959 26.7824 7.90428C26.7787 7.88997 26.7743 7.87629 26.7693 7.86385C26.7644 7.85017 26.7594 7.83649 26.7538 7.82405C26.7482 7.81099 26.742 7.79793 26.7357 7.78549C26.7295 7.77305 26.7221 7.76061 26.7152 7.74818C26.7084 7.73698 26.7009 7.72579 26.6935 7.71459C26.6798 7.69407 26.6648 7.67479 26.6474 7.65551C26.6418 7.64805 26.635 7.64059 26.6282 7.63437C26.625 7.63064 26.6226 7.62815 26.6194 7.62504C26.6138 7.61944 26.6089 7.61385 26.6027 7.60887C26.5946 7.60141 26.5859 7.59332 26.5765 7.58648C26.566 7.57778 26.5554 7.56907 26.5442 7.56036C26.543 7.56036 26.5423 7.55912 26.5417 7.55912C26.533 7.5529 26.5243 7.54606 26.515 7.54108C26.4994 7.53113 26.4845 7.5218 26.4683 7.5131L26.4559 7.50688L14.1204 0.918409C13.9332 0.818904 13.7081 0.818904 13.5202 0.918409L1.18288 7.5075L1.17044 7.51372C1.16049 7.51932 1.14992 7.52491 1.14059 7.53051C1.13437 7.53486 1.12753 7.5386 1.12131 7.54357C1.11323 7.54855 1.10452 7.55414 1.09706 7.56036C1.08649 7.5672 1.07654 7.57591 1.06659 7.58399C1.06348 7.58648 1.06099 7.58897 1.05788 7.59084C1.04917 7.5983 1.04047 7.60638 1.03176 7.61447C1.03176 7.61447 1.03052 7.61447 1.03052 7.61571C1.02057 7.62504 1.01124 7.63437 1.00253 7.64432C1.00253 7.64432 1.00066 7.64556 1.00066 7.64681C0.991336 7.65676 0.982629 7.66671 0.973301 7.6779C0.964594 7.68847 0.956509 7.70029 0.947802 7.71148C0.939718 7.7233 0.931633 7.73512 0.924792 7.74756C0.917951 7.75937 0.91111 7.77119 0.904891 7.783C0.904891 7.783 0.904891 7.78425 0.904891 7.78487C0.899294 7.79606 0.893697 7.80664 0.888721 7.81783C0.886856 7.82218 0.884368 7.82654 0.883124 7.83151C0.873796 7.85514 0.865089 7.87878 0.858248 7.90365C0.851407 7.92791 0.84581 7.95341 0.842078 7.97828C0.836481 8.01 0.834616 8.04234 0.834616 8.0753L0.723916 23.7629C0.722673 23.9979 0.850785 24.2144 1.05664 24.3269L13.5159 31.0914C13.56 31.115 13.6061 31.1337 13.654 31.1461C13.662 31.1486 13.6701 31.1505 13.6782 31.1517C13.6863 31.1542 13.695 31.1561 13.7031 31.1573C13.7261 31.1623 13.7485 31.1648 13.7715 31.1667C13.7883 31.1679 13.8045 31.1685 13.8212 31.1685C13.838 31.1685 13.8536 31.1685 13.8698 31.1667C13.8921 31.1648 13.9152 31.1611 13.9375 31.1573C13.945 31.1561 13.9525 31.1548 13.9599 31.1524C13.9686 31.1505 13.9773 31.148 13.9867 31.1461C14.0277 31.1349 14.0681 31.1194 14.1067 31.1001C14.1123 31.0976 14.1185 31.0945 14.1241 31.0914L26.5834 24.3269C26.7905 24.2144 26.918 23.9979 26.9161 23.7629L26.806 8.0753Z" fill="#F45A95"/>
<path d="M27.5231 7.63125C27.5231 7.56906 27.5144 7.50873 27.4982 7.4509C27.4945 7.43597 27.4895 7.42167 27.4845 7.40798C27.4795 7.39368 27.4739 7.37938 27.4683 7.36569C27.4621 7.35201 27.4559 7.33833 27.4491 7.32527C27.4422 7.31221 27.4348 7.29915 27.4273 7.28609C27.4198 7.27428 27.4124 7.26246 27.4043 7.25064C27.39 7.22888 27.3738 7.20835 27.3558 7.18845C27.3496 7.18037 27.3427 7.1729 27.3352 7.16606C27.3321 7.16233 27.329 7.15922 27.3259 7.15611C27.3203 7.14989 27.3147 7.1443 27.3085 7.13932C27.2998 7.13124 27.2905 7.12315 27.2811 7.11569C27.2699 7.10636 27.2588 7.09703 27.2469 7.08833C27.2457 7.0877 27.2451 7.08708 27.2444 7.08708C27.2351 7.08024 27.2258 7.0734 27.2165 7.0678C27.2003 7.05723 27.1841 7.04728 27.1673 7.03857L27.1543 7.03173L14.1372 0.0788265C13.9394 -0.0262755 13.7018 -0.0262755 13.5041 0.0788265L0.485095 7.03173L0.472035 7.03857C0.461463 7.04417 0.450268 7.05039 0.440318 7.05661C0.433477 7.06096 0.426636 7.06531 0.419795 7.07029C0.411088 7.07527 0.402381 7.08148 0.394297 7.0877C0.383102 7.09517 0.37253 7.10387 0.361958 7.11258C0.358848 7.11507 0.355739 7.11755 0.352629 7.12004C0.3433 7.12813 0.333972 7.13621 0.325265 7.14492C0.324643 7.14492 0.324021 7.14554 0.324021 7.14616C0.313449 7.15611 0.303498 7.16606 0.29417 7.17664C0.293548 7.17726 0.292304 7.17788 0.292304 7.17912C0.282354 7.1897 0.273025 7.20027 0.263696 7.21208C0.254368 7.22328 0.245661 7.23572 0.236955 7.24753C0.228248 7.25997 0.220163 7.27241 0.2127 7.28547C0.205237 7.29791 0.198396 7.31035 0.191555 7.32278C0.190934 7.32341 0.190934 7.32403 0.190934 7.32465C0.184714 7.33647 0.179117 7.34766 0.174142 7.35948C0.172276 7.36383 0.169789 7.3688 0.167923 7.37378C0.157973 7.39866 0.148644 7.42353 0.141803 7.44965C0.13434 7.47515 0.128743 7.50189 0.125012 7.52863C0.119414 7.56222 0.116927 7.59642 0.116927 7.63125L8.52435e-06 24.1851C-0.00123529 24.4333 0.133718 24.6615 0.351385 24.7803L13.4985 31.9185C13.5451 31.9434 13.5936 31.9633 13.644 31.9764C13.6527 31.9789 13.6608 31.9807 13.6695 31.9826C13.6782 31.9851 13.6869 31.9869 13.6956 31.9882H13.6962C13.7205 31.9932 13.7441 31.9963 13.7684 31.9981C13.7858 31.9994 13.8032 32 13.8206 32C13.838 32 13.8548 31.9994 13.8716 31.9981C13.8952 31.9963 13.9195 31.9925 13.9431 31.9882C13.9431 31.9882 13.9433 31.9882 13.9438 31.9882C13.9518 31.9869 13.9593 31.9857 13.9674 31.9832C13.9767 31.9813 13.986 31.9789 13.9954 31.9764C14.0389 31.9646 14.0812 31.9484 14.1222 31.9279C14.1285 31.9254 14.1347 31.9216 14.1409 31.9185L27.288 24.7803C27.5063 24.6615 27.6412 24.4333 27.6394 24.1851L27.5231 7.63125ZM13.8206 1.43272L25.4241 7.63063L13.8206 13.813L2.21524 7.63063L13.8206 1.43272ZM13.1471 14.9772V30.1996L1.34643 23.7921L1.45216 8.7457L1.9957 9.03551L13.1471 14.9772ZM14.4923 30.1996V14.9772L26.1872 8.7457L26.2936 23.7921L14.4923 30.1996Z" fill="#0C0C08"/>
<path d="M2.59026 22.3928C2.59088 22.2697 2.59212 22.1478 2.59274 22.0284C2.59337 21.9083 2.59461 21.7902 2.59523 21.6733C2.59585 21.5563 2.5971 21.4413 2.59772 21.3275C2.59834 21.2137 2.59959 21.1011 2.60021 20.9904C2.60083 20.8791 2.60145 20.7696 2.60269 20.6614C2.60332 20.5532 2.60394 20.4456 2.60518 20.3393C2.6058 20.2329 2.60643 20.1284 2.60767 20.024C2.60891 19.9195 2.60891 19.8169 2.60954 19.7155C2.61016 19.6141 2.61078 19.5128 2.6114 19.4126C2.61202 19.3125 2.61265 19.213 2.61327 19.1147C2.61389 19.0165 2.61451 18.9182 2.61513 18.8212C2.61575 18.7242 2.61638 18.6278 2.617 18.532C2.61762 18.4362 2.61824 18.3411 2.61886 18.2459C2.61949 18.1514 2.62011 18.0569 2.62073 17.963C2.62135 17.8691 2.62197 17.7751 2.6226 17.6819C2.62322 17.5886 2.62384 17.4953 2.62446 17.4026C2.62508 17.31 2.62571 17.2173 2.62633 17.1246C2.62695 17.032 2.62757 16.9399 2.62819 16.8473C2.62881 16.7546 2.62944 16.6626 2.63006 16.5699C2.63068 16.4772 2.6313 16.3846 2.63192 16.2919C2.63255 16.1992 2.63317 16.106 2.63379 16.0127C2.63441 15.9194 2.63503 15.8261 2.63566 15.7316C2.63628 15.6377 2.6369 15.5431 2.63752 15.4486C2.63814 15.3541 2.63877 15.2583 2.63939 15.1625C2.64001 15.0667 2.64063 14.9704 2.64125 14.8733C2.64187 14.7763 2.6425 14.6787 2.64312 14.5798C2.64374 14.4815 2.64436 14.382 2.64498 14.2819C2.64561 14.1818 2.64623 14.081 2.64685 13.979C2.64747 13.877 2.64809 13.7744 2.64872 13.6706C2.64934 13.5667 2.64996 13.4616 2.6512 13.3553C2.65245 13.2489 2.65245 13.142 2.65369 13.0331C2.65493 12.9243 2.65493 12.8148 2.65618 12.7041C2.6568 12.5928 2.65804 12.4809 2.65867 12.3671C2.65929 12.2532 2.66053 12.1382 2.66115 12.0213C2.66178 11.9044 2.66302 11.7862 2.66364 11.6662C2.66426 11.5461 2.66551 11.4249 2.66613 11.3017C2.66675 11.1786 2.68914 11.0834 2.73143 11.0163C2.77434 10.9491 2.8384 10.9106 2.92298 10.8994C2.97957 10.8925 3.04674 10.8969 3.12385 10.913C3.20097 10.9292 3.28928 10.9572 3.38692 10.9976C3.48456 11.038 3.59339 11.089 3.7128 11.1525C3.81976 11.2097 3.92487 11.265 4.0281 11.3204C4.13134 11.3757 4.23271 11.4298 4.33284 11.4827C4.43296 11.5362 4.53122 11.5884 4.62824 11.64C4.72526 11.6917 4.82041 11.7427 4.91494 11.793C5.00947 11.8434 5.10213 11.8925 5.19355 11.9417C5.28497 11.9908 5.37577 12.0387 5.4647 12.086C5.55426 12.1338 5.64257 12.1805 5.72964 12.2271C5.8167 12.2738 5.90315 12.3198 5.98897 12.3652C6.07479 12.4106 6.15937 12.456 6.24333 12.5008C6.32729 12.5455 6.41062 12.5897 6.49334 12.6339C6.57605 12.678 6.65814 12.7215 6.73961 12.7651C6.82108 12.8086 6.90255 12.8521 6.9834 12.8951C7.06425 12.938 7.14509 12.9809 7.22532 13.0238C7.30555 13.0667 7.38577 13.1096 7.466 13.1519C7.54622 13.1948 7.62645 13.2371 7.70667 13.28C7.7869 13.3229 7.86713 13.3652 7.94735 13.4081C8.02758 13.451 8.10843 13.4939 8.18927 13.5369C8.27012 13.5798 8.35159 13.6233 8.43306 13.6668C8.51453 13.7104 8.59662 13.7539 8.67934 13.7981C8.76205 13.8422 8.84538 13.8864 8.92934 13.9311C9.0133 13.9759 9.09788 14.0207 9.1837 14.0667C9.26952 14.1121 9.35535 14.1581 9.44304 14.2048C9.5301 14.2514 9.61841 14.2981 9.70797 14.346C9.79752 14.3938 9.8877 14.4417 9.97912 14.4902C10.0705 14.5394 10.1638 14.5885 10.2577 14.6389C10.3516 14.6893 10.4474 14.7396 10.5444 14.7919C10.6414 14.8441 10.7397 14.8957 10.8398 14.9492C10.94 15.0027 11.0413 15.0568 11.1446 15.1115C11.2478 15.1663 11.3529 15.2222 11.4599 15.2794C11.5538 15.3292 11.6396 15.3833 11.7167 15.4399C11.7938 15.4971 11.8629 15.5574 11.9232 15.6215C11.9835 15.6855 12.0358 15.7527 12.0799 15.8236C12.1234 15.8945 12.1601 15.9704 12.1894 16.0518C12.2186 16.1333 12.2404 16.2204 12.2553 16.3124C12.2702 16.4045 12.2771 16.5021 12.2771 16.6047V17.157C12.2771 17.2602 12.2696 17.3498 12.2553 17.4263C12.2404 17.5028 12.2186 17.5662 12.1894 17.6166C12.1601 17.6669 12.1234 17.7042 12.0799 17.7279C12.0358 17.7521 11.9835 17.7633 11.9232 17.7627C11.8629 17.7621 11.7938 17.749 11.7161 17.7235C11.639 17.698 11.5532 17.6601 11.4593 17.6097C11.3554 17.5544 11.2553 17.5009 11.1576 17.448C11.06 17.3958 10.9648 17.3448 10.8716 17.295C10.7789 17.2453 10.6881 17.1968 10.5998 17.1495C10.5115 17.1022 10.4244 17.0562 10.3398 17.0102C10.2552 16.9642 10.1713 16.92 10.0892 16.8765C10.0071 16.8323 9.92626 16.7894 9.84665 16.7465C9.76705 16.7036 9.68744 16.6613 9.60908 16.6196C9.53072 16.578 9.45236 16.5357 9.37463 16.4946C9.29689 16.453 9.21915 16.4113 9.14141 16.3703C9.06367 16.3286 8.98593 16.2869 8.90695 16.2453C8.82859 16.2036 8.74961 16.1613 8.66938 16.1184C8.58916 16.0755 8.50893 16.0326 8.42684 15.9884C8.34475 15.9443 8.26141 15.9001 8.17621 15.8547C8.09101 15.8093 8.00457 15.7633 7.91626 15.7154C7.82795 15.6681 7.73715 15.6196 7.64448 15.5699C7.55182 15.5201 7.45667 15.4691 7.35841 15.4169C7.26077 15.3646 7.16002 15.3105 7.05616 15.2552C7.05616 15.3727 7.05554 15.484 7.05492 15.591C7.05492 15.698 7.0543 15.8 7.05367 15.8989C7.05367 15.9977 7.05305 16.0929 7.05243 16.1856C7.05243 16.2782 7.05181 16.369 7.05119 16.458C7.05056 16.5469 7.05056 16.6352 7.04994 16.7235C7.04994 16.8118 7.04932 16.8995 7.0487 16.9891C7.0487 17.0786 7.04808 17.1688 7.04745 17.2615C7.04745 17.3541 7.04683 17.4493 7.04621 17.5482C7.04621 17.647 7.04559 17.749 7.04497 17.856C7.04435 17.963 7.04434 18.0743 7.04372 18.1918C7.14758 18.2478 7.24833 18.3019 7.34597 18.3541C7.44361 18.407 7.53876 18.458 7.63142 18.5071C7.72409 18.5563 7.81426 18.6054 7.90195 18.6527C7.98964 18.6999 8.07609 18.7459 8.16067 18.7913C8.24524 18.8367 8.32796 18.8809 8.40943 18.9251C8.4909 18.9686 8.57112 19.0121 8.65073 19.055C8.73033 19.0979 8.80931 19.1402 8.88767 19.1819C8.96603 19.2242 9.04377 19.2659 9.12213 19.3075C9.19987 19.3492 9.27823 19.3915 9.35659 19.4331C9.43495 19.4748 9.51393 19.5177 9.59354 19.56C9.67314 19.6029 9.75337 19.6458 9.83484 19.69C9.91631 19.7335 9.99902 19.7783 10.0836 19.8237C10.1682 19.8691 10.254 19.9151 10.3423 19.9624C10.4306 20.0097 10.5208 20.0582 10.6128 20.1079C10.7055 20.1577 10.8007 20.2087 10.8983 20.2609C10.9959 20.3138 11.0967 20.3673 11.2005 20.4232C11.2951 20.4736 11.3809 20.5277 11.458 20.5855C11.5357 20.6428 11.6048 20.7037 11.6651 20.7684C11.7261 20.8324 11.7783 20.9002 11.8224 20.9717C11.8666 21.0426 11.9027 21.1191 11.9319 21.2006C11.9611 21.2821 11.9829 21.3691 11.9978 21.4618C12.0127 21.5538 12.0196 21.6515 12.0196 21.7547C12.0196 21.8654 12.0196 21.9481 12.0196 22.0308C12.0196 22.1136 12.0196 22.1963 12.0196 22.307C12.0196 22.4102 12.0121 22.4998 11.9972 22.5763C11.9823 22.6528 11.9605 22.7162 11.9313 22.7659C11.9021 22.8157 11.8654 22.853 11.8212 22.8766C11.777 22.9003 11.7248 22.9115 11.6639 22.9102C11.6029 22.909 11.5339 22.8953 11.4561 22.8698C11.3784 22.8437 11.2926 22.8051 11.1981 22.7547C11.0942 22.6988 10.9928 22.644 10.8952 22.5912C10.7969 22.5383 10.7018 22.4873 10.6091 22.437C10.5164 22.3866 10.4263 22.3381 10.338 22.2908C10.2496 22.2429 10.1638 22.1969 10.0786 22.1509C9.99404 22.1055 9.91133 22.0607 9.82924 22.0165C9.74715 21.9724 9.66692 21.9289 9.58732 21.8859C9.50771 21.843 9.42873 21.8007 9.35037 21.7578C9.27201 21.7155 9.19365 21.6733 9.11591 21.6316C9.03755 21.5893 8.95981 21.5476 8.88145 21.5053C8.80309 21.463 8.72411 21.4208 8.64451 21.3778C8.5649 21.3349 8.48406 21.2914 8.40259 21.2472C8.32112 21.2031 8.23778 21.1583 8.1532 21.1129C8.06862 21.0675 7.98218 21.0209 7.89387 20.973C7.80556 20.9251 7.71538 20.8766 7.62272 20.8268C7.53005 20.7771 7.4349 20.7255 7.33664 20.6726C7.23838 20.6197 7.13763 20.5656 7.03377 20.509C7.03377 20.6316 7.03315 20.7497 7.03253 20.8635C7.03253 20.978 7.03191 21.088 7.03129 21.1956C7.03066 21.3032 7.03066 21.4071 7.03004 21.5091C7.02942 21.6111 7.02942 21.7099 7.0288 21.8076C7.0288 21.9052 7.02818 22.0004 7.02755 22.0949C7.02755 22.1894 7.02693 22.2821 7.02631 22.3748C7.02631 22.4674 7.02569 22.5588 7.02507 22.6509C7.02507 22.7429 7.02444 22.8344 7.02382 22.927C7.0232 23.0197 7.0232 23.1123 7.02258 23.2069C7.02258 23.3014 7.02196 23.3966 7.02133 23.4942C7.02071 23.5918 7.02071 23.6907 7.02009 23.7927C7.02009 23.8947 7.01947 23.9986 7.01885 24.1061C7.01885 24.2137 7.01823 24.3238 7.0176 24.4382C7.0176 24.5527 7.01698 24.6702 7.01636 24.7927C7.01636 24.8468 7.00454 24.8904 6.98215 24.9246C6.95977 24.9588 6.92556 24.983 6.88078 24.9967C6.83601 25.011 6.77941 25.0154 6.71225 25.0092C6.64508 25.0029 6.5661 24.988 6.47655 24.9619C6.38699 24.9364 6.28562 24.9009 6.17368 24.8549C6.06173 24.8095 5.93797 24.7542 5.80364 24.6889C5.66931 24.6236 5.52316 24.5483 5.36644 24.4631C5.27565 24.414 5.19355 24.3692 5.11706 24.3275C5.04056 24.2859 4.96967 24.2473 4.90064 24.21C4.8316 24.1727 4.76444 24.136 4.69479 24.0987C4.62513 24.0614 4.55486 24.0228 4.47836 23.9811C4.40187 23.9395 4.3204 23.8953 4.22898 23.8456C4.09154 23.7709 3.9628 23.6982 3.84277 23.6267C3.72275 23.5558 3.6108 23.4861 3.50819 23.4183C3.40557 23.3505 3.31105 23.2846 3.22522 23.2206C3.1394 23.1565 3.06228 23.0937 2.99387 23.0334C2.92546 22.973 2.86576 22.9133 2.81414 22.8561C2.76252 22.7989 2.72023 22.7436 2.68603 22.6894C2.65183 22.6353 2.62633 22.5837 2.60954 22.5333C2.59274 22.483 2.58466 22.4345 2.58466 22.3872L2.59026 22.3928Z" fill="#0C0C08"/>
<path d="M15.7014 27.4762C15.6821 27.4439 15.6684 27.3947 15.6603 27.3294C15.6522 27.2641 15.6498 27.182 15.6529 27.0831C15.656 26.96 15.6597 26.8381 15.6628 26.7181C15.6659 26.5981 15.669 26.4793 15.6721 26.3624C15.6752 26.2454 15.6784 26.1298 15.6815 26.016C15.6846 25.9021 15.6877 25.7896 15.6902 25.6783C15.6933 25.5669 15.6958 25.4569 15.6989 25.3487C15.702 25.2404 15.7045 25.1329 15.7076 25.0265C15.7107 24.9202 15.7132 24.8151 15.7157 24.7112C15.7182 24.6073 15.7213 24.5041 15.7238 24.4021C15.7262 24.3001 15.7294 24.1987 15.7318 24.0986C15.7343 23.9985 15.7374 23.899 15.7399 23.8001C15.7424 23.7012 15.7449 23.6036 15.748 23.5066C15.7505 23.4096 15.753 23.3125 15.7555 23.2168C15.758 23.121 15.7605 23.0252 15.7629 22.9307C15.7654 22.8355 15.7679 22.741 15.7704 22.6471C15.7729 22.5532 15.7754 22.4593 15.7779 22.366C15.7804 22.2727 15.7828 22.1794 15.7853 22.0868C15.7878 21.9941 15.7903 21.9008 15.7928 21.8081C15.7953 21.7155 15.7978 21.6228 15.8003 21.5302C15.8027 21.4375 15.8052 21.3448 15.8077 21.2522C15.8102 21.1595 15.8127 21.0668 15.8152 20.9735C15.8177 20.8809 15.8202 20.7876 15.8226 20.6943C15.8251 20.601 15.8276 20.5071 15.8301 20.4132C15.8326 20.3193 15.8351 20.2248 15.8376 20.1296C15.8401 20.0345 15.8425 19.9393 15.845 19.8435C15.8475 19.7478 15.85 19.6508 15.8525 19.5537C15.855 19.4567 15.8575 19.3585 15.86 19.2602C15.8624 19.1613 15.8649 19.0624 15.868 18.9617C15.8711 18.8609 15.8736 18.7602 15.8761 18.6582C15.8786 18.5562 15.8817 18.453 15.8842 18.3491C15.8867 18.2452 15.8898 18.1401 15.8923 18.0338C15.8948 17.9275 15.8979 17.8205 15.901 17.7116C15.9041 17.6028 15.9066 17.4934 15.9097 17.382C15.9128 17.2707 15.9153 17.1582 15.9184 17.0443C15.9215 16.9305 15.9246 16.8149 15.9277 16.6979C15.9309 16.581 15.934 16.4629 15.9371 16.3428C15.9402 16.2228 15.9433 16.1009 15.9464 15.9778C15.9495 15.8795 15.9564 15.7918 15.9682 15.716C15.98 15.6401 15.9962 15.5748 16.0161 15.5213C16.0366 15.4678 16.0633 15.4218 16.0957 15.3826C16.1286 15.3441 16.1678 15.3123 16.2126 15.2881C16.2636 15.2607 16.2891 15.2477 16.3394 15.2203C16.4097 15.183 16.4638 15.1911 16.5018 15.2452C16.521 15.2719 16.5378 15.3123 16.5521 15.3658C16.5671 15.4193 16.5795 15.4859 16.5895 15.5661C16.6031 15.6824 16.6162 15.7943 16.6286 15.9025C16.6411 16.0107 16.6535 16.1146 16.6653 16.216C16.6771 16.3173 16.6883 16.415 16.6995 16.5108C16.7107 16.6065 16.7213 16.6998 16.7325 16.7912C16.7431 16.8827 16.7536 16.9728 16.7642 17.0611C16.7748 17.1501 16.7847 17.2378 16.7953 17.3248C16.8053 17.4125 16.8158 17.4996 16.8258 17.5866C16.8357 17.6743 16.8463 17.762 16.8569 17.8503C16.8674 17.9386 16.878 18.0288 16.8886 18.1202C16.8992 18.2117 16.9104 18.3049 16.9215 18.4007C16.9327 18.4965 16.9439 18.5941 16.9564 18.6955C16.9682 18.7969 16.9806 18.9007 16.9931 19.0089C17.0055 19.1172 17.0186 19.2285 17.0322 19.3448C17.0372 19.3914 17.0428 19.4517 17.049 19.5257C17.0553 19.5998 17.0621 19.6868 17.0696 19.7882C17.077 19.8896 17.0857 20.0034 17.0944 20.1315C17.1019 20.0326 17.1112 19.9343 17.1212 19.8361C17.1311 19.7384 17.1423 19.6414 17.1548 19.545C17.1672 19.4486 17.1803 19.3529 17.1952 19.2577C17.2126 19.1414 17.2288 19.0288 17.2449 18.92C17.2611 18.8112 17.2767 18.7055 17.2922 18.6022C17.3071 18.4996 17.3221 18.3995 17.337 18.3018C17.3513 18.2042 17.3656 18.109 17.3793 18.0151C17.393 17.9212 17.4066 17.8298 17.4203 17.7396C17.434 17.6495 17.4471 17.5599 17.4601 17.4716C17.4732 17.3833 17.4862 17.2956 17.4993 17.2085C17.5124 17.1215 17.5248 17.0344 17.5379 16.9467C17.5509 16.859 17.564 16.772 17.5764 16.6836C17.5895 16.5953 17.6025 16.5064 17.6162 16.4156C17.6293 16.3254 17.643 16.2334 17.6566 16.1401C17.6703 16.0468 17.6846 15.951 17.6989 15.854C17.7132 15.7564 17.7282 15.6563 17.7431 15.5536C17.758 15.451 17.7736 15.3453 17.7897 15.2365C17.8059 15.1276 17.8221 15.0151 17.8395 14.8994C17.8538 14.8061 17.87 14.7246 17.888 14.6537C17.906 14.5828 17.9253 14.5238 17.9464 14.4753C17.9887 14.3789 18.0447 14.3117 18.115 14.2744C18.1728 14.2433 18.2014 14.2284 18.2593 14.1973C18.3501 14.1488 18.4141 14.1575 18.4521 14.2221C18.4713 14.2545 18.485 14.3036 18.4931 14.3689C18.5012 14.4342 18.5043 14.5163 18.5012 14.6139C18.4981 14.7371 18.495 14.8583 18.4925 14.9778C18.49 15.0972 18.4869 15.2153 18.4838 15.3322C18.4807 15.4492 18.4782 15.5636 18.4751 15.6774C18.4726 15.7912 18.4695 15.9031 18.467 16.0138C18.4645 16.1245 18.4614 16.234 18.4589 16.3422C18.4564 16.4504 18.4539 16.5574 18.4508 16.6637C18.4483 16.7695 18.4458 16.8746 18.4434 16.9784C18.4409 17.0823 18.4384 17.1849 18.4359 17.2863C18.4334 17.3883 18.4309 17.489 18.4284 17.5885C18.4259 17.6886 18.4235 17.7875 18.421 17.8858C18.4185 17.984 18.416 18.0817 18.4135 18.1787C18.411 18.2757 18.4085 18.3721 18.4067 18.4673C18.4042 18.563 18.4017 18.6582 18.3998 18.7527C18.398 18.8473 18.3955 18.9418 18.393 19.0351C18.3905 19.129 18.3886 19.2223 18.3861 19.3155C18.3836 19.4088 18.3818 19.5015 18.3793 19.5942C18.3768 19.6868 18.3749 19.7795 18.3725 19.8715C18.37 19.9636 18.3681 20.0562 18.3656 20.1483C18.3631 20.2403 18.3613 20.333 18.3588 20.425C18.3563 20.5177 18.3544 20.6097 18.3519 20.7024C18.3494 20.7951 18.3476 20.8877 18.3451 20.981C18.3426 21.0743 18.3407 21.1676 18.3382 21.2615C18.3358 21.3554 18.3339 21.4493 18.3314 21.5438C18.3289 21.6384 18.3264 21.7335 18.3246 21.8293C18.3221 21.9251 18.3196 22.0215 18.3177 22.1185C18.3159 22.2155 18.3128 22.3131 18.3103 22.4114C18.3078 22.5097 18.3053 22.6092 18.3028 22.7087C18.3003 22.8082 18.2978 22.9095 18.2953 23.0109C18.2929 23.1129 18.2904 23.2155 18.2879 23.3194C18.2854 23.4232 18.2829 23.5277 18.2798 23.6341C18.2767 23.7404 18.2748 23.8474 18.2717 23.9556C18.2692 24.0638 18.2661 24.1733 18.2636 24.2846C18.2611 24.3953 18.258 24.5078 18.2555 24.6216C18.2524 24.7355 18.2499 24.8505 18.2468 24.9668C18.2437 25.0831 18.2412 25.2013 18.2381 25.3213C18.235 25.4413 18.2319 25.5626 18.2288 25.6851C18.2263 25.7834 18.2188 25.8704 18.2064 25.9469C18.1946 26.0234 18.1778 26.0881 18.1567 26.1428C18.1355 26.1969 18.1081 26.2442 18.0746 26.2834C18.041 26.3232 18.0018 26.3549 17.9558 26.3798C17.8955 26.4121 17.8656 26.4289 17.8053 26.4612C17.717 26.5091 17.6535 26.501 17.615 26.4364C17.5957 26.404 17.582 26.3555 17.5739 26.2902C17.5658 26.2249 17.5627 26.1428 17.5658 26.0446C17.569 25.9245 17.5721 25.8076 17.5745 25.6938C17.577 25.58 17.5801 25.4681 17.5833 25.3592C17.5857 25.2504 17.5889 25.1434 17.5913 25.0389C17.5938 24.9345 17.5963 24.8319 17.5988 24.7311C17.6013 24.6304 17.6038 24.5315 17.6063 24.4345C17.6088 24.3368 17.6112 24.241 17.6137 24.1465C17.6162 24.052 17.6187 23.9587 17.6206 23.866C17.6224 23.7734 17.6249 23.6819 17.6274 23.5905C17.6299 23.4997 17.6318 23.4089 17.6343 23.3188C17.6367 23.2286 17.6386 23.139 17.6411 23.0488C17.6436 22.9587 17.6454 22.8691 17.6479 22.7789C17.6504 22.6888 17.6523 22.5986 17.6548 22.5072C17.6573 22.4164 17.6591 22.3243 17.6616 22.2317C17.6641 22.139 17.666 22.0457 17.6685 21.9512C17.6709 21.8567 17.6734 21.7609 17.6759 21.6632C17.6784 21.5662 17.6809 21.4673 17.6834 21.3666C17.6859 21.2658 17.6884 21.1632 17.6908 21.0587C17.6933 20.9543 17.6958 20.8473 17.6989 20.7385C17.7014 20.6296 17.7045 20.5183 17.707 20.4039C17.7101 20.2901 17.7126 20.1732 17.7157 20.0531C17.7176 19.9835 17.7207 19.9113 17.7238 19.8361C17.7269 19.7608 17.7313 19.6831 17.7356 19.6022C17.74 19.5214 17.7456 19.4381 17.7512 19.3516C17.7574 19.2652 17.7636 19.1756 17.7711 19.0836C17.7642 19.0805 17.7605 19.0792 17.7537 19.0761C17.7412 19.1818 17.7282 19.2838 17.7157 19.3833C17.7027 19.4828 17.6896 19.5786 17.6765 19.6719C17.6635 19.7652 17.6498 19.8554 17.6361 19.9418C17.6187 20.0556 17.6025 20.1632 17.587 20.2664C17.5714 20.3691 17.5565 20.4673 17.5422 20.5612C17.5279 20.6558 17.5142 20.7465 17.5005 20.8349C17.4869 20.9238 17.4738 21.0102 17.4607 21.0961C17.4477 21.1819 17.4346 21.2671 17.4216 21.3529C17.4085 21.4387 17.3954 21.5252 17.3818 21.6141C17.3681 21.703 17.3544 21.7938 17.3401 21.8884C17.3258 21.9829 17.3109 22.0805 17.2953 22.1838C17.2798 22.2864 17.2636 22.3946 17.2462 22.5084C17.2331 22.5899 17.2201 22.6602 17.207 22.7199C17.1939 22.7796 17.1809 22.8287 17.1672 22.8672C17.1405 22.9444 17.1056 22.9947 17.0615 23.0184C17.0316 23.0345 17.0167 23.0426 16.9868 23.0588C16.9396 23.0843 16.9035 23.0719 16.8786 23.0227C16.8538 22.9736 16.8339 22.8791 16.8189 22.7385C16.8059 22.6278 16.7934 22.524 16.7816 22.4251C16.7698 22.3262 16.7592 22.2329 16.748 22.1427C16.7375 22.0526 16.7269 21.9661 16.7169 21.8809C16.707 21.7957 16.697 21.713 16.6871 21.6297C16.6771 21.5463 16.6672 21.463 16.6572 21.3784C16.6473 21.2932 16.6367 21.2068 16.6261 21.1166C16.6156 21.0264 16.6044 20.9331 16.5926 20.8342C16.5807 20.7354 16.5689 20.6315 16.5559 20.5208C16.5503 20.4667 16.5434 20.4026 16.536 20.328C16.5285 20.2534 16.521 20.1682 16.5123 20.073C16.5036 19.9779 16.4949 19.8715 16.485 19.7552C16.4781 19.7658 16.4744 19.7708 16.4676 19.7814C16.4688 19.8373 16.47 19.9113 16.4707 20.0021C16.4713 20.0929 16.4719 20.2011 16.4719 20.3261C16.4719 20.412 16.4719 20.4872 16.4707 20.5531C16.47 20.6191 16.4688 20.675 16.4676 20.7217C16.4644 20.8417 16.4613 20.9586 16.4582 21.0731C16.4551 21.1875 16.4526 21.2988 16.4495 21.4083C16.4464 21.5177 16.4439 21.6241 16.4414 21.7292C16.4389 21.8343 16.4358 21.9363 16.4334 22.037C16.4309 22.1378 16.4284 22.2366 16.4259 22.3343C16.4234 22.4319 16.4209 22.5277 16.4184 22.6228C16.4159 22.7174 16.4135 22.8113 16.411 22.9039C16.4085 22.9966 16.406 23.0886 16.4041 23.1794C16.4016 23.2709 16.3991 23.361 16.3973 23.4518C16.3948 23.542 16.3929 23.6322 16.3904 23.7224C16.388 23.8125 16.3861 23.9021 16.3836 23.9929C16.3811 24.0831 16.3786 24.1739 16.3768 24.2653C16.3749 24.3567 16.3718 24.4481 16.3699 24.5408C16.3674 24.6335 16.3649 24.7274 16.3625 24.8219C16.36 24.9164 16.3575 25.0128 16.355 25.1105C16.3525 25.2081 16.35 25.307 16.3475 25.4077C16.345 25.5085 16.3426 25.6111 16.3394 25.7156C16.3363 25.8201 16.3338 25.927 16.3314 26.0365C16.3289 26.1459 16.3258 26.2573 16.3227 26.3717C16.3195 26.4861 16.3164 26.603 16.3133 26.7231C16.3102 26.8213 16.3028 26.909 16.2909 26.9855C16.2791 27.062 16.2623 27.1273 16.2406 27.1814C16.2194 27.2355 16.1921 27.2828 16.1585 27.3226C16.1249 27.3624 16.0851 27.3941 16.0397 27.419C15.9794 27.4513 15.9495 27.4681 15.8892 27.5004C15.8009 27.5483 15.7374 27.5402 15.6989 27.4749L15.7014 27.4762Z" fill="#0C0C08"/>
<path d="M18.7443 25.7566C18.7332 25.7087 18.7257 25.6422 18.7213 25.5582C18.717 25.4737 18.7164 25.371 18.7189 25.2504C18.722 25.1279 18.7251 25.0072 18.7282 24.8878C18.7313 24.7684 18.7338 24.6509 18.7369 24.5352C18.74 24.4195 18.7425 24.3051 18.7456 24.1919C18.7487 24.0787 18.7512 23.9674 18.7537 23.8573C18.7562 23.7473 18.7593 23.6384 18.7618 23.5308C18.7642 23.4232 18.7674 23.3169 18.7698 23.2118C18.7723 23.1067 18.7748 23.0028 18.7773 22.8996C18.7798 22.7964 18.7823 22.695 18.7848 22.5936C18.7873 22.4929 18.7897 22.3927 18.7922 22.2932C18.7947 22.1937 18.7972 22.0961 18.7997 21.9985C18.8022 21.9008 18.8047 21.8044 18.8072 21.708C18.8096 21.6116 18.8121 21.5165 18.814 21.4213C18.8165 21.3262 18.819 21.2323 18.8208 21.1384C18.8233 21.0445 18.8252 20.9512 18.8277 20.8579C18.8302 20.7646 18.832 20.6719 18.8345 20.5793C18.837 20.4866 18.8389 20.3946 18.8414 20.3025C18.8439 20.2105 18.8457 20.1184 18.8482 20.0264C18.8507 19.9343 18.8526 19.8423 18.855 19.7509C18.8575 19.6588 18.8594 19.5668 18.8619 19.4748C18.8644 19.3827 18.8662 19.2901 18.8687 19.198C18.8712 19.1054 18.8731 19.0127 18.8756 18.9194C18.8781 18.8261 18.8799 18.7328 18.8824 18.6389C18.8849 18.545 18.8868 18.4505 18.8893 18.356C18.8917 18.2608 18.8942 18.1656 18.8961 18.0693C18.8986 17.9729 18.9011 17.8765 18.9036 17.7788C18.906 17.6812 18.9085 17.5829 18.911 17.484C18.9135 17.3852 18.916 17.285 18.9185 17.1843C18.921 17.0835 18.9235 16.9815 18.9259 16.8783C18.9284 16.7751 18.9309 16.6712 18.9334 16.5661C18.9359 16.461 18.9384 16.3547 18.9415 16.2471C18.944 16.1395 18.9471 16.0306 18.9496 15.9206C18.9521 15.8105 18.9552 15.6992 18.9577 15.586C18.9601 15.4728 18.9633 15.359 18.9664 15.2427C18.9695 15.127 18.972 15.0095 18.9751 14.8901C18.9782 14.7707 18.9807 14.65 18.9838 14.5275C18.9863 14.4069 18.9919 14.3005 19.0006 14.2097C19.0093 14.1189 19.0205 14.0418 19.0354 13.9802C19.064 13.8571 19.1063 13.7806 19.1623 13.7507C19.2655 13.6954 19.3588 13.6463 19.4459 13.5996C19.5329 13.5536 19.6132 13.5101 19.6921 13.4684C19.7705 13.4267 19.847 13.3857 19.926 13.344C20.0043 13.3023 20.0852 13.2594 20.1722 13.2128C20.2593 13.1668 20.352 13.117 20.4558 13.0617C20.4925 13.0424 20.5199 13.0785 20.5385 13.1711C20.5572 13.2638 20.5672 13.4118 20.5678 13.6158C20.5665 13.7122 20.5659 13.7601 20.564 13.8565C20.5616 13.9634 20.5603 14.0437 20.5584 14.1233C20.5566 14.2035 20.5553 14.2837 20.5529 14.3901C20.5504 14.5331 20.5454 14.6606 20.5379 14.7707C20.5305 14.8807 20.5205 14.9753 20.5081 15.053C20.4956 15.1308 20.4807 15.1917 20.4627 15.2371C20.4453 15.2819 20.4247 15.3105 20.4023 15.3229C20.2991 15.3783 20.2133 15.4237 20.1337 15.4666C20.0535 15.5095 19.9795 15.5493 19.8992 15.5922C19.819 15.6351 19.7332 15.6811 19.6306 15.7359C19.6281 15.8472 19.6256 15.9523 19.6231 16.0524C19.6206 16.1525 19.6187 16.2483 19.6163 16.3404C19.6138 16.4324 19.6119 16.5207 19.61 16.6078C19.6082 16.6942 19.6063 16.7788 19.6038 16.8628C19.602 16.9467 19.6001 17.0294 19.5982 17.1134C19.5964 17.1973 19.5945 17.2819 19.592 17.3684C19.5901 17.4548 19.5877 17.5437 19.5858 17.6358C19.5839 17.7278 19.5814 17.8236 19.5789 17.9237C19.5765 18.0239 19.574 18.129 19.5715 18.2403C19.6629 18.1911 19.7394 18.1501 19.8103 18.1122C19.8812 18.0742 19.9477 18.0388 20.0186 18.0002C20.0895 17.9623 20.166 17.9212 20.2574 17.8721C20.2941 17.8522 20.3215 17.8889 20.3402 17.9809C20.3588 18.073 20.3688 18.221 20.3694 18.4256C20.3681 18.522 20.3675 18.5699 20.3657 18.6663C20.3632 18.7733 20.3619 18.8535 20.3601 18.9337C20.3582 19.0139 20.3563 19.0942 20.3545 19.2011C20.352 19.3448 20.347 19.4717 20.3395 19.5824C20.3321 19.6931 20.3221 19.787 20.3091 19.8647C20.2966 19.9424 20.2811 20.004 20.2637 20.0488C20.2463 20.0936 20.2257 20.1222 20.2027 20.1346C20.1113 20.1837 20.0348 20.2254 19.9633 20.2633C19.8918 20.3019 19.8258 20.3373 19.7549 20.3759C19.6834 20.4145 19.6076 20.4555 19.5155 20.5046C19.513 20.6166 19.5105 20.7229 19.508 20.8249C19.5056 20.9269 19.5031 21.0239 19.5012 21.1185C19.4987 21.2124 19.4969 21.3032 19.4944 21.3915C19.4925 21.4798 19.49 21.5662 19.4881 21.6514C19.4863 21.7366 19.4838 21.8206 19.4819 21.9045C19.4801 21.9885 19.4782 22.0725 19.4757 22.1577C19.4732 22.2429 19.4714 22.3287 19.4695 22.4176C19.4676 22.5059 19.4651 22.5967 19.4627 22.6906C19.4602 22.7845 19.4583 22.8822 19.4558 22.9842C19.4533 23.0862 19.4508 23.1925 19.4483 23.3045C19.5522 23.2479 19.6393 23.2012 19.7201 23.1571C19.801 23.1135 19.8762 23.0725 19.9571 23.029C20.0379 22.9854 20.125 22.9382 20.2288 22.8816C20.2668 22.861 20.2948 22.8946 20.3109 22.9817C20.319 23.0258 20.3252 23.0837 20.3296 23.1571C20.3339 23.2298 20.3364 23.3175 20.3364 23.4195C20.3352 23.5227 20.3346 23.5737 20.3327 23.677C20.3302 23.7839 20.329 23.8642 20.3271 23.9444C20.3252 24.0246 20.324 24.1048 20.3215 24.2118C20.319 24.3555 20.314 24.4823 20.3066 24.5924C20.2991 24.7031 20.2892 24.797 20.2773 24.8748C20.2649 24.9525 20.2506 25.0135 20.2332 25.0582C20.2158 25.103 20.1965 25.1316 20.1741 25.1434C20.0696 25.2 19.9751 25.2516 19.8874 25.2989C19.7997 25.3468 19.7176 25.391 19.638 25.4339C19.5584 25.4768 19.4813 25.5191 19.4017 25.562C19.3221 25.6049 19.2406 25.6497 19.1523 25.6969C19.0646 25.7448 18.9701 25.7958 18.8656 25.8524C18.8065 25.8841 18.7661 25.8524 18.7437 25.7566H18.7443Z" fill="#0C0C08"/>
<path d="M21.0435 23.6484C21.0267 23.5874 21.0112 23.5221 20.9963 23.4531C20.9813 23.3841 20.967 23.3119 20.9534 23.2354C20.9397 23.1589 20.9266 23.0787 20.9148 22.9948C20.9024 22.9108 20.8912 22.8231 20.8806 22.7317C20.87 22.6403 20.8601 22.5451 20.8507 22.4462C20.8414 22.3474 20.8327 22.2447 20.8252 22.1378C20.8178 22.0314 20.8103 21.9207 20.8041 21.8069C20.7979 21.6931 20.7923 21.5749 20.7873 21.4531C20.7823 21.3312 20.778 21.2062 20.7749 21.0768C20.7711 20.9474 20.7687 20.815 20.7668 20.6782C20.7649 20.5413 20.7637 20.4008 20.7631 20.2565C20.7631 20.1334 20.7624 20.0121 20.7631 19.8915C20.7637 19.7708 20.7637 19.652 20.7643 19.5339C20.7649 19.4157 20.7662 19.2994 20.7674 19.1837C20.7686 19.068 20.7705 18.9542 20.7724 18.8411C20.7742 18.7279 20.7767 18.6159 20.7792 18.5058C20.7817 18.3951 20.7848 18.2857 20.7886 18.1775C20.7917 18.0693 20.7954 17.9623 20.7997 17.8566C20.8035 17.7509 20.8078 17.6464 20.8128 17.5431C20.8172 17.4399 20.8221 17.3379 20.8277 17.2372C20.8333 17.1364 20.8383 17.0369 20.8445 16.9386C20.8501 16.8404 20.8563 16.7434 20.8632 16.6476C20.8694 16.5518 20.8762 16.4573 20.8837 16.364C20.8905 16.2707 20.898 16.1787 20.9061 16.0879C20.9136 15.9971 20.9216 15.9075 20.9303 15.8192C20.9384 15.7309 20.9471 15.6438 20.9565 15.558C20.9652 15.4722 20.9745 15.3876 20.9845 15.3037C20.9938 15.2203 21.0037 15.1382 21.0143 15.0568C21.0243 14.9759 21.0348 14.8963 21.046 14.8173C21.0566 14.739 21.0678 14.6612 21.0796 14.5854C21.1014 14.4411 21.1244 14.3024 21.1493 14.1699C21.1735 14.0375 21.1996 13.9106 21.2264 13.7899C21.2537 13.6693 21.2817 13.5542 21.3116 13.4454C21.3414 13.3366 21.3725 13.234 21.4049 13.1369C21.4372 13.0399 21.4708 12.9491 21.5056 12.8639C21.5404 12.7787 21.5771 12.6997 21.6144 12.6263C21.6518 12.553 21.6909 12.4858 21.7314 12.4249C21.7718 12.3633 21.8135 12.3079 21.8564 12.2588C21.8993 12.2097 21.9434 12.1661 21.9888 12.1282C22.0342 12.0909 22.0815 12.0592 22.1294 12.0337C22.1934 11.9995 22.2562 11.9802 22.3178 11.9758C22.3794 11.9715 22.4397 11.9821 22.4982 12.0076C22.5566 12.0331 22.6101 12.0697 22.6574 12.1183C22.7046 12.1668 22.7469 12.2265 22.783 12.2974C22.8191 12.3689 22.8464 12.4466 22.8651 12.53C22.8838 12.6133 22.8931 12.7035 22.8937 12.7999C22.8937 12.8676 22.89 12.9528 22.8806 13.0555C22.8719 13.1581 22.8583 13.2781 22.8396 13.4155C22.8272 13.507 22.8147 13.5959 22.801 13.6817C22.7874 13.7675 22.7731 13.8509 22.7581 13.9311C22.7432 14.0113 22.7277 14.0891 22.7115 14.1637C22.6872 14.2763 22.6642 14.3627 22.6437 14.4237C22.6232 14.4846 22.6033 14.5194 22.5859 14.5288C22.574 14.535 22.5442 14.5089 22.4951 14.4498C22.4466 14.3907 22.3918 14.3459 22.3315 14.3161C22.2712 14.2862 22.1984 14.2937 22.1138 14.3391C22.074 14.3602 22.0361 14.3944 22 14.4404C21.964 14.4865 21.9297 14.5449 21.898 14.6158C21.8663 14.6867 21.8358 14.7694 21.8079 14.8652C21.7799 14.9604 21.7537 15.0686 21.7295 15.1886C21.7052 15.3086 21.6835 15.4411 21.6629 15.586C21.643 15.7309 21.625 15.8876 21.6088 16.0574C21.6008 16.142 21.5933 16.2284 21.5858 16.3161C21.5784 16.4038 21.5715 16.4934 21.5647 16.5835C21.5578 16.6737 21.5516 16.7664 21.546 16.8603C21.5398 16.9542 21.5348 17.0493 21.5292 17.1464C21.5243 17.2434 21.5193 17.3416 21.5149 17.4411C21.5106 17.5406 21.5062 17.642 21.5025 17.7446C21.4988 17.8472 21.495 17.9517 21.4919 18.0575C21.4888 18.1632 21.4863 18.2708 21.4838 18.379C21.4814 18.4878 21.4795 18.5979 21.4776 18.7098C21.4758 18.8218 21.4745 18.935 21.4739 19.0494C21.4733 19.1644 21.4726 19.2807 21.472 19.3983C21.4714 19.5158 21.472 19.6352 21.472 19.7559C21.472 19.8852 21.4739 20.009 21.4758 20.1272C21.4776 20.2453 21.4801 20.3573 21.4838 20.4636C21.487 20.57 21.4913 20.6707 21.4963 20.7652C21.5013 20.8598 21.5062 20.9493 21.5124 21.0326C21.5187 21.116 21.5255 21.1937 21.533 21.2652C21.5404 21.3368 21.5485 21.4033 21.5578 21.463C21.5666 21.5233 21.5765 21.5781 21.5865 21.6266C21.6225 21.797 21.6667 21.9158 21.7183 21.9829C21.7699 22.0501 21.8302 22.065 21.8974 22.0283C21.9683 21.9904 22.028 21.935 22.0778 21.8623C22.0802 21.7503 22.0827 21.6452 22.0846 21.5445C22.0865 21.4437 22.089 21.348 22.0908 21.2553C22.0927 21.1626 22.0946 21.0737 22.0964 20.9872C22.0983 20.9002 22.1002 20.8156 22.102 20.7316C22.1039 20.6477 22.1057 20.5644 22.1076 20.4798C22.1095 20.3958 22.1113 20.3106 22.1132 20.2242C22.1151 20.1371 22.1169 20.0482 22.1188 19.9561C22.1207 19.8641 22.1232 19.7677 22.125 19.6669C22.1269 19.5662 22.1294 19.4605 22.1319 19.3491C22.0423 19.3977 21.9969 19.4219 21.9074 19.4704C21.8719 19.4897 21.8452 19.4567 21.8271 19.3734C21.8091 19.2894 21.7998 19.1539 21.7985 18.9673C21.7985 18.8429 21.7985 18.7459 21.8016 18.6762C21.8035 18.5662 21.8054 18.4835 21.8072 18.4007C21.8091 18.318 21.8103 18.2353 21.8128 18.1252C21.8153 18.0257 21.8184 17.9343 21.8228 17.851C21.8271 17.7683 21.8321 17.6936 21.8377 17.6271C21.8433 17.5612 21.8501 17.5027 21.8582 17.4536C21.8812 17.3049 21.9142 17.2191 21.9584 17.1955C22.0554 17.1432 22.1356 17.1003 22.2109 17.0599C22.2861 17.0195 22.3558 16.9822 22.431 16.9418C22.5063 16.9013 22.5871 16.8578 22.6835 16.8062C22.7388 16.7763 22.7793 16.8087 22.8029 16.9032C22.8147 16.9505 22.8234 17.0164 22.8284 17.1003C22.8334 17.1843 22.8346 17.2863 22.8321 17.4063C22.8296 17.527 22.8272 17.6439 22.8247 17.7577C22.8222 17.8715 22.8197 17.9822 22.8178 18.0904C22.8153 18.1986 22.8135 18.3037 22.811 18.407C22.8085 18.5102 22.8066 18.6109 22.8048 18.7098C22.8029 18.8087 22.8004 18.9057 22.7985 19.0015C22.7967 19.0973 22.7942 19.1912 22.7923 19.2845C22.7905 19.3778 22.7886 19.4698 22.7861 19.5612C22.7842 19.6526 22.7824 19.7434 22.7805 19.8342C22.7786 19.925 22.7768 20.0152 22.7749 20.106C22.7731 20.1968 22.7712 20.2876 22.7693 20.379C22.7675 20.4704 22.7656 20.5625 22.7631 20.6558C22.7612 20.7491 22.7594 20.843 22.7569 20.9387C22.755 21.0345 22.7525 21.1315 22.7507 21.2304C22.7488 21.3293 22.7463 21.43 22.7444 21.5333C22.7426 21.6365 22.7401 21.7416 22.7376 21.8498C22.7351 21.958 22.7326 22.0687 22.7301 22.1826C22.7277 22.2964 22.7252 22.4139 22.7227 22.5346C22.7214 22.6222 22.7146 22.7099 22.7034 22.7976C22.6916 22.8853 22.6754 22.9724 22.6536 23.0601C22.6319 23.1471 22.6058 23.2342 22.574 23.3213C22.5423 23.4083 22.5087 23.4917 22.4727 23.57C22.4366 23.649 22.398 23.7236 22.357 23.7945C22.316 23.8654 22.273 23.932 22.2276 23.9942C22.1592 24.0881 22.0933 24.1664 22.0286 24.2299C21.9646 24.2933 21.9018 24.3412 21.8414 24.3741C21.7712 24.4121 21.7046 24.4332 21.6412 24.4363C21.5777 24.4394 21.518 24.4264 21.4615 24.3953C21.4049 24.3642 21.3514 24.3157 21.3016 24.2504C21.2519 24.1851 21.2052 24.1018 21.1623 24.0016C21.1194 23.9015 21.0796 23.784 21.0435 23.649V23.6484Z" fill="#0C0C08"/>
<path d="M22.9261 23.3082C22.9261 23.274 22.9298 23.2099 22.9385 23.1148C22.9466 23.0196 22.954 22.9307 22.959 22.8486C22.969 22.7279 22.9789 22.6085 22.9882 22.491C22.9982 22.3734 23.0075 22.2572 23.0168 22.1427C23.0262 22.0283 23.0355 21.9151 23.0448 21.8032C23.0542 21.6912 23.0629 21.5811 23.0722 21.4717C23.0809 21.3629 23.0902 21.2546 23.0989 21.1483C23.1076 21.0419 23.1164 20.9362 23.1251 20.8317C23.1338 20.7273 23.1419 20.624 23.1506 20.522C23.1586 20.42 23.1674 20.3187 23.1754 20.2185C23.1835 20.1184 23.1916 20.0189 23.1997 19.92C23.2078 19.8218 23.2159 19.7235 23.2239 19.6271C23.232 19.5301 23.2395 19.4337 23.2476 19.3385C23.2557 19.2434 23.2631 19.1482 23.2706 19.0537C23.278 18.9592 23.2861 18.8659 23.2936 18.7726C23.3011 18.6793 23.3085 18.5867 23.3166 18.4946C23.3241 18.4026 23.3315 18.3105 23.339 18.2185C23.3465 18.1271 23.3539 18.0357 23.3614 17.9442C23.3688 17.8534 23.3763 17.762 23.3838 17.6718C23.3912 17.581 23.3987 17.4902 23.4062 17.4001C23.4136 17.3093 23.4211 17.2191 23.4286 17.1283C23.436 17.0375 23.4435 16.9473 23.4509 16.8565C23.4584 16.7657 23.4659 16.6749 23.4733 16.5841C23.4808 16.4933 23.4883 16.4019 23.4957 16.3105C23.5032 16.2191 23.5106 16.127 23.5181 16.035C23.5256 15.9429 23.533 15.8503 23.5405 15.757C23.548 15.6637 23.5554 15.5704 23.5635 15.4759C23.571 15.382 23.5791 15.2868 23.5865 15.1917C23.594 15.0965 23.6021 15.0001 23.6101 14.9031C23.6182 14.8061 23.6257 14.7085 23.6338 14.6102C23.6419 14.5119 23.6499 14.4124 23.658 14.3123C23.6661 14.2122 23.6742 14.1108 23.6829 14.0088C23.691 13.9068 23.6997 13.8036 23.7078 13.6991C23.7159 13.5946 23.7246 13.4895 23.7333 13.3832C23.742 13.2768 23.7507 13.1692 23.7594 13.0598C23.7681 12.9503 23.7774 12.8409 23.7861 12.7289C23.7949 12.617 23.8042 12.5044 23.8135 12.39C23.8228 12.2756 23.8322 12.1599 23.8415 12.0424C23.8508 11.9248 23.8608 11.806 23.8701 11.6854C23.8794 11.5747 23.8956 11.4783 23.9192 11.3949C23.9429 11.3116 23.974 11.2426 24.0119 11.1872C24.0498 11.1319 24.0952 11.0902 24.1481 11.0616C24.2464 11.0094 24.2955 10.9832 24.3931 10.931C24.4734 10.8881 24.5355 10.8949 24.5791 10.9509C24.6226 11.0069 24.6481 11.112 24.6549 11.2668C24.6605 11.3906 24.6661 11.5131 24.6717 11.6338C24.6773 11.7544 24.6829 11.8732 24.6879 11.9901C24.6935 12.107 24.6985 12.2227 24.7035 12.3371C24.7084 12.4509 24.714 12.5635 24.719 12.6748C24.724 12.7862 24.729 12.8956 24.7339 13.0044C24.7389 13.1127 24.7439 13.2202 24.7489 13.326C24.7538 13.4317 24.7582 13.5368 24.7632 13.6406C24.7681 13.7445 24.7725 13.8471 24.7775 13.9485C24.7818 14.0499 24.7868 14.1506 24.7911 14.2507C24.7955 14.3509 24.8005 14.4497 24.8048 14.548C24.8092 14.6463 24.8135 14.7439 24.8185 14.8409C24.8229 14.9379 24.8272 15.0337 24.8316 15.1295C24.8359 15.2253 24.8403 15.3204 24.8446 15.4149C24.849 15.5095 24.8533 15.604 24.8577 15.6979C24.862 15.7918 24.8664 15.8857 24.8708 15.979C24.8751 16.0723 24.8795 16.1656 24.8838 16.2589C24.8882 16.3522 24.8925 16.4448 24.8969 16.5381C24.9012 16.6314 24.9056 16.7241 24.9099 16.8173C24.9143 16.9106 24.9186 17.0039 24.923 17.0972C24.9273 17.1905 24.9317 17.2844 24.936 17.3783C24.9404 17.4722 24.9448 17.5667 24.9491 17.6613C24.9535 17.7558 24.9578 17.851 24.9622 17.9467C24.9665 18.0425 24.9709 18.1383 24.9752 18.2353C24.9796 18.3323 24.9839 18.4293 24.9889 18.5276C24.9933 18.6258 24.9982 18.7247 25.0026 18.8249C25.0069 18.925 25.0119 19.0251 25.0163 19.1271C25.0206 19.2291 25.0256 19.3311 25.0306 19.4349C25.0356 19.5388 25.0399 19.6433 25.0449 19.749C25.0499 19.8547 25.0548 19.9623 25.0598 20.0705C25.0648 20.1787 25.0698 20.2888 25.0747 20.3995C25.0797 20.5108 25.0853 20.6228 25.0903 20.7372C25.0953 20.851 25.1009 20.9667 25.1065 21.0836C25.1121 21.2005 25.1176 21.3193 25.1226 21.44C25.1282 21.5606 25.1338 21.6825 25.1394 21.8063C25.1425 21.8386 25.1444 21.8946 25.145 21.9729C25.145 22.0295 25.1444 22.0749 25.1413 22.1104C25.1394 22.236 25.122 22.3386 25.089 22.4188C25.0561 22.4991 25.0082 22.5563 24.9448 22.5905C24.8583 22.6378 24.8148 22.6608 24.7283 22.708C24.6593 22.7453 24.6052 22.7447 24.5673 22.7062C24.5293 22.6676 24.5069 22.5905 24.5001 22.4748C24.4957 22.3585 24.492 22.2509 24.4889 22.1489C24.4858 22.0469 24.4821 21.9512 24.4789 21.8585C24.4758 21.7658 24.4727 21.6769 24.4696 21.5892C24.4665 21.5015 24.4634 21.4151 24.4603 21.3274C24.4572 21.2397 24.4541 21.1508 24.451 21.0581C24.4479 20.9655 24.4441 20.8697 24.441 20.7677C24.4373 20.6657 24.4336 20.5575 24.4298 20.4418C24.3378 20.4916 24.2613 20.5326 24.1904 20.5712C24.1189 20.6097 24.0529 20.6458 23.9814 20.6844C23.9099 20.7229 23.8334 20.7646 23.742 20.8137C23.7327 20.9375 23.724 21.0519 23.7159 21.1607C23.7078 21.2696 23.6997 21.3716 23.6922 21.4698C23.6848 21.5681 23.6773 21.6626 23.6705 21.7559C23.6636 21.8492 23.6562 21.9412 23.6493 22.0345C23.6425 22.1278 23.635 22.2223 23.6276 22.3206C23.6201 22.4188 23.612 22.5208 23.6039 22.6297C23.5958 22.7379 23.5871 22.8529 23.5778 22.9767C23.571 23.0992 23.5498 23.2 23.5144 23.2789C23.4789 23.3579 23.4286 23.4151 23.3633 23.45C23.2712 23.4997 23.2252 23.5246 23.1331 23.575C23.0654 23.6117 23.0144 23.6086 22.9802 23.5644C22.946 23.5209 22.9285 23.4363 22.9279 23.3119L22.9261 23.3082ZM24.3794 18.392C24.3757 18.2738 24.372 18.1613 24.3682 18.0518C24.3645 17.943 24.3614 17.8379 24.3577 17.7365C24.3539 17.6352 24.3515 17.5369 24.3477 17.4411C24.3446 17.3453 24.3415 17.2521 24.3384 17.16C24.3353 17.068 24.3322 16.9784 24.3297 16.8889C24.3266 16.7993 24.3241 16.711 24.321 16.6227C24.3179 16.5344 24.3154 16.4454 24.3123 16.3565C24.3092 16.2676 24.3067 16.1774 24.3036 16.0854C24.3005 15.9933 24.2974 15.9 24.2942 15.8043C24.2911 15.7085 24.288 15.6102 24.2843 15.5082C24.2812 15.4069 24.2775 15.3018 24.2737 15.1929C24.27 15.0841 24.2663 14.9709 24.2625 14.8527C24.2594 14.7414 24.2569 14.6351 24.2538 14.5337C24.2513 14.433 24.2488 14.3372 24.247 14.2464C24.2451 14.1562 24.2432 14.071 24.242 13.9908C24.2408 13.9112 24.2395 13.8365 24.2383 13.7669C24.2376 13.6979 24.2364 13.6338 24.2364 13.5747C24.2277 13.5797 24.2233 13.5816 24.2146 13.5865C24.2078 13.7128 24.2016 13.831 24.1954 13.9423C24.1891 14.0536 24.1829 14.1575 24.1773 14.2532C24.1717 14.3496 24.1661 14.4386 24.1612 14.52C24.1562 14.6015 24.1512 14.6755 24.1469 14.742C24.1425 14.8086 24.1381 14.8677 24.1344 14.9199C24.1257 15.035 24.1176 15.1463 24.1102 15.2533C24.1021 15.3602 24.0946 15.4641 24.0871 15.5642C24.0797 15.6643 24.0728 15.762 24.0654 15.8565C24.0585 15.9517 24.0517 16.0437 24.0449 16.1345C24.038 16.2253 24.0318 16.3142 24.025 16.4025C24.0181 16.4908 24.0119 16.5779 24.0057 16.6644C23.9995 16.7508 23.9926 16.8372 23.9864 16.9243C23.9802 17.0108 23.9733 17.0978 23.9671 17.1861C23.9609 17.2744 23.9541 17.3634 23.9472 17.4542C23.9404 17.545 23.9335 17.6376 23.9267 17.7328C23.9199 17.8279 23.9124 17.925 23.9049 18.0257C23.8975 18.1258 23.89 18.2297 23.8819 18.3367C23.8738 18.4436 23.8657 18.5549 23.857 18.6706C23.9609 18.6147 24.0393 18.5724 24.117 18.5307C24.1947 18.489 24.2731 18.4467 24.377 18.3908L24.3794 18.392Z" fill="#0C0C08"/>
</svg>
