<svg width="28" height="32" viewBox="0 0 28 32" fill="none" xmlns="http://www.w3.org/2000/svg">
<path d="M26.806 8.0753C26.806 8.01622 26.7979 7.959 26.7824 7.90428C26.7787 7.88997 26.7743 7.87629 26.7693 7.86385C26.7644 7.85017 26.7594 7.83649 26.7538 7.82405C26.7482 7.81099 26.742 7.79793 26.7357 7.78549C26.7295 7.77305 26.7221 7.76061 26.7152 7.74818C26.7084 7.73698 26.7009 7.72579 26.6935 7.71459C26.6798 7.69407 26.6648 7.67479 26.6474 7.65551C26.6418 7.64805 26.635 7.64059 26.6282 7.63437C26.625 7.63064 26.6226 7.62815 26.6194 7.62504C26.6138 7.61944 26.6089 7.61385 26.6027 7.60887C26.5946 7.60141 26.5859 7.59332 26.5765 7.58648C26.566 7.57778 26.5554 7.56907 26.5442 7.56036C26.543 7.56036 26.5423 7.55912 26.5417 7.55912C26.533 7.5529 26.5243 7.54606 26.515 7.54108C26.4994 7.53113 26.4845 7.5218 26.4683 7.5131L26.4559 7.50688L14.1204 0.918409C13.9332 0.818904 13.7081 0.818904 13.5202 0.918409L1.18288 7.5075L1.17044 7.51372C1.16049 7.51932 1.14992 7.52491 1.14059 7.53051C1.13437 7.53486 1.12753 7.5386 1.12131 7.54357C1.11323 7.54855 1.10452 7.55414 1.09706 7.56036C1.08649 7.5672 1.07654 7.57591 1.06659 7.58399C1.06348 7.58648 1.06099 7.58897 1.05788 7.59084C1.04917 7.5983 1.04047 7.60638 1.03176 7.61447C1.03176 7.61447 1.03052 7.61447 1.03052 7.61571C1.02057 7.62504 1.01124 7.63437 1.00253 7.64432C1.00253 7.64432 1.00066 7.64556 1.00066 7.64681C0.991336 7.65676 0.982629 7.66671 0.973301 7.6779C0.964594 7.68847 0.956509 7.70029 0.947802 7.71148C0.939718 7.7233 0.931633 7.73512 0.924792 7.74756C0.917951 7.75937 0.91111 7.77119 0.904891 7.783C0.904891 7.783 0.904891 7.78425 0.904891 7.78487C0.899294 7.79606 0.893697 7.80664 0.888721 7.81783C0.886856 7.82218 0.884368 7.82654 0.883124 7.83151C0.873796 7.85514 0.865089 7.87878 0.858248 7.90365C0.851407 7.92791 0.84581 7.95341 0.842078 7.97828C0.836481 8.01 0.834616 8.04234 0.834616 8.0753L0.723916 23.7629C0.722673 23.9979 0.850785 24.2144 1.05664 24.3269L13.5159 31.0914C13.56 31.115 13.6061 31.1337 13.654 31.1461C13.662 31.1486 13.6701 31.1505 13.6782 31.1517C13.6863 31.1542 13.695 31.1561 13.7031 31.1573C13.7261 31.1623 13.7485 31.1648 13.7715 31.1667C13.7883 31.1679 13.8045 31.1685 13.8212 31.1685C13.838 31.1685 13.8536 31.1685 13.8698 31.1667C13.8921 31.1648 13.9152 31.1611 13.9375 31.1573C13.945 31.1561 13.9525 31.1548 13.9599 31.1524C13.9686 31.1505 13.9773 31.148 13.9867 31.1461C14.0277 31.1349 14.0681 31.1194 14.1067 31.1001C14.1123 31.0976 14.1185 31.0945 14.1241 31.0914L26.5834 24.3269C26.7905 24.2144 26.918 23.9979 26.9161 23.7629L26.806 8.0753Z" fill="#FF9B40"/>
<path d="M27.5231 7.63125C27.5231 7.56906 27.5144 7.50873 27.4982 7.4509C27.4945 7.43597 27.4895 7.42167 27.4845 7.40798C27.4795 7.39368 27.4739 7.37938 27.4683 7.36569C27.4621 7.35201 27.4559 7.33833 27.4491 7.32527C27.4422 7.31221 27.4348 7.29915 27.4273 7.28609C27.4198 7.27428 27.4124 7.26246 27.4043 7.25064C27.39 7.22888 27.3738 7.20835 27.3558 7.18845C27.3496 7.18037 27.3427 7.1729 27.3352 7.16606C27.3321 7.16233 27.329 7.15922 27.3259 7.15611C27.3203 7.14989 27.3147 7.1443 27.3085 7.13932C27.2998 7.13124 27.2905 7.12315 27.2811 7.11569C27.2699 7.10636 27.2588 7.09703 27.2469 7.08833C27.2457 7.0877 27.2451 7.08708 27.2444 7.08708C27.2351 7.08024 27.2258 7.0734 27.2165 7.0678C27.2003 7.05723 27.1841 7.04728 27.1673 7.03857L27.1543 7.03173L14.1372 0.0788265C13.9394 -0.0262755 13.7018 -0.0262755 13.5041 0.0788265L0.485095 7.03173L0.472035 7.03857C0.461463 7.04417 0.450268 7.05039 0.440318 7.05661C0.433477 7.06096 0.426636 7.06531 0.419795 7.07029C0.411088 7.07527 0.402381 7.08148 0.394297 7.0877C0.383102 7.09517 0.37253 7.10387 0.361958 7.11258C0.358848 7.11507 0.355739 7.11755 0.352629 7.12004C0.3433 7.12813 0.333972 7.13621 0.325265 7.14492C0.324643 7.14492 0.324021 7.14554 0.324021 7.14616C0.313449 7.15611 0.303498 7.16606 0.29417 7.17664C0.293548 7.17726 0.292304 7.17788 0.292304 7.17912C0.282354 7.1897 0.273025 7.20027 0.263696 7.21208C0.254368 7.22328 0.245661 7.23572 0.236955 7.24753C0.228248 7.25997 0.220163 7.27241 0.2127 7.28547C0.205237 7.29791 0.198396 7.31035 0.191555 7.32278C0.190934 7.32341 0.190934 7.32403 0.190934 7.32465C0.184714 7.33647 0.179117 7.34766 0.174142 7.35948C0.172276 7.36383 0.169789 7.3688 0.167923 7.37378C0.157973 7.39866 0.148644 7.42353 0.141803 7.44965C0.13434 7.47515 0.128743 7.50189 0.125012 7.52863C0.119414 7.56222 0.116927 7.59642 0.116927 7.63125L8.52435e-06 24.1851C-0.00123529 24.4333 0.133718 24.6615 0.351385 24.7803L13.4985 31.9185C13.5451 31.9434 13.5936 31.9633 13.644 31.9764C13.6527 31.9789 13.6608 31.9807 13.6695 31.9826C13.6782 31.9851 13.6869 31.9869 13.6956 31.9882H13.6962C13.7205 31.9932 13.7441 31.9963 13.7684 31.9981C13.7858 31.9994 13.8032 32 13.8206 32C13.838 32 13.8548 31.9994 13.8716 31.9981C13.8952 31.9963 13.9195 31.9925 13.9431 31.9882C13.9431 31.9882 13.9433 31.9882 13.9438 31.9882C13.9518 31.9869 13.9593 31.9857 13.9674 31.9832C13.9767 31.9813 13.986 31.9789 13.9954 31.9764C14.0389 31.9646 14.0812 31.9484 14.1222 31.9279C14.1285 31.9254 14.1347 31.9216 14.1409 31.9185L27.288 24.7803C27.5063 24.6615 27.6412 24.4333 27.6394 24.1851L27.5231 7.63125ZM13.8206 1.43272L25.4241 7.63063L13.8206 13.813L2.21524 7.63063L13.8206 1.43272ZM13.1471 14.9772V30.1996L1.34643 23.7921L1.45216 8.7457L1.9957 9.03551L13.1471 14.9772ZM14.4923 30.1996V14.9772L26.1872 8.7457L26.2936 23.7921L14.4923 30.1996Z" fill="#0C0C08"/>
<path d="M2.59026 22.3928C2.59088 22.2697 2.59212 22.1478 2.59274 22.0284C2.59337 21.9083 2.59461 21.7902 2.59523 21.6733C2.59585 21.5563 2.5971 21.4413 2.59772 21.3275C2.59834 21.2137 2.59959 21.1011 2.60021 20.9904C2.60083 20.8791 2.60145 20.7696 2.60269 20.6614C2.60332 20.5532 2.60394 20.4456 2.60518 20.3393C2.6058 20.2329 2.60643 20.1285 2.60767 20.024C2.60891 19.9195 2.60891 19.8169 2.60954 19.7155C2.61016 19.6141 2.61078 19.5128 2.6114 19.4126C2.61202 19.3125 2.61265 19.213 2.61327 19.1147C2.61389 19.0165 2.61451 18.9182 2.61513 18.8212C2.61575 18.7242 2.61638 18.6278 2.617 18.532C2.61762 18.4362 2.61824 18.3411 2.61886 18.2459C2.61949 18.1514 2.62011 18.0569 2.62073 17.963C2.62135 17.8691 2.62197 17.7752 2.6226 17.6819C2.62322 17.5886 2.62384 17.4953 2.62446 17.4026C2.62508 17.31 2.62571 17.2173 2.62633 17.1246C2.62695 17.032 2.62757 16.9399 2.62819 16.8473C2.62881 16.7546 2.62944 16.6626 2.63006 16.5699C2.63068 16.4772 2.6313 16.3846 2.63192 16.2919C2.63255 16.1993 2.63317 16.106 2.63379 16.0127C2.63441 15.9194 2.63503 15.8261 2.63566 15.7316C2.63628 15.6377 2.6369 15.5431 2.63752 15.4486C2.63814 15.3541 2.63877 15.2583 2.63939 15.1625C2.64001 15.0668 2.64063 14.9704 2.64125 14.8733C2.64187 14.7763 2.6425 14.6787 2.64312 14.5798C2.64374 14.4815 2.64436 14.382 2.64498 14.2819C2.64561 14.1818 2.64623 14.081 2.64685 13.979C2.64747 13.8771 2.64809 13.7744 2.64872 13.6706C2.64934 13.5667 2.64996 13.4616 2.6512 13.3553C2.65245 13.2489 2.65245 13.142 2.65369 13.0331C2.65493 12.9243 2.65493 12.8148 2.65618 12.7041C2.6568 12.5928 2.65804 12.4809 2.65867 12.3671C2.65929 12.2533 2.66053 12.1382 2.66115 12.0213C2.66178 11.9044 2.66302 11.7862 2.66364 11.6662C2.66426 11.5462 2.66551 11.4249 2.66613 11.3017C2.66675 11.1786 2.68914 11.0835 2.73143 11.0163C2.77434 10.9491 2.8384 10.9106 2.92298 10.8994C2.97957 10.8925 3.04674 10.8969 3.12385 10.9137C3.20097 10.9298 3.28866 10.9578 3.38692 10.9983C3.48518 11.0381 3.59339 11.0897 3.7128 11.1531C3.81976 11.2103 3.92487 11.2657 4.0281 11.321C4.13134 11.3764 4.23271 11.4305 4.33284 11.4833C4.43296 11.5368 4.53122 11.5891 4.62824 11.6407C4.72526 11.6923 4.82041 11.7433 4.91494 11.7937C5.00947 11.844 5.10213 11.8932 5.19355 11.9423C5.28497 11.9914 5.37577 12.0393 5.4647 12.0866C5.55426 12.1345 5.64257 12.1811 5.72964 12.2278C5.8167 12.2744 5.90315 12.3204 5.98897 12.3658C6.07479 12.4112 6.15937 12.4566 6.24333 12.5014C6.32729 12.5462 6.41062 12.5903 6.49334 12.6345C6.57605 12.6786 6.65814 12.7222 6.73961 12.7657C6.82108 12.8092 6.90255 12.8528 6.9834 12.8957C7.06425 12.9386 7.14509 12.9815 7.22532 13.0244C7.30555 13.0673 7.38577 13.1102 7.466 13.1525C7.54622 13.1954 7.62645 13.2377 7.70667 13.2806C7.7869 13.3236 7.86713 13.3658 7.94735 13.4088C8.02758 13.4517 8.10843 13.4946 8.18927 13.5375C8.27012 13.5804 8.35159 13.6239 8.43306 13.6675C8.51453 13.711 8.59662 13.7545 8.67934 13.7987C8.76205 13.8429 8.84538 13.887 8.92934 13.9318C9.0133 13.9766 9.09788 14.0213 9.1837 14.0674C9.26952 14.1128 9.35535 14.1588 9.44304 14.2054C9.5301 14.2521 9.61841 14.2987 9.70797 14.3466C9.79752 14.3945 9.8877 14.4424 9.97912 14.4909C10.0705 14.54 10.1638 14.5891 10.2577 14.6395C10.3516 14.6899 10.4474 14.7403 10.5444 14.7925C10.6414 14.8447 10.7397 14.8964 10.8398 14.9498C10.94 15.0033 11.0413 15.0574 11.1446 15.1122C11.2478 15.1669 11.3529 15.2229 11.4599 15.2801C11.5538 15.3298 11.6396 15.3839 11.7167 15.4405C11.7938 15.4977 11.8629 15.5581 11.9232 15.6221C11.9835 15.6862 12.0358 15.7533 12.0799 15.8242C12.1234 15.8951 12.1601 15.971 12.1894 16.0525C12.2186 16.134 12.2404 16.221 12.2553 16.3131C12.2702 16.4051 12.2771 16.5027 12.2771 16.6054V17.1576C12.2771 17.2608 12.2696 17.3504 12.2553 17.4269C12.2404 17.5034 12.2186 17.5668 12.1894 17.6172C12.1601 17.6676 12.1234 17.7049 12.0799 17.7285C12.0358 17.7528 11.9835 17.764 11.9232 17.7633C11.8629 17.7627 11.7938 17.7497 11.7161 17.7242C11.639 17.6987 11.5532 17.6607 11.4593 17.6104C11.3554 17.555 11.2553 17.5015 11.1576 17.4487C11.06 17.3964 10.9648 17.3454 10.8716 17.2957C10.7789 17.2459 10.6881 17.1974 10.5998 17.1501C10.5115 17.1029 10.4244 17.0569 10.3398 17.0108C10.2552 16.9648 10.1713 16.9207 10.0892 16.8771C10.0071 16.833 9.92626 16.7901 9.84665 16.7472C9.76705 16.7042 9.68744 16.6619 9.60908 16.6203C9.53072 16.5786 9.45236 16.5363 9.37463 16.4953C9.29689 16.4536 9.21915 16.4119 9.14141 16.3709C9.06367 16.3292 8.98593 16.2876 8.90695 16.2459C8.82859 16.2042 8.74961 16.1619 8.66938 16.119C8.58916 16.0761 8.50893 16.0332 8.42684 15.989C8.34475 15.9449 8.26141 15.9007 8.17621 15.8553C8.09101 15.8099 8.00457 15.7639 7.91626 15.716C7.82795 15.6688 7.73715 15.6203 7.64448 15.5705C7.55182 15.5208 7.45667 15.4698 7.35841 15.4175C7.26077 15.3653 7.16002 15.3112 7.05616 15.2558C7.05616 15.3734 7.05554 15.4847 7.05492 15.5917C7.05492 15.6986 7.0543 15.8006 7.05367 15.8995C7.05367 15.9984 7.05305 16.0935 7.05243 16.1862C7.05243 16.2789 7.05181 16.3697 7.05119 16.4586C7.05056 16.5475 7.05056 16.6358 7.04994 16.7241C7.04994 16.8125 7.04932 16.9001 7.0487 16.9897C7.0487 17.0792 7.04808 17.1694 7.04745 17.2621C7.04745 17.3548 7.04683 17.4499 7.04621 17.5488C7.04621 17.6477 7.04559 17.7497 7.04497 17.8566C7.04435 17.9636 7.04434 18.0749 7.04372 18.1925C7.14758 18.2484 7.24833 18.3025 7.34597 18.3548C7.44361 18.4076 7.53876 18.4586 7.63142 18.5078C7.72409 18.5569 7.81426 18.606 7.90195 18.6533C7.98964 18.7006 8.07609 18.7466 8.16067 18.792C8.24524 18.8374 8.32796 18.8815 8.40943 18.9257C8.4909 18.9692 8.57112 19.0128 8.65073 19.0557C8.73033 19.0986 8.80931 19.1409 8.88767 19.1825C8.96603 19.2248 9.04377 19.2665 9.12213 19.3082C9.19987 19.3498 9.27823 19.3921 9.35659 19.4338C9.43495 19.4754 9.51393 19.5184 9.59354 19.5607C9.67314 19.6036 9.75337 19.6465 9.83484 19.6906C9.91631 19.7342 9.99902 19.7789 10.0836 19.8243C10.1682 19.8697 10.254 19.9158 10.3423 19.963C10.4306 20.0103 10.5208 20.0588 10.6128 20.1086C10.7055 20.1583 10.8007 20.2093 10.8983 20.2615C10.9959 20.3144 11.0967 20.3679 11.2005 20.4239C11.2951 20.4742 11.3809 20.5283 11.458 20.5862C11.5357 20.6434 11.6048 20.7043 11.6651 20.769C11.7261 20.8331 11.7783 20.9009 11.8224 20.9724C11.8666 21.0433 11.9027 21.1198 11.9319 21.2012C11.9611 21.2827 11.9829 21.3698 11.9978 21.4624C12.0127 21.5545 12.0196 21.6521 12.0196 21.7554C12.0196 21.8661 12.0196 21.9488 12.0196 22.0315C12.0196 22.1142 12.0196 22.1969 12.0196 22.3076C12.0196 22.4108 12.0121 22.5004 11.9972 22.5769C11.9823 22.6534 11.9605 22.7168 11.9313 22.7666C11.9021 22.8163 11.8654 22.8536 11.8212 22.8773C11.777 22.9009 11.7248 22.9121 11.6639 22.9109C11.6029 22.9096 11.5339 22.8959 11.4561 22.8704C11.3784 22.8443 11.2926 22.8058 11.1981 22.7554C11.0942 22.6994 10.9928 22.6447 10.8952 22.5918C10.7969 22.539 10.7018 22.488 10.6091 22.4376C10.5164 22.3872 10.4263 22.3387 10.338 22.2914C10.2496 22.2436 10.1638 22.1975 10.0786 22.1515C9.99404 22.1061 9.91133 22.0613 9.82924 22.0172C9.74715 21.973 9.66692 21.9295 9.58732 21.8866C9.50771 21.8437 9.42873 21.8014 9.35037 21.7585C9.27201 21.7162 9.19365 21.6739 9.11591 21.6322C9.03755 21.5899 8.95981 21.5483 8.88145 21.506C8.80309 21.4637 8.72411 21.4214 8.64451 21.3785C8.5649 21.3356 8.48406 21.292 8.40259 21.2479C8.32112 21.2037 8.23778 21.1589 8.1532 21.1136C8.06862 21.0682 7.98218 21.0215 7.89387 20.9736C7.80556 20.9257 7.71538 20.8772 7.62272 20.8275C7.53005 20.7777 7.4349 20.7261 7.33664 20.6732C7.23838 20.6204 7.13763 20.5663 7.03377 20.5097C7.03377 20.6322 7.03315 20.7504 7.03253 20.8642C7.03253 20.9786 7.03191 21.0887 7.03129 21.1963C7.03066 21.3039 7.03066 21.4077 7.03004 21.5097C7.02942 21.6117 7.02942 21.7106 7.0288 21.8082C7.0288 21.9059 7.02818 22.001 7.02755 22.0955C7.02755 22.1901 7.02693 22.2827 7.02631 22.3754C7.02631 22.4681 7.02569 22.5595 7.02507 22.6515C7.02507 22.7436 7.02444 22.835 7.02382 22.9276C7.0232 23.0203 7.0232 23.113 7.02258 23.2075C7.02258 23.302 7.02196 23.3972 7.02133 23.4948C7.02071 23.5925 7.02071 23.6913 7.02009 23.7933C7.02009 23.8953 7.01947 23.9992 7.01885 24.1068C7.01885 24.2144 7.01823 24.3244 7.0176 24.4389C7.0176 24.5533 7.01698 24.6709 7.01636 24.7934C7.01636 24.8475 7.00454 24.891 6.98215 24.9252C6.95977 24.9594 6.92556 24.9837 6.88078 24.9974C6.83601 25.0117 6.77941 25.016 6.71225 25.0098C6.64508 25.0036 6.5661 24.9886 6.47655 24.9625C6.38699 24.937 6.28562 24.9016 6.17368 24.8556C6.06173 24.8102 5.93797 24.7548 5.80364 24.6895C5.66931 24.6242 5.52316 24.549 5.36644 24.4638C5.27565 24.4146 5.19355 24.3698 5.11706 24.3282C5.04056 24.2865 4.96967 24.248 4.90064 24.2106C4.8316 24.1733 4.76444 24.1366 4.69479 24.0993C4.62575 24.062 4.55486 24.0234 4.47836 23.9818C4.40187 23.9401 4.31978 23.896 4.22898 23.8462C4.09154 23.7716 3.9628 23.6988 3.84277 23.6273C3.72275 23.5564 3.6108 23.4867 3.50819 23.419C3.40557 23.3512 3.31105 23.2852 3.22522 23.2212C3.1394 23.1571 3.06228 23.0943 2.99387 23.034C2.92546 22.9737 2.86576 22.914 2.81414 22.8568C2.76252 22.7995 2.72023 22.7442 2.68603 22.6901C2.65183 22.636 2.62633 22.5844 2.60954 22.534C2.59274 22.4836 2.58466 22.4351 2.58466 22.3878L2.59026 22.3928Z" fill="#0C0C08"/>
<path d="M15.9731 27.161C15.9774 27.0373 15.9824 26.9147 15.9867 26.7941C15.9911 26.6734 15.9954 26.5547 15.9998 26.4371C16.0041 26.3196 16.0085 26.2039 16.0129 26.0895C16.0172 25.975 16.0209 25.8618 16.0253 25.7505C16.0296 25.6386 16.0334 25.5285 16.0377 25.4197C16.0415 25.3108 16.0458 25.2026 16.0495 25.0963C16.0533 24.9893 16.0576 24.8842 16.0614 24.7797C16.0651 24.6753 16.0688 24.572 16.0726 24.4694C16.0763 24.3668 16.08 24.2654 16.0838 24.1647C16.0875 24.0639 16.0912 23.9644 16.0949 23.8649C16.0987 23.766 16.1024 23.6678 16.1055 23.5701C16.1086 23.4725 16.1124 23.3755 16.1161 23.2791C16.1198 23.1827 16.1229 23.0869 16.1267 22.9918C16.1304 22.8966 16.1335 22.8015 16.1372 22.7069C16.141 22.6124 16.1441 22.5185 16.1478 22.4246C16.1515 22.3307 16.1546 22.2374 16.1584 22.1441C16.1621 22.0508 16.1652 21.9575 16.1683 21.8649C16.1714 21.7722 16.1752 21.6789 16.1783 21.5862C16.1814 21.4936 16.1851 21.4003 16.1882 21.3076C16.1913 21.2143 16.1951 21.1217 16.1982 21.0284C16.2013 20.9351 16.205 20.8418 16.2081 20.7479C16.2119 20.654 16.215 20.5601 16.2187 20.4656C16.2224 20.371 16.2255 20.2765 16.2293 20.1807C16.233 20.0856 16.2361 19.9898 16.2399 19.8934C16.2436 19.797 16.2467 19.7 16.2504 19.6024C16.2542 19.5047 16.2573 19.4065 16.261 19.3076C16.2647 19.2087 16.2685 19.1086 16.2722 19.0084C16.2759 18.9077 16.2797 18.8063 16.2834 18.7037C16.2871 18.6011 16.2908 18.4979 16.2946 18.3934C16.2983 18.2889 16.302 18.1832 16.3064 18.0768C16.3101 17.9705 16.3145 17.8623 16.3182 17.7534C16.3219 17.6446 16.3263 17.5339 16.33 17.4226C16.3344 17.3113 16.3381 17.1981 16.3425 17.0837C16.3468 16.9692 16.3506 16.8535 16.3549 16.736C16.3593 16.6185 16.3636 16.4997 16.368 16.3797C16.3723 16.2596 16.3767 16.1371 16.381 16.0134C16.3848 15.8896 16.3928 15.7808 16.4053 15.6862C16.4177 15.5917 16.4339 15.5115 16.4538 15.4456C16.4737 15.3796 16.4986 15.3255 16.5284 15.2826C16.5576 15.2397 16.5918 15.2074 16.6304 15.1868C16.7262 15.1358 16.8151 15.0886 16.8991 15.0438C16.983 14.999 17.062 14.9567 17.1379 14.9163C17.2138 14.8759 17.2871 14.8367 17.3593 14.7981C17.4314 14.7596 17.5029 14.7217 17.5751 14.6831C17.6472 14.6445 17.7206 14.6054 17.7965 14.5649C17.8724 14.5245 17.952 14.4822 18.0353 14.4374C18.1192 14.3927 18.2082 14.3454 18.304 14.2944C18.3375 14.2764 18.3661 14.2845 18.3885 14.3187C18.4109 14.3529 18.4283 14.4132 18.4395 14.499C18.4507 14.5855 18.4569 14.6974 18.4569 14.8361C18.4545 14.9343 18.4538 14.9835 18.4513 15.0817C18.4464 15.1918 18.4433 15.2739 18.4395 15.3566C18.4358 15.4393 18.4327 15.5214 18.4277 15.6315C18.424 15.7776 18.4165 15.9082 18.4066 16.0221C18.396 16.1359 18.3823 16.2335 18.3649 16.315C18.3475 16.3964 18.3276 16.4611 18.3033 16.5103C18.2791 16.5594 18.2523 16.5917 18.2219 16.6079C18.1267 16.6589 18.0434 16.703 17.9663 16.7447C17.8891 16.7864 17.8176 16.8243 17.7461 16.8623C17.6746 16.9002 17.6037 16.9387 17.526 16.9798C17.4488 17.0208 17.3655 17.0656 17.2703 17.1166C17.2654 17.2342 17.261 17.3461 17.2567 17.4531C17.2523 17.56 17.248 17.6626 17.2442 17.7615C17.2405 17.8604 17.2361 17.9556 17.2324 18.0488C17.2287 18.1415 17.2249 18.2323 17.2212 18.3219C17.2175 18.4114 17.2138 18.4997 17.2106 18.5874C17.2069 18.6757 17.2032 18.764 17.2001 18.8536C17.1963 18.9431 17.1926 19.0333 17.1889 19.1266C17.1851 19.2199 17.1814 19.315 17.1771 19.4139C17.1733 19.5128 17.169 19.6148 17.1646 19.7224C17.1603 19.83 17.1559 19.9413 17.1509 20.0588C17.2405 20.0103 17.3195 19.9687 17.3922 19.9295C17.465 19.8903 17.5328 19.8542 17.6 19.8182C17.6671 19.7821 17.7349 19.746 17.8077 19.7068C17.8804 19.6677 17.9594 19.6254 18.049 19.5775C18.1 19.5501 18.1379 19.5775 18.164 19.659C18.1895 19.7404 18.2026 19.8766 18.2032 20.0669C18.2032 20.1938 18.2013 20.2933 18.1976 20.3642C18.1926 20.4743 18.1895 20.5564 18.1858 20.6391C18.1821 20.7218 18.179 20.8039 18.174 20.914C18.169 21.0209 18.1628 21.118 18.1559 21.2056C18.1491 21.2933 18.1416 21.3717 18.1329 21.4401C18.1242 21.5085 18.1149 21.5682 18.1049 21.6173C18.09 21.692 18.0707 21.7523 18.0477 21.7977C18.0247 21.8431 17.998 21.8742 17.9675 21.891C17.8773 21.9395 17.799 21.9818 17.7256 22.0216C17.6522 22.0614 17.585 22.0975 17.5172 22.1335C17.4495 22.1696 17.3823 22.2063 17.3089 22.2455C17.2355 22.2846 17.1572 22.3276 17.067 22.3761C17.0633 22.498 17.0595 22.6155 17.0558 22.7293C17.0521 22.8431 17.0483 22.9532 17.0452 23.0602C17.0421 23.1671 17.0384 23.271 17.0353 23.3724C17.0322 23.4737 17.029 23.5726 17.0259 23.6696C17.0228 23.7667 17.0197 23.8618 17.0166 23.9557C17.0135 24.0496 17.0104 24.1423 17.0079 24.2343C17.0048 24.3264 17.0017 24.4178 16.9992 24.5092C16.9961 24.6006 16.9936 24.692 16.9905 24.7841C16.9874 24.8761 16.9843 24.9688 16.9818 25.0627C16.9793 25.1566 16.9756 25.2518 16.9725 25.3488C16.9693 25.4458 16.9662 25.5447 16.9631 25.646C16.96 25.7474 16.9563 25.8513 16.9532 25.9582C16.9494 26.0652 16.9463 26.1753 16.9426 26.2891C16.9389 26.4029 16.9351 26.5204 16.9314 26.643C16.9277 26.7686 16.9109 26.8805 16.8817 26.9782C16.8524 27.0764 16.8108 27.1604 16.7567 27.2307C16.7025 27.3009 16.636 27.3575 16.557 27.4011C16.4588 27.4546 16.4096 27.4813 16.3114 27.5342C16.2324 27.5771 16.1671 27.592 16.1155 27.5789C16.0639 27.5659 16.0265 27.5242 16.0029 27.4552C15.9793 27.3861 15.9693 27.2879 15.9737 27.1623L15.9731 27.161Z" fill="#0C0C08"/>
<path d="M18.6106 26.0851C18.595 26.0385 18.5844 25.9732 18.5788 25.888C18.5732 25.8034 18.572 25.6989 18.5757 25.5758C18.5801 25.452 18.5844 25.3301 18.5888 25.2101C18.5931 25.0901 18.5969 24.9713 18.6012 24.8544C18.6056 24.7374 18.6093 24.6218 18.6137 24.508C18.6174 24.3942 18.6218 24.281 18.6255 24.1696C18.6292 24.0583 18.6329 23.9482 18.6373 23.8394C18.6417 23.7306 18.6448 23.623 18.6485 23.5166C18.6522 23.4103 18.656 23.3052 18.6597 23.2007C18.6634 23.0969 18.6671 22.9936 18.6703 22.891C18.674 22.789 18.6771 22.6876 18.6808 22.5875C18.6846 22.4874 18.6877 22.3879 18.6914 22.289C18.6951 22.1901 18.6982 22.0925 18.702 21.9948C18.7051 21.8978 18.7088 21.8008 18.7119 21.705C18.715 21.6093 18.7188 21.5135 18.7219 21.4183C18.725 21.3232 18.7287 21.2287 18.7318 21.1347C18.7349 21.0408 18.7387 20.9469 18.7418 20.8536C18.7449 20.7604 18.748 20.6671 18.7517 20.5738C18.7555 20.4805 18.7579 20.3878 18.7617 20.2952C18.7648 20.2025 18.7679 20.1098 18.7716 20.0172C18.7747 19.9245 18.7778 19.8319 18.7816 19.7392C18.7847 19.6465 18.7878 19.5539 18.7915 19.4606C18.7946 19.3673 18.7978 19.2746 18.8015 19.1807C18.8052 19.0868 18.8077 18.9935 18.8114 18.8996C18.8145 18.8057 18.8183 18.7112 18.8214 18.616C18.8245 18.5209 18.8282 18.4257 18.8313 18.3293C18.8344 18.2336 18.8382 18.1365 18.8413 18.0395C18.8444 17.9425 18.8481 17.8442 18.8512 17.7454C18.855 17.6465 18.8581 17.547 18.8618 17.4468C18.8655 17.3467 18.8686 17.2453 18.8724 17.1434C18.8761 17.0414 18.8792 16.9381 18.883 16.8343C18.8867 16.7304 18.8904 16.6253 18.8941 16.519C18.8979 16.4126 18.9016 16.305 18.9053 16.1968C18.9091 16.0886 18.9128 15.9785 18.9165 15.8672C18.9203 15.7559 18.924 15.6433 18.9283 15.5295C18.9321 15.4157 18.9364 15.3 18.9402 15.1831C18.9445 15.0662 18.9483 14.9474 18.9526 14.8274C18.957 14.7073 18.9607 14.5855 18.965 14.4623C18.9688 14.3373 18.9849 14.226 19.0136 14.129C19.0422 14.032 19.0832 13.948 19.1367 13.8783C19.1902 13.8087 19.2561 13.7533 19.3345 13.7111C19.4321 13.6594 19.4806 13.6333 19.5782 13.5811C19.6566 13.5394 19.7213 13.5251 19.7723 13.5394C19.8233 13.5531 19.8606 13.5948 19.8842 13.6644C19.9079 13.7334 19.9178 13.8311 19.9141 13.9561C19.9097 14.0786 19.906 14.1993 19.9016 14.3174C19.8979 14.4362 19.8935 14.5531 19.8898 14.6682C19.8861 14.7832 19.8824 14.8964 19.8786 15.0084C19.8749 15.1203 19.8712 15.2304 19.8674 15.3392C19.8637 15.448 19.86 15.555 19.8569 15.6614C19.8531 15.7671 19.85 15.8722 19.8463 15.9754C19.8426 16.0787 19.8394 16.1806 19.8357 16.282C19.832 16.3834 19.8289 16.4829 19.8258 16.5824C19.8227 16.6813 19.8189 16.7795 19.8158 16.8766C19.8127 16.9736 19.809 17.07 19.8059 17.1657C19.8028 17.2615 19.7996 17.3567 19.7959 17.4512C19.7922 17.5457 19.7897 17.6396 19.7866 17.7329C19.7835 17.8262 19.7804 17.9195 19.7773 18.0122C19.7741 18.1048 19.771 18.1975 19.7679 18.2895C19.7648 18.3816 19.7617 18.4736 19.7586 18.5657C19.7555 18.6577 19.7524 18.7497 19.7493 18.8412C19.7462 18.9332 19.743 19.0252 19.7399 19.1173C19.7368 19.2093 19.7337 19.302 19.7306 19.3947C19.7275 19.4873 19.7244 19.5806 19.7213 19.6739C19.7182 19.7672 19.7151 19.8611 19.712 19.9556C19.7088 20.0501 19.7057 20.1453 19.702 20.2411C19.6989 20.3368 19.6958 20.4332 19.6921 20.5309C19.6889 20.6279 19.6852 20.7262 19.6821 20.8257C19.679 20.9252 19.6753 21.0247 19.6722 21.126C19.669 21.2274 19.6653 21.3294 19.6616 21.4326C19.6578 21.5359 19.6547 21.641 19.651 21.7467C19.6473 21.8524 19.6435 21.96 19.6398 22.0688C19.6361 22.1777 19.6323 22.2878 19.6286 22.3997C19.6249 22.5116 19.6212 22.6248 19.6168 22.7399C19.6124 22.8549 19.6087 22.9719 19.605 23.0906C19.6006 23.2094 19.5969 23.3301 19.5925 23.4526C19.684 23.4035 19.7636 23.3599 19.8382 23.3195C19.9128 23.2791 19.9812 23.2424 20.0496 23.2051C20.1181 23.1678 20.1865 23.1311 20.2611 23.0906C20.3351 23.0502 20.4153 23.0073 20.5067 22.9576C20.564 22.9265 20.605 22.9532 20.6299 23.0378C20.6423 23.0801 20.6517 23.1391 20.6585 23.215C20.6653 23.2909 20.6684 23.3836 20.6684 23.4924C20.6666 23.59 20.6653 23.6392 20.6628 23.7374C20.6585 23.8469 20.6548 23.929 20.6517 24.0117C20.6485 24.0938 20.6448 24.1759 20.6405 24.2859C20.638 24.3873 20.6342 24.48 20.6286 24.5652C20.623 24.6498 20.6162 24.7269 20.6081 24.7953C20.5994 24.8637 20.5901 24.924 20.5783 24.9763C20.5609 25.0546 20.5397 25.1181 20.5148 25.1659C20.49 25.2138 20.4607 25.2468 20.4284 25.2648C20.3345 25.3158 20.2468 25.3631 20.1647 25.4079C20.082 25.4526 20.0042 25.4949 19.9296 25.5353C19.855 25.5758 19.7828 25.615 19.712 25.6535C19.6411 25.6921 19.5708 25.73 19.4999 25.7686C19.429 25.8071 19.3568 25.8463 19.2822 25.8867C19.2076 25.9271 19.1298 25.9694 19.0471 26.0142C18.9644 26.059 18.8774 26.1063 18.7834 26.1573C18.7014 26.202 18.6454 26.1778 18.6143 26.0845L18.6106 26.0851Z" fill="#0C0C08"/>
<path d="M20.9831 24.4433C20.9875 24.3214 20.9912 24.2014 20.9949 24.0826C20.9987 23.9638 21.003 23.8469 21.0067 23.7318C21.0105 23.6168 21.0142 23.5023 21.0179 23.3898C21.0217 23.2772 21.0254 23.1659 21.0291 23.0558C21.0329 22.9457 21.0366 22.8369 21.0397 22.7293C21.0434 22.6217 21.0466 22.5154 21.0503 22.4103C21.054 22.3052 21.0571 22.2007 21.0609 22.0981C21.0646 21.9948 21.0677 21.8929 21.0708 21.7921C21.0739 21.6907 21.0776 21.5906 21.0808 21.4917C21.0839 21.3922 21.0876 21.294 21.0907 21.1963C21.0938 21.0987 21.0969 21.0017 21.1007 20.9053C21.1044 20.8089 21.1069 20.7131 21.11 20.6186C21.1131 20.524 21.1162 20.4289 21.1193 20.335C21.1224 20.2411 21.1255 20.1478 21.1286 20.0545C21.1318 19.9612 21.1349 19.8685 21.138 19.7765C21.1411 19.6845 21.1442 19.5918 21.1473 19.5004C21.1504 19.4083 21.1535 19.3169 21.1566 19.2255C21.1597 19.1341 21.1628 19.0427 21.166 18.9512C21.1691 18.8598 21.1722 18.7684 21.1753 18.6776C21.1784 18.5862 21.1815 18.4948 21.1846 18.4033C21.1877 18.3119 21.1908 18.2205 21.1939 18.1285C21.1971 18.0364 21.2002 17.9444 21.2033 17.8523C21.2064 17.7597 21.2095 17.667 21.2126 17.5743C21.2157 17.4811 21.2188 17.3878 21.2219 17.2939C21.225 17.2 21.2281 17.1054 21.2313 17.0103C21.2344 16.9151 21.2375 16.82 21.2406 16.7236C21.2437 16.6272 21.2468 16.5302 21.2499 16.4325C21.253 16.3349 21.2561 16.2366 21.2599 16.1371C21.263 16.0376 21.2667 15.9375 21.2698 15.8367C21.2729 15.736 21.2767 15.634 21.2798 15.5308C21.2829 15.4275 21.2866 15.3237 21.2903 15.2186C21.2941 15.1135 21.2972 15.0071 21.3009 14.8995C21.3046 14.7919 21.3078 14.6837 21.3115 14.5736C21.3152 14.4636 21.3189 14.3522 21.3227 14.2397C21.3264 14.1271 21.3301 14.0133 21.3339 13.8976C21.3376 13.782 21.3413 13.665 21.3457 13.5469C21.3494 13.4287 21.3538 13.3087 21.3575 13.1868C21.3612 13.0581 21.3774 12.9443 21.4054 12.8447C21.434 12.7452 21.475 12.66 21.5285 12.5891C21.582 12.5182 21.6479 12.4623 21.7263 12.4206C21.8283 12.3659 21.8799 12.3391 21.9819 12.2844C22.059 12.2434 22.1224 12.2303 22.1728 12.2459C22.2232 12.2614 22.2599 12.3049 22.2835 12.3771C22.3072 12.4492 22.3171 12.5493 22.3134 12.6775C22.3096 12.7987 22.3059 12.9188 22.3016 13.0369C22.2978 13.1551 22.2941 13.272 22.2904 13.387C22.2866 13.5021 22.2829 13.6159 22.2792 13.7285C22.2754 13.841 22.2717 13.9517 22.2686 14.0618C22.2649 14.1719 22.2618 14.2801 22.258 14.3877C22.2543 14.4953 22.2512 14.601 22.2475 14.7061C22.2443 14.8112 22.2406 14.9151 22.2375 15.0177C22.2344 15.1203 22.2307 15.2223 22.2276 15.3237C22.2244 15.4244 22.2213 15.5245 22.2176 15.624C22.2145 15.7229 22.2114 15.8218 22.2083 15.9188C22.2052 16.0165 22.2021 16.1135 22.1989 16.2093C22.1958 16.305 22.1927 16.4008 22.1896 16.496C22.1865 16.5911 22.1834 16.685 22.1803 16.7789C22.1772 16.8728 22.1741 16.9661 22.171 17.0588C22.1678 17.1514 22.1647 17.2441 22.1622 17.3368C22.1598 17.4294 22.156 17.5209 22.1535 17.6129C22.1511 17.7049 22.1473 17.7964 22.1448 17.8878C22.1417 17.9792 22.1386 18.0706 22.1361 18.1614C22.1336 18.2522 22.1299 18.3436 22.1274 18.4351C22.1249 18.5265 22.1212 18.6173 22.1187 18.7087C22.1156 18.8001 22.1125 18.8915 22.11 18.9836C22.1069 19.0756 22.1038 19.167 22.1013 19.2597C22.0982 19.3517 22.0951 19.4444 22.092 19.5377C22.0889 19.631 22.0858 19.7243 22.0826 19.8182C22.0795 19.9121 22.0764 20.0066 22.0733 20.1011C22.0702 20.1963 22.0671 20.2914 22.064 20.3878C22.0609 20.4842 22.0578 20.5806 22.0547 20.6783C22.0516 20.7759 22.0484 20.8742 22.0453 20.9737C22.0422 21.0732 22.0391 21.1727 22.0354 21.2741C22.0323 21.3748 22.0285 21.4768 22.0254 21.58C22.0223 21.6833 22.0186 21.7871 22.0155 21.8922C22.0124 21.9973 22.0086 22.1037 22.0049 22.2106C22.0012 22.3176 21.9981 22.4264 21.9943 22.5365C21.9906 22.6466 21.9869 22.7573 21.9831 22.8699C21.9794 22.9824 21.9757 23.0962 21.9719 23.2119C21.9682 23.3276 21.9645 23.4439 21.9608 23.5627C21.957 23.6808 21.9527 23.8009 21.9489 23.9228C21.9452 24.0515 21.9297 24.1653 21.901 24.2654C21.8724 24.3649 21.832 24.4508 21.7792 24.5216C21.7263 24.5925 21.6604 24.6491 21.5826 24.6914C21.4794 24.7474 21.4278 24.7754 21.3245 24.8314C21.2456 24.8743 21.1803 24.8886 21.1286 24.8743C21.077 24.86 21.0391 24.8171 21.0155 24.7455C20.9912 24.674 20.9813 24.5739 20.985 24.4452L20.9831 24.4433Z" fill="#0C0C08"/>
<path d="M22.6225 23.554C22.6262 23.4308 22.6305 23.3096 22.6343 23.1902C22.638 23.0708 22.6417 22.9526 22.6455 22.8363C22.6492 22.72 22.6529 22.605 22.6567 22.4911C22.6604 22.3773 22.6641 22.2654 22.6672 22.1547C22.671 22.044 22.6741 21.9345 22.6778 21.8263C22.6815 21.7181 22.6847 21.6111 22.6884 21.5054C22.6915 21.3997 22.6952 21.2946 22.6983 21.1914C22.7014 21.0881 22.7052 20.9849 22.7083 20.8835C22.7114 20.7821 22.7145 20.6814 22.7182 20.5813C22.7213 20.4811 22.7245 20.3823 22.7276 20.284C22.7307 20.1857 22.7338 20.0881 22.7369 19.9917C22.74 19.8953 22.7431 19.7989 22.7462 19.7031C22.7493 19.6074 22.7524 19.5122 22.7555 19.4177C22.7587 19.3232 22.7618 19.2292 22.7649 19.1353C22.768 19.0414 22.7711 18.9481 22.7736 18.8555C22.7767 18.7622 22.7798 18.6695 22.7823 18.5769C22.7854 18.4842 22.7885 18.3922 22.791 18.2995C22.7941 18.2075 22.7966 18.1148 22.7997 18.0227C22.8028 17.9307 22.8053 17.8387 22.8084 17.746C22.8115 17.654 22.814 17.5613 22.8171 17.4686C22.8202 17.376 22.8233 17.2833 22.8258 17.1906C22.8283 17.098 22.832 17.0041 22.8345 16.9108C22.8376 16.8169 22.8408 16.723 22.8439 16.6284C22.847 16.5339 22.8501 16.4388 22.8532 16.3436C22.8563 16.2478 22.8594 16.1521 22.8625 16.055C22.8656 15.958 22.8687 15.861 22.8718 15.7627C22.875 15.6645 22.8781 15.5656 22.8812 15.4655C22.8843 15.366 22.8874 15.2652 22.8911 15.1632C22.8942 15.0619 22.8973 14.9592 22.9011 14.8554C22.9042 14.7515 22.9079 14.647 22.911 14.5413C22.9141 14.4356 22.9179 14.3286 22.921 14.2204C22.9247 14.1122 22.9278 14.0028 22.9315 13.8921C22.9353 13.7814 22.9384 13.6694 22.9421 13.5556C22.9459 13.4424 22.9496 13.3274 22.9533 13.2111C22.957 13.0948 22.9608 12.9766 22.9645 12.8572C22.9682 12.7378 22.972 12.6165 22.9763 12.494C22.9794 12.3715 22.9875 12.2633 23 12.1694C23.0124 12.0755 23.0286 11.9952 23.0497 11.9293C23.0709 11.8634 23.097 11.8087 23.1287 11.7645C23.1604 11.7204 23.1977 11.6868 23.24 11.6638C23.3271 11.6171 23.403 11.5767 23.4739 11.5394C23.5447 11.5021 23.61 11.4666 23.6753 11.4324C23.7406 11.3976 23.8059 11.3628 23.8768 11.3248C23.9477 11.2869 24.0236 11.2465 24.1107 11.2004C24.2108 11.147 24.306 11.114 24.3955 11.1022C24.4851 11.0897 24.569 11.0985 24.6474 11.1277C24.7257 11.1569 24.7991 11.2067 24.8669 11.2769C24.9347 11.3472 24.9969 11.4386 25.0535 11.55C25.0821 11.6059 25.1088 11.6675 25.1337 11.734C25.1586 11.8006 25.1822 11.8733 25.2034 11.9517C25.2251 12.0294 25.245 12.1134 25.2631 12.2023C25.2811 12.2913 25.2979 12.3858 25.3122 12.4859C25.3265 12.5861 25.3402 12.6918 25.3514 12.8025C25.3626 12.9138 25.3725 13.0301 25.38 13.1526C25.3875 13.2751 25.3943 13.4026 25.3986 13.5357C25.403 13.6688 25.4061 13.8075 25.4067 13.9518C25.4074 14.0681 25.4067 14.1831 25.4061 14.2957C25.4049 14.4089 25.4024 14.5196 25.3993 14.629C25.3962 14.7385 25.3912 14.8461 25.3856 14.9518C25.38 15.0575 25.3732 15.162 25.3657 15.264C25.3582 15.3666 25.3495 15.4667 25.3396 15.5656C25.3296 15.6645 25.319 15.7615 25.3072 15.8573C25.2954 15.9524 25.2824 16.0463 25.268 16.1384C25.2537 16.2304 25.2388 16.3206 25.2226 16.4089C25.2065 16.4972 25.1891 16.5837 25.171 16.6689C25.153 16.7541 25.1337 16.8368 25.1132 16.9182C25.0927 16.9997 25.0715 17.0793 25.0485 17.1571C25.0131 17.2796 24.9758 17.3952 24.9366 17.5053C24.8974 17.6148 24.8563 17.718 24.8134 17.815C24.7705 17.912 24.7257 18.0022 24.6797 18.0868C24.6331 18.1708 24.5852 18.2485 24.5348 18.32C24.4844 18.3915 24.4328 18.4562 24.3787 18.5147C24.3246 18.5731 24.2693 18.6254 24.2114 18.6714C24.1536 18.7174 24.0945 18.7566 24.0336 18.7896C23.9664 18.8256 23.916 18.853 23.865 18.8804C23.8147 18.9077 23.7643 18.9351 23.6965 18.9712C23.6928 19.0875 23.689 19.1994 23.6859 19.3082C23.6822 19.4171 23.6791 19.5215 23.676 19.6242C23.6729 19.7261 23.6698 19.825 23.6666 19.922C23.6635 20.0191 23.6604 20.113 23.6573 20.2056C23.6542 20.2983 23.6517 20.3891 23.6486 20.4787C23.6455 20.5682 23.643 20.6565 23.6399 20.7442C23.6368 20.8319 23.6343 20.919 23.6312 21.0067C23.6281 21.0937 23.6256 21.1814 23.6225 21.2691C23.6194 21.3568 23.6169 21.4451 23.6138 21.5347C23.6107 21.6242 23.6082 21.715 23.6051 21.8077C23.602 21.9003 23.5989 21.9949 23.5957 22.0913C23.5926 22.1877 23.5895 22.2872 23.5864 22.3892C23.5833 22.4911 23.5796 22.5962 23.5765 22.7051C23.5727 22.8139 23.5696 22.9259 23.5659 23.0422C23.5628 23.1665 23.546 23.2779 23.5168 23.3755C23.4869 23.4731 23.4446 23.5577 23.3886 23.6286C23.3327 23.6995 23.2643 23.7573 23.1822 23.8021C23.0988 23.8475 23.0572 23.8699 22.9732 23.9153C22.8911 23.9595 22.824 23.9763 22.7705 23.9644C22.717 23.9526 22.6778 23.9122 22.6529 23.8444C22.6281 23.776 22.6175 23.6796 22.6206 23.5552L22.6225 23.554ZM24.0827 16.5401C24.1262 16.5165 24.166 16.4767 24.2033 16.4201C24.24 16.3635 24.2736 16.2895 24.3041 16.1993C24.3346 16.1091 24.3613 16.0022 24.3849 15.8784C24.3992 15.8044 24.4117 15.7279 24.4235 15.6489C24.4347 15.5706 24.4446 15.4897 24.4527 15.4064C24.4608 15.3237 24.4677 15.2379 24.4733 15.1508C24.4788 15.0631 24.4826 14.9735 24.4851 14.8821C24.4876 14.7901 24.4882 14.6962 24.4876 14.6004C24.4863 14.4219 24.4801 14.264 24.4677 14.1271C24.4552 13.9903 24.4378 13.8746 24.4148 13.7795C24.3918 13.6843 24.3632 13.6103 24.329 13.5568C24.2948 13.5034 24.255 13.471 24.2102 13.4592C24.1648 13.4474 24.1144 13.4567 24.0584 13.4866C23.9782 13.5295 23.9378 13.5512 23.8576 13.5942C23.8538 13.7073 23.8507 13.8162 23.8476 13.92C23.8445 14.0239 23.8414 14.124 23.8383 14.2204C23.8352 14.3168 23.8321 14.4101 23.8296 14.5015C23.8265 14.5923 23.824 14.6813 23.8215 14.7683C23.819 14.8554 23.8159 14.9412 23.8134 15.0264C23.8109 15.1116 23.8078 15.1968 23.8053 15.282C23.8028 15.3672 23.7997 15.453 23.7972 15.5401C23.7948 15.6272 23.7916 15.7161 23.7885 15.8069C23.7854 15.8977 23.7829 15.991 23.7798 16.088C23.7767 16.1844 23.7736 16.2845 23.7705 16.3884C23.7674 16.4922 23.7637 16.6011 23.7599 16.7143C23.8246 16.6794 23.8731 16.6533 23.9216 16.6272C23.9701 16.6011 24.0186 16.575 24.0833 16.5401H24.0827Z" fill="#0C0C08"/>
</svg>
