<svg width="28" height="32" viewBox="0 0 28 32" fill="none" xmlns="http://www.w3.org/2000/svg">
<path d="M26.806 8.0753C26.806 8.01622 26.7979 7.959 26.7824 7.90428C26.7786 7.88997 26.7743 7.87629 26.7693 7.86385C26.7643 7.85017 26.7593 7.83649 26.7537 7.82405C26.7481 7.81099 26.7419 7.79793 26.7357 7.78549C26.7295 7.77305 26.722 7.76061 26.7152 7.74818C26.7083 7.73698 26.7009 7.72579 26.6934 7.71459C26.6797 7.69407 26.6648 7.67479 26.6474 7.65551C26.6418 7.64805 26.635 7.64059 26.6281 7.63437C26.625 7.63064 26.6225 7.62815 26.6194 7.62504C26.6138 7.61944 26.6088 7.61385 26.6026 7.60887C26.5945 7.60141 26.5858 7.59332 26.5765 7.58648C26.5659 7.57778 26.5554 7.56907 26.5442 7.56036C26.5429 7.56036 26.5423 7.55912 26.5417 7.55912C26.533 7.5529 26.5243 7.54606 26.5149 7.54108C26.4994 7.53113 26.4845 7.5218 26.4683 7.5131L26.4559 7.50688L14.1204 0.918409C13.9332 0.818904 13.708 0.818904 13.5202 0.918409L1.18285 7.5075L1.17041 7.51372C1.16046 7.51932 1.14989 7.52491 1.14056 7.53051C1.13434 7.53486 1.1275 7.5386 1.12128 7.54357C1.1132 7.54855 1.10449 7.55414 1.09703 7.56036C1.08646 7.5672 1.07651 7.57591 1.06656 7.58399C1.06345 7.58648 1.06096 7.58897 1.05785 7.59084C1.04914 7.5983 1.04044 7.60638 1.03173 7.61447C1.03173 7.61447 1.03049 7.61447 1.03049 7.61571C1.02053 7.62504 1.01121 7.63437 1.0025 7.64432C1.0025 7.64432 1.00063 7.64556 1.00063 7.64681C0.991305 7.65676 0.982599 7.66671 0.97327 7.6779C0.964563 7.68847 0.956479 7.70029 0.947772 7.71148C0.939687 7.7233 0.931602 7.73512 0.924761 7.74756C0.91792 7.75937 0.91108 7.77119 0.90486 7.783C0.90486 7.783 0.90486 7.78425 0.90486 7.78487C0.899263 7.79606 0.893666 7.80664 0.888691 7.81783C0.886825 7.82218 0.884338 7.82654 0.883094 7.83151C0.873765 7.85514 0.865058 7.87878 0.858218 7.90365C0.851377 7.92791 0.845779 7.95341 0.842048 7.97828C0.836451 8.01 0.834585 8.04234 0.834585 8.0753L0.723886 23.7629C0.722642 23.9979 0.850755 24.2144 1.05661 24.3269L13.5159 31.0914C13.56 31.115 13.606 31.1337 13.6539 31.1461C13.662 31.1486 13.6701 31.1505 13.6782 31.1517C13.6863 31.1542 13.695 31.1561 13.7031 31.1573C13.7261 31.1623 13.7485 31.1648 13.7715 31.1667C13.7883 31.1679 13.8044 31.1685 13.8212 31.1685C13.838 31.1685 13.8536 31.1685 13.8697 31.1667C13.8921 31.1648 13.9151 31.1611 13.9375 31.1573C13.945 31.1561 13.9524 31.1548 13.9599 31.1524C13.9686 31.1505 13.9773 31.148 13.9866 31.1461C14.0277 31.1349 14.0681 31.1194 14.1067 31.1001C14.1123 31.0976 14.1185 31.0945 14.1241 31.0914L26.5833 24.3269C26.7904 24.2144 26.9179 23.9979 26.9161 23.7629L26.806 8.0753Z" fill="#52E8CF"/>
<path d="M27.5231 7.63125C27.5231 7.56906 27.5144 7.50873 27.4982 7.4509C27.4945 7.43597 27.4895 7.42167 27.4845 7.40798C27.4795 7.39368 27.4739 7.37938 27.4683 7.36569C27.4621 7.35201 27.4559 7.33833 27.4491 7.32527C27.4422 7.31221 27.4348 7.29915 27.4273 7.28609C27.4198 7.27428 27.4124 7.26246 27.4043 7.25064C27.39 7.22888 27.3738 7.20835 27.3558 7.18845C27.3496 7.18037 27.3427 7.1729 27.3352 7.16606C27.3321 7.16233 27.329 7.15922 27.3259 7.15611C27.3203 7.14989 27.3147 7.1443 27.3085 7.13932C27.2998 7.13124 27.2905 7.12315 27.2811 7.11569C27.2699 7.10636 27.2588 7.09703 27.2469 7.08833C27.2457 7.0877 27.2451 7.08708 27.2444 7.08708C27.2351 7.08024 27.2258 7.0734 27.2165 7.0678C27.2003 7.05723 27.1841 7.04728 27.1673 7.03857L27.1543 7.03173L14.1372 0.0788265C13.9394 -0.0262755 13.7018 -0.0262755 13.5041 0.0788265L0.485095 7.03173L0.472035 7.03857C0.461463 7.04417 0.450268 7.05039 0.440318 7.05661C0.433477 7.06096 0.426636 7.06531 0.419795 7.07029C0.411088 7.07527 0.402381 7.08148 0.394297 7.0877C0.383102 7.09517 0.37253 7.10387 0.361958 7.11258C0.358848 7.11507 0.355739 7.11755 0.352629 7.12004C0.3433 7.12813 0.333972 7.13621 0.325265 7.14492C0.324643 7.14492 0.324021 7.14554 0.324021 7.14616C0.313449 7.15611 0.303498 7.16606 0.29417 7.17664C0.293548 7.17726 0.292304 7.17788 0.292304 7.17912C0.282354 7.1897 0.273025 7.20027 0.263696 7.21208C0.254368 7.22328 0.245661 7.23572 0.236955 7.24753C0.228248 7.25997 0.220163 7.27241 0.2127 7.28547C0.205237 7.29791 0.198396 7.31035 0.191555 7.32278C0.190934 7.32341 0.190934 7.32403 0.190934 7.32465C0.184714 7.33647 0.179117 7.34766 0.174142 7.35948C0.172276 7.36383 0.169789 7.3688 0.167923 7.37378C0.157973 7.39866 0.148644 7.42353 0.141803 7.44965C0.13434 7.47515 0.128743 7.50189 0.125012 7.52863C0.119414 7.56222 0.116927 7.59642 0.116927 7.63125L8.52435e-06 24.1851C-0.00123529 24.4333 0.133718 24.6615 0.351385 24.7803L13.4985 31.9185C13.5451 31.9434 13.5936 31.9633 13.644 31.9764C13.6527 31.9789 13.6608 31.9807 13.6695 31.9826C13.6782 31.9851 13.6869 31.9869 13.6956 31.9882H13.6962C13.7205 31.9932 13.7441 31.9963 13.7684 31.9981C13.7858 31.9994 13.8032 32 13.8206 32C13.838 32 13.8548 31.9994 13.8716 31.9981C13.8952 31.9963 13.9195 31.9925 13.9431 31.9882C13.9431 31.9882 13.9433 31.9882 13.9438 31.9882C13.9518 31.9869 13.9593 31.9857 13.9674 31.9832C13.9767 31.9813 13.986 31.9789 13.9954 31.9764C14.0389 31.9646 14.0812 31.9484 14.1222 31.9279C14.1285 31.9254 14.1347 31.9216 14.1409 31.9185L27.288 24.7803C27.5063 24.6615 27.6412 24.4333 27.6394 24.1851L27.5231 7.63125ZM13.8206 1.43272L25.4241 7.63063L13.8206 13.813L2.21524 7.63063L13.8206 1.43272ZM13.1471 14.9772V30.1996L1.34643 23.7921L1.45216 8.7457L1.9957 9.03551L13.1471 14.9772ZM14.4923 30.1996V14.9772L26.1872 8.7457L26.2936 23.7921L14.4923 30.1996Z" fill="#0C0C08"/>
<path d="M2.59023 22.3928C2.59085 22.2697 2.59209 22.1478 2.59271 22.0284C2.59334 21.9083 2.59458 21.7902 2.5952 21.6733C2.59582 21.5563 2.59707 21.4413 2.59769 21.3275C2.59831 21.2137 2.59955 21.1011 2.60018 20.9904C2.6008 20.8791 2.60142 20.7696 2.60266 20.6614C2.60329 20.5532 2.60391 20.4456 2.60515 20.3393C2.60577 20.2329 2.6064 20.1284 2.60764 20.024C2.60826 19.9201 2.60888 19.8169 2.60951 19.7155C2.61013 19.6135 2.61075 19.5128 2.61137 19.4126C2.61199 19.3125 2.61261 19.213 2.61324 19.1147C2.61386 19.0165 2.61448 18.9182 2.6151 18.8212C2.61572 18.7242 2.61635 18.6278 2.61697 18.532C2.61759 18.4362 2.61821 18.3411 2.61883 18.2459C2.61946 18.1514 2.62008 18.0569 2.6207 17.963C2.62132 17.8691 2.62194 17.7751 2.62257 17.6819C2.62319 17.5886 2.62381 17.4953 2.62443 17.4026C2.62505 17.31 2.62567 17.2173 2.6263 17.1246C2.62692 17.032 2.62754 16.9399 2.62816 16.8473C2.62878 16.7546 2.62941 16.6626 2.63003 16.5699C2.63065 16.4772 2.63127 16.3846 2.63189 16.2919C2.63252 16.1992 2.63314 16.106 2.63376 16.0127C2.63438 15.9194 2.635 15.8261 2.63563 15.7316C2.63625 15.637 2.63687 15.5431 2.63749 15.4486C2.63811 15.3541 2.63873 15.2583 2.63936 15.1625C2.63998 15.0667 2.6406 14.9704 2.64122 14.8733C2.64184 14.7763 2.64247 14.6787 2.64309 14.5798C2.64371 14.4815 2.64433 14.382 2.64495 14.2819C2.64558 14.1818 2.6462 14.081 2.64682 13.979C2.64744 13.877 2.64806 13.7744 2.64869 13.6706C2.64931 13.5667 2.64993 13.4616 2.65117 13.3553C2.65242 13.2489 2.65242 13.142 2.65366 13.0331C2.6549 12.9243 2.6549 12.8148 2.65615 12.7041C2.65677 12.5928 2.65801 12.4809 2.65864 12.3671C2.65926 12.2532 2.6605 12.1382 2.66112 12.0213C2.66175 11.9044 2.66299 11.7862 2.66361 11.6662C2.66423 11.5461 2.66548 11.4249 2.6661 11.3017C2.66672 11.1786 2.68911 11.0834 2.7314 11.0163C2.77431 10.9491 2.83837 10.9106 2.92295 10.8994C2.97954 10.8925 3.0467 10.8969 3.12382 10.913C3.20094 10.9292 3.28925 10.9572 3.38689 10.9976C3.48453 11.038 3.59336 11.089 3.71277 11.1525C3.81973 11.2097 3.92484 11.265 4.02807 11.3204C4.13131 11.3757 4.23268 11.4298 4.33281 11.4827C4.43293 11.5362 4.53119 11.5884 4.62821 11.64C4.72523 11.6917 4.82038 11.7427 4.91491 11.793C5.00944 11.8434 5.1021 11.8925 5.19352 11.9417C5.28494 11.9902 5.37574 12.0387 5.46467 12.086C5.55423 12.1338 5.64254 12.1805 5.72961 12.2271C5.81667 12.2738 5.90312 12.3198 5.98894 12.3652C6.07476 12.4106 6.15934 12.456 6.2433 12.5008C6.32726 12.5455 6.41059 12.5897 6.49331 12.6339C6.57602 12.678 6.65811 12.7215 6.73958 12.7651C6.82105 12.8086 6.90252 12.8521 6.98337 12.8951C7.06422 12.938 7.14506 12.9809 7.22529 13.0238C7.30552 13.0667 7.38574 13.1096 7.46597 13.1519C7.54619 13.1942 7.62642 13.2371 7.70664 13.28C7.78687 13.3229 7.8671 13.3652 7.94732 13.4081C8.02755 13.451 8.1084 13.4939 8.18924 13.5369C8.27009 13.5798 8.35156 13.6233 8.43303 13.6668C8.5145 13.7104 8.59659 13.7539 8.6793 13.7981C8.76202 13.8422 8.84535 13.8864 8.92931 13.9311C9.01327 13.9759 9.09785 14.0213 9.18367 14.0667C9.26949 14.1121 9.35532 14.1581 9.443 14.2048C9.53007 14.2514 9.61838 14.2981 9.70794 14.346C9.79749 14.3938 9.88767 14.4417 9.97909 14.4902C10.0705 14.5394 10.1638 14.5885 10.2577 14.6389C10.3516 14.6893 10.4474 14.7396 10.5444 14.7919C10.6414 14.8435 10.7397 14.8957 10.8398 14.9492C10.9399 15.0027 11.0413 15.0568 11.1445 15.1115C11.2478 15.1663 11.3529 15.2222 11.4598 15.2794C11.5538 15.3292 11.6396 15.3833 11.7167 15.4399C11.7938 15.4971 11.8628 15.5574 11.9232 15.6215C11.9835 15.6855 12.0357 15.7527 12.0799 15.8236C12.1234 15.8945 12.1601 15.9704 12.1893 16.0518C12.2186 16.1333 12.2403 16.2204 12.2553 16.3124C12.2702 16.4045 12.277 16.5021 12.277 16.6047V17.157C12.277 17.2602 12.2696 17.3498 12.2553 17.4263C12.2403 17.5028 12.2186 17.5662 12.1893 17.6166C12.1601 17.6669 12.1234 17.7042 12.0799 17.7279C12.0357 17.7521 11.9835 17.7633 11.9232 17.7627C11.8622 17.7621 11.7938 17.749 11.7161 17.7235C11.639 17.698 11.5531 17.6601 11.4592 17.6097C11.3554 17.5544 11.2552 17.5009 11.1576 17.448C11.06 17.3958 10.9648 17.3448 10.8715 17.295C10.7789 17.2453 10.6881 17.1968 10.5997 17.1495C10.5114 17.1022 10.4244 17.0562 10.3398 17.0102C10.2546 16.9648 10.1713 16.92 10.0892 16.8765C10.0071 16.833 9.92623 16.7894 9.84662 16.7465C9.7664 16.7036 9.68741 16.6613 9.60905 16.6196C9.53069 16.578 9.45233 16.5357 9.3746 16.4946C9.29686 16.453 9.21912 16.4113 9.14138 16.3703C9.06364 16.3286 8.9859 16.2869 8.90692 16.2453C8.82794 16.2036 8.74958 16.1613 8.66935 16.1184C8.58913 16.0755 8.5089 16.0326 8.42681 15.9884C8.34472 15.9443 8.26138 15.9001 8.17618 15.8547C8.09098 15.8093 8.00454 15.7633 7.91623 15.7154C7.82792 15.6675 7.73712 15.6196 7.64445 15.5699C7.55179 15.5201 7.45664 15.4691 7.35838 15.4169C7.26012 15.3646 7.15999 15.3105 7.05613 15.2552C7.05613 15.3727 7.05551 15.484 7.05489 15.591C7.05489 15.698 7.05427 15.8 7.05364 15.8989C7.05364 15.9977 7.05302 16.0929 7.0524 16.1856C7.0524 16.2782 7.05178 16.369 7.05116 16.458C7.05053 16.5469 7.05053 16.6352 7.04991 16.7235C7.04991 16.8118 7.04929 16.8995 7.04867 16.9891C7.04805 17.0786 7.04805 17.1688 7.04742 17.2615C7.04742 17.3541 7.0468 17.4493 7.04618 17.5482C7.04618 17.647 7.04556 17.749 7.04494 17.856C7.04494 17.963 7.04431 18.0743 7.04369 18.1918C7.14755 18.2478 7.2483 18.3019 7.34594 18.3541C7.44358 18.407 7.53873 18.458 7.63139 18.5071C7.72406 18.5563 7.81423 18.6054 7.90192 18.6527C7.99023 18.6999 8.07606 18.7459 8.16064 18.7913C8.24521 18.8367 8.32793 18.8809 8.4094 18.9251C8.49087 18.9686 8.57109 19.0121 8.6507 19.055C8.7303 19.0979 8.80928 19.1402 8.88764 19.1819C8.966 19.2242 9.04374 19.2659 9.1221 19.3075C9.19984 19.3492 9.2782 19.3915 9.35656 19.4331C9.43492 19.4754 9.5139 19.5177 9.59351 19.56C9.67311 19.6029 9.75334 19.6458 9.83481 19.69C9.91628 19.7335 9.99899 19.7783 10.0836 19.8237C10.1681 19.8691 10.254 19.9151 10.3423 19.9624C10.4306 20.0097 10.5208 20.0582 10.6128 20.1079C10.7055 20.1577 10.8006 20.2087 10.8983 20.2609C10.9959 20.3138 11.0967 20.3673 11.2005 20.4232C11.295 20.4736 11.3809 20.5277 11.458 20.5855C11.5357 20.6428 11.6047 20.7037 11.6651 20.7684C11.726 20.8324 11.7783 20.9002 11.8224 20.9717C11.8666 21.0426 11.9026 21.1191 11.9319 21.2006C11.9611 21.2821 11.9829 21.3691 11.9978 21.4618C12.0127 21.5538 12.0196 21.6515 12.0196 21.7547C12.0196 21.8654 12.0196 21.9481 12.0196 22.0308C12.0196 22.1136 12.0196 22.1963 12.0196 22.307C12.0196 22.4102 12.0121 22.4998 11.9972 22.5763C11.9822 22.6528 11.9605 22.7162 11.9312 22.7659C11.902 22.8157 11.8653 22.853 11.8212 22.8766C11.777 22.9003 11.7248 22.9115 11.6638 22.9102C11.6029 22.909 11.5339 22.8953 11.4561 22.8698C11.3784 22.8437 11.2926 22.8051 11.198 22.7547C11.0942 22.6988 10.9928 22.644 10.8952 22.5912C10.7969 22.5383 10.7017 22.4873 10.6091 22.437C10.5164 22.3872 10.4262 22.3381 10.3379 22.2908C10.2496 22.2429 10.1638 22.1969 10.0792 22.1509C9.99464 22.1055 9.91192 22.0607 9.82983 22.0165C9.74774 21.9724 9.66751 21.9289 9.58791 21.8859C9.50831 21.843 9.42932 21.8007 9.35096 21.7578C9.2726 21.7155 9.19424 21.6733 9.1165 21.6316C9.03877 21.5899 8.96041 21.5476 8.88205 21.5053C8.80369 21.463 8.7247 21.4208 8.6451 21.3778C8.5655 21.3349 8.48465 21.2914 8.40318 21.2472C8.32171 21.2031 8.23837 21.1583 8.15379 21.1129C8.06922 21.0675 7.98277 21.0209 7.89446 20.973C7.80615 20.9257 7.71597 20.8766 7.62331 20.8268C7.53064 20.7771 7.43549 20.7255 7.33723 20.6726C7.23897 20.6197 7.13822 20.5656 7.03436 20.509C7.03436 20.6316 7.03374 20.7497 7.03312 20.8635C7.0325 20.9773 7.0325 21.088 7.03188 21.1956C7.03125 21.3032 7.03125 21.4071 7.03063 21.5091C7.03063 21.6111 7.03001 21.7099 7.02939 21.8076C7.02939 21.9052 7.02877 22.0004 7.02815 22.0949C7.02752 22.1894 7.02752 22.2821 7.0269 22.3748C7.0269 22.4674 7.02628 22.5588 7.02566 22.6509C7.02566 22.7429 7.02504 22.8344 7.02441 22.927C7.02379 23.0197 7.02379 23.1123 7.02317 23.2069C7.02317 23.3014 7.02255 23.3966 7.02193 23.4942C7.0213 23.5918 7.0213 23.6907 7.02068 23.7927C7.02068 23.8947 7.02006 23.9986 7.01944 24.1061C7.01944 24.2137 7.01882 24.3238 7.01819 24.4382C7.01819 24.5527 7.01757 24.6702 7.01695 24.7927C7.01695 24.8468 7.00513 24.8904 6.98275 24.9246C6.96036 24.9588 6.92615 24.983 6.88138 24.9967C6.8366 25.011 6.78 25.0154 6.71284 25.0092C6.64567 25.0036 6.56669 24.988 6.47714 24.9619C6.38758 24.9358 6.28621 24.9009 6.17427 24.8549C6.06233 24.8089 5.93857 24.7542 5.80423 24.6889C5.6699 24.6236 5.52376 24.5483 5.36704 24.4631C5.27624 24.414 5.19415 24.3692 5.11765 24.3275C5.04116 24.2859 4.97026 24.2473 4.90123 24.21C4.8322 24.1727 4.76503 24.136 4.69538 24.0987C4.62635 24.0614 4.55545 24.0228 4.47895 23.9811C4.40246 23.9395 4.32099 23.8953 4.22957 23.8456C4.09213 23.7709 3.96339 23.6982 3.84337 23.6267C3.72334 23.5558 3.6114 23.4861 3.50878 23.4183C3.40617 23.3505 3.31164 23.2846 3.22581 23.2206C3.13999 23.1565 3.06287 23.0937 2.99446 23.0334C2.92606 22.973 2.86573 22.9133 2.81473 22.8561C2.76374 22.7989 2.72083 22.7436 2.68662 22.6894C2.65242 22.6353 2.62692 22.5837 2.61013 22.5333C2.59334 22.483 2.58525 22.4345 2.58525 22.3872L2.59023 22.3928Z" fill="#0C0C08"/>
<path d="M15.4145 27.4389C15.4145 27.406 15.4208 27.3425 15.4332 27.2486C15.4456 27.1547 15.4562 27.067 15.4643 26.9856C15.4798 26.8631 15.4948 26.7418 15.5097 26.6224C15.5246 26.503 15.5389 26.3854 15.5538 26.2691C15.5682 26.1528 15.5825 26.0378 15.5968 25.9246C15.6111 25.8114 15.6247 25.6995 15.6384 25.5888C15.6521 25.4781 15.6658 25.3686 15.6788 25.261C15.6925 25.1528 15.7056 25.0465 15.7187 24.9407C15.7317 24.835 15.7448 24.7305 15.7578 24.6273C15.7709 24.5241 15.7833 24.4215 15.7958 24.3201C15.8082 24.2187 15.8206 24.118 15.8331 24.0185C15.8455 23.919 15.858 23.8201 15.8698 23.7218C15.8822 23.6236 15.894 23.5265 15.9058 23.4301C15.9177 23.3337 15.9295 23.2373 15.9413 23.1422C15.9531 23.047 15.9649 22.9519 15.9767 22.858C15.9886 22.7641 15.9998 22.6695 16.0116 22.5763C16.0234 22.483 16.0346 22.3897 16.0464 22.297C16.0576 22.2044 16.0694 22.1117 16.0806 22.0197C16.0918 21.9276 16.1036 21.8349 16.1148 21.7429C16.126 21.6509 16.1378 21.5588 16.149 21.4668C16.1602 21.3747 16.172 21.2827 16.1832 21.1907C16.1944 21.0986 16.2062 21.0066 16.2174 20.9145C16.2286 20.8225 16.2404 20.7298 16.2516 20.6372C16.2628 20.5445 16.2746 20.4512 16.2858 20.3579C16.297 20.2646 16.3088 20.1707 16.3207 20.0762C16.3325 19.9817 16.3437 19.8871 16.3555 19.792C16.3673 19.6968 16.3791 19.6011 16.3909 19.5047C16.4027 19.4083 16.4146 19.3113 16.427 19.213C16.4394 19.1147 16.4513 19.0165 16.4637 18.917C16.4761 18.8175 16.4886 18.7173 16.501 18.616C16.5134 18.5146 16.5259 18.4126 16.5389 18.3094C16.5514 18.2061 16.5644 18.1017 16.5775 17.9965C16.5906 17.8914 16.6036 17.7845 16.6167 17.6769C16.6297 17.5693 16.6434 17.4598 16.6571 17.3498C16.6708 17.2397 16.6845 17.1277 16.6982 17.0146C16.7118 16.9014 16.7261 16.7869 16.7404 16.6713C16.7547 16.5556 16.7691 16.4381 16.784 16.3186C16.7989 16.1999 16.8132 16.0792 16.8281 15.9567C16.8418 15.8479 16.8654 15.7502 16.899 15.6638C16.9326 15.5773 16.9768 15.5033 17.0303 15.4411C17.0837 15.3789 17.1478 15.3273 17.2218 15.2881C17.2908 15.2515 17.3424 15.2235 17.3947 15.1961C17.4469 15.1687 17.4985 15.1408 17.5676 15.1041C17.6808 15.0437 17.7672 15.0357 17.8282 15.0798C17.8891 15.124 17.9233 15.2197 17.932 15.3678C17.9395 15.4903 17.9463 15.6109 17.9532 15.7291C17.96 15.8472 17.9668 15.9648 17.9737 16.0805C17.9805 16.1961 17.9874 16.3093 17.9936 16.4219C18.0004 16.5338 18.0066 16.6445 18.0135 16.754C18.0197 16.8634 18.0265 16.971 18.0328 17.078C18.039 17.1843 18.0452 17.2901 18.0514 17.3939C18.0576 17.4978 18.0639 17.601 18.0695 17.703C18.0757 17.805 18.0813 17.9057 18.0875 18.0059C18.0931 18.106 18.0993 18.2049 18.1049 18.3025C18.1105 18.4008 18.1167 18.4978 18.1223 18.5942C18.1279 18.6906 18.1335 18.7864 18.1391 18.8815C18.1447 18.9767 18.1503 19.0712 18.1559 19.1651C18.1615 19.259 18.1671 19.3529 18.1727 19.4456C18.1783 19.5389 18.1839 19.6315 18.1895 19.7236C18.1951 19.8162 18.2007 19.9083 18.2057 20.0003C18.2112 20.0924 18.2168 20.1844 18.2218 20.2758C18.2268 20.3673 18.233 20.4593 18.238 20.5507C18.243 20.6421 18.2492 20.7342 18.2542 20.8262C18.2598 20.9183 18.2654 21.0103 18.2703 21.103C18.2753 21.1956 18.2815 21.2883 18.2871 21.381C18.2927 21.4742 18.2983 21.5675 18.3039 21.6614C18.3095 21.7553 18.3151 21.8499 18.3207 21.945C18.3263 22.0402 18.3319 22.136 18.3375 22.2323C18.3431 22.3287 18.3493 22.4258 18.3549 22.524C18.3605 22.6223 18.3667 22.7212 18.3723 22.8207C18.3779 22.9202 18.3841 23.0209 18.3904 23.1229C18.3966 23.2249 18.4028 23.3275 18.409 23.4314C18.4152 23.5352 18.4215 23.6403 18.4277 23.7473C18.4339 23.8537 18.4407 23.9619 18.447 24.0707C18.4532 24.1802 18.46 24.2902 18.4669 24.4028C18.4737 24.5147 18.4805 24.6286 18.4874 24.7436C18.4942 24.8587 18.5011 24.9756 18.5085 25.0944C18.516 25.2131 18.5228 25.3332 18.5303 25.4557C18.5346 25.4862 18.5365 25.5396 18.5371 25.6161C18.5371 25.6709 18.5353 25.715 18.5315 25.7498C18.5278 25.8717 18.5023 25.9756 18.4557 26.0608C18.409 26.146 18.3412 26.2132 18.2523 26.2611C18.1913 26.294 18.1453 26.3189 18.0999 26.3438C18.0539 26.3686 18.0085 26.3935 17.9476 26.4265C17.8499 26.4793 17.7747 26.4918 17.7218 26.4632C17.6689 26.4346 17.6379 26.3655 17.6298 26.2555C17.6248 26.1441 17.6204 26.0403 17.6161 25.9426C17.6117 25.845 17.608 25.7523 17.6043 25.664C17.6005 25.5751 17.5968 25.4899 17.5931 25.4053C17.5893 25.3214 17.5856 25.238 17.5825 25.1534C17.5788 25.0695 17.575 24.9837 17.5713 24.8947C17.5676 24.8058 17.5632 24.7138 17.5595 24.6155C17.5551 24.5179 17.5508 24.414 17.5458 24.3027C17.4488 24.3549 17.3642 24.4009 17.2852 24.4432C17.2062 24.4855 17.1341 24.5253 17.0613 24.5645C16.9886 24.6037 16.9158 24.6429 16.8375 24.6858C16.7585 24.7281 16.6739 24.7741 16.5769 24.8263C16.5626 24.9482 16.5495 25.0614 16.5371 25.1684C16.5246 25.2753 16.5128 25.3761 16.5016 25.4731C16.4904 25.5701 16.4799 25.6634 16.4687 25.7554C16.4581 25.8475 16.4475 25.9383 16.437 26.0303C16.4264 26.1224 16.4152 26.2157 16.404 26.3127C16.3928 26.4097 16.381 26.5104 16.3685 26.6174C16.3561 26.7244 16.343 26.8376 16.3287 26.9595C16.3182 27.0801 16.2877 27.1821 16.2373 27.2673C16.1863 27.3525 16.1154 27.4197 16.0246 27.4688C15.96 27.5036 15.9114 27.5304 15.8629 27.5565C15.8144 27.5826 15.7659 27.6093 15.7012 27.6442C15.6061 27.6958 15.5346 27.7045 15.4867 27.6703C15.4388 27.6361 15.4152 27.559 15.4152 27.4383L15.4145 27.4389ZM17.4917 22.3325C17.4867 22.2087 17.4818 22.0912 17.4774 21.9774C17.473 21.8636 17.4687 21.7553 17.4643 21.6502C17.46 21.5451 17.4563 21.4431 17.4519 21.3443C17.4482 21.2454 17.4438 21.1484 17.4401 21.0538C17.4364 20.9593 17.4326 20.8654 17.4289 20.7721C17.4252 20.6788 17.4214 20.5868 17.4177 20.4935C17.414 20.4008 17.4102 20.3069 17.4065 20.2118C17.4028 20.1166 17.399 20.0202 17.3947 19.9213C17.391 19.8225 17.3866 19.7205 17.3822 19.6154C17.3779 19.5103 17.3735 19.4014 17.3692 19.2876C17.3648 19.1744 17.3599 19.0563 17.3549 18.9325C17.3505 18.7982 17.3468 18.6719 17.3437 18.5538C17.3406 18.4356 17.3375 18.3249 17.3356 18.2223C17.3331 18.1197 17.3319 18.0252 17.3306 17.9381C17.3294 17.851 17.3288 17.7727 17.3288 17.7018C17.3163 17.7086 17.3101 17.7117 17.2977 17.7186C17.2871 17.8423 17.2771 17.9586 17.2672 18.0674C17.2572 18.1763 17.2485 18.2783 17.2398 18.3728C17.2311 18.4673 17.223 18.555 17.2156 18.6346C17.2081 18.7149 17.2007 18.7876 17.1938 18.8529C17.187 18.9182 17.1808 18.9767 17.1752 19.0277C17.1615 19.1508 17.1478 19.269 17.1354 19.3828C17.1223 19.4966 17.1105 19.606 17.098 19.7124C17.0856 19.8187 17.0744 19.9213 17.0632 20.0215C17.052 20.1216 17.0408 20.2192 17.0303 20.315C17.0197 20.4108 17.0091 20.5053 16.9985 20.5986C16.988 20.6919 16.9774 20.7846 16.9674 20.8766C16.9569 20.9693 16.9463 21.0613 16.9363 21.1546C16.9264 21.2479 16.9152 21.3418 16.9046 21.4382C16.8941 21.5346 16.8829 21.6316 16.8717 21.7317C16.8605 21.8318 16.8487 21.9345 16.8368 22.0408C16.825 22.1471 16.8126 22.2566 16.7995 22.3704C16.7865 22.4842 16.7734 22.6024 16.7591 22.7255C16.8567 22.6727 16.9382 22.6291 17.0141 22.5881C17.09 22.547 17.1602 22.5091 17.2361 22.4681C17.312 22.427 17.3934 22.3835 17.4911 22.3306L17.4917 22.3325Z" fill="#0C0C08"/>
<path d="M18.9152 25.3761C18.9196 25.2523 18.9246 25.1304 18.9289 25.0104C18.9333 24.8904 18.9376 24.7716 18.942 24.6547C18.9463 24.5378 18.9507 24.4227 18.9551 24.3089C18.9594 24.1951 18.9631 24.0832 18.9675 23.9718C18.9718 23.8605 18.9756 23.7517 18.9793 23.6435C18.983 23.5353 18.9874 23.4283 18.9911 23.3226C18.9949 23.2168 18.9986 23.1124 19.0029 23.0091C19.0067 22.9059 19.0104 22.8033 19.0141 22.7019C19.0179 22.6005 19.0216 22.4998 19.0253 22.4003C19.0291 22.3008 19.0328 22.2019 19.0365 22.1036C19.0403 22.0054 19.044 21.9084 19.0471 21.812C19.0508 21.7156 19.0539 21.6192 19.0577 21.524C19.0614 21.4289 19.0645 21.3337 19.0682 21.2392C19.072 21.1447 19.0751 21.0507 19.0788 20.9568C19.0825 20.8629 19.0857 20.7696 19.0894 20.6764C19.0925 20.5831 19.0962 20.4904 19.0993 20.3971C19.1024 20.3045 19.1062 20.2118 19.1093 20.1185C19.1124 20.0258 19.1161 19.9332 19.1192 19.8399C19.1223 19.7472 19.1261 19.6539 19.1292 19.5607C19.1323 19.4674 19.136 19.3741 19.1398 19.2802C19.1435 19.1863 19.1466 19.0924 19.1503 18.9978C19.1541 18.9033 19.1572 18.8088 19.1609 18.713C19.1646 18.6172 19.1677 18.5215 19.1715 18.4251C19.1752 18.3287 19.1783 18.231 19.182 18.1334C19.1858 18.0351 19.1895 17.9369 19.1926 17.8374C19.1963 17.7379 19.2001 17.6371 19.2038 17.5357C19.2075 17.4344 19.2113 17.3317 19.215 17.2285C19.2187 17.1253 19.2225 17.0208 19.2262 16.9151C19.2299 16.8093 19.2337 16.7024 19.238 16.5942C19.2417 16.486 19.2461 16.3765 19.2498 16.2658C19.2536 16.1551 19.2579 16.0432 19.2623 15.9294C19.2666 15.8155 19.2704 15.7005 19.2747 15.5836C19.2791 15.4667 19.2834 15.3485 19.2878 15.2285C19.2921 15.1084 19.2965 14.9865 19.3008 14.8628C19.3046 14.7465 19.3126 14.6433 19.3251 14.5537C19.3375 14.4641 19.3549 14.387 19.3761 14.3242C19.3972 14.2608 19.4246 14.2079 19.4569 14.165C19.4893 14.1221 19.5272 14.0885 19.5701 14.0655C19.6715 14.0114 19.7554 13.9666 19.8344 13.9249C19.9128 13.8833 19.9862 13.8441 20.0645 13.8024C20.1429 13.7608 20.2275 13.7154 20.3288 13.6619C20.4072 13.6202 20.4825 13.5879 20.5546 13.5642C20.6267 13.5406 20.6951 13.5269 20.7611 13.5226C20.8264 13.5176 20.8886 13.5226 20.9476 13.5363C21.0067 13.5499 21.0627 13.5736 21.1149 13.6059C21.1672 13.6383 21.2169 13.6799 21.2629 13.7309C21.309 13.7819 21.3519 13.8422 21.3917 13.9119C21.4315 13.9815 21.4676 14.0599 21.5011 14.1482C21.5341 14.2365 21.5646 14.3335 21.5913 14.4399C21.6181 14.5462 21.6417 14.6625 21.6622 14.7875C21.6827 14.9125 21.6995 15.0469 21.7132 15.1905C21.7269 15.3342 21.7375 15.4872 21.7449 15.6495C21.7524 15.8118 21.7561 15.9835 21.7574 16.1638C21.7574 16.2614 21.7574 16.3578 21.7549 16.4536C21.7524 16.5494 21.7493 16.6439 21.7443 16.7372C21.7393 16.8305 21.7331 16.9232 21.7256 17.0146C21.7182 17.106 21.7088 17.1962 21.6989 17.2857C21.6883 17.3753 21.6765 17.463 21.6635 17.5507C21.6504 17.6383 21.6361 17.7242 21.6199 17.8087C21.6044 17.894 21.587 17.9779 21.5683 18.0606C21.5422 18.1769 21.5142 18.2882 21.4843 18.3946C21.4545 18.5009 21.4222 18.6023 21.3886 18.6981C21.3544 18.7945 21.3183 18.8853 21.2804 18.9717C21.2424 19.0582 21.2026 19.139 21.1603 19.2155C21.118 19.2914 21.0745 19.3629 21.0279 19.4288C21.0279 19.4549 21.0279 19.468 21.0279 19.4941C21.0795 19.5314 21.1267 19.5886 21.1684 19.6651C21.2101 19.7416 21.2468 19.8386 21.2785 19.9549C21.294 20.0134 21.3096 20.0799 21.3239 20.1552C21.3382 20.2305 21.3525 20.315 21.3656 20.4077C21.3792 20.5004 21.3917 20.6017 21.4041 20.7118C21.4166 20.8219 21.4277 20.9407 21.4389 21.0682C21.4489 21.1876 21.4588 21.3001 21.4682 21.4077C21.4775 21.5153 21.4862 21.6173 21.4949 21.7162C21.5036 21.8151 21.5117 21.9096 21.5198 22.0023C21.5279 22.0949 21.5353 22.1857 21.5434 22.2753C21.5509 22.3648 21.559 22.4544 21.5664 22.5439C21.5739 22.6335 21.582 22.7243 21.5901 22.817C21.5982 22.9096 21.6062 23.0048 21.6149 23.103C21.6236 23.2013 21.6324 23.3039 21.6417 23.4115C21.651 23.5191 21.6603 23.6317 21.6709 23.7504C21.6765 23.8257 21.679 23.8636 21.6846 23.9389C21.6846 24.0098 21.6765 24.0763 21.6597 24.1404C21.6429 24.2044 21.6174 24.2641 21.5832 24.3201C21.549 24.3767 21.5074 24.4283 21.457 24.4743C21.4066 24.5204 21.3488 24.562 21.2822 24.5975C21.1952 24.6447 21.1516 24.6684 21.0646 24.7156C20.9545 24.7753 20.8699 24.7847 20.8108 24.743C20.7511 24.702 20.7175 24.6099 20.7082 24.4681C20.6995 24.3487 20.6914 24.2355 20.6833 24.1267C20.6752 24.0179 20.6678 23.914 20.6603 23.8139C20.6529 23.7137 20.646 23.6167 20.6392 23.5222C20.6323 23.4277 20.6255 23.3356 20.6193 23.2448C20.6131 23.154 20.6062 23.0645 20.5994 22.9749C20.5932 22.8854 20.5863 22.7958 20.5795 22.705C20.5726 22.6142 20.5664 22.5222 20.5596 22.4276C20.5527 22.3331 20.5459 22.2367 20.5384 22.136C20.531 22.0358 20.5235 21.932 20.5154 21.8232C20.5073 21.7143 20.4992 21.6011 20.4905 21.4817C20.4831 21.3406 20.4681 21.2274 20.4458 21.1428C20.4234 21.0582 20.3935 21.0016 20.3562 20.973C20.3189 20.9444 20.2741 20.9444 20.2219 20.973C20.1373 21.0184 20.0956 21.0414 20.011 21.0868C20.0067 21.2025 20.003 21.3144 19.9992 21.422C19.9955 21.5296 19.9918 21.6335 19.988 21.7342C19.9843 21.835 19.9806 21.9326 19.9775 22.0284C19.9737 22.1235 19.9706 22.2168 19.9675 22.3076C19.9644 22.3984 19.9613 22.4886 19.9576 22.5769C19.9538 22.6652 19.9513 22.7529 19.9482 22.84C19.9451 22.927 19.942 23.0141 19.9389 23.1012C19.9358 23.1882 19.9327 23.2759 19.9296 23.3642C19.9265 23.4525 19.9234 23.5421 19.9196 23.6335C19.9165 23.7249 19.9128 23.8176 19.9097 23.9134C19.9059 24.0085 19.9028 24.1062 19.8991 24.2075C19.8954 24.3089 19.8916 24.4121 19.8879 24.5197C19.8842 24.6273 19.8798 24.7386 19.8755 24.8549C19.8717 24.9731 19.8549 25.0794 19.8245 25.1734C19.7946 25.2673 19.7511 25.3487 19.6945 25.4184C19.6379 25.488 19.5683 25.5453 19.4855 25.59C19.401 25.6361 19.3587 25.6591 19.2741 25.7051C19.1914 25.7499 19.123 25.7679 19.0689 25.7586C19.0148 25.7492 18.9756 25.7126 18.9501 25.6485C18.9246 25.5844 18.9146 25.4936 18.9184 25.3749L18.9152 25.3761ZM20.4215 18.4978C20.4644 18.4785 20.5036 18.4437 20.5397 18.3933C20.5757 18.343 20.6093 18.277 20.6392 18.1956C20.669 18.1141 20.6958 18.0171 20.7194 17.9045C20.7374 17.8199 20.7524 17.7341 20.766 17.6464C20.7791 17.5587 20.7903 17.4692 20.799 17.3784C20.8077 17.2876 20.8139 17.1943 20.8183 17.1004C20.8226 17.0065 20.8245 16.9101 20.8239 16.8118C20.8233 16.6632 20.8189 16.5307 20.8102 16.4138C20.8015 16.2969 20.7891 16.1955 20.7729 16.1097C20.7567 16.0239 20.7362 15.9542 20.7119 15.9001C20.6759 15.8193 20.6305 15.7677 20.5776 15.7459C20.5247 15.7241 20.4626 15.7316 20.3929 15.7689C20.3139 15.8112 20.2741 15.8323 20.1951 15.8746C20.1908 15.9984 20.187 16.1147 20.1833 16.226C20.1796 16.3373 20.1759 16.443 20.1721 16.5457C20.1684 16.6477 20.1653 16.7465 20.1622 16.8423C20.1591 16.9387 20.156 17.032 20.1522 17.1253C20.1485 17.2186 20.146 17.3106 20.1429 17.4039C20.1398 17.4972 20.1367 17.5905 20.1329 17.6869C20.1298 17.7826 20.1261 17.8815 20.123 17.9835C20.1193 18.0855 20.1162 18.1918 20.1118 18.3032C20.1081 18.4145 20.1037 18.5314 20.1 18.6545C20.1647 18.6234 20.2125 18.5998 20.2611 18.5762C20.3096 18.5526 20.3574 18.5295 20.4221 18.4978H20.4215Z" fill="#0C0C08"/>
<path d="M22.3245 23.8854C22.2686 23.8617 22.2157 23.8288 22.1672 23.7871C22.1187 23.7454 22.0739 23.6951 22.0328 23.6354C21.9918 23.5763 21.9613 23.5072 21.9408 23.4283C21.9203 23.3499 21.9103 23.261 21.9091 23.164C21.9085 23.0862 21.9085 23.0047 21.911 22.9214C21.9134 22.8381 21.9184 22.751 21.9253 22.6621C21.9321 22.5725 21.9408 22.4805 21.952 22.3853C21.9632 22.2902 21.9756 22.1925 21.9912 22.0918C22.0111 21.9575 22.0328 21.8437 22.0552 21.7491C22.0776 21.6546 22.1019 21.58 22.1268 21.5252C22.1516 21.4705 22.1784 21.4357 22.2057 21.4208C22.2387 21.4027 22.2891 21.4226 22.3556 21.4786C22.4222 21.5346 22.4744 21.58 22.5123 21.6142C22.5913 21.6695 22.6691 21.7006 22.7449 21.7087C22.8208 21.7168 22.8948 21.7006 22.9676 21.6614C23.036 21.6247 23.0994 21.5663 23.1579 21.4873C23.2163 21.4083 23.2704 21.3076 23.3196 21.1857C23.3438 21.1247 23.3656 21.0594 23.3836 20.9885C23.4017 20.9176 23.4172 20.8424 23.429 20.7622C23.4408 20.6819 23.4496 20.5961 23.4558 20.5059C23.4614 20.4158 23.4639 20.3206 23.4632 20.2205C23.4626 20.1048 23.4576 19.9985 23.4477 19.9014C23.4384 19.8038 23.4241 19.7155 23.4054 19.6365C23.3867 19.5569 23.3637 19.4866 23.337 19.4257C23.3096 19.3641 23.2773 19.3019 23.24 19.2391C23.2027 19.1757 23.1604 19.1116 23.1131 19.0463C23.0658 18.981 23.0136 18.9151 22.957 18.8479C22.9029 18.7833 22.8519 18.7186 22.804 18.6551C22.7561 18.5917 22.712 18.5283 22.6703 18.4661C22.6286 18.4039 22.5907 18.3423 22.5559 18.2814C22.521 18.2204 22.4881 18.1495 22.4564 18.0687C22.4246 17.9878 22.3948 17.897 22.3668 17.7963C22.3388 17.6955 22.3121 17.5848 22.2872 17.4636C22.2723 17.3908 22.2592 17.3143 22.2468 17.2341C22.235 17.1532 22.2244 17.0687 22.2151 16.9803C22.2057 16.892 22.1983 16.7994 22.1921 16.7024C22.1858 16.606 22.1809 16.5052 22.1771 16.4001C22.1734 16.295 22.1715 16.1868 22.1709 16.0736C22.1709 15.9747 22.1709 15.8765 22.1734 15.7788C22.1759 15.6812 22.1784 15.5854 22.1834 15.4896C22.1877 15.3945 22.1933 15.3 22.2008 15.2061C22.2076 15.1128 22.2157 15.0201 22.2256 14.9287C22.2356 14.8373 22.2455 14.7465 22.258 14.6569C22.2698 14.5674 22.2829 14.4784 22.2978 14.3907C22.3121 14.303 22.3276 14.216 22.345 14.1302C22.3649 14.03 22.3855 13.9324 22.4079 13.8379C22.4302 13.7433 22.4533 13.6513 22.4781 13.5624C22.503 13.4734 22.5291 13.387 22.5559 13.3036C22.5832 13.2203 22.6118 13.1395 22.6411 13.0617C22.6709 12.984 22.702 12.9094 22.7337 12.8372C22.7655 12.7651 22.799 12.696 22.8339 12.6295C22.8861 12.53 22.9396 12.4386 22.9943 12.3552C23.049 12.2719 23.1063 12.1966 23.1647 12.1295C23.2232 12.0623 23.2829 12.0032 23.3444 11.9529C23.406 11.9019 23.4688 11.8596 23.5341 11.8248C23.6001 11.7899 23.6672 11.7638 23.7356 11.7483C23.804 11.7327 23.8737 11.7252 23.9452 11.7284C24.0161 11.7308 24.0814 11.7445 24.1399 11.7694C24.1983 11.7937 24.2506 11.8297 24.296 11.8751C24.3457 11.9249 24.3837 11.9902 24.4085 12.0716C24.4334 12.1531 24.4471 12.2508 24.4477 12.3639C24.4477 12.4367 24.4471 12.5126 24.444 12.5903C24.4409 12.6681 24.4365 12.7483 24.4303 12.831C24.4241 12.9137 24.4166 12.9989 24.4067 13.086C24.3973 13.1737 24.3861 13.2632 24.3731 13.3553C24.3563 13.4784 24.3376 13.5835 24.3171 13.6699C24.2972 13.7564 24.2754 13.8254 24.2524 13.8758C24.2294 13.9262 24.2045 13.9585 24.179 13.9722C24.1417 13.9921 24.0802 13.9871 23.9931 13.9579C23.9141 13.9243 23.8426 13.9056 23.7773 13.9025C23.712 13.8994 23.6542 13.9112 23.6025 13.9392C23.5379 13.9734 23.4806 14.0176 23.4315 14.0705C23.3824 14.1233 23.3395 14.1861 23.3046 14.2576C23.2698 14.3292 23.2425 14.4106 23.2219 14.5008C23.202 14.5916 23.1852 14.6812 23.1722 14.7701C23.1591 14.859 23.1492 14.948 23.143 15.0356C23.1367 15.1233 23.1336 15.211 23.1342 15.2975C23.1349 15.4131 23.1398 15.5189 23.1485 15.6146C23.1573 15.7104 23.1703 15.7969 23.1871 15.8734C23.2039 15.9499 23.225 16.017 23.2505 16.0736C23.2885 16.1594 23.3283 16.2372 23.3712 16.3062C23.4141 16.3759 23.4595 16.4368 23.5074 16.4897C23.6032 16.5954 23.666 16.6682 23.6952 16.7067C23.7568 16.777 23.814 16.8504 23.8681 16.9269C23.9216 17.0034 23.9713 17.0836 24.0167 17.1669C24.0621 17.2503 24.1038 17.3367 24.1417 17.4269C24.1797 17.5171 24.2132 17.6103 24.2425 17.7067C24.2624 17.7714 24.2804 17.8398 24.2972 17.912C24.314 17.9841 24.3289 18.0606 24.3426 18.1408C24.3563 18.2211 24.3681 18.305 24.3781 18.3933C24.388 18.4816 24.3973 18.5737 24.4042 18.6694C24.411 18.7652 24.4166 18.8653 24.421 18.9692C24.4247 19.0731 24.4272 19.1807 24.4278 19.2926C24.4284 19.407 24.4278 19.5202 24.4259 19.6315C24.4241 19.7429 24.421 19.8523 24.416 19.9599C24.4116 20.0675 24.4054 20.1738 24.398 20.2783C24.3905 20.3828 24.3818 20.4854 24.3718 20.5862C24.3619 20.6869 24.3501 20.7864 24.3376 20.8841C24.3252 20.9817 24.3109 21.0775 24.2953 21.1714C24.2798 21.2653 24.263 21.3579 24.2443 21.4487C24.2263 21.5395 24.2064 21.6285 24.1853 21.7162C24.1641 21.8032 24.1417 21.8891 24.1181 21.973C24.0945 22.057 24.069 22.1391 24.0428 22.2199C24.0049 22.335 23.9651 22.4444 23.9234 22.5483C23.8818 22.6521 23.8376 22.7504 23.7916 22.8431C23.7456 22.9357 23.6977 23.0228 23.6473 23.1036C23.5969 23.1851 23.5453 23.2604 23.4912 23.3306C23.4371 23.4009 23.3811 23.465 23.3227 23.5234C23.2642 23.5819 23.2039 23.6354 23.1417 23.6826C23.0795 23.7299 23.0148 23.7716 22.9489 23.8076C22.8743 23.8481 22.8015 23.8779 22.73 23.8972C22.6591 23.9165 22.5895 23.9252 22.5223 23.9233C22.4545 23.9214 22.3892 23.9084 22.3251 23.8854H22.3245Z" fill="#0C0C08"/>
</svg>
