<svg width="28" height="32" viewBox="0 0 28 32" fill="none" xmlns="http://www.w3.org/2000/svg">
<path d="M26.806 8.07527C26.806 8.01619 26.7979 7.95897 26.7824 7.90424C26.7787 7.88994 26.7743 7.87626 26.7693 7.86382C26.7644 7.85014 26.7594 7.83646 26.7538 7.82402C26.7482 7.81096 26.742 7.7979 26.7357 7.78546C26.7295 7.77302 26.7221 7.76058 26.7152 7.74815C26.7084 7.73695 26.7009 7.72576 26.6935 7.71456C26.6798 7.69404 26.6648 7.67476 26.6474 7.65548C26.6418 7.64802 26.635 7.64056 26.6282 7.63434C26.625 7.63061 26.6226 7.62812 26.6194 7.62501C26.6138 7.61941 26.6089 7.61381 26.6027 7.60884C26.5946 7.60138 26.5859 7.59329 26.5765 7.58645C26.566 7.57774 26.5554 7.56904 26.5442 7.56033C26.543 7.56033 26.5423 7.55909 26.5417 7.55909C26.533 7.55287 26.5243 7.54603 26.515 7.54105C26.4994 7.5311 26.4845 7.52177 26.4683 7.51307L26.4559 7.50685L14.1204 0.918379C13.9332 0.818874 13.7081 0.818874 13.5202 0.918379L1.18288 7.50747L1.17044 7.51369C1.16049 7.51929 1.14992 7.52488 1.14059 7.53048C1.13437 7.53483 1.12753 7.53856 1.12131 7.54354C1.11323 7.54852 1.10452 7.55411 1.09706 7.56033C1.08649 7.56717 1.07654 7.57588 1.06659 7.58396C1.06348 7.58645 1.06099 7.58894 1.05788 7.5908C1.04917 7.59827 1.04047 7.60635 1.03176 7.61444C1.03176 7.61444 1.03052 7.61444 1.03052 7.61568C1.02057 7.62501 1.01124 7.63434 1.00253 7.64429C1.00253 7.64429 1.00066 7.64553 1.00066 7.64678C0.991336 7.65673 0.982629 7.66668 0.973301 7.67787C0.964594 7.68844 0.956509 7.70026 0.947802 7.71145C0.939718 7.72327 0.931633 7.73509 0.924792 7.74752C0.917951 7.75934 0.91111 7.77116 0.904891 7.78297C0.904891 7.78297 0.904891 7.78422 0.904891 7.78484C0.899294 7.79603 0.893697 7.80661 0.888721 7.8178C0.886856 7.82215 0.884368 7.82651 0.883124 7.83148C0.873796 7.85511 0.865089 7.87875 0.858248 7.90362C0.851407 7.92788 0.84581 7.95338 0.842078 7.97825C0.836481 8.00997 0.834616 8.04231 0.834616 8.07527L0.723916 23.7628C0.722673 23.9979 0.850785 24.2143 1.05664 24.3269L13.5159 31.0914C13.56 31.115 13.6061 31.1337 13.654 31.1461C13.662 31.1486 13.6701 31.1505 13.6782 31.1517C13.6863 31.1542 13.695 31.1561 13.7031 31.1573C13.7261 31.1623 13.7485 31.1648 13.7715 31.1666C13.7883 31.1679 13.8045 31.1685 13.8212 31.1685C13.838 31.1685 13.8536 31.1685 13.8698 31.1666C13.8921 31.1648 13.9152 31.161 13.9375 31.1573C13.945 31.1561 13.9525 31.1548 13.9599 31.1523C13.9686 31.1505 13.9773 31.148 13.9867 31.1461C14.0277 31.1349 14.0681 31.1194 14.1067 31.1001C14.1123 31.0976 14.1185 31.0945 14.1241 31.0914L26.5834 24.3269C26.7905 24.2143 26.918 23.9979 26.9161 23.7628L26.806 8.07527Z" fill="#52E8CF"/>
<path d="M27.5231 7.63125C27.5231 7.56906 27.5144 7.50873 27.4982 7.4509C27.4945 7.43597 27.4895 7.42167 27.4845 7.40798C27.4795 7.39368 27.4739 7.37938 27.4683 7.36569C27.4621 7.35201 27.4559 7.33833 27.4491 7.32527C27.4422 7.31221 27.4348 7.29915 27.4273 7.28609C27.4198 7.27428 27.4124 7.26246 27.4043 7.25064C27.39 7.22888 27.3738 7.20835 27.3558 7.18845C27.3496 7.18037 27.3427 7.1729 27.3352 7.16606C27.3321 7.16233 27.329 7.15922 27.3259 7.15611C27.3203 7.14989 27.3147 7.1443 27.3085 7.13932C27.2998 7.13124 27.2905 7.12315 27.2811 7.11569C27.2699 7.10636 27.2588 7.09703 27.2469 7.08833C27.2457 7.0877 27.2451 7.08708 27.2444 7.08708C27.2351 7.08024 27.2258 7.0734 27.2165 7.0678C27.2003 7.05723 27.1841 7.04728 27.1673 7.03857L27.1543 7.03173L14.1372 0.0788265C13.9394 -0.0262755 13.7018 -0.0262755 13.5041 0.0788265L0.485095 7.03173L0.472035 7.03857C0.461463 7.04417 0.450268 7.05039 0.440318 7.05661C0.433477 7.06096 0.426636 7.06531 0.419795 7.07029C0.411088 7.07527 0.402381 7.08148 0.394297 7.0877C0.383102 7.09517 0.37253 7.10387 0.361958 7.11258C0.358848 7.11507 0.355739 7.11755 0.352629 7.12004C0.3433 7.12813 0.333972 7.13621 0.325265 7.14492C0.324643 7.14492 0.324021 7.14554 0.324021 7.14616C0.313449 7.15611 0.303498 7.16606 0.29417 7.17664C0.293548 7.17726 0.292304 7.17788 0.292304 7.17912C0.282354 7.1897 0.273025 7.20027 0.263696 7.21208C0.254368 7.22328 0.245661 7.23572 0.236955 7.24753C0.228248 7.25997 0.220163 7.27241 0.2127 7.28547C0.205237 7.29791 0.198396 7.31035 0.191555 7.32278C0.190934 7.32341 0.190934 7.32403 0.190934 7.32465C0.184714 7.33647 0.179117 7.34766 0.174142 7.35948C0.172276 7.36383 0.169789 7.3688 0.167923 7.37378C0.157973 7.39866 0.148644 7.42353 0.141803 7.44965C0.13434 7.47515 0.128743 7.50189 0.125012 7.52863C0.119414 7.56222 0.116927 7.59642 0.116927 7.63125L8.52435e-06 24.1851C-0.00123529 24.4333 0.133718 24.6615 0.351385 24.7803L13.4985 31.9185C13.5451 31.9434 13.5936 31.9633 13.644 31.9764C13.6527 31.9789 13.6608 31.9807 13.6695 31.9826C13.6782 31.9851 13.6869 31.9869 13.6956 31.9882H13.6962C13.7205 31.9932 13.7441 31.9963 13.7684 31.9981C13.7858 31.9994 13.8032 32 13.8206 32C13.838 32 13.8548 31.9994 13.8716 31.9981C13.8952 31.9963 13.9195 31.9925 13.9431 31.9882C13.9431 31.9882 13.9433 31.9882 13.9438 31.9882C13.9518 31.9869 13.9593 31.9857 13.9674 31.9832C13.9767 31.9813 13.986 31.9789 13.9954 31.9764C14.0389 31.9646 14.0812 31.9484 14.1222 31.9279C14.1285 31.9254 14.1347 31.9216 14.1409 31.9185L27.288 24.7803C27.5063 24.6615 27.6412 24.4333 27.6394 24.1851L27.5231 7.63125ZM13.8206 1.43272L25.4241 7.63063L13.8206 13.813L2.21524 7.63063L13.8206 1.43272ZM13.1471 14.9772V30.1996L1.34643 23.7921L1.45216 8.7457L1.9957 9.03551L13.1471 14.9772ZM14.4923 30.1996V14.9772L26.1872 8.7457L26.2936 23.7921L14.4923 30.1996Z" fill="#0C0C08"/>
<path d="M2.59026 22.3928C2.59088 22.2697 2.59212 22.1478 2.59274 22.0284C2.59337 21.9083 2.59461 21.7902 2.59523 21.6733C2.59585 21.5563 2.5971 21.4413 2.59772 21.3275C2.59834 21.2137 2.59959 21.1011 2.60021 20.9904C2.60083 20.8791 2.60145 20.7696 2.60269 20.6614C2.60332 20.5532 2.60394 20.4456 2.60518 20.3393C2.6058 20.2329 2.60643 20.1284 2.60767 20.024C2.60829 19.9201 2.60891 19.8169 2.60954 19.7155C2.61016 19.6141 2.61078 19.5128 2.6114 19.4126C2.61202 19.3125 2.61265 19.213 2.61327 19.1147C2.61389 19.0165 2.61451 18.9182 2.61513 18.8212C2.61575 18.7242 2.61638 18.6278 2.617 18.532C2.61762 18.4362 2.61824 18.3411 2.61886 18.2459C2.61949 18.1514 2.62011 18.0569 2.62073 17.963C2.62135 17.8691 2.62197 17.7751 2.6226 17.6819C2.62322 17.5886 2.62384 17.4953 2.62446 17.4026C2.62508 17.31 2.62571 17.2173 2.62633 17.1246C2.62695 17.032 2.62757 16.9399 2.62819 16.8473C2.62881 16.7546 2.62944 16.6626 2.63006 16.5699C2.63068 16.4772 2.6313 16.3846 2.63192 16.2919C2.63255 16.1992 2.63317 16.106 2.63379 16.0127C2.63441 15.9194 2.63503 15.8261 2.63566 15.7316C2.63628 15.637 2.6369 15.5431 2.63752 15.4486C2.63814 15.3541 2.63877 15.2583 2.63939 15.1625C2.64001 15.0667 2.64063 14.9704 2.64125 14.8733C2.64187 14.7763 2.6425 14.6787 2.64312 14.5798C2.64374 14.4809 2.64436 14.382 2.64498 14.2819C2.64561 14.1818 2.64623 14.081 2.64685 13.979C2.64747 13.877 2.64809 13.7744 2.64872 13.6706C2.64934 13.5667 2.64996 13.4616 2.6512 13.3553C2.65183 13.2489 2.65245 13.142 2.65369 13.0331C2.65431 12.9249 2.65493 12.8148 2.65618 12.7041C2.6568 12.5928 2.65804 12.4809 2.65867 12.3671C2.65929 12.2532 2.66053 12.1382 2.66115 12.0213C2.66178 11.9044 2.66302 11.7862 2.66364 11.6662C2.66426 11.5461 2.66551 11.4249 2.66613 11.3017C2.66675 11.1786 2.68914 11.0834 2.73143 11.0163C2.77434 10.9491 2.8384 10.9106 2.92298 10.8994C2.97957 10.8925 3.04674 10.8969 3.12385 10.913C3.20097 10.9292 3.28928 10.9572 3.38692 10.9976C3.48456 11.038 3.59339 11.089 3.7128 11.1525C3.81976 11.2097 3.92487 11.265 4.0281 11.3204C4.13134 11.3757 4.23271 11.4298 4.33284 11.4827C4.43296 11.5362 4.53122 11.5884 4.62824 11.64C4.72526 11.6917 4.82041 11.7427 4.91494 11.793C5.00885 11.8434 5.10213 11.8925 5.19355 11.9417C5.28497 11.9902 5.37577 12.0387 5.4647 12.086C5.55426 12.1338 5.64257 12.1805 5.72964 12.2271C5.8167 12.2738 5.90315 12.3198 5.98897 12.3652C6.07479 12.4106 6.15937 12.456 6.24333 12.5008C6.32729 12.5455 6.41062 12.5897 6.49334 12.6339C6.57605 12.678 6.65814 12.7215 6.73961 12.7651C6.82108 12.8086 6.90255 12.8521 6.9834 12.8951C7.06425 12.938 7.14509 12.9809 7.22532 13.0238C7.30555 13.0667 7.38577 13.1096 7.466 13.1519C7.54622 13.1942 7.62645 13.2371 7.70667 13.28C7.7869 13.3229 7.86713 13.3652 7.94735 13.4081C8.02758 13.451 8.10843 13.4939 8.18927 13.5369C8.27012 13.5798 8.35159 13.6233 8.43306 13.6668C8.51453 13.7104 8.59662 13.7539 8.67934 13.7981C8.76205 13.8422 8.84538 13.8864 8.92934 13.9311C9.0133 13.9759 9.09788 14.0213 9.1837 14.0667C9.2689 14.1121 9.35535 14.1581 9.44304 14.2048C9.5301 14.2514 9.61841 14.2981 9.70797 14.346C9.79752 14.3938 9.8877 14.4417 9.97912 14.4902C10.0705 14.5394 10.1638 14.5885 10.2577 14.6389C10.3516 14.6893 10.4474 14.7396 10.5444 14.7919C10.6414 14.8435 10.7397 14.8957 10.8398 14.9492C10.94 15.0027 11.0413 15.0568 11.1446 15.1115C11.2478 15.1663 11.3529 15.2222 11.4599 15.2794C11.5538 15.3292 11.6396 15.3833 11.7167 15.4399C11.7938 15.4971 11.8629 15.5574 11.9232 15.6215C11.9835 15.6855 12.0358 15.7527 12.0799 15.8236C12.1235 15.8945 12.1601 15.9704 12.1894 16.0518C12.2186 16.1333 12.2404 16.2204 12.2553 16.3124C12.2702 16.4045 12.2771 16.5021 12.2771 16.6047V17.157C12.2771 17.2602 12.2696 17.3498 12.2553 17.4263C12.2404 17.5028 12.2186 17.5662 12.1894 17.6166C12.1601 17.6669 12.1235 17.7043 12.0799 17.7279C12.0358 17.7521 11.9835 17.7633 11.9232 17.7627C11.8622 17.7621 11.7938 17.749 11.7161 17.7235C11.639 17.698 11.5532 17.6601 11.4593 17.6097C11.3554 17.5544 11.2553 17.5009 11.1576 17.448C11.06 17.3958 10.9648 17.3448 10.8716 17.295C10.7789 17.2453 10.6881 17.1968 10.5998 17.1495C10.5115 17.1022 10.4244 17.0562 10.3398 17.0102C10.2546 16.9648 10.1713 16.92 10.0892 16.8765C10.0071 16.833 9.92626 16.7894 9.84665 16.7465C9.76643 16.7036 9.68744 16.6613 9.60908 16.6196C9.53072 16.578 9.45236 16.5357 9.37463 16.4946C9.29689 16.453 9.21915 16.4113 9.14141 16.3703C9.06367 16.3286 8.98593 16.2869 8.90695 16.2453C8.82797 16.2036 8.74961 16.1613 8.66938 16.1184C8.58916 16.0755 8.50893 16.0326 8.42684 15.9884C8.34475 15.9443 8.26142 15.9001 8.17621 15.8547C8.09101 15.8093 8.00457 15.7633 7.91626 15.7154C7.82795 15.6675 7.73715 15.6196 7.64448 15.5699C7.55182 15.5201 7.45667 15.4691 7.35841 15.4169C7.26077 15.3646 7.16002 15.3105 7.05616 15.2552C7.05616 15.3727 7.05554 15.484 7.05492 15.591C7.05492 15.698 7.0543 15.8 7.05367 15.8989C7.05367 15.9977 7.05305 16.0929 7.05243 16.1856C7.05243 16.2782 7.05181 16.369 7.05119 16.458C7.05119 16.5475 7.05056 16.6352 7.04994 16.7235C7.04994 16.8118 7.04932 16.8995 7.0487 16.9891C7.0487 17.0786 7.04808 17.1688 7.04745 17.2615C7.04745 17.3541 7.04683 17.4493 7.04621 17.5482C7.04621 17.647 7.04559 17.749 7.04497 17.856C7.04497 17.963 7.04435 18.0743 7.04372 18.1918C7.14758 18.2478 7.24833 18.3019 7.34597 18.3541C7.44361 18.407 7.53876 18.458 7.63142 18.5071C7.72409 18.5563 7.81426 18.6054 7.90195 18.6527C7.98964 18.6999 8.07609 18.7459 8.16067 18.7913C8.24525 18.8367 8.32796 18.8809 8.40943 18.9251C8.4909 18.9686 8.57112 19.0121 8.65073 19.055C8.73033 19.0979 8.80931 19.1402 8.88767 19.1819C8.96603 19.2242 9.04377 19.2659 9.12213 19.3075C9.19987 19.3492 9.27823 19.3915 9.35659 19.4331C9.43495 19.4754 9.51393 19.5177 9.59354 19.56C9.67314 19.6029 9.75337 19.6458 9.83484 19.69C9.91631 19.7335 9.99902 19.7783 10.0836 19.8237C10.1682 19.8691 10.254 19.9151 10.3423 19.9624C10.4306 20.0097 10.5208 20.0582 10.6128 20.1079C10.7055 20.1577 10.8007 20.2087 10.8983 20.2609C10.9959 20.3138 11.0967 20.3673 11.2005 20.4232C11.2951 20.4736 11.3809 20.5277 11.458 20.5855C11.5357 20.6428 11.6048 20.7037 11.6651 20.7684C11.7261 20.8324 11.7783 20.9002 11.8224 20.9717C11.8666 21.0426 11.9027 21.1191 11.9319 21.2006C11.9611 21.2821 11.9829 21.3691 11.9978 21.4618C12.0128 21.5538 12.0196 21.6515 12.0196 21.7547C12.0196 21.8654 12.0196 21.9481 12.0196 22.0308C12.0196 22.1136 12.0196 22.1963 12.0196 22.307C12.0196 22.4102 12.0121 22.4998 11.9972 22.5763C11.9823 22.6528 11.9605 22.7162 11.9313 22.7659C11.9021 22.8157 11.8654 22.853 11.8212 22.8766C11.777 22.9003 11.7248 22.9115 11.6639 22.9102C11.6029 22.909 11.5339 22.8953 11.4561 22.8698C11.3784 22.8437 11.2926 22.8051 11.1981 22.7547C11.0942 22.6988 10.9928 22.644 10.8952 22.5912C10.7969 22.5383 10.7018 22.4873 10.6091 22.437C10.5164 22.3872 10.4263 22.3381 10.338 22.2908C10.2496 22.2429 10.1638 22.1969 10.0792 22.1509C9.99467 22.1049 9.91195 22.0607 9.82986 22.0165C9.74777 21.9724 9.66754 21.9289 9.58794 21.8859C9.50834 21.843 9.42935 21.8007 9.35099 21.7578C9.27263 21.7155 9.19427 21.6733 9.11653 21.6316C9.0388 21.5899 8.96044 21.5476 8.88208 21.5053C8.80372 21.463 8.72473 21.4208 8.64513 21.3778C8.56553 21.3349 8.48468 21.2914 8.40321 21.2472C8.32174 21.2031 8.2384 21.1583 8.15383 21.1129C8.06925 21.0675 7.9828 21.0209 7.89449 20.973C7.80618 20.9257 7.716 20.8766 7.62334 20.8268C7.53068 20.7771 7.43552 20.7255 7.33726 20.6726C7.239 20.6197 7.13825 20.5656 7.03439 20.509C7.03439 20.6316 7.03377 20.7497 7.03315 20.8635C7.03253 20.9773 7.03253 21.088 7.03191 21.1956C7.03191 21.3032 7.03129 21.4071 7.03066 21.5091C7.03004 21.6111 7.03004 21.7099 7.02942 21.8076C7.02942 21.9052 7.0288 22.0004 7.02818 22.0949C7.02755 22.1894 7.02755 22.2821 7.02693 22.3748C7.02693 22.4674 7.02631 22.5588 7.02569 22.6509C7.02569 22.7429 7.02507 22.8344 7.02444 22.927C7.02382 23.0197 7.02382 23.1123 7.0232 23.2069C7.02258 23.3014 7.02258 23.3966 7.02196 23.4942C7.02134 23.5918 7.02133 23.6907 7.02071 23.7927C7.02071 23.8947 7.02009 23.9986 7.01947 24.1061C7.01947 24.2137 7.01885 24.3238 7.01823 24.4382C7.01823 24.5527 7.0176 24.6702 7.01698 24.7927C7.01698 24.8468 7.00517 24.8904 6.98278 24.9246C6.96039 24.9588 6.92618 24.983 6.88141 24.9967C6.83663 25.0104 6.78004 25.0154 6.71287 25.0092C6.6457 25.0036 6.56672 24.988 6.47717 24.9619C6.38761 24.9364 6.28624 24.9009 6.1743 24.8549C6.06236 24.8095 5.9386 24.7542 5.80427 24.6889C5.66993 24.6236 5.52379 24.5483 5.36707 24.4631C5.27627 24.414 5.19418 24.3692 5.11768 24.3275C5.04119 24.2859 4.97029 24.2473 4.90126 24.21C4.83223 24.1727 4.76506 24.136 4.69541 24.0987C4.62575 24.0614 4.55548 24.0228 4.47898 23.9811C4.40249 23.9395 4.32102 23.8953 4.2296 23.8456C4.09216 23.7709 3.96342 23.6982 3.8434 23.6267C3.72337 23.5558 3.61143 23.4861 3.50881 23.4183C3.4062 23.3505 3.31167 23.2846 3.22584 23.2206C3.14002 23.1565 3.06291 23.0937 2.9945 23.0334C2.92609 22.9724 2.86576 22.9133 2.81476 22.8561C2.76377 22.7989 2.72086 22.7436 2.68665 22.6894C2.65245 22.6353 2.62695 22.5837 2.61016 22.5333C2.59337 22.483 2.58528 22.4345 2.58528 22.3872L2.59026 22.3928Z" fill="#0C0C08"/>
<path d="M15.6066 27.7412C15.5842 27.7119 15.5681 27.6653 15.5581 27.6025C15.5488 27.5397 15.5457 27.4601 15.5488 27.3637C15.5525 27.2393 15.5569 27.1168 15.5606 26.9961C15.5643 26.8755 15.5681 26.7561 15.5718 26.6385C15.5755 26.521 15.5793 26.4053 15.583 26.2909C15.5867 26.1764 15.5904 26.0633 15.5936 25.9519C15.5967 25.8406 15.6004 25.7299 15.6041 25.6211C15.6079 25.5122 15.611 25.4047 15.6147 25.2977C15.6178 25.1913 15.6215 25.0856 15.6247 24.9811C15.6278 24.8767 15.6315 24.7734 15.6346 24.6714C15.6377 24.5688 15.6408 24.4681 15.6446 24.3673C15.6477 24.2666 15.6508 24.1671 15.6539 24.0682C15.657 23.9693 15.6601 23.871 15.6632 23.774C15.6663 23.6764 15.6694 23.58 15.6725 23.4836C15.6756 23.3872 15.6788 23.292 15.6819 23.1963C15.685 23.1005 15.6881 23.0066 15.6912 22.9121C15.6943 22.8175 15.6974 22.7236 15.6999 22.6297C15.7024 22.5358 15.7061 22.4425 15.7086 22.3492C15.7117 22.2559 15.7148 22.1627 15.7173 22.0694C15.7204 21.9761 15.7235 21.8828 15.726 21.7901C15.7291 21.6969 15.7322 21.6036 15.7347 21.5103C15.7378 21.417 15.7409 21.3237 15.7434 21.2298C15.7465 21.1359 15.7497 21.042 15.7521 20.9475C15.7553 20.8529 15.7584 20.7584 15.7615 20.6632C15.7646 20.5681 15.7677 20.4723 15.7708 20.3765C15.7739 20.2802 15.777 20.1838 15.7801 20.0861C15.7832 19.9885 15.7863 19.8908 15.7895 19.792C15.7926 19.6931 15.7957 19.5936 15.7988 19.4934C15.8019 19.3933 15.805 19.2919 15.8087 19.1893C15.8118 19.0873 15.815 18.9841 15.8187 18.8796C15.8218 18.7751 15.8255 18.67 15.8286 18.5637C15.8317 18.4573 15.8355 18.3498 15.8386 18.2403C15.8423 18.1315 15.8454 18.0214 15.8492 17.9094C15.8529 17.7981 15.856 17.6849 15.8597 17.5705C15.8635 17.4561 15.8672 17.3404 15.8709 17.2229C15.8747 17.1053 15.8784 16.9865 15.8821 16.8659C15.8859 16.7452 15.8896 16.6227 15.8939 16.499C15.897 16.4026 15.9058 16.3167 15.9194 16.2415C15.9331 16.1662 15.9524 16.1009 15.976 16.0462C16.0003 15.9915 16.0314 15.9436 16.0699 15.9026C16.1085 15.8609 16.1545 15.8261 16.208 15.7975C16.2677 15.7657 16.2982 15.7496 16.3579 15.7179C16.4406 15.6737 16.504 15.6762 16.5488 15.7241C16.5712 15.7483 16.5911 15.7856 16.6085 15.836C16.6259 15.8864 16.6402 15.9504 16.6527 16.0269C16.6701 16.1482 16.6869 16.2645 16.7024 16.3764C16.7186 16.4884 16.7341 16.5966 16.7491 16.7011C16.764 16.8056 16.7783 16.9069 16.7926 17.0052C16.8069 17.1035 16.8206 17.1999 16.8343 17.2944C16.8479 17.3889 16.861 17.4816 16.8741 17.573C16.8871 17.6644 16.9002 17.7558 16.9132 17.8466C16.9263 17.9374 16.9394 18.0282 16.9524 18.1203C16.9655 18.2123 16.9792 18.3044 16.9922 18.3989C17.0059 18.4934 17.0196 18.5892 17.0339 18.6875C17.0482 18.7857 17.0625 18.8871 17.0774 18.9916C17.0924 19.096 17.1079 19.2036 17.1241 19.3156C17.1402 19.4275 17.157 19.5438 17.1744 19.6651C17.18 19.7099 17.1869 19.7683 17.1943 19.8398C17.2018 19.9114 17.2099 19.9953 17.2186 20.093C17.2273 20.1906 17.2373 20.3013 17.2478 20.4251C17.2572 20.3274 17.2671 20.231 17.2789 20.1346C17.2907 20.0382 17.3038 19.9425 17.3181 19.8467C17.3324 19.7515 17.3486 19.6564 17.3654 19.5619C17.3859 19.4468 17.4052 19.3349 17.4244 19.2273C17.4437 19.1191 17.4618 19.0146 17.4798 18.9126C17.4978 18.8106 17.5152 18.7117 17.532 18.6147C17.5488 18.5177 17.5656 18.4231 17.5818 18.3305C17.598 18.2378 17.6141 18.147 17.6297 18.0575C17.6452 17.9679 17.6608 17.8796 17.6763 17.7919C17.6919 17.7042 17.7068 17.6178 17.7223 17.5307C17.7373 17.4443 17.7528 17.3578 17.7677 17.2714C17.7827 17.1849 17.7982 17.0979 17.8138 17.0108C17.8293 16.9237 17.8449 16.8348 17.8604 16.7452C17.876 16.6557 17.8921 16.5649 17.9083 16.4722C17.9245 16.3796 17.9413 16.285 17.958 16.1886C17.9748 16.0922 17.9922 15.9927 18.0103 15.8914C18.0283 15.7894 18.0464 15.6849 18.0656 15.5767C18.0843 15.4685 18.1042 15.3578 18.1241 15.2421C18.1409 15.1501 18.1602 15.068 18.1813 14.9977C18.2025 14.9268 18.2255 14.8665 18.2503 14.8173C18.3001 14.7191 18.3666 14.6476 18.4487 14.6034C18.5171 14.5673 18.5507 14.5487 18.6191 14.5126C18.7255 14.456 18.802 14.4566 18.8467 14.5157C18.8691 14.5456 18.8853 14.5916 18.8953 14.6544C18.9052 14.7172 18.9083 14.7968 18.9052 14.8926C18.9015 15.0163 18.8977 15.1382 18.8946 15.2583C18.8909 15.3783 18.8878 15.4971 18.8841 15.614C18.8803 15.7309 18.8772 15.8466 18.8741 15.9604C18.871 16.0742 18.8673 16.1868 18.8642 16.2981C18.861 16.4094 18.8579 16.5189 18.8542 16.6277C18.8511 16.7359 18.848 16.8435 18.8449 16.9498C18.8418 17.0562 18.8387 17.1607 18.8356 17.2645C18.8324 17.3684 18.8293 17.471 18.8262 17.573C18.8231 17.675 18.82 17.7757 18.8175 17.8759C18.8144 17.976 18.8119 18.0749 18.8088 18.1738C18.8057 18.272 18.8032 18.3697 18.8001 18.4667C18.797 18.5637 18.7945 18.6601 18.7914 18.7559C18.7883 18.8516 18.7858 18.9468 18.7827 19.0419C18.7796 19.1365 18.7771 19.231 18.7746 19.3249C18.7721 19.4188 18.769 19.5127 18.7665 19.606C18.764 19.6993 18.7609 19.7926 18.7584 19.8859C18.7559 19.9792 18.7528 20.0718 18.7504 20.1645C18.7479 20.2571 18.7448 20.3498 18.7423 20.4431C18.7398 20.5364 18.7367 20.629 18.7342 20.7217C18.7317 20.8144 18.7286 20.9077 18.7261 21.0016C18.7236 21.0948 18.7205 21.1888 18.718 21.2827C18.7155 21.3766 18.7124 21.4711 18.7093 21.5656C18.7062 21.6602 18.7037 21.7559 18.7006 21.8517C18.6975 21.9475 18.695 22.0439 18.6919 22.1409C18.6888 22.2379 18.6863 22.3355 18.6832 22.4344C18.6801 22.5327 18.6776 22.6322 18.6745 22.7323C18.6714 22.8325 18.6683 22.9332 18.6652 23.0352C18.662 23.1372 18.6589 23.2398 18.6558 23.3437C18.6527 23.4475 18.6496 23.5526 18.6465 23.659C18.6434 23.7653 18.6403 23.8723 18.6372 23.9811C18.6341 24.0899 18.6309 24.1994 18.6272 24.3107C18.6241 24.422 18.6204 24.5346 18.6173 24.6484C18.6142 24.7622 18.6104 24.8779 18.6067 24.9948C18.603 25.1117 18.5998 25.2305 18.5961 25.3505C18.5924 25.4706 18.5887 25.5931 18.5849 25.7169C18.5818 25.8132 18.5731 25.8991 18.5588 25.9743C18.5445 26.0502 18.5252 26.1155 18.4997 26.1702C18.4748 26.2256 18.4425 26.2741 18.4027 26.3164C18.3635 26.3587 18.3163 26.3941 18.2628 26.4233C18.1919 26.4619 18.1564 26.4812 18.0855 26.5197C17.9811 26.5763 17.9064 26.5751 17.861 26.5166C17.8386 26.4874 17.8225 26.4414 17.8125 26.3786C17.8026 26.3157 17.7995 26.2361 17.8032 26.1404C17.8069 26.0172 17.8107 25.8972 17.8144 25.7797C17.8181 25.6621 17.8212 25.5483 17.825 25.4364C17.8281 25.3244 17.8318 25.2156 17.8349 25.1086C17.838 25.0017 17.8411 24.8972 17.8442 24.7939C17.8473 24.6913 17.8505 24.59 17.8536 24.4905C17.8567 24.3909 17.8598 24.2933 17.8623 24.1963C17.8654 24.0999 17.8679 24.0041 17.871 23.9096C17.8741 23.8151 17.8766 23.7212 17.8797 23.6279C17.8828 23.5346 17.8853 23.4419 17.8884 23.3493C17.8909 23.2566 17.894 23.1645 17.8965 23.0719C17.899 22.9792 17.9021 22.8866 17.9052 22.7933C17.9083 22.7 17.9108 22.6061 17.9139 22.5115C17.917 22.417 17.9195 22.3212 17.9226 22.2249C17.9257 22.1285 17.9282 22.0302 17.9313 21.9307C17.9344 21.8312 17.9375 21.7304 17.9406 21.6278C17.9437 21.5252 17.9468 21.4201 17.95 21.3131C17.9531 21.2062 17.9562 21.0973 17.9599 20.9854C17.963 20.8734 17.9667 20.7596 17.9705 20.6421C17.9742 20.5252 17.9773 20.4052 17.9811 20.2814C17.9835 20.2136 17.9867 20.1427 17.991 20.0693C17.9947 19.9959 17.9997 19.9194 18.0053 19.8398C18.0109 19.7609 18.0171 19.6788 18.024 19.5936C18.0308 19.5084 18.0389 19.4207 18.047 19.3305C18.0389 19.328 18.0345 19.3274 18.0265 19.3249C18.0115 19.4294 17.9966 19.5301 17.9817 19.6284C17.9668 19.7267 17.9512 19.8218 17.9357 19.9138C17.9201 20.0059 17.9046 20.0954 17.8884 20.1819C17.8679 20.2951 17.8486 20.402 17.8306 20.5034C17.8125 20.6054 17.7945 20.7024 17.7777 20.7957C17.7609 20.889 17.7447 20.9792 17.7286 21.0675C17.713 21.1552 17.6975 21.2416 17.6819 21.3268C17.6664 21.412 17.6514 21.4966 17.6359 21.5818C17.6203 21.667 17.6048 21.7528 17.5893 21.8411C17.5737 21.9294 17.5569 22.019 17.5401 22.1129C17.5233 22.2068 17.5059 22.3038 17.4873 22.4058C17.4686 22.5078 17.4493 22.6148 17.4294 22.728C17.4139 22.8088 17.3983 22.8791 17.3828 22.9388C17.3672 22.9985 17.3517 23.0476 17.3361 23.0868C17.305 23.1646 17.2634 23.2174 17.2118 23.246C17.1763 23.2653 17.1589 23.2746 17.1234 23.2939C17.0681 23.3238 17.0252 23.3163 16.996 23.2709C16.9667 23.2261 16.9431 23.1359 16.9257 23.0004C16.9083 22.8785 16.8915 22.7653 16.8759 22.6583C16.8604 22.5514 16.8461 22.4506 16.8318 22.3536C16.8175 22.2566 16.8044 22.1633 16.7907 22.0712C16.7777 21.9792 16.764 21.8884 16.7509 21.7964C16.7379 21.7043 16.7242 21.611 16.7099 21.514C16.6956 21.417 16.6813 21.3162 16.6657 21.2093C16.6502 21.1023 16.634 20.9891 16.6166 20.8666C16.6098 20.815 16.6017 20.7528 16.5936 20.6807C16.5849 20.6085 16.5755 20.5264 16.5656 20.4344C16.5556 20.3423 16.5445 20.2397 16.5333 20.1278C16.5252 20.139 16.5208 20.1446 16.5127 20.1551C16.5146 20.2099 16.5158 20.2814 16.5165 20.3697C16.5171 20.458 16.5177 20.5631 16.5177 20.6856C16.5177 20.769 16.5177 20.843 16.5165 20.907C16.5158 20.9717 16.5146 21.0264 16.5127 21.0718C16.509 21.1956 16.5053 21.3156 16.5015 21.4332C16.4978 21.5507 16.4941 21.6651 16.491 21.7771C16.4879 21.889 16.4841 21.9985 16.481 22.1054C16.4779 22.2124 16.4742 22.3175 16.4711 22.4201C16.468 22.5234 16.4648 22.6241 16.4617 22.7236C16.4586 22.8231 16.4555 22.9214 16.4524 23.0178C16.4493 23.1142 16.4462 23.2106 16.4437 23.3051C16.4406 23.3996 16.4381 23.4935 16.435 23.5874C16.4319 23.6807 16.4294 23.774 16.4263 23.8667C16.4232 23.9593 16.4207 24.052 16.4176 24.1447C16.4145 24.2373 16.412 24.3306 16.4089 24.4239C16.4058 24.5172 16.4033 24.6111 16.4002 24.7063C16.3971 24.8014 16.394 24.8966 16.3915 24.9936C16.3884 25.0906 16.3852 25.1882 16.3821 25.2884C16.379 25.3879 16.3759 25.4892 16.3728 25.5918C16.3697 25.6951 16.3666 25.7996 16.3629 25.9072C16.3591 26.0147 16.356 26.1236 16.3523 26.2355C16.3486 26.3475 16.3454 26.4619 16.3417 26.5794C16.338 26.697 16.3342 26.817 16.3305 26.9408C16.3268 27.0372 16.3181 27.123 16.3038 27.1989C16.2895 27.2747 16.2696 27.34 16.2447 27.3954C16.2198 27.4507 16.1869 27.4999 16.1477 27.5421C16.1079 27.5844 16.0612 27.6205 16.0077 27.6497C15.9368 27.6883 15.9014 27.7076 15.8305 27.7461C15.726 27.8027 15.6514 27.8015 15.6066 27.7424V27.7412Z" fill="#0C0C08"/>
<path d="M18.9525 25.9749C18.9214 25.942 18.9052 25.876 18.9052 25.7759C18.9052 25.7318 18.9096 25.6708 18.9176 25.5943C18.9264 25.5178 18.9388 25.4245 18.9562 25.3157C18.9749 25.1982 18.9923 25.0837 19.0097 24.9718C19.0271 24.8598 19.0445 24.751 19.0607 24.644C19.0775 24.5371 19.0936 24.4326 19.1098 24.3306C19.126 24.2286 19.1415 24.1279 19.1571 24.029C19.1726 23.9301 19.1876 23.8337 19.2025 23.7379C19.2174 23.6428 19.2323 23.5489 19.2466 23.4562C19.2609 23.3635 19.2752 23.2721 19.2895 23.1813C19.3039 23.0905 19.3175 23.001 19.3318 22.912C19.3455 22.8231 19.3598 22.7342 19.3735 22.6459C19.3872 22.5576 19.4009 22.4699 19.4145 22.3816C19.4282 22.2932 19.4419 22.2056 19.4556 22.1172C19.4693 22.0289 19.483 21.9406 19.4973 21.8511C19.5109 21.7621 19.5252 21.672 19.5396 21.5818C19.5539 21.491 19.5682 21.3996 19.5825 21.3069C19.5968 21.2142 19.6117 21.1203 19.6266 21.0252C19.6415 20.93 19.6565 20.833 19.672 20.7347C19.6876 20.6365 19.7031 20.5357 19.7187 20.4337C19.7348 20.3311 19.751 20.2273 19.7672 20.1203C19.784 20.014 19.8008 19.9045 19.8182 19.7932C19.8356 19.6819 19.853 19.5674 19.8717 19.4499C19.858 19.3268 19.8449 19.2073 19.8325 19.0923C19.82 18.9772 19.8076 18.8659 19.7958 18.7577C19.784 18.6495 19.7721 18.5444 19.761 18.4418C19.7498 18.3392 19.7386 18.239 19.728 18.1408C19.7174 18.0425 19.7068 17.9461 19.6963 17.851C19.6857 17.7558 19.6757 17.6619 19.6652 17.5692C19.6546 17.476 19.6447 17.3833 19.6347 17.2913C19.6248 17.1986 19.6142 17.1059 19.6042 17.0133C19.5943 16.92 19.5837 16.8261 19.5731 16.7309C19.5626 16.6358 19.552 16.5394 19.5414 16.4411C19.5308 16.3428 19.5197 16.2427 19.5085 16.1401C19.4973 16.0375 19.4854 15.9324 19.4736 15.8242C19.4618 15.716 19.4494 15.6046 19.4369 15.489C19.4245 15.3739 19.4114 15.2545 19.3978 15.1314C19.3859 15.0269 19.376 14.9317 19.3679 14.8459C19.3598 14.7601 19.3542 14.6842 19.3499 14.6171C19.3461 14.5505 19.3437 14.4927 19.3437 14.4448C19.3437 14.3397 19.3642 14.2495 19.4065 14.1749C19.4488 14.0996 19.5116 14.0399 19.5961 13.9945C19.6571 13.9622 19.7031 13.9379 19.7485 13.9131C19.7939 13.8888 19.8399 13.8646 19.9009 13.8316C19.9799 13.7893 20.0433 13.7781 20.0899 13.7974C20.1366 13.8167 20.1633 13.8857 20.1708 14.0039C20.1782 14.1208 20.1857 14.2327 20.1926 14.3409C20.1994 14.4491 20.2062 14.5536 20.2131 14.655C20.2199 14.7564 20.2261 14.8546 20.2324 14.9504C20.2386 15.0462 20.2448 15.1401 20.2504 15.2315C20.2566 15.3235 20.2622 15.4131 20.2678 15.502C20.2734 15.591 20.2796 15.6793 20.2852 15.7663C20.2908 15.8534 20.2964 15.9411 20.3026 16.0288C20.3082 16.1165 20.3138 16.2042 20.32 16.2931C20.3256 16.382 20.3319 16.4722 20.3375 16.5636C20.3437 16.6557 20.3493 16.749 20.3561 16.8447C20.3623 16.9405 20.3686 17.0388 20.3754 17.1401C20.3822 17.2415 20.3891 17.346 20.3959 17.4542C20.4028 17.5624 20.4102 17.6743 20.4177 17.7913C20.432 17.6719 20.4463 17.5568 20.46 17.4455C20.4737 17.3342 20.4867 17.226 20.4992 17.1215C20.5116 17.017 20.524 16.915 20.5365 16.8155C20.5483 16.716 20.5601 16.6196 20.5719 16.5244C20.5837 16.4293 20.5949 16.3366 20.6061 16.2446C20.6173 16.1525 20.6285 16.0617 20.6391 15.9716C20.6503 15.8814 20.6608 15.7918 20.672 15.7023C20.6826 15.6127 20.6938 15.5232 20.705 15.433C20.7162 15.3428 20.7268 15.252 20.738 15.1606C20.7492 15.0692 20.7604 14.9759 20.7722 14.8807C20.784 14.7856 20.7952 14.6892 20.8076 14.5897C20.8194 14.4908 20.8319 14.3888 20.8449 14.2843C20.858 14.1799 20.8704 14.0723 20.8841 13.9609C20.8978 13.8496 20.9115 13.7346 20.9258 13.6152C20.9357 13.5436 20.9494 13.4808 20.9656 13.428C20.9824 13.3751 21.0023 13.331 21.0253 13.2968C21.0713 13.2283 21.1378 13.1705 21.2237 13.1245C21.3163 13.0747 21.363 13.0499 21.4563 13.0007C21.5545 12.9485 21.6279 12.9354 21.6777 12.9615C21.7274 12.9877 21.7517 13.0536 21.7523 13.1581C21.7523 13.1966 21.7486 13.2526 21.7399 13.3266C21.7318 13.4 21.7193 13.4914 21.7025 13.5996C21.6839 13.7184 21.6658 13.8341 21.6478 13.9466C21.6298 14.0592 21.613 14.1687 21.5962 14.2756C21.5794 14.3826 21.5632 14.4871 21.5471 14.5897C21.5309 14.6923 21.5153 14.7918 21.4998 14.8901C21.4843 14.9883 21.4693 15.0847 21.4544 15.1799C21.4395 15.275 21.4245 15.3683 21.4102 15.461C21.3959 15.5536 21.381 15.6451 21.3673 15.7352C21.353 15.826 21.3387 15.9156 21.325 16.0052C21.3107 16.0947 21.2971 16.1836 21.2828 16.2732C21.2685 16.3621 21.2548 16.4517 21.2405 16.5412C21.2262 16.6308 21.2125 16.721 21.1982 16.8111C21.1839 16.9019 21.1696 16.9934 21.1546 17.0854C21.1397 17.1774 21.1254 17.2714 21.1105 17.3665C21.0956 17.4617 21.08 17.5581 21.0645 17.6563C21.0489 17.7546 21.0334 17.8547 21.0172 17.9573C21.001 18.0599 20.9842 18.1644 20.9674 18.2714C20.9507 18.3783 20.9332 18.4884 20.9152 18.601C20.8972 18.7136 20.8791 18.8292 20.8605 18.9486C20.8735 19.0668 20.886 19.1818 20.8984 19.2938C20.9109 19.4057 20.9227 19.5146 20.9345 19.6203C20.9463 19.7266 20.9575 19.8299 20.9687 19.9312C20.9799 20.0326 20.9911 20.1315 21.0017 20.2285C21.0122 20.3255 21.0228 20.4207 21.0334 20.5146C21.0439 20.6085 21.0539 20.7005 21.0638 20.792C21.0738 20.8834 21.0837 20.9736 21.0937 21.0631C21.1036 21.1527 21.1136 21.2416 21.1235 21.3305C21.1335 21.4195 21.1434 21.5078 21.1534 21.5967C21.1633 21.6856 21.1733 21.7746 21.1832 21.8641C21.1932 21.9537 21.2032 22.0439 21.2131 22.1353C21.2231 22.2267 21.2336 22.3187 21.2442 22.4126C21.2548 22.5066 21.2653 22.6017 21.2759 22.6987C21.2865 22.7957 21.2977 22.8946 21.3089 22.9954C21.3201 23.0967 21.3319 23.2 21.3437 23.3057C21.3555 23.4114 21.3673 23.5203 21.3798 23.6322C21.3922 23.7441 21.4053 23.8586 21.4183 23.9767C21.4277 24.0713 21.4345 24.1521 21.4389 24.2187C21.4438 24.2852 21.4457 24.3381 21.4463 24.3766C21.4463 24.4873 21.4283 24.5775 21.3903 24.6478C21.3524 24.7187 21.2828 24.7809 21.182 24.8356C21.1248 24.8667 21.0819 24.8903 21.0383 24.9133C20.9948 24.9363 20.9525 24.96 20.8947 24.9911C20.7939 25.0458 20.7243 25.0526 20.6857 25.0128C20.6664 24.9929 20.6503 24.9538 20.6366 24.8959C20.6235 24.8381 20.613 24.761 20.6055 24.6652C20.5968 24.5445 20.5881 24.4289 20.5794 24.3175C20.5713 24.2056 20.5632 24.098 20.5551 23.9929C20.547 23.8884 20.5396 23.7864 20.5321 23.6876C20.5247 23.5887 20.5178 23.4923 20.5103 23.3971C20.5035 23.3026 20.4967 23.2093 20.4898 23.1173C20.483 23.0252 20.4761 22.9344 20.4693 22.8442C20.4625 22.7541 20.4556 22.6639 20.4494 22.5731C20.4432 22.4823 20.4357 22.3915 20.4289 22.3001C20.422 22.208 20.4152 22.1154 20.4084 22.0202C20.4015 21.9257 20.3941 21.8287 20.3866 21.7298C20.3791 21.6309 20.3717 21.5289 20.3642 21.4244C20.3561 21.3193 20.3487 21.2117 20.3399 21.0998C20.3312 20.9879 20.3232 20.8722 20.3138 20.7515C20.2983 20.8728 20.2827 20.9897 20.2678 21.1035C20.2529 21.2173 20.2386 21.3274 20.2249 21.4344C20.2112 21.5414 20.1975 21.6458 20.1838 21.7472C20.1708 21.8492 20.1577 21.9481 20.1447 22.0457C20.1322 22.1434 20.1192 22.2385 20.1074 22.333C20.0949 22.4269 20.0831 22.5202 20.0707 22.6123C20.0588 22.7043 20.0464 22.7957 20.0346 22.8865C20.0228 22.9773 20.011 23.0681 19.9991 23.1596C19.9873 23.2504 19.9755 23.3418 19.9631 23.4338C19.9506 23.5259 19.9388 23.6185 19.9264 23.7131C19.9139 23.8076 19.9015 23.9027 19.8891 24.0004C19.876 24.098 19.8636 24.1975 19.8499 24.2989C19.8368 24.4009 19.8231 24.5047 19.8088 24.6123C19.7945 24.7193 19.7802 24.83 19.7653 24.9432C19.7504 25.057 19.7348 25.1739 19.7193 25.2952C19.7093 25.3785 19.6963 25.4475 19.6807 25.5035C19.6652 25.5589 19.6471 25.6005 19.626 25.6285C19.5843 25.6839 19.5165 25.7374 19.4226 25.7884C19.3623 25.8213 19.3169 25.8456 19.2715 25.8704C19.2261 25.8953 19.1807 25.9196 19.1204 25.9525C19.0402 25.9961 18.9848 26.001 18.9537 25.9681L18.9525 25.9749Z" fill="#0C0C08"/>
<path d="M21.7697 23.9892C21.7728 23.866 21.7765 23.7441 21.7796 23.6247C21.7828 23.5053 21.7865 23.3865 21.7896 23.2702C21.7927 23.1539 21.7958 23.0389 21.7989 22.9251C21.802 22.8113 21.8051 22.6993 21.8083 22.5886C21.8114 22.4779 21.8145 22.3685 21.8176 22.2603C21.8207 22.1521 21.8238 22.0451 21.8263 21.9394C21.8294 21.8336 21.8319 21.7292 21.835 21.6253C21.8381 21.5221 21.8406 21.4195 21.8437 21.3181C21.8462 21.2167 21.8493 21.116 21.8518 21.0165C21.8543 20.917 21.8574 20.8181 21.8599 20.7198C21.8624 20.6216 21.8655 20.5245 21.868 20.4275C21.8704 20.3311 21.8736 20.2347 21.876 20.1396C21.8785 20.0444 21.881 19.9493 21.8841 19.8547C21.8866 19.7602 21.8891 19.6663 21.8916 19.5724C21.8941 19.4785 21.8966 19.3852 21.899 19.2925C21.9015 19.1999 21.904 19.1066 21.9065 19.0139C21.909 18.9213 21.9115 18.8286 21.914 18.7366C21.9165 18.6439 21.9189 18.5518 21.9214 18.4592C21.9239 18.3665 21.9264 18.2745 21.9289 18.1818C21.9314 18.0891 21.9339 17.9965 21.9364 17.9032C21.9389 17.8099 21.9413 17.7166 21.9438 17.6233C21.9463 17.5301 21.9488 17.4355 21.9513 17.341C21.9538 17.2465 21.9563 17.1519 21.9594 17.0562C21.9619 16.961 21.9643 16.8646 21.9675 16.7682C21.9699 16.6718 21.9731 16.5742 21.9755 16.4765C21.978 16.3783 21.9811 16.2794 21.9836 16.1799C21.9861 16.0804 21.9892 15.9796 21.9917 15.8783C21.9942 15.7769 21.9973 15.6743 21.9998 15.5711C22.0029 15.4678 22.0054 15.3633 22.0085 15.2576C22.0116 15.1519 22.0141 15.0449 22.0172 14.9373C22.0203 14.8291 22.0234 14.7197 22.0259 14.609C22.029 14.4983 22.0321 14.3863 22.0352 14.2725C22.0384 14.1587 22.0415 14.0443 22.0446 13.9274C22.0477 13.8111 22.0508 13.6929 22.0539 13.5729C22.057 13.4528 22.0607 13.3316 22.0639 13.2084C22.067 13.089 22.08 12.9833 22.1043 12.8919C22.1285 12.8005 22.1634 12.7227 22.2081 12.6593C22.2535 12.5959 22.3095 12.5461 22.376 12.5107C22.4295 12.482 22.4569 12.4677 22.5104 12.4391C22.5757 12.4043 22.6285 12.4068 22.6683 12.446C22.6882 12.4659 22.7063 12.5026 22.7225 12.5561C22.7386 12.6095 22.7529 12.6798 22.766 12.7669C22.784 12.8882 22.8014 13.0063 22.8188 13.1207C22.8363 13.2352 22.8524 13.3471 22.8686 13.456C22.8848 13.5648 22.9009 13.6711 22.9165 13.7744C22.932 13.8782 22.947 13.9796 22.9619 14.0791C22.9768 14.1786 22.9911 14.2762 23.006 14.3726C23.0203 14.469 23.0346 14.5636 23.049 14.6569C23.0633 14.7508 23.0769 14.8428 23.0906 14.9348C23.1043 15.0269 23.118 15.1183 23.1317 15.2091C23.1453 15.2999 23.159 15.3913 23.1727 15.4821C23.1864 15.5729 23.2001 15.6643 23.2138 15.7564C23.2274 15.8484 23.2417 15.9411 23.2554 16.0344C23.2697 16.1277 23.2834 16.2228 23.2983 16.3186C23.3126 16.4144 23.3276 16.512 23.3425 16.6115C23.3574 16.711 23.373 16.8124 23.3885 16.9156C23.4041 17.0195 23.4202 17.1252 23.4364 17.234C23.4526 17.3429 23.4694 17.4542 23.4868 17.5686C23.5042 17.683 23.5216 17.8006 23.5403 17.9219C23.5527 18.0064 23.5651 18.0947 23.5776 18.1874C23.59 18.2801 23.6018 18.3771 23.6136 18.4785C23.6255 18.5798 23.6373 18.6856 23.6491 18.795C23.6609 18.9045 23.6721 19.0189 23.6833 19.1371C23.6914 19.119 23.6957 19.1103 23.7038 19.0929C23.7007 18.9766 23.6982 18.8703 23.6957 18.7732C23.6939 18.6762 23.692 18.5885 23.6908 18.5108C23.6895 18.4331 23.6889 18.3647 23.6883 18.3056C23.6883 18.2452 23.6883 18.1719 23.6895 18.0854C23.6908 17.999 23.6926 17.9001 23.6957 17.7881C23.6995 17.665 23.7026 17.5456 23.7057 17.4287C23.7088 17.3124 23.7125 17.1986 23.7156 17.0879C23.7187 16.9772 23.7219 16.869 23.725 16.7626C23.7281 16.6569 23.7312 16.553 23.7337 16.4511C23.7368 16.3491 23.7393 16.2496 23.7424 16.1513C23.7449 16.053 23.748 15.956 23.7505 15.8602C23.7529 15.7645 23.7561 15.6699 23.7585 15.576C23.761 15.4821 23.7641 15.3895 23.7666 15.2968C23.7691 15.2041 23.7716 15.1121 23.7747 15.0194C23.7772 14.9274 23.7797 14.8347 23.7828 14.7421C23.7853 14.6494 23.7878 14.5561 23.7909 14.4628C23.7934 14.3689 23.7965 14.2744 23.799 14.1786C23.8015 14.0828 23.8046 13.9864 23.8071 13.8876C23.8095 13.7893 23.8127 13.6892 23.8158 13.5878C23.8189 13.4858 23.8214 13.3826 23.8245 13.2768C23.8276 13.1711 23.8307 13.0629 23.8338 12.9522C23.8369 12.8415 23.84 12.7277 23.8431 12.6114C23.8462 12.4951 23.85 12.3751 23.8531 12.2526C23.8556 12.1332 23.8692 12.0281 23.8929 11.9366C23.9165 11.8452 23.9513 11.7681 23.9967 11.7047C24.0421 11.6412 24.0981 11.5921 24.1647 11.5567C24.2144 11.5305 24.2393 11.5169 24.2884 11.4907C24.3885 11.4379 24.4619 11.4422 24.5104 11.505C24.5589 11.5678 24.5807 11.6885 24.5764 11.867C24.5732 11.9895 24.5701 12.1108 24.567 12.2302C24.5639 12.3496 24.5608 12.4671 24.5583 12.5834C24.5552 12.6997 24.5527 12.8141 24.5496 12.9273C24.5465 13.0405 24.544 13.1525 24.5409 13.2625C24.5384 13.3726 24.5353 13.4821 24.5328 13.5897C24.5303 13.6973 24.5272 13.8036 24.5247 13.9093C24.5222 14.0144 24.5191 14.1189 24.5166 14.2221C24.5142 14.3254 24.5117 14.4274 24.5086 14.5287C24.5061 14.6301 24.5036 14.7302 24.5011 14.8291C24.4986 14.9286 24.4961 15.0269 24.4936 15.1245C24.4912 15.2222 24.4887 15.3192 24.4862 15.4156C24.4837 15.512 24.4812 15.6077 24.4787 15.7029C24.4762 15.798 24.4737 15.8926 24.4712 15.9865C24.4688 16.0804 24.4663 16.1743 24.4638 16.2676C24.4613 16.3609 24.4588 16.4542 24.4569 16.5468C24.4545 16.6395 24.452 16.7322 24.4501 16.8242C24.4476 16.9162 24.4451 17.0089 24.4433 17.1009C24.4414 17.193 24.4383 17.285 24.4364 17.3771C24.4346 17.4691 24.4314 17.5612 24.4296 17.6538C24.4271 17.7459 24.4246 17.8385 24.4227 17.9312C24.4203 18.0238 24.4178 18.1171 24.4159 18.2104C24.4134 18.3037 24.4109 18.3976 24.4084 18.4915C24.406 18.5854 24.4035 18.68 24.401 18.7751C24.3985 18.8703 24.396 18.966 24.3935 19.0624C24.391 19.1588 24.3885 19.2558 24.386 19.3535C24.3836 19.4511 24.3811 19.55 24.3786 19.6489C24.3761 19.7478 24.3736 19.8485 24.3711 19.9499C24.3686 20.0513 24.3661 20.1533 24.363 20.2565C24.3606 20.3597 24.3574 20.4642 24.355 20.5693C24.3525 20.6744 24.3494 20.7814 24.3469 20.889C24.3444 20.9966 24.3413 21.106 24.3382 21.2161C24.3351 21.3268 24.3326 21.4381 24.3295 21.5513C24.3263 21.6645 24.3239 21.7789 24.3207 21.8952C24.3176 22.0115 24.3145 22.129 24.3114 22.2485C24.3083 22.3679 24.3052 22.4891 24.3021 22.6116C24.2971 22.7323 24.2822 22.8386 24.2567 22.9307C24.2312 23.0227 24.1957 23.1011 24.1503 23.1651C24.1049 23.2292 24.049 23.279 23.9831 23.315L23.8842 23.3685C23.8145 23.4064 23.7585 23.4033 23.7169 23.3598C23.6957 23.338 23.6771 23.3013 23.6603 23.2497C23.6435 23.1981 23.6286 23.1316 23.6161 23.0501C23.5975 22.9313 23.5801 22.8156 23.5626 22.7031C23.5452 22.5905 23.5284 22.4804 23.5116 22.3735C23.4949 22.2665 23.4787 22.1614 23.4631 22.0594C23.4476 21.9574 23.432 21.8567 23.4165 21.7584C23.4016 21.6601 23.3866 21.5631 23.3717 21.468C23.3568 21.3728 23.3425 21.2789 23.3282 21.1869C23.3139 21.0942 23.2996 21.0028 23.2859 20.912C23.2722 20.8212 23.2579 20.731 23.2442 20.6415C23.2305 20.5519 23.2169 20.4623 23.2032 20.3734C23.1895 20.2839 23.1758 20.1949 23.1621 20.1054C23.1485 20.0158 23.1348 19.9256 23.1205 19.8348C23.1068 19.744 23.0925 19.6526 23.0782 19.56C23.0639 19.4673 23.0496 19.3734 23.0346 19.2782C23.0197 19.1831 23.0054 19.0861 22.9899 18.9878C22.9749 18.8895 22.9594 18.7888 22.9438 18.6862C22.9283 18.5836 22.9121 18.4791 22.8953 18.3715C22.8785 18.2639 22.8618 18.1545 22.845 18.0413C22.8276 17.9281 22.8101 17.8124 22.7915 17.6936C22.779 17.6171 22.7672 17.5332 22.7554 17.4411C22.7442 17.3491 22.733 17.249 22.7231 17.1414C22.7131 17.0338 22.7044 16.9424 22.6976 16.8671C22.6907 16.7919 22.6851 16.7334 22.6814 16.6911C22.669 16.7178 22.6627 16.7309 22.6509 16.757C22.6547 16.8435 22.659 16.9436 22.6627 17.0574C22.6646 17.1146 22.6665 17.1762 22.6677 17.2434C22.669 17.3105 22.6696 17.3827 22.6702 17.4598C22.6702 17.5095 22.6702 17.5692 22.6683 17.6389C22.6665 17.7085 22.6646 17.7888 22.6621 17.8789C22.659 17.999 22.6553 18.1159 22.6522 18.2303C22.6491 18.3448 22.646 18.4561 22.6428 18.5649C22.6397 18.6737 22.6366 18.7801 22.6341 18.8846C22.631 18.989 22.6285 19.091 22.6254 19.1912C22.6223 19.2913 22.6198 19.3896 22.6173 19.4866C22.6149 19.5836 22.6118 19.6787 22.6093 19.7733C22.6068 19.8678 22.6037 19.9605 22.6012 20.0531C22.5987 20.1452 22.5962 20.2366 22.5937 20.3274C22.5912 20.4182 22.5887 20.509 22.5863 20.5992C22.5838 20.6893 22.5813 20.7795 22.5788 20.8697C22.5763 20.9599 22.5738 21.05 22.5713 21.1415C22.5688 21.2329 22.5664 21.3237 22.5632 21.4163C22.5608 21.5084 22.5583 21.6017 22.5552 21.6962C22.552 21.7907 22.5496 21.8859 22.5471 21.9829C22.5446 22.0799 22.5415 22.1782 22.539 22.2783C22.5359 22.3784 22.5334 22.4804 22.5303 22.5849C22.5272 22.6894 22.5241 22.7957 22.521 22.9046C22.5178 23.0134 22.5147 23.1247 22.5116 23.2392C22.5085 23.3536 22.5048 23.4705 22.5017 23.5905C22.4986 23.7099 22.4849 23.8157 22.4606 23.9077C22.4358 23.9997 22.4003 24.0781 22.3537 24.1428C22.307 24.2075 22.2498 24.2578 22.1814 24.2951C22.1316 24.3225 22.1061 24.3356 22.0564 24.3629C21.988 24.4002 21.932 24.4108 21.8879 24.3953C21.8437 24.3797 21.8126 24.3381 21.7933 24.2696C21.774 24.2012 21.7672 24.1067 21.7722 23.9861L21.7697 23.9892Z" fill="#0C0C08"/>
</svg>
